<svg width="394" height="387" viewBox="0 0 394 387" fill="none" xmlns="http://www.w3.org/2000/svg">
<path d="M98.6814 301.272C152.982 326.69 241.018 326.698 295.319 301.272C349.62 275.846 349.612 234.638 295.319 209.22C241.026 183.802 152.982 183.802 98.6814 209.22C44.3803 234.638 44.3882 275.854 98.6814 301.272Z" fill="#F5F5F5"/>
<path d="M295.13 282.487C305.131 282.487 313.238 278.692 313.238 274.011C313.238 269.331 305.131 265.536 295.13 265.536C285.129 265.536 277.021 269.331 277.021 274.011C277.021 278.692 285.129 282.487 295.13 282.487Z" fill="#EBEBEB"/>
<path d="M94.5601 275.227L100.967 271.597C104.543 268.729 107.266 264.967 108.847 260.706C110.824 255.35 110.549 251.279 109.13 249.236C107.389 246.72 102.873 247.161 102.692 252.456C102.314 262.889 99.2171 270.126 94.5601 275.227Z" fill="#22DB4B"/>
<path opacity="0.2" d="M94.5601 275.227L100.967 271.597C104.543 268.729 107.266 264.967 108.847 260.706C110.824 255.35 110.549 251.279 109.13 249.236C107.389 246.72 102.873 247.161 102.692 252.456C102.314 262.889 99.2171 270.126 94.5601 275.227Z" fill="black"/>
<path d="M94.5598 275.614C94.4764 275.613 94.3954 275.586 94.3286 275.537C94.2618 275.488 94.2126 275.419 94.1881 275.341C94.1635 275.262 94.165 275.178 94.1921 275.101C94.2193 275.023 94.2708 274.956 94.3392 274.909C109.154 264.847 106.285 250.815 106.254 250.675C106.243 250.625 106.242 250.572 106.252 250.521C106.262 250.47 106.282 250.421 106.311 250.378C106.34 250.334 106.377 250.297 106.421 250.268C106.464 250.238 106.513 250.218 106.565 250.207C106.617 250.197 106.67 250.196 106.722 250.206C106.774 250.215 106.824 250.235 106.868 250.263C106.912 250.291 106.95 250.328 106.98 250.371C107.01 250.414 107.031 250.462 107.042 250.513C107.042 250.66 110.068 265.172 94.812 275.544C94.738 275.594 94.6494 275.618 94.5598 275.614Z" fill="white"/>
<path d="M81.7234 282.51C81.7234 282.51 79.4934 280.73 80.0292 278.315C80.5651 275.9 82.0071 274.166 79.5407 271.055C77.0742 267.943 76.3887 263.795 79.3358 261.55C81.5816 259.809 85.0882 262.27 86.349 257.68C87.2788 254.321 86.9636 246.883 91.3213 244.406C95.6789 241.929 98.4133 245.66 97.7277 250.706C97.1288 255.219 96.2778 259.561 96.9397 260.768C98.2163 263.09 100.399 262.773 100.297 267.015C100.21 270.962 96.4039 274.228 96.4039 274.228L81.7234 282.51Z" fill="#22DB4B"/>
<path d="M89.044 278.725C88.9477 278.724 88.8549 278.689 88.7826 278.627C88.7103 278.564 88.6632 278.478 88.65 278.385C87.5232 269.213 90.226 253.377 92.4324 248.671C92.451 248.618 92.4807 248.571 92.5197 248.531C92.5586 248.491 92.6058 248.46 92.658 248.439C92.7103 248.419 92.7664 248.409 92.8227 248.412C92.8789 248.414 92.9339 248.429 92.984 248.454C93.0311 248.475 93.0734 248.505 93.1085 248.542C93.1436 248.579 93.1707 248.623 93.1884 248.67C93.206 248.718 93.2137 248.768 93.2111 248.819C93.2085 248.87 93.1956 248.919 93.1731 248.965C90.9904 253.609 88.3821 269.491 89.4617 278.261C89.4727 278.362 89.4425 278.464 89.3776 278.544C89.3126 278.623 89.2182 278.675 89.1149 278.686L89.044 278.725Z" fill="white"/>
<path d="M88.8312 271.581C88.7709 271.584 88.711 271.571 88.6579 271.542C85.9235 270.234 84.1899 265.567 84.119 265.35C84.0997 265.302 84.0904 265.251 84.0917 265.199C84.093 265.147 84.1048 265.096 84.1265 265.049C84.1482 265.002 84.1792 264.96 84.2179 264.925C84.2566 264.889 84.302 264.862 84.3515 264.845C84.4011 264.827 84.4537 264.819 84.5063 264.822C84.5589 264.825 84.6104 264.838 84.6578 264.86C84.7052 264.883 84.7475 264.915 84.7821 264.954C84.8168 264.993 84.8432 265.038 84.8597 265.087C84.8597 265.134 86.5539 269.654 89.0046 270.823C89.085 270.861 89.1497 270.925 89.1883 271.004C89.2268 271.083 89.2368 271.173 89.2167 271.258C89.1965 271.344 89.1474 271.42 89.0774 271.474C89.0073 271.529 88.9205 271.558 88.8312 271.558V271.581Z" fill="white"/>
<path d="M88.784 274.677C88.705 274.677 88.6279 274.654 88.5631 274.609C88.4983 274.565 88.4489 274.502 88.4215 274.43C88.3823 274.335 88.3826 274.229 88.4225 274.135C88.4623 274.041 88.5384 273.966 88.6342 273.926C93.2362 272.115 96.1045 266.736 96.136 266.674C96.1841 266.583 96.2671 266.514 96.3669 266.483C96.4666 266.451 96.5749 266.46 96.6679 266.508C96.7609 266.555 96.831 266.636 96.8628 266.734C96.8945 266.832 96.8854 266.939 96.8373 267.03C96.7112 267.262 93.8035 272.727 88.9573 274.646C88.9033 274.671 88.8435 274.682 88.784 274.677Z" fill="white"/>
<path d="M249.638 233.036C249.638 233.036 246.195 227.556 245.856 221.604C245.517 215.652 246.849 213.175 248.677 212.463C250.505 211.751 250.647 213.941 251.585 215.234C252.523 216.527 254.437 215.791 255.147 211.759C255.856 207.726 258.44 200.923 263.815 199.599C269.725 198.16 266.557 204.971 265.068 207.626C263.578 210.28 262.428 213.903 263.405 214.886C264.382 215.869 265.903 214.05 267.345 215.737C269.102 217.773 263.641 225.102 260.505 226.875L249.638 233.036Z" fill="#22DB4B"/>
<path d="M254.359 230.737C254.307 230.735 254.256 230.723 254.209 230.702C254.162 230.681 254.12 230.65 254.084 230.613C254.049 230.576 254.022 230.532 254.004 230.484C253.986 230.436 253.978 230.386 253.98 230.335C254.514 220.76 257.554 211.483 262.806 203.4C262.836 203.357 262.874 203.322 262.918 203.295C262.962 203.267 263.012 203.249 263.063 203.241C263.115 203.233 263.167 203.236 263.218 203.248C263.269 203.261 263.316 203.283 263.358 203.314C263.44 203.375 263.495 203.464 263.512 203.564C263.528 203.664 263.504 203.766 263.444 203.849C258.286 211.813 255.301 220.948 254.776 230.374C254.773 230.424 254.76 230.474 254.737 230.52C254.715 230.566 254.683 230.607 254.644 230.641C254.605 230.674 254.56 230.7 254.511 230.717C254.462 230.733 254.41 230.74 254.359 230.737Z" fill="white"/>
<path d="M254.808 226.163C254.742 226.162 254.677 226.146 254.618 226.116C252.412 224.917 251.191 221.356 251.143 221.209C251.126 221.161 251.119 221.11 251.121 221.059C251.124 221.008 251.138 220.957 251.16 220.911C251.183 220.865 251.215 220.824 251.254 220.79C251.293 220.756 251.338 220.73 251.388 220.714C251.487 220.682 251.595 220.69 251.688 220.737C251.781 220.783 251.852 220.864 251.884 220.962C251.884 220.962 253.066 224.39 255.036 225.435C255.125 225.487 255.191 225.571 255.219 225.669C255.247 225.767 255.235 225.872 255.186 225.962C255.15 226.028 255.095 226.083 255.028 226.119C254.961 226.155 254.884 226.17 254.808 226.163Z" fill="white"/>
<path d="M255.194 223.818C255.106 223.817 255.022 223.787 254.953 223.734C254.885 223.681 254.836 223.607 254.815 223.524C254.803 223.475 254.8 223.424 254.807 223.374C254.814 223.324 254.832 223.276 254.858 223.233C254.884 223.19 254.919 223.152 254.961 223.122C255.002 223.092 255.049 223.071 255.099 223.059C260.788 221.643 262.758 218.717 262.774 218.686C262.802 218.643 262.839 218.606 262.881 218.576C262.924 218.547 262.972 218.526 263.023 218.515C263.074 218.504 263.126 218.502 263.178 218.511C263.229 218.52 263.278 218.539 263.322 218.566C263.366 218.594 263.404 218.629 263.434 218.671C263.464 218.713 263.485 218.76 263.496 218.81C263.508 218.86 263.509 218.912 263.5 218.962C263.491 219.013 263.472 219.061 263.444 219.104C263.357 219.236 261.309 222.308 255.296 223.81L255.194 223.818Z" fill="white"/>
<path d="M163.904 221.008C163.904 221.008 156.347 219.197 155.953 205.296C155.535 190.296 157.805 172.788 148.861 171.371C139.917 169.955 134.953 180.659 135.063 193.159C135.166 204.104 139.657 227.866 163.872 232.525L163.904 221.008Z" fill="#22DB4B"/>
<path opacity="0.2" d="M163.904 221.008C163.904 221.008 156.347 219.197 155.953 205.296C155.535 190.296 157.805 172.788 148.861 171.371C139.917 169.955 134.953 180.659 135.063 193.159C135.166 204.104 139.657 227.866 163.872 232.525L163.904 221.008Z" fill="black"/>
<path d="M163.904 231.101H163.833C158.388 230.126 153.951 227.177 150.65 222.347C140.863 208.005 143.944 181.224 144.96 176.549C144.983 176.45 145.044 176.363 145.131 176.306C145.218 176.25 145.323 176.229 145.425 176.247C145.527 176.272 145.616 176.333 145.673 176.42C145.73 176.506 145.752 176.611 145.733 176.712C144.732 181.356 141.667 207.796 151.304 221.913C152.707 224.103 154.557 225.982 156.739 227.432C158.92 228.881 161.384 229.87 163.975 230.335C164.026 230.344 164.075 230.363 164.119 230.391C164.163 230.419 164.2 230.456 164.23 230.498C164.259 230.541 164.28 230.588 164.29 230.639C164.3 230.689 164.3 230.741 164.29 230.791C164.273 230.879 164.225 230.959 164.155 231.015C164.084 231.072 163.995 231.102 163.904 231.101Z" fill="white"/>
<path d="M163.904 266.775C156.095 267.812 143.416 267.796 136.096 262.131C128.775 256.465 130.304 251.589 133.117 249.553C135.93 247.517 138.373 245.195 133.535 240.675C128.696 236.155 120.927 228.895 118.405 218.005C115.883 207.115 117.128 200.303 122.077 198.036C126.876 195.838 128.145 199.336 131.084 206.55C134.023 213.763 140.634 207.579 146.292 209.831C151.95 212.084 151.722 216.542 152.076 220.373C152.431 224.205 154.298 225.265 157.505 225.265C160.713 225.265 163.904 227.076 163.904 230.683V266.775Z" fill="#22DB4B"/>
<path d="M163.904 254.127C163.87 254.135 163.835 254.135 163.801 254.127C163.463 254.034 155.386 251.728 143.621 241.116C131.092 229.816 125.182 212.865 125.118 212.695C125.088 212.598 125.098 212.492 125.145 212.401C125.192 212.311 125.273 212.241 125.371 212.208C125.469 212.175 125.576 212.183 125.669 212.227C125.762 212.272 125.833 212.351 125.867 212.447C125.922 212.618 131.777 229.383 144.157 240.544C155.756 251.016 163.927 253.361 164.014 253.384C164.064 253.399 164.11 253.422 164.151 253.454C164.191 253.486 164.224 253.525 164.249 253.57C164.274 253.614 164.29 253.663 164.296 253.714C164.301 253.764 164.297 253.815 164.282 253.864C164.257 253.942 164.206 254.01 164.138 254.058C164.069 254.105 163.987 254.13 163.904 254.127Z" fill="white"/>
<path d="M146.907 243.81C146.827 243.811 146.75 243.788 146.685 243.743C146.62 243.699 146.571 243.636 146.544 243.562C144.015 237.184 143.439 223.539 143.392 222.958C143.39 222.856 143.428 222.757 143.499 222.682C143.569 222.607 143.667 222.562 143.77 222.556C143.873 222.557 143.972 222.596 144.048 222.665C144.123 222.733 144.17 222.827 144.18 222.927C144.18 223.067 144.771 237.022 147.253 243.284C147.272 243.331 147.282 243.382 147.28 243.434C147.279 243.485 147.267 243.535 147.246 243.582C147.225 243.629 147.194 243.671 147.156 243.706C147.118 243.741 147.074 243.769 147.025 243.787C146.987 243.8 146.947 243.808 146.907 243.81Z" fill="white"/>
<path d="M146.844 252.982C146.117 252.987 145.391 252.951 144.669 252.873C144.617 252.867 144.567 252.851 144.522 252.826C144.476 252.801 144.436 252.768 144.404 252.727C144.372 252.687 144.348 252.641 144.334 252.592C144.32 252.542 144.316 252.491 144.322 252.44C144.328 252.389 144.345 252.34 144.37 252.296C144.396 252.251 144.43 252.212 144.471 252.18C144.512 252.148 144.559 252.125 144.609 252.111C144.659 252.097 144.712 252.093 144.763 252.099C144.834 252.099 152.171 252.92 155.535 249.553C155.57 249.512 155.614 249.479 155.662 249.456C155.711 249.432 155.764 249.419 155.818 249.416C155.873 249.414 155.927 249.422 155.978 249.441C156.028 249.461 156.074 249.49 156.113 249.527C156.152 249.565 156.182 249.61 156.202 249.659C156.222 249.709 156.232 249.762 156.23 249.815C156.228 249.868 156.216 249.921 156.192 249.969C156.169 250.017 156.136 250.06 156.095 250.095C153.66 252.564 149.413 252.982 146.844 252.982Z" fill="white"/>
<path d="M141.17 106.417L140.319 101.595L135.938 104.428C135.538 103.654 134.97 102.975 134.275 102.439L136.371 96.866L132.431 96.0068L129.547 101.425C128.504 101.598 127.492 101.921 126.545 102.385L125.292 98.2979L120.611 101.912L120.919 106.711C119.965 107.76 119.101 108.883 118.334 110.07L114.473 109.877L111.762 115.844L115.08 117.238C114.733 118.472 114.514 119.737 114.426 121.015L110.21 124.823L111.053 129.653L115.442 126.82C115.84 127.593 116.408 128.27 117.105 128.801L115.048 134.382L118.988 135.233L123.117 131.286C124.071 131.139 123.834 129.374 124.874 128.871L126.127 132.942L130.8 129.335L130.682 127.447C131.628 126.41 135.205 124.126 135.977 122.934L136.947 121.386L139.657 115.419L138.396 113.174L136.994 110.248L141.17 106.417ZM126.868 122.292C123.275 125.063 122.14 125.674 121.533 121.967C120.927 118.259 122.983 112.625 126.576 109.846C130.17 107.067 131.541 106.874 132.187 110.574C132.833 114.273 130.469 119.552 126.868 122.292Z" fill="#E0E0E0"/>
<path d="M132.463 96.0068L137.577 98.9016L134.693 104.304L129.579 101.409L132.463 96.0068Z" fill="#F5F5F5"/>
<path d="M145.433 104.49L141.052 107.323L135.938 104.428L140.319 101.595L145.433 104.49Z" fill="#F5F5F5"/>
<path d="M144.732 118.29L141.414 116.905L136.3 114.01L139.618 115.396L144.732 118.29Z" fill="#E0E0E0"/>
<path d="M115.04 134.382L120.154 137.269L122.25 131.696L117.136 128.801L115.04 134.382Z" fill="#E0E0E0"/>
<path d="M131.194 135.837L126.088 132.942L124.835 128.871L129.949 131.766L131.194 135.837Z" fill="#E0E0E0"/>
<path d="M146.277 109.312L145.433 104.49L141.052 107.323C140.649 106.548 140.079 105.87 139.382 105.334L141.478 99.7608L137.577 98.9016L134.685 104.32C133.642 104.493 132.63 104.816 131.683 105.279L130.438 101.208L125.757 104.823L126.064 109.622C125.11 110.678 124.246 111.809 123.48 113.004L119.611 112.81L116.9 118.778L120.217 120.171C119.874 121.409 119.655 122.676 119.563 123.956L115.355 127.71L116.199 132.54L120.58 129.707C120.983 130.479 121.553 131.155 122.25 131.688L120.154 137.261L124.094 138.12L126.978 132.702C128.026 132.531 129.041 132.205 129.989 131.735L131.234 135.806L135.914 132.199L135.607 127.4C136.56 126.352 137.425 125.228 138.192 124.041L142.061 124.227L144.772 118.259L141.407 116.874C141.756 115.637 141.977 114.369 142.069 113.089L146.277 109.312ZM131.99 125.218C128.405 127.989 124.969 127.238 124.315 123.538C123.661 119.838 126.049 114.583 129.642 111.812C133.235 109.041 136.663 109.8 137.317 113.499C137.971 117.199 135.583 122.447 131.99 125.218Z" fill="#EBEBEB"/>
<path d="M130.438 101.193L125.324 98.2979L120.643 101.912L125.757 104.807L130.438 101.193Z" fill="#F5F5F5"/>
<path d="M120.643 101.913L120.95 106.711L126.064 109.606L125.757 104.807L120.643 101.913Z" fill="#E0E0E0"/>
<path d="M123.48 112.965L118.366 110.071L114.504 109.885L119.611 112.78L123.48 112.965Z" fill="#F5F5F5"/>
<path d="M114.504 109.885L111.794 115.845L116.9 118.739L119.611 112.78L114.504 109.885Z" fill="#E0E0E0"/>
<path d="M119.563 123.91L114.457 121.015L110.241 124.823L115.347 127.718L119.563 123.91Z" fill="#F5F5F5"/>
<path d="M116.199 132.548L111.084 129.653L110.241 124.823L115.347 127.718L116.199 132.548Z" fill="#E0E0E0"/>
<path d="M137.577 98.9016L132.463 96.0068L136.371 96.866L141.478 99.7607L137.577 98.9016Z" fill="#F5F5F5"/>
<path d="M118.271 84.5285V77.3225L112.432 79.9077C112.123 78.6851 111.588 77.5283 110.856 76.4944L114.536 69.211L110.044 66.6646L105.458 73.4371C104.18 73.3274 102.892 73.4507 101.66 73.8008L101.014 67.5392L94.6625 71.146L94.0242 78.112C92.6419 79.3151 91.3709 80.636 90.226 82.0594L85.6399 80.5114L81.1483 88.1585L84.8204 91.2545C84.1418 92.9399 83.6145 94.6803 83.2444 96.4558L77.4053 100.488V107.702L83.2444 105.117C83.5536 106.339 84.0877 107.496 84.8204 108.53L81.164 115.821L85.6556 118.368L90.2418 111.595C91.5198 111.705 92.8075 111.581 94.0399 111.231L94.6782 117.493L101.03 113.886L101.676 106.92C103.658 106.21 105.414 104.998 106.766 103.406L110.06 104.544L114.552 96.9047L111.794 94.5827C112.392 92.6465 112.614 90.6167 112.448 88.5997L118.271 84.5285ZM97.8381 102.532C92.9683 105.295 89.9581 103.306 89.9581 97.8026C89.9581 92.2994 93.9848 85.496 98.8625 82.7328C103.74 79.9696 106.687 81.9588 106.687 87.5084C106.687 93.058 102.716 99.7608 97.8381 102.532Z" fill="#E0E0E0"/>
<path d="M115.15 69.5516L110.044 66.6646L105.458 73.4371L110.564 76.3318L115.15 69.5516Z" fill="#F5F5F5"/>
<path d="M123.385 80.2173L118.271 77.3225L112.432 79.9077L117.546 82.8024L123.385 80.2173Z" fill="#F5F5F5"/>
<path d="M99.7687 120.388L94.6624 117.493L94.0242 111.231L99.1304 114.126L99.7687 120.388Z" fill="#E0E0E0"/>
<path d="M81.1404 115.821L86.2545 118.716L89.9345 111.433L84.8203 108.538L81.1404 115.821Z" fill="#E0E0E0"/>
<path d="M123.385 87.462V80.2561L117.546 82.818C117.24 81.5943 116.705 80.437 115.97 79.4047L119.65 72.1213L115.158 69.5671L110.572 76.3474C109.294 76.2339 108.006 76.3573 106.774 76.7112L106.128 70.434L99.7765 74.0409L99.1303 81.0069C97.7501 82.2119 96.4792 83.5327 95.3322 84.9543L90.746 83.4063L86.2544 91.0534L89.9344 94.1494C89.2523 95.8335 88.7248 97.5742 88.3584 99.3507L82.5193 103.383V110.597L88.3584 108.012C88.6642 109.235 89.1986 110.393 89.9344 111.425L86.2544 118.708L90.746 121.255L95.3322 114.482C96.6102 114.592 97.8979 114.469 99.1303 114.119L99.7765 120.38L106.128 116.773L106.766 109.807C108.148 108.604 109.419 107.283 110.564 105.86L115.15 107.408L119.642 99.7686L115.962 96.6726C116.644 94.9884 117.171 93.2477 117.538 91.4713L123.385 87.462ZM102.952 105.465C98.0744 108.228 94.1186 105.984 94.1186 100.457C94.1186 94.9311 98.0586 88.2051 102.952 85.4341C107.846 82.6632 111.778 84.9156 111.778 90.4419C111.778 95.9683 107.822 102.656 102.952 105.427V105.465Z" fill="#EBEBEB"/>
<path d="M90.2261 82.0748L95.3323 84.9696L90.7461 83.3983L85.6399 80.4958L90.2261 82.0748Z" fill="#F0F0F0"/>
<path d="M85.6393 80.5039L81.1465 88.1536L86.2589 91.0504L90.7517 83.4007L85.6393 80.5039Z" fill="#F5F5F5"/>
<path d="M81.1404 88.1431L86.2545 91.0378L89.9345 94.1493L84.8203 91.2623L81.1404 88.1431Z" fill="#E0E0E0"/>
<path d="M83.2444 96.4636L88.3585 99.3584L82.5194 103.391L77.4053 100.496L83.2444 96.4636Z" fill="#F5F5F5"/>
<path d="M77.4053 100.496L82.5194 103.391V110.605L77.4053 107.71V100.496Z" fill="#E0E0E0"/>
<path d="M106.128 70.4338L101.014 67.5391L94.6624 71.1459L99.7686 74.0407L106.128 70.4338Z" fill="#F5F5F5"/>
<path d="M171.689 277.131L245.761 235.118C245.925 235.062 246.066 234.957 246.166 234.818C246.266 234.68 246.32 234.514 246.32 234.344C246.32 234.174 246.266 234.008 246.166 233.87C246.066 233.731 245.925 233.626 245.761 233.57L238.914 229.7C238.489 229.49 238.021 229.381 237.546 229.381C237.072 229.381 236.603 229.49 236.179 229.7L162.084 271.674C161.92 271.73 161.779 271.835 161.679 271.974C161.579 272.112 161.525 272.278 161.525 272.448C161.525 272.618 161.579 272.784 161.679 272.922C161.779 273.061 161.92 273.166 162.084 273.222L168.955 277.092C169.376 277.308 169.843 277.423 170.318 277.43C170.792 277.437 171.262 277.334 171.689 277.131Z" fill="#E0E0E0"/>
<path d="M243.728 72.9107L176.937 110.79C175.945 111.427 175.118 112.284 174.525 113.292C173.933 114.301 173.59 115.432 173.525 116.595V272.223C173.525 274.36 175.054 275.227 176.937 274.158L243.728 236.279C244.722 235.644 245.55 234.787 246.143 233.778C246.736 232.769 247.078 231.637 247.14 230.474V74.8457C247.14 72.7094 245.619 71.8425 243.728 72.9107Z" fill="#455A64"/>
<path d="M176.937 110.79L243.728 72.9107C245.415 71.951 246.809 72.5469 247.093 74.211C246.936 73.1648 246.554 72.1631 245.974 71.272C245.394 70.3809 244.629 69.6204 243.728 69.0407L240.955 67.4927C239.897 66.9658 238.728 66.6912 237.543 66.6912C236.357 66.6912 235.188 66.9658 234.13 67.4927L167.332 105.341C166.326 105.961 165.496 106.821 164.92 107.841L174.526 113.259C175.102 112.247 175.932 111.397 176.937 110.79Z" fill="#37474F"/>
<path d="M163.904 266.775C163.968 267.937 164.311 269.069 164.904 270.077C165.497 271.086 166.323 271.943 167.316 272.58L170.097 274.128C171.06 274.601 172.114 274.869 173.189 274.914C174.265 274.959 175.338 274.781 176.338 274.391C174.762 274.994 173.51 274.104 173.51 272.193V116.595C173.549 115.428 173.894 114.289 174.51 113.29L164.905 107.872C164.297 108.864 163.952 109.99 163.904 111.146V266.775Z" fill="#263238"/>
<path d="M178.773 131.526L241.916 95.7284C243.051 95.0937 243.965 95.6123 243.965 96.8894V212.076C243.927 212.774 243.721 213.454 243.365 214.059C243.009 214.664 242.513 215.178 241.916 215.559L178.797 251.357C177.662 251.999 176.748 251.48 176.748 250.196V135.009C176.784 134.313 176.986 133.635 177.338 133.03C177.69 132.425 178.181 131.91 178.773 131.526Z" fill="white"/>
<path d="M210.333 97.7484C209.984 97.9731 209.694 98.2751 209.486 98.63C209.278 98.9849 209.158 99.3828 209.135 99.7918C209.135 100.566 209.671 100.852 210.333 100.473C210.683 100.25 210.974 99.9479 211.182 99.5927C211.39 99.2375 211.51 98.8389 211.531 98.4295C211.531 97.6787 210.995 97.3769 210.333 97.7484Z" fill="#37474F"/>
<path d="M210.333 238.965C208.955 239.85 207.81 241.041 206.988 242.443C206.167 243.844 205.693 245.415 205.605 247.03C205.605 249.994 207.725 251.202 210.333 249.716C211.71 248.83 212.856 247.638 213.677 246.237C214.498 244.836 214.972 243.265 215.061 241.651C215.077 238.686 212.949 237.479 210.333 238.965Z" fill="#37474F"/>
<path d="M198.994 109.73C198.301 110.181 197.726 110.787 197.316 111.496C196.905 112.206 196.67 113.001 196.63 113.817C196.63 115.318 197.701 115.93 198.994 115.179C199.693 114.732 200.276 114.128 200.694 113.418C201.111 112.708 201.352 111.911 201.397 111.092C201.397 109.591 200.325 108.979 198.994 109.73Z" fill="#37474F"/>
<path d="M204.88 109.219C204.88 110.225 205.668 110.605 206.59 110.071L222.35 101.115C222.838 100.816 223.247 100.407 223.544 99.9233C223.842 99.4391 224.018 98.8928 224.06 98.329C224.06 97.3305 223.272 96.9512 222.35 97.4853L206.59 106.44C206.103 106.739 205.694 107.146 205.397 107.629C205.1 108.112 204.923 108.657 204.88 109.219Z" fill="#37474F"/>
<path d="M169.231 136.51C169.79 136.868 170.255 137.35 170.59 137.918C170.924 138.485 171.117 139.122 171.153 139.777C171.153 140.984 170.295 141.472 169.231 140.868C168.673 140.509 168.21 140.026 167.877 139.459C167.545 138.891 167.352 138.255 167.316 137.602C167.316 136.402 168.175 135.914 169.231 136.51Z" fill="#37474F"/>
<path d="M169.231 151.046C169.79 151.404 170.255 151.886 170.59 152.454C170.924 153.021 171.117 153.658 171.153 154.312C171.153 155.512 170.295 156 169.231 155.404C168.673 155.045 168.21 154.562 167.877 153.995C167.545 153.427 167.352 152.791 167.316 152.137C167.316 150.93 168.175 150.442 169.231 151.046Z" fill="#37474F"/>
<path d="M168.632 136.804C169.191 137.162 169.657 137.644 169.991 138.212C170.325 138.779 170.518 139.416 170.555 140.071C170.555 141.27 169.696 141.758 168.632 141.162C168.073 140.804 167.607 140.322 167.273 139.755C166.939 139.187 166.746 138.55 166.709 137.896C166.717 136.688 167.576 136.224 168.632 136.804Z" fill="#455A64"/>
<path d="M168.632 151.332C169.192 151.691 169.658 152.174 169.992 152.743C170.327 153.312 170.519 153.95 170.555 154.606C170.555 155.806 169.696 156.294 168.632 155.69C168.071 155.334 167.605 154.852 167.271 154.284C166.936 153.716 166.744 153.079 166.709 152.424C166.717 151.224 167.576 150.736 168.632 151.332Z" fill="#455A64"/>
<path d="M256.746 100.535C256.746 99.2499 255.832 98.7313 254.697 99.3738L247.14 103.654L191.579 135.171C190.982 135.552 190.485 136.066 190.129 136.671C189.773 137.277 189.568 137.956 189.53 138.654V253.81C189.53 255.095 190.444 255.613 191.579 254.971L247.164 223.446L254.697 219.173C255.294 218.793 255.791 218.279 256.147 217.673C256.503 217.068 256.708 216.389 256.746 215.69V100.535Z" fill="white"/>
<path d="M257.534 100.535C257.584 100.147 257.516 99.7527 257.338 99.4023C257.161 99.0519 256.883 98.7607 256.538 98.5649C256.193 98.3691 255.797 98.2775 255.4 98.3016C255.002 98.3257 254.621 98.4644 254.303 98.7004L247.093 102.795L191.184 134.529C190.465 134.975 189.866 135.587 189.441 136.311C189.015 137.035 188.775 137.85 188.742 138.685V253.81C188.71 254.196 188.786 254.584 188.96 254.932C189.135 255.279 189.403 255.574 189.735 255.784C190.017 255.945 190.338 256.028 190.664 256.024C191.126 256.009 191.577 255.879 191.972 255.644L247.92 223.91L255.115 219.831C255.831 219.381 256.426 218.768 256.851 218.045C257.276 217.322 257.518 216.509 257.558 215.675L257.534 100.535ZM247.109 222.587L246.463 222.958L191.216 254.29C191.123 254.36 191.016 254.409 190.901 254.433C190.787 254.457 190.668 254.456 190.554 254.429C190.452 254.367 190.349 254.151 190.349 253.794V138.654C190.39 138.092 190.56 137.547 190.847 137.059C191.133 136.571 191.529 136.153 192.004 135.837L247.195 104.49L255.075 100.008C255.168 99.9383 255.276 99.8895 255.39 99.8654C255.505 99.8413 255.623 99.8425 255.737 99.8691C255.84 99.931 255.942 100.148 255.942 100.504V215.69C255.901 216.252 255.731 216.798 255.445 217.286C255.158 217.774 254.762 218.192 254.287 218.508L247.093 222.587H247.109Z" fill="#22DB4B"/>
<path d="M223.138 127.292C230.23 123.283 235.943 126.518 235.943 134.56C235.943 142.602 230.206 152.362 223.138 156.34C216.069 160.319 210.333 157.114 210.333 149.08C210.333 141.046 216.069 131.309 223.138 127.292Z" fill="#22DB4B"/>
<path d="M223.138 133.608C225.431 132.308 227.291 133.36 227.291 135.93C227.213 137.345 226.796 138.723 226.075 139.951C225.353 141.179 224.347 142.222 223.138 142.996C220.845 144.297 218.985 143.244 218.985 140.674C219.063 139.259 219.48 137.881 220.201 136.653C220.923 135.426 221.929 134.382 223.138 133.608Z" fill="#22DB4B"/>
<path d="M231.231 147.478C231.231 143.205 228.181 141.472 224.407 143.608L222.043 144.947C218.276 147.083 215.219 152.285 215.219 156.557V157.71C217.401 158.415 220.144 158.035 223.099 156.34C226.372 154.357 229.14 151.664 231.191 148.469L231.231 147.478Z" fill="#22DB4B"/>
<path opacity="0.7" d="M223.138 133.608C225.431 132.308 227.291 133.36 227.291 135.93C227.213 137.345 226.796 138.723 226.075 139.951C225.353 141.179 224.347 142.222 223.138 142.996C220.845 144.297 218.985 143.244 218.985 140.674C219.063 139.259 219.48 137.881 220.201 136.653C220.923 135.426 221.929 134.382 223.138 133.608Z" fill="white"/>
<path opacity="0.7" d="M231.231 147.478C231.231 143.205 228.181 141.472 224.407 143.608L222.043 144.947C218.276 147.083 215.219 152.285 215.219 156.557V157.71C217.401 158.415 220.144 158.035 223.099 156.34C226.372 154.357 229.14 151.664 231.191 148.469L231.231 147.478Z" fill="white"/>
<path d="M198.363 174.026L214.84 164.684C215.628 164.258 216.204 164.599 216.204 165.458V165.992C216.179 166.457 216.042 166.91 215.805 167.313C215.568 167.717 215.238 168.06 214.84 168.314L198.363 177.656C197.615 178.082 197 177.733 197 176.882V176.348C197.026 175.883 197.162 175.43 197.399 175.027C197.636 174.624 197.966 174.281 198.363 174.026Z" fill="#22DB4B"/>
<path opacity="0.1" d="M198.363 174.026L214.84 164.684C215.628 164.258 216.204 164.599 216.204 165.458V165.992C216.179 166.457 216.042 166.91 215.805 167.313C215.568 167.717 215.238 168.06 214.84 168.314L198.363 177.656C197.615 178.082 197 177.733 197 176.882V176.348C197.026 175.883 197.162 175.43 197.399 175.027C197.636 174.624 197.966 174.281 198.363 174.026Z" fill="black"/>
<path d="M197.686 185.303L247.534 157.037C247.905 156.82 248.212 156.99 248.212 157.424V163.136C248.198 163.368 248.13 163.593 248.012 163.795C247.895 163.996 247.731 164.168 247.534 164.297L197.686 192.563C197.307 192.78 197 192.602 197 192.176V186.464C197.014 186.232 197.083 186.005 197.202 185.803C197.321 185.602 197.487 185.43 197.686 185.303Z" fill="#22DB4B"/>
<path opacity="0.2" d="M197.686 185.303L247.534 157.037C247.905 156.82 248.212 156.99 248.212 157.424V163.136C248.198 163.368 248.13 163.593 248.012 163.795C247.895 163.996 247.731 164.168 247.534 164.297L197.686 192.563C197.307 192.78 197 192.602 197 192.176V186.464C197.014 186.232 197.083 186.005 197.202 185.803C197.321 185.602 197.487 185.43 197.686 185.303Z" fill="white"/>
<path d="M198.363 199.436L214.84 190.094C215.628 189.669 216.204 190.017 216.204 190.868V191.402C216.179 191.868 216.043 192.321 215.806 192.724C215.569 193.128 215.238 193.471 214.84 193.724L198.363 203.067C197.615 203.5 197 203.152 197 202.293V201.758C197.027 201.294 197.164 200.842 197.401 200.438C197.638 200.035 197.967 199.692 198.363 199.436Z" fill="#22DB4B"/>
<path opacity="0.1" d="M198.363 199.436L214.84 190.094C215.628 189.669 216.204 190.017 216.204 190.868V191.402C216.179 191.868 216.043 192.321 215.806 192.724C215.569 193.128 215.238 193.471 214.84 193.724L198.363 203.067C197.615 203.5 197 203.152 197 202.293V201.758C197.027 201.294 197.164 200.842 197.401 200.438C197.638 200.035 197.967 199.692 198.363 199.436Z" fill="black"/>
<path d="M197.686 210.714L247.534 182.447C247.905 182.231 248.212 182.409 248.212 182.834V188.546C248.198 188.778 248.13 189.004 248.012 189.205C247.895 189.407 247.731 189.579 247.534 189.707L197.686 217.974C197.307 218.191 197 218.02 197 217.587V211.875C197.014 211.642 197.083 211.416 197.202 211.214C197.321 211.012 197.487 210.841 197.686 210.714Z" fill="#22DB4B"/>
<path opacity="0.2" d="M197.686 210.714L247.534 182.447C247.905 182.231 248.212 182.409 248.212 182.834V188.546C248.198 188.778 248.13 189.004 248.012 189.205C247.895 189.407 247.731 189.579 247.534 189.707L197.686 217.974C197.307 218.191 197 218.02 197 217.587V211.875C197.014 211.642 197.083 211.416 197.202 211.214C197.321 211.012 197.487 210.841 197.686 210.714Z" fill="white"/>
<path d="M217.567 213.957L237.267 202.803C238.055 202.37 238.638 202.718 238.638 203.577V209.553C238.612 210.019 238.474 210.472 238.236 210.875C237.998 211.279 237.665 211.621 237.267 211.875L217.567 223.036C216.779 223.461 216.203 223.113 216.203 222.262V216.279C216.231 215.814 216.368 215.362 216.605 214.959C216.842 214.556 217.171 214.213 217.567 213.957Z" fill="#22DB4B"/>
<path opacity="0.1" d="M217.567 213.957L237.267 202.803C238.055 202.37 238.638 202.718 238.638 203.577V209.553C238.612 210.019 238.474 210.472 238.236 210.875C237.998 211.279 237.665 211.621 237.267 211.875L217.567 223.036C216.779 223.461 216.203 223.113 216.203 222.262V216.279C216.231 215.814 216.368 215.362 216.605 214.959C216.842 214.556 217.171 214.213 217.567 213.957Z" fill="black"/>
<path d="M264.216 188.74C264.216 188.74 254.54 175.628 253.972 174.034C253.523 172.857 253.972 171.108 254.114 170.295C254.256 169.483 254.382 167.672 254.524 167.199C254.76 166.317 253.602 166.495 252.948 167.3C252.294 168.105 252.073 169.715 251.734 169.978C251.396 170.241 248.819 166.549 247.471 164.847C246.124 163.144 245.281 162.107 244.453 162.741C243.862 163.198 244.304 164.189 245.281 165.644C245.851 166.427 246.378 167.241 246.857 168.082C247.006 168.399 246.203 168.422 245.769 169.08C245.43 169.591 245.769 170.419 245.297 170.814C245.006 171.032 244.806 171.347 244.736 171.699C244.667 172.052 244.731 172.417 244.918 172.726C245.795 174.079 246.927 175.256 248.252 176.193C249.701 177.176 250.285 177.525 251.143 178.864C252.002 180.203 259.709 193.879 260.229 194.7C260.749 195.52 261.75 197.192 263.271 197.238C264.792 197.285 277.242 186.758 277.88 186.232C279.929 184.553 280.583 184.313 280.93 185.822C281.05 186.358 281.139 186.901 281.198 187.447C281.442 189.367 282.774 196.224 282.774 196.224C282.774 196.224 289.078 199.22 294.255 197.772C299.432 196.325 301.181 194.166 301.181 194.166L298.589 190.017C299.29 188.306 302.529 181.371 303.577 176.518L287.344 173.941C287.013 173.871 286.477 173.74 285.768 173.562C284.878 173.33 282.616 172.563 280.906 174.034C275.327 178.809 264.232 188.74 264.232 188.74" fill="#FFA8A7"/>
<path d="M296.398 269.19L293.49 273.16C294.812 273.766 296.256 274.07 297.714 274.05C300.322 274.143 301.04 273.276 301.134 273.106C301.575 272.177 300.89 270.505 300.701 269.066L296.398 269.19Z" fill="#37474F"/>
<path d="M293.656 271.256C293.656 271.256 290.126 271.031 287.691 270.737C285.256 270.443 283.325 271.604 283.893 272.587C284.46 273.57 285.808 274.391 287.904 275.079C289.692 275.675 291.844 276.101 293.703 276.627C295.563 277.154 296.855 277.843 297.935 277.471C299.141 277.061 299.661 276.589 299.558 275.722C299.295 274.489 298.969 273.27 298.581 272.069L293.656 271.256Z" fill="#37474F"/>
<path d="M301.134 265.203C301.134 265.203 300.693 268.81 300.661 269.584C300.63 270.358 297.076 270.606 296.398 269.189L296.288 264.778L301.134 265.203Z" fill="#F28F8F"/>
<path d="M297.557 267.417L298.825 272.897C298.825 272.897 298.943 273.563 296.044 273.988C293.144 274.414 288.589 272.494 287.809 272.107C287.029 271.72 286.942 270.939 289.795 271.093C292.647 271.248 293.656 271.256 293.656 271.256L292.726 268.833L297.557 267.417Z" fill="#FFA8A7"/>
<path d="M303.53 176.472L305.539 175.922C305.539 175.922 309.739 188.98 310.204 190.241C310.669 191.503 311.197 192.834 310.291 194.39C309.211 196.24 303.53 203.678 303.53 203.678L299.921 200.21L304.018 192.842L300.393 185.644L303.53 176.472Z" fill="#F28F8F"/>
<path d="M282.892 159.514C282.421 158.645 282.182 157.673 282.197 156.689C282.212 155.705 282.481 154.741 282.979 153.887C284.98 150.241 289.44 148.469 294.751 149.142C297.21 149.459 300.11 151.464 301.694 154.459C303.443 157.78 303.609 164.467 304.058 166.998L282.892 159.514Z" fill="#37474F"/>
<path d="M282.75 160.946C282.75 160.946 281.489 163.306 281.71 163.523C282.037 163.71 282.394 163.841 282.766 163.91L282.75 160.946Z" fill="#FFA8A7"/>
<path d="M286.58 153.484C285.209 154.359 282.845 155.969 282.742 161.271C282.632 166.689 283.42 168.477 284.24 169.104C284.791 169.529 288.03 169.313 289.417 168.995C290.804 168.678 294.799 166.735 296.241 163.786C297.935 160.319 297.588 155.272 295.075 153.724C293.795 152.981 292.344 152.569 290.859 152.527C289.373 152.485 287.901 152.815 286.58 153.484Z" fill="#FFA8A7"/>
<path d="M301.134 194.135C303.561 197.85 305.862 201.101 306.366 205.296C307.407 214.112 304.002 224.189 303.27 230.714C304.648 232.57 305.442 234.782 305.555 237.076C305.555 239.778 301.134 265.203 301.134 265.203C301.134 265.203 297.919 266.163 296.288 264.778L293.254 218.005L294.83 212.308L301.134 194.135Z" fill="#22DB4B"/>
<path opacity="0.2" d="M301.134 194.135C303.561 197.85 305.862 201.101 306.366 205.296C307.407 214.112 304.002 224.189 303.27 230.714C304.648 232.57 305.442 234.782 305.555 237.076C305.555 239.778 301.134 265.203 301.134 265.203C301.134 265.203 297.919 266.163 296.288 264.778L293.254 218.005L294.83 212.308L301.134 194.135Z" fill="black"/>
<path d="M293.254 218.005L294.83 212.308C297.848 211.528 300.758 210.392 303.498 208.926C303.498 208.926 301.859 211.859 297.147 213.469L294.712 220.783L294.507 237.541L293.254 218.005Z" fill="#22DB4B"/>
<path opacity="0.3" d="M293.254 218.005L294.83 212.308C297.848 211.528 300.758 210.392 303.498 208.926C303.498 208.926 301.859 211.859 297.147 213.469L294.712 220.783L294.507 237.541L293.254 218.005Z" fill="black"/>
<path d="M301.134 194.135C302.434 196.225 305.539 199.785 304.877 203.214C304.089 207.362 301.804 210.28 294.854 212.308L288.329 235.528C288.329 235.528 291.725 238.624 292.766 241.62C293.806 244.615 297.557 267.433 297.557 267.433C297.557 267.433 296.39 269.298 292.726 268.849C292.726 268.849 279.953 240.211 279.054 238.346C277.964 236.457 277.582 234.252 277.975 232.115C278.377 229.112 282.703 196.24 282.703 196.24L301.134 194.135Z" fill="#22DB4B"/>
<path opacity="0.2" d="M301.134 194.135C302.434 196.225 305.539 199.785 304.877 203.214C304.089 207.362 301.804 210.28 294.854 212.308L288.329 235.528C288.329 235.528 291.725 238.624 292.766 241.62C293.806 244.615 297.557 267.433 297.557 267.433C297.557 267.433 296.39 269.298 292.726 268.849C292.726 268.849 279.953 240.211 279.054 238.346C277.964 236.457 277.582 234.252 277.975 232.115C278.377 229.112 282.703 196.24 282.703 196.24L301.134 194.135Z" fill="black"/>
<path d="M303.53 176.472L287.297 173.895C286.966 173.825 286.43 173.693 285.721 173.515C285.721 173.515 285.027 183.515 280.859 185.807C280.961 186.286 281.048 186.82 281.127 187.432C281.371 189.351 282.703 196.209 282.703 196.209C282.703 196.209 289.007 199.204 294.184 197.757C299.361 196.31 301.11 194.15 301.11 194.15L298.518 190.002C299.243 188.276 302.505 181.341 303.53 176.472Z" fill="#22DB4B"/>
<path opacity="0.7" d="M303.53 176.472L287.297 173.895C286.966 173.825 286.43 173.693 285.721 173.515C285.721 173.515 285.027 183.515 280.859 185.807C280.961 186.286 281.048 186.82 281.127 187.432C281.371 189.351 282.703 196.209 282.703 196.209C282.703 196.209 289.007 199.204 294.184 197.757C299.361 196.31 301.11 194.15 301.11 194.15L298.518 190.002C299.243 188.276 302.505 181.341 303.53 176.472Z" fill="white"/>
<path d="M299.251 188.353C297.095 189.624 294.837 190.719 292.498 191.627C294.621 191.585 296.699 191.021 298.542 189.986L299.251 188.353Z" fill="#22DB4B"/>
<path d="M286.178 153.747C286.178 153.747 285.39 158.778 287.25 161.735C287.25 161.735 287.943 159.73 289.669 160.11C291.395 160.489 291.489 162.726 290.276 163.98C289.967 164.331 289.564 164.591 289.112 164.727C288.661 164.864 288.179 164.873 287.722 164.754C287.722 164.754 287.447 168.391 287.297 171.441C287.147 174.491 286.328 181.139 289.819 183.825C293.309 186.511 302.072 187.455 306.177 181.82C308.463 178.686 305.429 173.144 304.018 166.929C302.718 161.216 301.985 152.749 295.815 151.387C289.645 150.024 286.178 153.747 286.178 153.747Z" fill="#37474F"/>
<path d="M308.817 85.0083L307.517 85.7823C307.626 85.3279 307.687 84.8636 307.698 84.3969C307.698 81.804 305.846 80.7591 303.561 82.0749C302.866 82.4869 302.245 83.0101 301.725 83.6229C301.725 80.1399 299.235 78.7234 296.162 80.4649C294.542 81.5023 293.195 82.9 292.228 84.5447C291.262 86.1894 290.703 88.0347 290.599 89.931C290.599 90.109 290.599 90.2793 290.599 90.4496C289.807 90.3517 289.006 90.5327 288.337 90.9604C287.133 91.7311 286.131 92.7698 285.412 93.9923C284.693 95.2147 284.278 96.5864 284.2 97.996C284.2 98.3237 284.234 98.6506 284.303 98.9713L283.609 99.366C281.726 100.434 280.197 102.516 280.197 104.01C280.197 105.504 281.726 105.86 283.609 104.784L308.825 90.5037C310.708 89.4356 312.237 87.3536 312.237 85.8597C312.237 84.3659 310.701 83.9325 308.817 85.0083Z" fill="#EBEBEB"/>
</svg>
