<svg width="46" height="44" viewBox="0 0 46 44" fill="none" xmlns="http://www.w3.org/2000/svg">
<g clip-path="url(#clip0_244_268)">
<path d="M40.8942 25.872C39.7902 24.86 39.1922 23.452 39.1922 22C39.1922 20.548 39.7902 19.184 40.8942 18.128C41.0782 17.952 41.2621 17.82 41.4921 17.644C41.8141 17.424 41.9062 17.028 41.8142 16.676C41.4462 15.4 40.8941 14.168 40.2502 13.024C40.0662 12.716 39.6982 12.54 39.3302 12.584C39.0082 12.628 38.7782 12.628 38.5482 12.628C35.3742 12.628 32.7982 10.164 32.7982 7.172C32.7982 6.952 32.7982 6.688 32.8442 6.424C32.8902 6.072 32.7062 5.72 32.3842 5.544C31.1882 4.928 29.9002 4.4 28.5662 4.048C28.1982 3.96 27.7842 4.092 27.5542 4.356C27.3702 4.576 27.1862 4.796 27.0482 4.928C25.9442 5.94 24.5182 6.512 23.0002 6.512C21.4822 6.512 20.0102 5.94 18.9522 4.928C18.7682 4.752 18.6302 4.576 18.4462 4.356C18.2162 4.048 17.8022 3.96 17.4342 4.048C16.1002 4.444 14.8122 4.928 13.6162 5.544C13.2942 5.72 13.1102 6.072 13.1562 6.424C13.2022 6.732 13.2022 6.952 13.2022 7.172C13.2022 10.208 10.6262 12.628 7.45216 12.628C7.22216 12.628 6.94616 12.628 6.67016 12.584C6.30216 12.54 5.93416 12.716 5.75016 13.024C5.10616 14.168 4.55416 15.4 4.18616 16.676C4.09416 17.028 4.18616 17.424 4.50816 17.644C4.78416 17.82 4.96816 17.996 5.10616 18.128C7.36016 20.24 7.36016 23.716 5.10616 25.872C4.92216 26.048 4.73816 26.18 4.50816 26.356C4.18616 26.576 4.09416 26.972 4.18616 27.324C4.60016 28.6 5.10616 29.832 5.75016 30.976C5.93416 31.284 6.30216 31.46 6.67016 31.416C6.99216 31.372 7.22216 31.372 7.45216 31.372C10.6262 31.372 13.2022 33.836 13.2022 36.828C13.2022 37.048 13.2022 37.312 13.1562 37.576C13.1102 37.928 13.2942 38.28 13.6162 38.456C14.8122 39.072 16.1002 39.6 17.4342 39.952C17.8022 40.04 18.2162 39.952 18.4462 39.644C18.6302 39.424 18.8142 39.204 18.9522 39.072C20.0562 38.06 21.4822 37.488 23.0002 37.488C24.5182 37.488 25.9902 38.06 27.0482 39.072C27.2322 39.248 27.3702 39.424 27.5542 39.644C27.7382 39.864 28.0142 39.996 28.2902 39.996C28.3822 39.996 28.4742 39.996 28.5662 39.952C29.9002 39.556 31.1882 39.072 32.3842 38.456C32.7062 38.28 32.8902 37.928 32.8442 37.576C32.7982 37.268 32.7982 37.048 32.7982 36.828C32.7982 33.792 35.3742 31.372 38.5482 31.372C38.7782 31.372 39.0541 31.372 39.3302 31.416C39.6982 31.46 40.0662 31.284 40.2502 30.976C40.8941 29.832 41.4462 28.6 41.8142 27.324C41.9062 26.972 41.8141 26.576 41.4921 26.356C41.2621 26.18 41.0322 26.048 40.8942 25.872ZM38.9161 29.612H38.5022C34.3162 29.612 30.9122 32.868 30.9122 36.828V37.224C30.1762 37.576 29.3942 37.884 28.5662 38.148L28.2902 37.884C26.8642 36.52 24.9782 35.772 22.9542 35.772C20.9302 35.772 19.0442 36.52 17.6182 37.884L17.3422 38.148C16.5602 37.884 15.7782 37.576 14.9962 37.224V36.828C14.9962 32.824 11.5922 29.612 7.40616 29.612H6.99216C6.62416 28.908 6.30216 28.16 6.02616 27.368L6.30216 27.104C9.24616 24.288 9.24616 19.712 6.30216 16.852L6.02616 16.588C6.30216 15.84 6.62416 15.092 6.99216 14.344H7.40616C11.5922 14.344 14.9962 11.088 14.9962 7.128V6.732C15.7322 6.38 16.5142 6.072 17.3422 5.808L17.6182 6.072C19.0442 7.436 20.9302 8.184 22.9542 8.184C24.9782 8.184 26.8642 7.436 28.2902 6.072L28.5662 5.808C29.3482 6.072 30.1302 6.38 30.9122 6.732V7.128C30.9122 11.132 34.3162 14.344 38.5022 14.344H38.9161C39.2841 15.048 39.6062 15.796 39.8821 16.588L39.6062 16.852C38.1801 18.216 37.3982 20.02 37.3982 21.956C37.3982 23.892 38.1801 25.696 39.6062 27.06L39.8821 27.324C39.6062 28.16 39.2841 28.908 38.9161 29.612ZM23.0002 11.528C16.9742 11.528 12.0522 16.236 12.0522 22C12.0522 27.764 16.9742 32.472 23.0002 32.472C29.0262 32.472 33.9482 27.764 33.9482 22C33.9482 16.236 29.0262 11.528 23.0002 11.528ZM23.0002 30.712C17.9862 30.712 13.8922 26.796 13.8922 22C13.8922 17.204 17.9862 13.288 23.0002 13.288C28.0142 13.288 32.1082 17.204 32.1082 22C32.1082 26.796 28.0142 30.712 23.0002 30.712Z" fill="#CECECE"/>
<path d="M756.24 -347.6V393.36H-64.4001V-347.6H756.24ZM759.92 -351.12H-68.0801V396.88H759.92V-351.12Z" fill="white"/>
</g>
<defs>
<clipPath id="clip0_244_268">
<rect width="46" height="44" fill="white"/>
</clipPath>
</defs>
</svg>
