<svg width="319" height="358" viewBox="0 0 319 358" fill="none" xmlns="http://www.w3.org/2000/svg">
<path d="M159.5 347.294C245.373 347.294 314.987 309.003 314.987 261.767C314.987 214.532 245.373 176.24 159.5 176.24C73.6268 176.24 4.01294 214.532 4.01294 261.767C4.01294 309.003 73.6268 347.294 159.5 347.294Z" fill="#F5F5F5"/>
<path d="M179.929 243.555C206.296 243.555 227.67 230.983 227.67 215.475C227.67 199.966 206.296 187.395 179.929 187.395C153.562 187.395 132.187 199.966 132.187 215.475C132.187 230.983 153.562 243.555 179.929 243.555Z" fill="#E0E0E0"/>
<path d="M242.121 260.409C263.122 260.409 280.146 250.395 280.146 238.043C280.146 225.69 263.122 215.676 242.121 215.676C221.12 215.676 204.096 225.69 204.096 238.043C204.096 250.395 221.12 260.409 242.121 260.409Z" fill="#E0E0E0"/>
<path d="M94.1751 289.061C120.542 289.061 141.917 276.489 141.917 260.981C141.917 245.473 120.542 232.901 94.1751 232.901C67.8082 232.901 46.4336 245.473 46.4336 260.981C46.4336 276.489 67.8082 289.061 94.1751 289.061Z" fill="#E0E0E0"/>
<path d="M156.361 305.916C177.362 305.916 194.386 295.902 194.386 283.549C194.386 271.196 177.362 261.183 156.361 261.183C135.36 261.183 118.336 271.196 118.336 283.549C118.336 295.902 135.36 305.916 156.361 305.916Z" fill="#E0E0E0"/>
<path d="M54.7914 316.231C61.3277 316.231 66.6263 313.114 66.6263 309.27C66.6263 305.425 61.3277 302.308 54.7914 302.308C48.2552 302.308 42.9565 305.425 42.9565 309.27C42.9565 313.114 48.2552 316.231 54.7914 316.231Z" fill="#E0E0E0"/>
<path d="M282.104 230.372C288.641 230.372 293.939 227.256 293.939 223.411C293.939 219.566 288.641 216.449 282.104 216.449C275.568 216.449 270.27 219.566 270.27 223.411C270.27 227.256 275.568 230.372 282.104 230.372Z" fill="#E0E0E0"/>
<path d="M28.084 225.998C28.084 225.998 23.4955 225.036 19.7565 219.245C16.7653 214.597 16.9089 211.295 17.4114 211.042C17.9139 210.788 19.8044 212.153 23.2263 217.288C24.6442 219.42 28.084 225.998 28.084 225.998Z" fill="#00FFE0"/>
<path d="M36.2081 232.985C35.7475 232.686 32.0863 228.624 29.5078 223.294C28.1319 220.447 28.2037 218.562 28.8617 218.503C29.2446 218.464 31.141 219.855 33.2229 224.178C35.3048 228.5 36.6688 233.291 36.2081 232.985Z" fill="#00FFE0"/>
<path d="M31.4283 229.339C31.0095 228.942 29.2208 228.344 26.1279 227.928C24.04 227.642 21.6231 227.135 21.3838 227.844C21.1445 228.552 23.3161 230.288 25.739 230.626C28.1619 230.964 31.8411 229.742 31.4283 229.339Z" fill="#00FFE0"/>
<path d="M39.5762 235.501C39.0558 235.104 35.3885 234.851 33.6776 234.747C31.9666 234.643 30.0103 234.896 29.5377 235.702C29.0651 236.508 31.1111 237.711 33.9767 237.652C36.8423 237.594 40.0967 235.897 39.5762 235.501Z" fill="#00FFE0"/>
<path d="M43.6684 237.477C43.1598 237.444 41.1737 234.812 39.4807 232.128C37.7876 229.443 36.4117 225.823 37.4825 225.673C38.5534 225.524 40.1088 227.155 41.6104 230.171C43.2855 233.506 44.1769 237.516 43.6684 237.477Z" fill="#00FFE0"/>
<path d="M47.5868 239.479C47.3774 239.206 44.7751 239.778 42.059 240.129C39.343 240.48 38.2183 240.649 38.0568 241.526C37.8953 242.404 39.4208 243.561 42.3761 242.826C45.3314 242.092 47.7962 239.745 47.5868 239.479Z" fill="#00FFE0"/>
<path d="M18.8291 214.168C20.9572 217.869 23.4441 221.312 26.2473 224.438C29.0325 227.592 32.0784 230.462 35.3466 233.012C38.59 235.644 42.1719 237.744 45.9774 239.245C49.8061 240.636 53.9819 241.312 57.9422 240.376C57.9532 240.372 57.9627 240.364 57.9692 240.353C57.9756 240.343 57.9788 240.33 57.9781 240.318C57.9753 240.307 57.9688 240.297 57.96 240.291C57.9511 240.285 57.9405 240.283 57.9303 240.285C53.9604 240.589 49.9782 239.923 46.2765 238.335C42.5671 236.818 39.0383 234.823 35.7654 232.394C32.4738 229.935 29.3924 227.159 26.5584 224.1C23.6856 221.078 21.1203 217.728 18.9069 214.11C18.8984 214.102 18.8879 214.098 18.877 214.098C18.8661 214.098 18.8556 214.102 18.8471 214.11C18.8379 214.115 18.8309 214.124 18.8276 214.135C18.8243 214.146 18.8248 214.158 18.8291 214.168Z" fill="#E0E0E0"/>
<path d="M26.8278 212.127C25.9843 204.931 23.5076 203.495 21.8026 200.966C19.6489 197.775 19.5532 195.324 19.5532 195.324C18.9549 197.417 18.7874 203.209 21.5035 206.335C23.8007 208.961 25.8108 209.364 26.8278 212.127Z" fill="#E0E0E0"/>
<path d="M23.681 194.096C26.2235 190.514 26.8995 186.296 25.2304 182.285C24.244 180.09 23.7811 177.66 23.8844 175.22C19.0625 183.637 21.9162 191.496 23.681 194.096Z" fill="#E0E0E0"/>
<path d="M50.7815 239.147C51.3811 239.76 52.1275 240.177 52.9352 240.35C53.0189 240.22 52.8694 240.064 52.7437 239.986C51.1105 238.972 47.7305 234.896 47.3895 234.37C46.193 232.537 44.3444 229.508 43.9735 228.845C43.7701 224.431 44.9666 219.855 42.8428 215.773C42.7591 215.624 42.5138 215.572 42.5377 215.812C42.6514 217.06 42.1728 218.412 42.101 219.673C42.0592 220.427 42.0592 221.182 42.101 221.935C42.2314 223.506 42.7849 225.001 43.6923 226.232C43.6923 226.921 43.6923 227.61 43.6923 228.299C43.1958 227.389 42.7292 226.466 42.2625 225.543C40.8208 222.663 39.4448 219.745 38.1765 216.768C38.2417 216.097 38.2657 215.421 38.2483 214.746C38.2692 214.091 38.2109 213.435 38.0748 212.796C39.1337 212.075 39.4089 210.586 39.4568 209.195C40.4618 206.049 40.3661 202.416 41.9933 199.549C42.459 198.88 42.8847 198.179 43.2676 197.45C44.0119 196.022 44.4916 194.45 44.6794 192.822C44.7489 191.955 44.7268 191.083 44.6136 190.222C44.5717 189.884 44.5179 189.572 44.482 189.221C44.4243 188.911 44.3962 188.595 44.3983 188.278C44.3983 188.096 44.5 187.804 44.3085 187.726C44.2487 187.661 44.1649 187.622 44.1051 187.726C43.9666 187.869 43.8386 188.023 43.7222 188.187C43.6026 188.389 43.5129 188.603 43.3812 188.785C43.1314 189.2 42.9114 189.634 42.7232 190.085C42.3403 190.885 41.9335 191.658 41.5985 192.49C41.3771 193.036 41.1558 193.589 41.0002 194.154C40.8491 194.665 40.7684 195.197 40.7609 195.734C40.7609 196.033 40.7609 196.312 40.7609 196.611C40.7609 197.021 40.8088 197.424 40.8387 197.833C40.8926 198.483 40.9584 199.172 40.9943 199.835C40.9943 199.991 40.9943 200.147 40.9943 200.303C40.9766 200.448 40.9766 200.594 40.9943 200.739C40.7565 201.442 40.5685 202.163 40.4319 202.897C40.0909 204.444 39.72 206.036 39.4328 207.629C39.3192 205.133 38.7329 202.682 38.3141 200.232C38.3141 200.095 38.0748 199.926 37.9971 200.115C36.304 204.223 36.0348 208.305 37.7578 212.413C37.9073 213.291 37.9615 214.186 37.9193 215.078C37.9193 215.37 37.8714 215.682 37.8535 215.994C36.5823 213.091 35.4853 210.101 34.5691 207.044C34.3418 206.251 34.1324 205.445 33.929 204.652C33.9462 204.631 33.9558 204.605 33.9558 204.577C33.9558 204.549 33.9462 204.523 33.929 204.502L33.8632 204.431L33.265 202.123C33.3383 201.739 33.4322 201.359 33.5461 200.986C33.9395 199.837 34.3868 198.711 34.8862 197.612C35.4756 196.053 35.7979 194.39 35.8374 192.705C35.8374 192.328 35.8374 191.944 35.8374 191.561C35.8374 191.32 35.8374 191.073 35.8374 190.826C35.8624 190.436 35.8484 190.044 35.7955 189.656C35.7178 189.234 35.4426 189.578 35.3289 189.786C35.0417 190.352 34.8144 190.956 34.5751 191.548C34.3358 192.139 34.0666 192.536 33.8572 193.062C33.7914 193.218 33.7196 193.368 33.6478 193.517C33.6007 193.644 33.5362 193.763 33.4564 193.868C33.4026 193.816 33.3906 193.654 33.3726 193.576C33.3248 193.387 33.2709 193.205 33.2351 193.017C33.1863 192.773 33.1182 192.533 33.0316 192.302C32.9479 192.107 32.906 191.899 32.8402 191.697C32.7832 191.543 32.7089 191.397 32.6189 191.262C32.4429 190.881 32.3084 190.48 32.218 190.066C31.9265 189.076 31.7733 188.044 31.7634 187.004C31.7634 186.861 31.7634 186.718 31.7634 186.575C31.7634 186.432 31.548 186.146 31.4583 186.38C30.9218 187.838 30.5735 189.369 30.4233 190.93C30.287 191.848 30.2489 192.779 30.3096 193.706C30.3375 194.09 30.3834 194.471 30.4472 194.85C30.5259 195.254 30.6237 195.653 30.7404 196.046C31.1352 197.398 31.889 198.314 32.3855 199.588C32.4633 200.238 32.565 200.888 32.6906 201.538C32.4435 201.193 32.1536 200.887 31.8292 200.628C31.3104 200.256 30.7493 199.959 30.1601 199.744C29.2025 199.326 28.2962 198.78 27.462 198.119C27.4419 198.102 27.417 198.093 27.3913 198.093C27.3657 198.093 27.3407 198.102 27.3206 198.119C27.3005 198.137 27.2864 198.161 27.2806 198.188C27.2747 198.215 27.2775 198.244 27.2885 198.269C27.6235 199.614 28.0483 201.012 29.0474 201.974C30.3037 203.196 31.9249 203.566 33.3667 204.405C33.6239 205.38 33.9051 206.355 34.1504 207.284C34.605 209 35.1375 210.69 35.7297 212.354C34.2237 210.617 32.2284 209.474 30.0584 209.104C29.8669 209.104 29.9447 209.325 30.0584 209.39C31.8112 210.248 32.23 213.134 33.5701 214.59C33.992 215.042 34.479 215.415 35.0118 215.695C35.7447 216.047 36.5172 216.292 37.3091 216.423C37.4467 216.761 37.5783 217.073 37.7219 217.431C39.1756 220.863 40.7968 224.204 42.4719 227.499C42.8428 228.214 44.5837 231.334 44.9845 231.958C46.7852 234.688 48.3287 237.041 50.7815 239.147ZM32.4932 191.697C32.8019 192.385 33.004 193.123 33.0915 193.881C33.1135 194.363 33.0813 194.845 32.9958 195.318C32.9384 195.686 32.8625 196.051 32.7684 196.41C32.7107 196.593 32.6647 196.779 32.6308 196.969C32.6308 197.183 32.571 197.404 32.5291 197.619C32.4768 197.85 32.4388 198.084 32.4155 198.321C32.3734 198.561 32.3734 198.808 32.4155 199.049C32.1719 198.394 31.8922 197.756 31.5779 197.138C31.4214 196.822 31.2816 196.496 31.1591 196.163C31.0329 195.861 30.925 195.551 30.8361 195.233C30.7608 194.951 30.7087 194.661 30.6806 194.369C30.6806 194.135 30.6447 193.907 30.6267 193.68C30.6058 193.334 30.6058 192.986 30.6267 192.64C30.6865 191.756 30.8421 190.904 30.9797 190.04C31.1142 189.218 31.2879 188.405 31.5001 187.602C31.529 188.386 31.6455 189.163 31.8471 189.916C32.0248 190.527 32.2407 191.125 32.4932 191.704V191.697ZM35.0776 195.422C34.8233 196.443 34.5116 197.446 34.1444 198.425C33.9769 198.906 33.7735 199.374 33.6 199.855C33.5108 200.132 33.435 200.414 33.3726 200.7C33.2743 200.953 33.2215 201.225 33.2171 201.499C32.9679 200.46 32.8511 199.388 32.8701 198.314C32.8701 198.113 32.8701 197.911 32.9 197.71C32.9401 197.348 33.0041 196.989 33.0915 196.637C33.3616 195.658 33.6832 194.697 34.0546 193.758C34.1743 193.407 34.3059 193.062 34.4435 192.718C34.7007 192.068 34.9999 191.418 35.2571 190.807C35.293 190.716 35.3827 190.378 35.4785 190.332C35.5742 190.287 35.5921 190.651 35.5981 190.735C35.5981 191.262 35.5443 191.795 35.5383 192.321C35.5383 192.536 35.5383 192.744 35.5383 192.971C35.5383 193.426 35.4246 193.881 35.3588 194.336C35.3244 194.556 35.2784 194.773 35.2212 194.986C35.2212 195.051 35.2212 195.116 35.1793 195.181L35.0776 195.422ZM33.2829 203.872C32.6796 203.529 32.0561 203.229 31.4164 202.975C30.0823 202.325 28.1141 201.064 27.9227 199.276C27.815 198.256 28.1021 199.023 28.6405 199.361C29.0722 199.612 29.5201 199.83 29.9806 200.011C31.1173 200.492 32.2659 201.103 32.8881 202.24C32.9898 202.754 33.1274 203.3 33.265 203.852L33.2829 203.872ZM41.3532 199.939C41.3532 199.894 41.3532 199.738 41.3532 199.679C41.3532 199.621 41.3532 199.491 41.3532 199.393C41.3532 199.296 41.3532 199.016 41.3113 198.828C41.2754 198.451 41.2336 198.067 41.1917 197.69C41.1453 197.041 41.1453 196.389 41.1917 195.74C41.3053 193.504 42.3882 191.502 43.3872 189.604C43.465 189.448 43.7103 188.954 43.8957 188.863C44.0812 188.772 44.1889 190.274 44.2068 190.449C44.2966 191.623 44.2483 192.805 44.0632 193.966C43.936 194.831 43.7005 195.673 43.3633 196.468C43.0433 197.268 42.642 198.027 42.1668 198.73C42.0053 198.971 41.8677 199.172 41.7301 199.38C41.5821 199.545 41.4498 199.726 41.3353 199.92L41.3532 199.939ZM38.0449 212.4C37.4467 210.391 36.7527 208.675 36.8484 206.465C36.9481 204.533 37.3698 202.637 38.0928 200.869C38.5594 203.235 39.4089 206.387 39.1935 209.078C39.1935 209.215 39.1517 209.358 39.1337 209.494C39.0302 210.555 38.6528 211.562 38.0449 212.4ZM35.299 215.312C34.2191 214.746 33.3208 213.84 32.7206 212.712C32.2659 211.925 31.9488 211.035 31.4284 210.287C31.4284 210.287 30.8959 209.741 30.6506 209.475C31.1053 209.793 32.5949 210.346 32.8582 210.489C34.2032 211.198 35.3617 212.264 36.2263 213.589C36.5194 214.376 36.8245 215.169 37.1416 215.942C36.5166 215.769 35.9014 215.556 35.299 215.305V215.312ZM43.6744 225.77C42.9085 224.475 42.4672 222.985 42.3941 221.448C42.3743 220.33 42.4443 219.212 42.6035 218.107C42.6873 217.587 42.8129 217.073 42.8548 216.547C44.141 219.446 43.806 222.618 43.6804 225.764L43.6744 225.77Z" fill="#E0E0E0"/>
<path d="M287.087 185.893C287.087 185.893 290.922 183 292.184 176.058C293.189 170.488 291.825 167.537 291.275 167.524C290.724 167.511 289.48 169.604 288.284 175.792C287.781 178.366 287.087 185.893 287.087 185.893Z" fill="#00FFE0"/>
<path d="M282.241 195.858C282.553 195.377 284.389 190.053 284.76 184.041C284.957 180.843 284.162 179.146 283.564 179.38C283.199 179.517 281.984 181.623 281.691 186.491C281.398 191.36 281.954 196.332 282.241 195.858Z" fill="#00FFE0"/>
<path d="M285.275 190.423C285.502 189.871 286.92 188.538 289.594 186.796C291.389 185.62 293.417 184.092 293.901 184.632C294.386 185.171 293.04 187.719 290.952 189.091C288.864 190.462 285.041 190.95 285.275 190.423Z" fill="#00FFE0"/>
<path d="M280.118 199.634C280.447 199.043 283.707 197.19 285.227 196.384C286.746 195.578 288.637 194.902 289.372 195.435C290.108 195.968 288.678 197.957 286.028 199.147C283.378 200.336 279.788 200.226 280.118 199.634Z" fill="#00FFE0"/>
<path d="M277.108 203.248C277.563 202.988 278.395 199.706 278.939 196.521C279.484 193.336 279.394 189.371 278.341 189.735C277.288 190.099 276.492 192.244 276.241 195.663C275.978 199.446 276.66 203.502 277.108 203.248Z" fill="#00FFE0"/>
<path d="M274.273 206.797C274.363 206.452 276.959 205.835 279.579 204.977C282.2 204.119 283.282 203.761 283.767 204.496C284.252 205.23 283.282 206.959 280.309 207.603C277.336 208.246 274.177 207.135 274.273 206.797Z" fill="#00FFE0"/>
<path d="M291.137 171.008C290.572 175.326 289.583 179.567 288.188 183.657C286.812 187.765 285.096 191.729 283.061 195.5C281.075 199.341 278.582 202.845 275.661 205.9C272.669 208.851 269.11 211.301 265.144 212.192C265.132 212.193 265.12 212.189 265.111 212.182C265.101 212.175 265.094 212.165 265.09 212.153C265.089 212.142 265.092 212.131 265.097 212.122C265.102 212.112 265.11 212.105 265.12 212.101C268.868 210.636 272.266 208.275 275.062 205.191C277.895 202.167 280.382 198.782 282.469 195.11C284.559 191.421 286.337 187.533 287.781 183.494C289.281 179.467 290.38 175.276 291.059 170.995C291.059 170.983 291.064 170.971 291.072 170.963C291.08 170.954 291.09 170.949 291.101 170.949C291.112 170.949 291.123 170.954 291.131 170.963C291.139 170.971 291.143 170.983 291.143 170.995L291.137 171.008Z" fill="#E0E0E0"/>
<path d="M267.883 144.884C267.429 137.806 265.084 136.246 263.552 133.672C261.608 130.422 261.644 128.017 261.644 128.017C260.932 130.025 260.483 135.68 262.978 138.904C265.096 141.608 267.052 142.128 267.883 144.884Z" fill="#E0E0E0"/>
<path d="M271.886 135.251C275.828 134.14 278.7 131.299 279.609 127.126C280.059 124.784 281.045 122.602 282.475 120.782C274.093 124.149 271.952 132.092 271.886 135.251Z" fill="#E0E0E0"/>
<path d="M270.319 196.494C271.778 194.116 272.837 191.475 273.447 188.694C274.387 185.074 275.242 181.414 275.942 177.716C276.008 177.358 276.062 176.994 276.128 176.63C276.87 176.295 277.569 175.858 278.209 175.33C278.667 174.926 279.061 174.443 279.376 173.9C280.375 172.152 280.172 169.233 281.691 167.959C281.787 167.875 281.811 167.608 281.631 167.68C279.603 168.577 277.904 170.177 276.798 172.23C277.019 170.468 277.186 168.694 277.264 166.906C277.3 165.925 277.366 164.917 277.414 163.91C278.64 162.733 280.136 161.96 281.105 160.458C281.865 159.275 281.984 157.806 282.026 156.415C282.026 156.292 281.913 156.214 281.829 156.318C281.155 157.167 280.388 157.922 279.543 158.567C279.016 158.932 278.533 159.369 278.108 159.867C277.847 160.199 277.63 160.569 277.462 160.965C277.462 160.315 277.408 159.665 277.348 159.015C277.557 157.657 278.102 156.571 278.197 155.161C278.23 154.75 278.242 154.338 278.233 153.926C278.233 153.529 278.162 153.165 278.12 152.775C277.984 151.859 277.751 150.962 277.426 150.104C276.946 148.631 276.284 147.236 275.458 145.957C275.32 145.749 275.158 146.08 275.2 146.217C275.242 146.353 275.266 146.496 275.296 146.633C275.51 147.647 275.578 148.69 275.499 149.727C275.506 150.165 275.462 150.601 275.368 151.027C275.308 151.179 275.266 151.338 275.242 151.501C275.242 151.716 275.242 151.93 275.188 152.151C275.152 152.399 275.136 152.649 275.14 152.899C275.14 153.087 275.14 153.282 275.14 153.477C275.14 153.562 275.14 153.718 275.14 153.783C275.038 153.702 274.949 153.603 274.877 153.49C274.776 153.36 274.674 153.237 274.578 153.1C274.261 152.639 273.878 152.262 273.555 151.8C273.232 151.339 272.849 150.754 272.454 150.273C272.299 150.097 271.958 149.837 271.97 150.273C272.001 150.664 272.072 151.049 272.179 151.423C272.227 151.664 272.281 151.904 272.335 152.138C272.418 152.502 272.484 152.879 272.574 153.25C272.836 154.368 273.239 155.442 273.77 156.441C274.007 156.908 274.271 157.357 274.56 157.787C275.242 158.755 275.978 159.691 276.576 160.738C276.764 161.073 276.936 161.418 277.091 161.771C277.091 162.564 277.037 163.364 277.013 164.163L276.965 164.248C276.954 164.273 276.952 164.302 276.96 164.328C276.968 164.355 276.985 164.377 277.007 164.391C276.977 165.216 276.947 166.048 276.893 166.88C276.654 170.07 276.229 173.24 275.619 176.37C275.529 176.071 275.428 175.779 275.356 175.499C275.126 174.64 274.989 173.754 274.949 172.86C275.757 168.434 274.626 164.534 272.107 160.952C271.994 160.79 271.826 161.011 271.826 161.147C271.94 163.637 271.886 166.165 272.305 168.629C271.707 167.147 270.989 165.691 270.331 164.267C270.04 163.591 269.704 162.94 269.326 162.317C269.304 162.172 269.265 162.03 269.212 161.895C269.182 161.745 269.152 161.596 269.128 161.44C269.026 160.79 268.943 160.14 268.853 159.451C268.799 159.048 268.739 158.645 268.667 158.242C268.62 157.949 268.56 157.676 268.488 157.39C268.364 156.872 268.172 156.375 267.92 155.915C267.627 155.408 267.291 154.927 266.956 154.452C266.46 153.724 265.898 153.074 265.353 152.392C265.079 152.001 264.775 151.636 264.444 151.3C264.276 151.15 264.139 150.962 263.983 150.806C263.834 150.673 263.676 150.551 263.511 150.442C263.433 150.377 263.361 150.442 263.313 150.513C263.146 150.637 263.313 150.903 263.349 151.079C263.416 151.386 263.456 151.7 263.469 152.015C263.505 152.353 263.517 152.665 263.552 153.022C263.667 154.693 264.162 156.306 264.994 157.715C265.393 158.442 265.862 159.12 266.394 159.737C266.926 160.338 267.493 160.901 268.093 161.42C270.283 163.806 270.965 167.368 272.61 170.182C272.951 171.515 273.531 172.899 274.71 173.335C274.718 173.994 274.804 174.65 274.967 175.285C275.091 175.947 275.256 176.598 275.463 177.235C274.865 180.485 274.141 183.637 273.346 186.803C273.088 187.817 272.831 188.831 272.538 189.838C272.424 189.188 272.275 188.493 272.107 187.823C272.725 186.407 272.946 184.825 272.741 183.273C272.615 182.534 272.449 181.802 272.245 181.083C271.904 179.874 271.15 178.678 271.001 177.43C270.971 177.189 270.737 177.3 270.695 177.43C269.499 181.941 271.623 186.094 272.365 190.43C271.815 192.422 270.981 194.309 269.894 196.02C269.619 196.273 270.079 196.852 270.319 196.494ZM275.864 149.447C275.903 148.666 275.85 147.882 275.709 147.114C276.09 147.837 276.432 148.583 276.732 149.35C277.069 150.15 277.369 150.967 277.629 151.8C277.73 152.129 277.808 152.466 277.862 152.808C277.898 153.035 277.922 153.263 277.958 153.49C277.992 153.784 278.002 154.079 277.988 154.374C277.975 154.707 277.937 155.037 277.874 155.362C277.824 155.717 277.756 156.069 277.671 156.415C277.482 157.1 277.332 157.797 277.222 158.502C277.223 158.256 277.178 158.013 277.091 157.787C277.017 157.565 276.931 157.348 276.833 157.137C276.744 156.935 276.666 156.734 276.594 156.526C276.522 156.35 276.438 156.181 276.343 156.019C276.173 155.693 276.022 155.357 275.888 155.011C275.704 154.574 275.569 154.113 275.487 153.64C275.418 152.879 275.461 152.111 275.613 151.365C275.736 150.733 275.819 150.092 275.864 149.447ZM273.758 155.382L273.675 155.213C273.579 155.005 273.477 154.803 273.4 154.563C273.244 154.134 273.059 153.718 272.939 153.263C272.885 153.061 272.843 152.853 272.801 152.613C272.682 152.099 272.496 151.605 272.406 151.085C272.406 151.001 272.293 150.637 272.406 150.663C272.52 150.689 272.676 150.988 272.73 151.066C273.112 151.625 273.537 152.164 273.926 152.723C274.135 153.029 274.339 153.328 274.524 153.64C275.083 154.461 275.599 155.316 276.068 156.201C276.228 156.521 276.366 156.853 276.48 157.195C276.54 157.39 276.594 157.585 276.642 157.774C276.885 158.814 276.998 159.886 276.977 160.959C276.915 160.693 276.805 160.444 276.654 160.224C276.529 159.974 276.391 159.73 276.241 159.496C275.972 159.074 275.673 158.664 275.41 158.242C274.842 157.384 274.324 156.487 273.86 155.557L273.758 155.382ZM277.456 161.7C277.815 160.432 278.808 159.555 279.807 158.801C280.225 158.514 280.624 158.197 281.003 157.852C281.458 157.39 281.572 156.552 281.685 157.592C281.871 159.379 280.225 161.095 279.065 162.07C278.5 162.466 277.958 162.9 277.444 163.37C277.456 162.805 277.456 162.239 277.456 161.7ZM268.255 161.186C268.075 161.011 267.896 160.848 267.692 160.66C267.084 160.091 266.535 159.453 266.053 158.755C265.566 158.061 265.163 157.301 264.857 156.493C264.434 155.409 264.137 154.271 263.971 153.107C263.971 152.931 263.666 151.475 263.941 151.488C264.217 151.501 264.48 151.95 264.593 152.08C265.969 153.679 267.447 155.33 268.027 157.501C268.21 158.11 268.346 158.734 268.434 159.366C268.476 159.743 268.512 160.127 268.56 160.504C268.56 160.692 268.608 160.881 268.638 161.063L268.691 161.342C268.691 161.401 268.691 161.563 268.739 161.602C268.599 161.435 268.442 161.285 268.273 161.154L268.255 161.186ZM272.909 170.384L272.759 169.994C271.982 167.426 272.161 164.144 272.089 161.726C273.168 163.265 273.979 165.005 274.482 166.861C275.033 168.993 274.71 170.839 274.566 172.938C273.805 172.262 273.237 171.365 272.927 170.351L272.909 170.384ZM276.199 176.11C276.349 175.278 276.475 174.433 276.594 173.588C277.151 172.082 278.053 170.755 279.214 169.734C279.442 169.526 280.77 168.609 281.147 168.193C280.967 168.512 280.549 169.168 280.549 169.175C280.208 170.033 280.082 170.982 279.807 171.859C279.472 173.117 278.792 174.233 277.856 175.057C277.329 175.432 276.782 175.773 276.217 176.078L276.199 176.11ZM270.767 178.151C270.923 178.652 271.156 179.126 271.366 179.607C271.761 180.643 272.069 181.716 272.287 182.812C272.542 184.334 272.426 185.903 271.952 187.362C271.162 184.274 270.187 181.258 270.785 178.119L270.767 178.151Z" fill="#E0E0E0"/>
<path d="M46.459 289.509C46.8037 288.246 47.2696 287.02 47.8499 285.85C47.9137 285.713 47.9711 285.583 48.0413 285.447C48.5925 284.356 48.8716 283.144 48.8538 281.917C48.836 280.691 48.5219 279.488 47.9392 278.414L47.818 278.186C47.0978 276.931 46.7272 275.5 46.7461 274.046C46.7944 273.253 47.031 272.484 47.4355 271.804C47.84 271.125 48.4004 270.556 49.0685 270.146C49.4136 269.94 49.7742 269.762 50.1467 269.613C50.4896 269.474 50.784 269.234 50.992 268.924C51.2001 268.613 51.3123 268.247 51.3142 267.871V265.732L58.0579 265.7V267.845C58.0546 268.224 58.1646 268.594 58.3732 268.908C58.5817 269.221 58.879 269.463 59.2254 269.6C59.5977 269.747 59.9583 269.923 60.3036 270.126C60.9787 270.531 61.5463 271.098 61.9567 271.778C62.367 272.458 62.6078 273.23 62.6579 274.026C62.6873 275.479 62.3278 276.913 61.6179 278.173L61.5031 278.381C60.9267 279.462 60.6205 280.671 60.6116 281.901C60.6027 283.131 60.8913 284.345 61.452 285.434C61.5158 285.57 61.5796 285.7 61.6371 285.83C62.2269 286.99 62.7014 288.208 63.0534 289.464C63.2947 290.679 63.4039 291.917 63.3788 293.156L63.4171 308.028C63.4171 309.328 62.5877 310.628 60.9161 311.616C59.4167 312.455 57.7552 312.95 56.0482 313.065C55.2372 313.134 54.422 313.134 53.611 313.065C51.9144 312.959 50.2604 312.48 48.7622 311.661C47.0843 310.68 46.2102 309.386 46.2102 308.093V300.871C46.2102 299.968 46.1719 294.144 46.1719 293.208C46.1331 291.968 46.2294 290.728 46.459 289.509Z" fill="#00FFE0"/>
<path opacity="0.1" d="M51.3079 267.878C51.3021 268.25 51.1882 268.613 50.9804 268.919C50.7726 269.226 50.4802 269.463 50.1403 269.6C49.7678 269.749 49.4073 269.927 49.0621 270.133C48.3941 270.543 47.8337 271.112 47.4292 271.791C47.0246 272.471 46.7881 273.24 46.7398 274.033C46.7209 275.487 47.0915 276.918 47.8116 278.174L47.9329 278.401C48.5155 279.475 48.8296 280.678 48.8474 281.905C48.8652 283.131 48.5862 284.343 48.0349 285.434C47.9648 285.571 47.9073 285.701 47.8435 285.837C47.2666 287.001 46.8029 288.221 46.4591 289.477C46.2283 290.691 46.1298 291.927 46.1656 293.163C46.1656 294.099 46.2039 299.923 46.2039 300.826V308.048C46.2039 309.25 46.944 310.44 48.3858 311.389C48.3858 306.891 48.3858 296.01 48.3858 293.189C48.3858 288.359 50.7656 287.417 51.1165 283.653C51.4674 279.89 47.2119 276.874 48.7686 273.598C50.3254 270.322 53.8726 269.399 53.5154 265.85L53.4771 265.726H51.3015L51.3079 267.878Z" fill="black"/>
<path opacity="0.1" d="M47.9329 278.434L47.8117 278.206C47.195 277.139 46.8363 275.939 46.7654 274.703C46.9188 275.202 47.1331 275.681 47.4034 276.126C48.2303 277.375 49.2568 278.473 50.4402 279.376C51.595 280.338 52.8774 281.43 52.9922 282.938C53.1071 284.446 52.1182 285.733 50.9698 286.617C49.8214 287.501 48.488 288.093 47.4608 289.1C47.0144 289.551 46.6204 290.052 46.2869 290.595C46.3315 290.218 46.3826 289.848 46.4591 289.49C46.805 288.233 47.2708 287.014 47.85 285.85C47.9138 285.714 47.9712 285.584 48.0414 285.447C48.5883 284.358 48.8645 283.15 48.8456 281.927C48.8267 280.704 48.5133 279.504 47.9329 278.434Z" fill="black"/>
<path d="M59.1745 268.105V269.255C59.1399 269.667 58.9981 270.062 58.7637 270.399C58.5293 270.736 58.2108 271.003 57.8411 271.173C56.8374 271.69 55.7282 271.96 54.6033 271.96C53.4783 271.96 52.3692 271.69 51.3654 271.173C50.9695 270.955 50.6254 270.651 50.3574 270.282C50.1461 269.99 50.0281 269.638 50.0192 269.275V268.105C50.0069 268.001 50.0069 267.897 50.0192 267.793C50.1079 267.449 50.2676 267.129 50.4877 266.853C50.7077 266.577 50.9831 266.353 51.2952 266.194L51.3654 266.155C52.357 265.654 53.4487 265.394 54.5554 265.394C55.6621 265.394 56.7538 265.654 57.7454 266.155C58.056 266.313 58.3303 266.535 58.5502 266.809C58.7701 267.082 58.9307 267.4 59.0214 267.741C59.0939 267.852 59.1458 267.975 59.1745 268.105Z" fill="#37474F"/>
<path d="M51.3716 270.029C49.5789 268.983 49.5725 267.28 51.3716 266.22C52.3743 265.703 53.4824 265.433 54.6063 265.433C55.7302 265.433 56.8383 265.703 57.841 266.22C59.6337 267.267 59.6401 268.97 57.841 270.029C56.8383 270.547 55.7302 270.816 54.6063 270.816C53.4824 270.816 52.3743 270.547 51.3716 270.029Z" fill="#263238"/>
<path d="M59.1681 266.759V267.448C59.168 267.56 59.1552 267.671 59.1299 267.78C59.04 268.122 58.8798 268.441 58.6598 268.716C58.4398 268.99 58.1651 269.214 57.8539 269.372C56.9748 269.859 55.9957 270.129 54.9956 270.159C53.7435 270.247 52.4917 269.982 51.3782 269.392C50.9838 269.174 50.64 268.873 50.3701 268.508C50.2236 268.302 50.1214 268.068 50.0703 267.819C50.045 267.715 50.0321 267.608 50.032 267.5V266.785C50.0664 266.375 50.2076 265.982 50.4408 265.646C50.6741 265.31 50.991 265.044 51.359 264.874L51.6078 264.738C52.5876 264.28 53.6559 264.052 54.7336 264.071C55.8114 264.091 56.8712 264.356 57.8347 264.848C58.2047 265.016 58.5237 265.282 58.7583 265.618C58.9928 265.954 59.1344 266.348 59.1681 266.759Z" fill="#37474F"/>
<path d="M59.168 266.733C59.168 268.215 57.1328 269.424 54.6063 269.431C52.0798 269.437 50.0254 268.248 50.0191 266.772C50.0127 265.297 52.0543 264.081 54.5871 264.075C57.12 264.068 59.1616 265.251 59.168 266.733Z" fill="#455A64"/>
<path d="M56.1439 263.984V266.402C56.147 266.439 56.147 266.476 56.1439 266.513C56.1111 266.632 56.0537 266.743 55.9756 266.838C55.8975 266.934 55.8005 267.011 55.691 267.065C55.3863 267.232 55.0479 267.326 54.7021 267.338C54.2607 267.371 53.8191 267.279 53.4261 267.072C53.2911 266.996 53.1737 266.892 53.0815 266.766C53.0296 266.694 52.9927 266.612 52.9731 266.526C52.9696 266.489 52.9696 266.452 52.9731 266.415V263.997C52.9874 263.857 53.0373 263.724 53.1179 263.61C53.1985 263.496 53.3069 263.405 53.4324 263.347L53.5154 263.302C53.8528 263.136 54.2224 263.05 54.5968 263.05C54.9712 263.05 55.3408 263.136 55.6782 263.302C55.8098 263.361 55.9228 263.456 56.005 263.576C56.0871 263.697 56.1352 263.838 56.1439 263.984Z" fill="#37474F"/>
<path d="M56.144 263.977C56.144 264.491 55.4358 264.907 54.5618 264.913C53.6877 264.92 52.9731 264.504 52.9731 263.99C52.9731 263.477 53.6813 263.054 54.5554 263.054C55.4294 263.054 56.144 263.464 56.144 263.977Z" fill="#455A64"/>
<path d="M55.1485 263.978C55.1485 264.166 54.8933 264.309 54.5871 264.316C54.2809 264.322 54.0193 264.166 54.0193 263.984C54.0193 263.802 54.2745 263.653 54.5807 263.653C54.887 263.653 55.1485 263.796 55.1485 263.978Z" fill="#263238"/>
<path d="M207.851 213.501C227.48 197.792 230.893 168.845 215.475 148.847C200.056 128.849 171.643 125.371 152.014 141.08C132.385 156.789 128.972 185.736 144.391 205.734C159.81 225.733 188.222 229.21 207.851 213.501Z" fill="#00FFE0" fill-opacity="0.5"/>
<path opacity="0.3" d="M207.851 213.501C227.48 197.792 230.893 168.845 215.475 148.847C200.056 128.849 171.643 125.371 152.014 141.08C132.385 156.789 128.972 185.736 144.391 205.734C159.81 225.733 188.222 229.21 207.851 213.501Z" fill="black"/>
<g opacity="0.2">
<path d="M159.104 141.589C159.538 143.812 161.388 145.593 164.31 146.594C167.565 147.516 170.987 147.643 174.299 146.965C177.612 146.287 180.72 144.824 183.374 142.694C185.69 140.621 186.723 138.255 186.289 136.032C185.887 133.997 184.286 132.34 181.779 131.306C180.817 131.267 179.848 131.267 178.869 131.306C179.532 131.423 180.184 131.59 180.822 131.807C183.469 132.717 185.135 134.283 185.511 136.207C185.887 138.131 184.95 140.237 182.857 142.116C178.391 146.113 170.193 147.79 164.565 145.853C161.918 144.943 160.253 143.383 159.876 141.453C159.5 139.522 160.438 137.429 162.537 135.551C163.193 134.971 163.897 134.452 164.642 133.997C163.681 134.357 162.734 134.742 161.803 135.154C159.647 137.163 158.677 139.444 159.104 141.589Z" fill="black"/>
<path d="M138.612 195.961C138.612 195.903 138.561 195.851 138.542 195.792C138.561 195.851 138.586 195.903 138.612 195.961Z" fill="black"/>
<path d="M139.16 197.197C139.262 197.418 139.371 197.632 139.479 197.847C139.371 197.632 139.262 197.45 139.16 197.197Z" fill="black"/>
<path d="M222.802 191.86C221.009 195.063 218.682 197.922 215.924 200.31C201.18 213.518 174.052 219.069 155.448 212.66C151.992 211.536 148.753 209.807 145.878 207.551C146.708 208.513 147.576 209.449 148.475 210.333C150.6 211.597 152.85 212.629 155.187 213.414C164.61 216.664 176.19 216.866 187.278 214.597C198.367 212.329 208.97 207.584 216.435 200.889C218.292 199.242 219.977 197.403 221.462 195.403C221.96 194.259 222.407 193.078 222.802 191.86Z" fill="black"/>
<path d="M214.84 186.517C199.337 200.427 170.786 206.271 151.212 199.517C143.773 196.963 138.51 192.913 135.964 187.889C136.175 188.792 136.404 189.689 136.66 190.573C139.613 194.714 144.494 198.055 150.963 200.278C160.872 203.684 173.045 203.911 184.707 201.526C196.37 199.14 207.516 194.142 215.363 187.109C220.467 182.5 223.727 177.502 224.876 172.516C224.78 171.606 224.653 170.696 224.506 169.78C224.059 175.435 220.748 181.246 214.84 186.517Z" fill="black"/>
<path d="M151.027 172.516C159.321 175.357 169.453 175.545 179.189 173.556C188.924 171.567 198.226 167.394 204.779 161.518C210.189 156.663 213.073 151.268 213.117 146.048C212.849 145.756 212.575 145.476 212.301 145.19C212.588 150.436 209.793 155.954 204.256 160.914C191.342 172.497 167.577 177.359 151.302 171.749C144.284 169.351 139.652 165.36 137.904 160.407C137.763 160.777 137.61 161.148 137.476 161.525C139.492 166.315 144.188 170.15 151.027 172.516Z" fill="black"/>
<path d="M134.937 172.952C136.915 178.802 142.357 183.475 150.472 186.264C159.71 189.442 171.054 189.65 181.925 187.427C192.797 185.204 203.184 180.55 210.501 173.985C216.92 168.2 220.174 161.759 219.784 155.584C219.453 154.934 219.108 154.336 218.751 153.731C220.027 160.199 216.894 167.173 209.978 173.387C195.534 186.335 168.955 191.769 150.721 185.503C141.999 182.5 136.481 177.3 135.179 170.839C135.084 171.541 135.001 172.237 134.937 172.945V172.952Z" fill="black"/>
<path d="M134.784 175.155C134.784 174.856 134.816 174.557 134.835 174.258C134.816 174.557 134.796 174.856 134.784 175.155Z" fill="black"/>
<path d="M154.9 158.742C161.222 160.913 168.987 161.056 176.426 159.535C183.865 158.014 190.972 154.83 195.981 150.338C200.523 146.263 202.743 141.687 202.329 137.338C202.042 137.169 201.755 137 201.467 136.844C202.105 141.101 200.006 145.665 195.464 149.74C185.639 158.554 167.558 162.246 155.155 157.988C149.413 156.038 145.738 152.632 144.724 148.446L144.124 149.246C145.387 153.419 149.171 156.766 154.9 158.742Z" fill="black"/>
<path d="M142.44 151.599L142.121 152.1C142.229 151.95 142.338 151.768 142.44 151.599Z" fill="black"/>
</g>
<path opacity="0.1" d="M168.432 203.677C141.515 193.147 137.489 172.913 139.614 156.598C136.632 162.619 134.985 169.235 134.79 175.977C134.594 182.719 135.855 189.422 138.482 195.612C141.11 201.803 145.04 207.33 149.996 211.802C154.951 216.275 160.81 219.584 167.159 221.495C173.508 223.406 180.191 223.873 186.736 222.863C193.282 221.852 199.529 219.389 205.037 215.648C210.546 211.906 215.18 206.978 218.612 201.211C222.045 195.443 224.192 188.978 224.901 182.273C222.802 196.391 195.311 214.201 168.432 203.677Z" fill="black"/>
<path d="M126.129 255.379C143.779 237.397 143.779 208.242 126.129 190.26C108.479 172.278 79.8621 172.278 62.212 190.26C44.5619 208.242 44.5619 237.397 62.212 255.379C79.8621 273.361 108.479 273.361 126.129 255.379Z" fill="#00FFE0"/>
<path opacity="0.3" d="M126.129 255.379C143.779 237.397 143.779 208.242 126.129 190.26C108.479 172.278 79.8621 172.278 62.212 190.26C44.5619 208.242 44.5619 237.397 62.212 255.379C79.8621 273.361 108.479 273.361 126.129 255.379Z" fill="black"/>
<g opacity="0.2">
<path d="M73.3699 187.102C73.8101 189.325 75.6603 191.099 78.5824 192.107C81.8373 193.027 85.2593 193.154 88.5712 192.476C91.8831 191.799 94.9919 190.336 97.6458 188.207C99.9618 186.133 100.995 183.761 100.555 181.544C100.153 179.51 98.5581 177.852 96.0444 176.812C95.081 176.773 94.1304 176.773 93.1351 176.812C93.7875 176.93 94.4312 177.093 95.0619 177.3C97.7032 178.21 99.3684 179.77 99.7512 181.7C100.134 183.631 99.1834 185.724 97.0907 187.602C92.6247 191.6 84.4265 193.277 78.7993 191.346C76.158 190.436 74.4928 188.87 74.11 186.946C73.7272 185.022 74.6778 182.922 76.7705 181.037C77.4274 180.458 78.1342 179.941 78.8822 179.49C77.9125 179.841 76.9682 180.231 76.0431 180.641C73.8867 182.669 72.9233 184.95 73.3699 187.102Z" fill="black"/>
<path d="M52.8519 241.468C52.8519 241.416 52.8073 241.364 52.7817 241.305C52.8073 241.364 52.8328 241.416 52.8519 241.468Z" fill="black"/>
<path d="M53.4006 242.709C53.5091 242.924 53.6176 243.138 53.7196 243.359C53.592 243.138 53.5027 242.95 53.4006 242.709Z" fill="black"/>
<path d="M137.042 237.373C135.252 240.577 132.924 243.437 130.165 245.823C115.42 259.038 88.2991 264.589 69.6887 258.173C66.2289 257.056 62.9895 255.326 60.1187 253.064C60.9481 254.035 61.8115 254.964 62.7089 255.853C64.8377 257.113 67.0892 258.146 69.4271 258.934C78.8503 262.184 90.43 262.385 101.518 260.117C112.607 257.848 123.21 253.097 130.675 246.402C132.53 244.757 134.213 242.92 135.696 240.922C136.207 239.778 136.647 238.589 137.042 237.373Z" fill="black"/>
<path d="M129.087 232.03C113.577 245.94 85.0328 251.777 65.4589 245.03C58.0135 242.482 52.75 238.426 50.2043 233.401C50.4149 234.311 50.6446 235.208 50.9061 236.092C53.8601 240.226 58.7344 243.574 65.2037 245.797C75.1119 249.196 87.2913 249.43 98.9475 247.045C110.604 244.659 121.756 239.661 129.572 232.621C134.676 228.019 137.936 223.014 139.084 218.029C138.995 217.125 138.867 216.209 138.72 215.299C138.299 220.947 134.969 226.752 129.087 232.03Z" fill="black"/>
<path d="M139.314 225.179C139.314 225.361 139.314 225.549 139.282 225.731C139.288 225.549 139.307 225.361 139.314 225.179Z" fill="black"/>
<path d="M65.2674 218.022C73.5614 220.869 83.6992 221.058 93.4351 219.062C103.171 217.067 112.473 212.9 119.019 207.031C124.436 202.175 127.313 196.78 127.358 191.561C127.096 191.268 126.815 190.982 126.547 190.703C126.828 195.948 124.034 201.46 118.502 206.426C105.589 218.003 81.8235 222.865 65.5481 217.262C58.5301 214.857 53.8919 210.872 52.1501 205.919C52.0034 206.29 51.8566 206.66 51.7227 207.031C53.7387 211.828 58.4344 215.65 65.2674 218.022Z" fill="black"/>
<path d="M49.1834 218.465C51.1612 224.315 56.5969 228.982 64.7123 231.77C73.9505 234.955 85.2942 235.163 96.1657 232.94C107.037 230.717 117.424 226.063 124.742 219.492C131.179 213.726 134.414 207.265 134.025 201.097C133.693 200.447 133.348 199.849 132.991 199.238C134.267 205.705 131.134 212.686 124.219 218.894C109.781 231.842 83.1952 237.282 64.9675 231.016C56.2397 228 50.721 222.8 49.4258 216.352C49.3301 217.048 49.2408 217.75 49.177 218.452L49.1834 218.465Z" fill="black"/>
<path d="M49.0239 220.661C49.0239 220.362 49.0239 220.063 49.075 219.771C49.0558 220.063 49.0367 220.362 49.0239 220.661Z" fill="black"/>
<path d="M69.1464 204.249C75.4626 206.42 83.2334 206.569 90.6725 205.042C98.1116 203.514 105.219 200.336 110.227 195.844C114.77 191.775 116.984 187.199 116.569 182.844C116.282 182.675 116.001 182.506 115.708 182.344C116.346 186.601 114.253 191.164 109.704 195.246C99.8788 204.054 81.7979 207.753 69.3952 203.489C63.6532 201.539 59.9783 198.139 58.9703 193.953C58.7661 194.213 58.5683 194.479 58.3323 194.746C59.6338 198.925 63.4108 202.279 69.1464 204.249Z" fill="black"/>
<path d="M55.2827 199.4L55.6017 198.86C55.506 199.016 55.3848 199.192 55.2827 199.4Z" fill="black"/>
</g>
<path opacity="0.1" d="M82.6528 249.183C55.7356 238.653 51.7162 218.419 53.8407 202.104C50.8654 208.125 49.2241 214.737 49.0326 221.475C48.8411 228.213 50.1042 234.912 52.7326 241.098C55.361 247.283 59.2905 252.806 64.2437 257.275C69.1969 261.744 75.0528 265.05 81.3978 266.96C87.7429 268.87 94.4222 269.337 100.964 268.329C107.506 267.321 113.75 264.861 119.257 261.124C124.763 257.387 129.397 252.463 132.83 246.702C136.264 240.94 138.414 234.48 139.129 227.779C137.049 241.904 109.557 259.707 82.6528 249.183Z" fill="black"/>
<path opacity="0.1" d="M224.238 168.245C223.386 163.904 221.92 159.711 219.887 155.798C216.505 154.277 213.035 152.912 209.596 151.56L194.552 145.651C192.523 144.852 190.239 144.267 188.357 143.207C186.475 142.148 185.116 139.431 182.844 138.891C180.573 138.352 177.9 140.575 176.579 142.317C175.146 144.343 174.184 146.675 173.766 149.135C172.471 155.65 173.465 162.421 176.573 168.265C184.765 183.481 204.875 186.153 220.046 188.369C220.885 188.57 221.759 188.57 222.598 188.369C223.122 188.179 223.601 187.878 224.002 187.485C225.416 181.161 225.497 174.604 224.238 168.245Z" fill="black" fill-opacity="0.8"/>
<path d="M255.328 183.897C255.289 186.003 254.76 212.289 254.753 213.245C254.798 215.112 254.99 216.973 255.328 218.809C255.449 219.563 254.262 219.719 254.536 220.479C254.811 221.24 255.347 222.286 254.951 222.995C254.758 223.321 254.505 223.606 254.205 223.833C252.864 224.859 251.188 225.324 249.522 225.133C248.641 225.069 247.793 224.766 247.066 224.256C245.649 223.183 245.152 221.35 244.462 219.79C243.697 218.094 244.252 217.262 244.214 215.461C244.169 213.446 238.638 187.999 238.331 186.01C241.706 182.5 251.372 182.63 255.328 183.897Z" fill="white" fill-opacity="0.5"/>
<path d="M250.396 161.42C245.477 157.767 232.813 149.376 217.411 145.937L183.202 166.737L217.016 175.343L237.725 178.834C237.355 184.281 237.878 185.334 238.401 188.272C239.351 193.619 240.595 198.907 242.127 204.112C245.407 206.654 253.803 204.834 255.098 203.105C255.615 195.357 255.449 185.73 255.698 176.052C255.895 167.589 254.664 164.599 250.396 161.42Z" fill="#37474F"/>
<path d="M235.173 178.431C235.467 173.998 234.535 172.048 231.728 169.753C228.921 167.459 213.226 158.703 213.226 158.703C213.226 158.703 214.361 154.576 212.843 150.994L209.079 159.613L233.24 178.119L235.173 178.431Z" fill="#263238" fill-opacity="0.8"/>
<path d="M244.213 215.227C243.486 215.474 243.531 216.319 244.016 217.047C244.261 217.427 244.532 217.79 244.826 218.133L244.213 215.227Z" fill="#00FFE0" fill-opacity="0.8"/>
<path opacity="0.3" d="M244.213 215.227C243.486 215.474 243.531 216.319 244.016 217.047C244.261 217.427 244.532 217.79 244.826 218.133L244.213 215.227Z" fill="black" fill-opacity="0.8"/>
<path d="M261.618 228.949C260.183 227.181 256.648 221.461 256.055 219.745C255.461 218.029 256.233 216.742 254.517 217.067C252.801 217.392 250.389 217.574 250.109 218.581C249.828 219.589 250.625 221.974 252.456 224.906C254.288 227.837 257.892 230.821 257.892 230.821L261.618 228.949Z" fill="#00FFE0" fill-opacity="0.8"/>
<path opacity="0.1" d="M261.618 228.949C260.183 227.181 256.648 221.461 256.055 219.745C255.461 218.029 256.233 216.742 254.517 217.067C252.801 217.392 250.389 217.574 250.109 218.581C249.828 219.589 250.625 221.974 252.456 224.906C254.288 227.837 257.892 230.821 257.892 230.821L261.618 228.949Z" fill="black" fill-opacity="0.8"/>
<path d="M269.415 237.938C269.517 238.666 269.453 239.167 266.92 240.103C264.387 241.039 260.578 241.013 257.35 240.207C254.122 239.401 251.366 236.411 250.032 234.318C248.699 232.225 245.955 230.262 244.15 229.235C242.344 228.208 241.974 227.798 242.115 227.174C242.255 226.55 242.784 224.893 242.784 224.893L269.415 237.938Z" fill="#EBEBEB"/>
<path d="M244.213 215.227C243.633 215.637 243.971 216.748 244.934 217.704C245.33 218.308 245.572 220.375 246.485 220.694C247.397 221.012 248.195 219.355 249.183 219.355C250.172 219.355 251.097 221.097 252.456 223.255C253.815 225.413 257.56 230.236 258.141 230.236C258.722 230.236 260.75 228.819 261.618 228.936C262.94 230.222 264.331 231.433 265.784 232.563C267.826 234.11 268.547 234.578 269.14 234.981C269.733 235.384 269.874 236.859 269.542 237.73C269.21 238.601 264.438 240.727 259.462 239.531C254.485 238.335 253.011 236.092 251.289 233.304C250.011 231.214 248.219 229.502 246.089 228.338C244.775 227.721 243.588 226.854 242.593 225.783C242.309 224.616 242.309 223.395 242.593 222.228C243.059 220.148 243.652 218.399 243.384 216.722C243.116 215.045 244.111 214.46 244.111 214.46C244.111 214.46 244.143 214.766 244.213 215.227Z" fill="#00FFE0" fill-opacity="0.8"/>
<path d="M268.764 235.91C267.851 236.151 266.85 236.391 266.811 236.755C266.773 237.119 266.728 239.128 266.237 239.791C266.002 240.088 265.701 240.325 265.361 240.484C265.02 240.644 264.647 240.72 264.272 240.707C263.398 240.785 259.672 240.785 257.497 240.057C255.109 239.318 252.995 237.864 251.429 235.884C249.515 233.577 249.196 232.465 246.689 230.684C244.182 228.903 243.237 228.63 242.14 227.571C242.046 227.841 241.975 228.12 241.929 228.403C242.225 228.821 242.614 229.162 243.065 229.397C243.875 229.839 246.651 231.295 247.748 232.303C248.98 233.578 250.115 234.947 251.142 236.398C252.789 238.417 254.998 239.881 257.477 240.597C260.317 241.331 264.228 241.461 266.792 240.532C269.357 239.602 269.497 239.056 269.721 238.738C269.967 237.875 270.028 236.968 269.899 236.079C269.753 235.696 269.414 235.741 268.764 235.91Z" fill="#455A64" fill-opacity="0.8"/>
<path d="M257.114 230.015C258.951 228.715 260.527 228.221 261.223 228.416C261.515 228.595 261.74 228.87 261.861 229.196C261.861 229.196 260.483 229.131 257.88 230.821C257.682 230.794 257.498 230.7 257.359 230.553C257.22 230.407 257.134 230.217 257.114 230.015Z" fill="#455A64" fill-opacity="0.8"/>
<path d="M259.826 226.401C258.219 226.401 256.672 227.023 255.5 228.143C255.312 228.102 255.141 228.004 255.008 227.863C254.875 227.722 254.786 227.543 254.753 227.35C254.753 227.35 256.782 225.4 259.29 225.569C259.29 225.562 259.87 225.894 259.826 226.401Z" fill="#455A64" fill-opacity="0.8"/>
<path d="M258.084 223.599C256.967 223.164 254.307 224.379 253.35 225.296C253.243 225.289 253.138 225.259 253.042 225.21C252.946 225.161 252.861 225.092 252.792 225.008C252.723 224.924 252.671 224.827 252.64 224.722C252.609 224.618 252.598 224.508 252.61 224.399C253.944 223.184 255.675 222.519 257.465 222.533C257.465 222.533 258.237 222.904 258.084 223.599Z" fill="#455A64" fill-opacity="0.8"/>
<path d="M256.591 220.941C255.699 220.85 254.799 220.943 253.943 221.216C253.088 221.488 252.296 221.934 251.614 222.527C251.437 222.447 251.286 222.316 251.182 222.149C251.077 221.983 251.023 221.789 251.027 221.591C251.685 220.918 252.492 220.416 253.381 220.127C254.269 219.839 255.212 219.772 256.131 219.933C256.401 220.2 256.565 220.559 256.591 220.941Z" fill="#455A64" fill-opacity="0.8"/>
<path d="M233.221 193.66C233.182 195.766 232.423 228.643 232.417 229.599C232.496 231.433 232.722 233.256 233.093 235.052C233.304 235.793 233.58 236.513 233.916 237.204C234.184 237.964 232.838 237.451 232.442 238.159C232.25 238.486 231.996 238.771 231.696 238.998C230.355 240.024 228.68 240.489 227.013 240.298C226.132 240.234 225.284 239.931 224.557 239.42C223.14 238.348 222.643 236.515 221.954 234.955C221.188 233.258 221.743 232.426 221.705 230.626C221.66 228.611 217.041 197.58 216.735 195.591C220.11 192.087 229.284 192.393 233.221 193.66Z" fill="white" fill-opacity="0.5"/>
<path d="M233.986 180.712C233.955 178.957 234.395 174.7 230.305 171.294C224.933 166.815 210.802 159.776 210.802 159.776C212.754 155.7 217.928 148.479 217.411 145.937C217.411 143.259 215.287 140.087 213.864 138.391C211.81 143.799 190.354 144.241 181.237 143.129C177.377 153.425 178.212 160.159 180.988 166.529C182.596 170.195 187.623 174.329 190.456 175.889C202.916 182.623 209.896 184.086 215.37 186.062C215.082 189.029 215.191 192.023 215.695 194.96C216.333 199.283 218.285 209.533 219.453 214.779C222.732 217.32 231.862 215.591 233.157 213.869C233.667 206.095 234.146 190.092 233.986 180.712Z" fill="#37474F"/>
<path d="M221.539 229.001C220.805 229.248 220.85 230.093 221.335 230.821C221.58 231.201 221.851 231.564 222.145 231.906L221.539 229.001Z" fill="#00FFE0" fill-opacity="0.8"/>
<path opacity="0.3" d="M221.539 229.001C220.805 229.248 220.85 230.093 221.335 230.821C221.58 231.201 221.851 231.564 222.145 231.906L221.539 229.001Z" fill="black" fill-opacity="0.8"/>
<path d="M238.937 242.722C237.502 240.961 233.967 235.234 233.374 233.518C232.781 231.802 233.553 230.522 231.843 230.84C230.133 231.159 227.715 231.347 227.428 232.355C227.141 233.362 227.951 235.748 229.782 238.679C231.613 241.611 235.211 244.594 235.211 244.594L238.937 242.722Z" fill="#00FFE0" fill-opacity="0.8"/>
<path opacity="0.1" d="M238.937 242.722C237.502 240.961 233.967 235.234 233.374 233.518C232.781 231.802 233.553 230.522 231.843 230.84C230.133 231.159 227.715 231.347 227.428 232.355C227.141 233.362 227.951 235.748 229.782 238.679C231.613 241.611 235.211 244.594 235.211 244.594L238.937 242.722Z" fill="black" fill-opacity="0.8"/>
<path d="M246.734 251.712C246.836 252.446 246.772 252.947 244.245 253.883C241.719 254.819 237.897 254.786 234.675 253.98C231.454 253.174 228.691 250.191 227.358 248.091C226.024 245.992 223.281 244.042 221.482 243.008C219.683 241.975 219.3 241.578 219.446 240.948C219.593 240.317 220.084 238.673 220.084 238.673L246.734 251.712Z" fill="#EBEBEB"/>
<path d="M221.539 229.001C220.952 229.417 221.29 230.522 222.254 231.484C222.649 232.088 222.924 234.155 223.804 234.474C224.684 234.792 225.514 233.128 226.503 233.128C227.492 233.128 228.417 234.877 229.782 237.028C231.147 239.18 234.886 244.009 235.467 244.009C236.047 244.009 238.07 242.592 238.937 242.709C240.262 243.997 241.655 245.21 243.11 246.343C245.152 247.883 245.866 248.358 246.466 248.754C247.066 249.151 247.193 250.639 246.861 251.51C246.53 252.381 241.789 254.5 236.781 253.304C231.773 252.108 230.337 249.872 228.615 247.077C227.331 244.99 225.537 243.279 223.408 242.111C222.095 241.499 220.91 240.633 219.919 239.563C219.631 238.394 219.631 237.171 219.919 236.001C220.378 233.921 220.971 232.179 220.703 230.502C220.435 228.825 221.437 228.24 221.437 228.24C221.437 228.24 221.463 228.546 221.539 229.001Z" fill="#00FFE0" fill-opacity="0.8"/>
<path d="M246.083 249.684C245.171 249.924 244.169 250.171 244.169 250.529C244.169 250.886 244.08 252.901 243.588 253.564C243.354 253.864 243.054 254.103 242.713 254.263C242.372 254.423 241.999 254.5 241.623 254.487C240.749 254.559 237.023 254.559 234.848 253.837C232.461 253.097 230.348 251.641 228.787 249.658C226.873 247.357 226.547 246.245 224.04 244.458C221.533 242.67 220.588 242.41 219.491 241.344C219.4 241.618 219.33 241.899 219.281 242.183C219.577 242.602 219.969 242.941 220.423 243.171C221.226 243.613 224.002 245.069 225.099 246.083C226.333 247.354 227.468 248.721 228.493 250.171C230.139 252.193 232.348 253.657 234.829 254.37C237.668 255.111 241.579 255.235 244.143 254.305C246.708 253.376 246.848 252.83 247.072 252.518C247.318 251.655 247.379 250.748 247.25 249.859C247.078 249.45 246.734 249.515 246.083 249.684Z" fill="#455A64" fill-opacity="0.8"/>
<path d="M234.42 243.788C236.264 242.488 237.833 242.001 238.529 242.189C238.823 242.367 239.048 242.643 239.167 242.969C239.167 242.969 237.789 242.911 235.186 244.594C234.987 244.569 234.803 244.475 234.664 244.328C234.525 244.182 234.439 243.991 234.42 243.788Z" fill="#455A64" fill-opacity="0.8"/>
<path d="M237.145 240.174C235.539 240.18 233.994 240.802 232.819 241.916C232.63 241.877 232.457 241.779 232.325 241.636C232.192 241.493 232.106 241.311 232.079 241.117C232.079 241.117 234.101 239.167 236.609 239.336C236.609 239.336 237.196 239.7 237.145 240.174Z" fill="#455A64" fill-opacity="0.8"/>
<path d="M235.422 237.373C234.312 236.937 231.651 238.159 230.694 239.069C230.587 239.063 230.481 239.034 230.385 238.985C230.288 238.936 230.202 238.868 230.133 238.784C230.063 238.7 230.01 238.602 229.979 238.497C229.947 238.392 229.936 238.282 229.948 238.172C231.282 236.958 233.014 236.295 234.803 236.313C234.803 236.313 235.556 236.684 235.422 237.373Z" fill="#455A64" fill-opacity="0.8"/>
<path d="M233.916 234.714C233.023 234.625 232.122 234.719 231.265 234.993C230.409 235.267 229.616 235.713 228.933 236.307C228.755 236.227 228.604 236.095 228.499 235.927C228.395 235.759 228.341 235.563 228.347 235.364C229.005 234.693 229.813 234.192 230.701 233.903C231.589 233.615 232.532 233.547 233.451 233.707C233.721 233.974 233.886 234.332 233.916 234.714Z" fill="#455A64" fill-opacity="0.8"/>
<path d="M216.843 118.15C216.843 118.15 231.958 90.3234 234.465 80.0859C235.741 74.8339 233.699 72.8514 229.891 71.8829C226.082 70.9144 198.839 73.8654 198.839 73.8654L199.413 82.3154L221.195 84.0249C221.195 84.0249 215.593 91.9484 213.539 95.0359C212.082 97.1513 210.472 99.1524 208.722 101.022C207.848 101.984 206.514 102.647 205.181 103.421C203.592 104.337 216.843 118.15 216.843 118.15Z" fill="white" fill-opacity="0.5"/>
<path d="M221.195 84.0249C223.823 84.3629 226.771 83.7194 227.926 82.7964C227.094 83.9945 225.846 84.8262 224.436 85.1234C222.97 85.4829 221.475 85.7006 219.97 85.7734L221.195 84.0249Z" fill="#9A4A4D"/>
<path d="M181.237 143.129C182.13 139.782 183.438 136.447 183.438 136.447C183.438 136.447 182.73 131.865 181.415 126.372C180.139 121.088 180.095 111.76 180.273 110.181C180.663 106.788 182.117 104.916 185.875 103.98L193.314 103.265L205.213 103.421C206.916 103.421 213.028 108.725 217.131 115.056C219.415 118.572 220.474 123.883 215.383 129.115C215.599 132.866 213.883 138.391 213.883 138.391C213.883 138.391 215.268 144.559 204.313 146.496C189.333 149.161 181.237 143.129 181.237 143.129Z" fill="white" fill-opacity="0.5"/>
<path d="M184.772 103.98L193.315 103.265L205.213 103.421C206.917 103.421 213.029 108.725 217.131 115.056C219.415 118.572 220.672 123.889 215.574 129.122C215.628 130.545 215.456 131.967 215.064 133.334C215.064 133.334 199.624 143.253 182.826 132.866C182.488 131.104 182.022 128.829 181.435 126.366C180.159 121.081 180.114 111.754 180.293 110.174C180.663 106.788 181.014 104.916 184.772 103.98Z" fill="#37474F"/>
<path d="M208.537 127.77C208.537 127.77 206.163 131.826 200.122 131.904C197.727 131.949 195.382 131.204 193.437 129.78C191.493 128.355 190.053 126.327 189.333 124C189.333 124 190.028 132.801 199.279 133.75C206.891 134.556 208.537 127.77 208.537 127.77Z" fill="#263238" fill-opacity="0.8"/>
<path d="M184.771 103.98C184.771 103.98 170.397 94.3794 168.113 92.6829L184.924 86.4039L183.648 78.3699C183.648 78.3699 160.093 81.9839 155.742 83.3294C153.445 84.0379 152.38 84.7919 152.048 86.4104C151.5 89.1079 153.324 93.1314 156.208 96.8949C161.816 104.201 164.987 107.119 173.096 115.153C174.844 116.882 177.256 119.274 179.431 121.692C180.12 122.459 180.982 123.48 180.982 123.48C183.285 125.3 192.414 113.411 184.771 103.98Z" fill="white" fill-opacity="0.5"/>
<path d="M168.113 92.6829C165.842 93.4109 162.543 94.1194 160.253 93.9829C160.253 93.9829 164.081 95.8224 169.683 93.9049L168.113 92.6829Z" fill="#9A4A4D"/>
<path d="M195.228 82.3999C199.241 83.4984 203.254 85.2729 207.35 83.6089C208.811 83.0174 211.382 81.8474 210.865 79.7089C210.967 80.1282 211.186 80.5087 211.494 80.8054C211.802 81.1021 212.187 81.3023 212.604 81.3824C213.02 81.4625 213.451 81.4191 213.844 81.2572C214.237 81.0954 214.576 80.8219 214.821 80.4694C214.73 80.5783 214.616 80.6647 214.488 80.722C214.359 80.7794 214.22 80.8063 214.08 80.8007C213.94 80.7951 213.803 80.757 213.679 80.6895C213.555 80.622 213.449 80.5267 213.366 80.4109C213.218 80.161 213.139 79.8744 213.139 79.5822C213.139 79.2899 213.218 79.0033 213.366 78.7534C213.673 78.2616 214.054 77.8228 214.496 77.4534C215.425 76.661 216.128 75.6282 216.531 74.4634C216.757 73.6477 216.729 72.7807 216.452 71.9817C216.174 71.1827 215.661 70.4908 214.982 70.0013C214.302 69.5118 213.491 69.2486 212.659 69.248C211.827 69.2474 211.016 69.5094 210.336 69.9979C210.749 68.882 210.965 67.7002 210.974 66.5074C210.977 65.9107 210.859 65.3199 210.627 64.7718C210.395 64.2238 210.055 63.7303 209.628 63.3224C208.352 62.2109 206.438 62.2564 204.817 62.6724C203.209 63.0939 201.689 63.8097 200.332 64.7849C200.176 63.9127 199.762 63.1101 199.145 62.485C198.528 61.8598 197.737 61.4421 196.88 61.2879C196.022 61.1543 195.146 61.2007 194.305 61.4242C193.465 61.6478 192.678 62.0437 191.993 62.5879C190.631 63.6841 189.498 65.0479 188.663 66.5984C187.496 65.2464 185.518 65.2984 184.057 66.0784C183.29 66.4411 182.625 66.9952 182.124 67.6895C181.623 68.3838 181.303 69.1957 181.192 70.0499C180.88 71.9936 181.205 73.9878 182.117 75.7244C182.157 75.7777 182.186 75.8385 182.202 75.9032C182.218 75.9679 182.222 76.0352 182.213 76.1014C182.179 76.1913 182.122 76.27 182.047 76.3289C180.63 77.6823 179.662 79.4523 179.278 81.3924C178.865 83.8325 179.246 86.3433 180.363 88.5424C182.723 93.1834 187.547 95.3544 189.295 98.3574L188.848 86.2999C188.848 86.2999 189.952 87.3854 190.634 86.9499C191.579 86.3779 191.572 85.0909 191.432 84.2134C191.279 83.2124 191.509 82.4389 192.536 82.1594C193.439 82.0042 194.365 82.087 195.228 82.3999Z" fill="#263238" fill-opacity="0.8"/>
<path d="M206.859 96.7649C204.997 97.7966 202.897 98.3016 200.779 98.2274L201.193 104.123C201.193 104.123 205.117 107.88 204.001 112.17C193.875 109.57 189.837 104.448 189.837 104.448L188.81 92.7479C188.427 93.0721 187.964 93.2839 187.472 93.3606C186.98 93.4373 186.476 93.3761 186.015 93.1834C182.825 92.1304 182.462 88.0874 183.814 86.1829C184.084 85.7696 184.449 85.4294 184.876 85.1915C185.304 84.9537 185.782 84.8254 186.27 84.8177C186.757 84.8101 187.239 84.9232 187.673 85.1475C188.108 85.3717 188.483 85.7003 188.765 86.1049C188.835 86.2089 188.874 86.2544 188.874 86.2544C188.874 86.2544 189.977 87.3399 190.66 86.9044C192.191 85.9684 190.252 82.5299 191.591 81.0544C193.352 79.1044 192.089 76.0234 194.724 74.6844C197.174 73.4364 198.954 75.4124 200.211 75.0224C201.34 74.6779 200.689 72.9619 202.89 73.0334C205.092 73.1049 206.859 75.2694 206.859 75.2694C208.465 78.3989 209.417 81.834 209.653 85.3574C210.176 93.0664 208.103 95.9719 206.859 96.7649Z" fill="white" fill-opacity="0.5"/>
<path d="M200.613 80.333L202.323 88.328L206.227 86.521L200.613 80.333Z" fill="#9A4A4D"/>
<path d="M198.201 83.791C198.259 84.011 198.251 84.2433 198.18 84.459C198.108 84.6747 197.976 84.8641 197.799 85.0035C197.623 85.1429 197.41 85.2262 197.187 85.2428C196.964 85.2595 196.741 85.2088 196.546 85.0971C196.352 84.9854 196.194 84.8177 196.092 84.6149C195.991 84.4122 195.95 84.1834 195.975 83.9573C196.001 83.7311 196.091 83.5176 196.235 83.3435C196.379 83.1694 196.57 83.0424 196.785 82.9785C197.078 82.8964 197.392 82.9357 197.657 83.0879C197.922 83.24 198.118 83.4927 198.201 83.791Z" fill="#263238" fill-opacity="0.8"/>
<path d="M206.597 82.0034C206.654 82.2238 206.646 82.4562 206.573 82.6718C206.501 82.8873 206.367 83.0762 206.19 83.2149C206.013 83.3536 205.799 83.4358 205.576 83.4514C205.353 83.4669 205.13 83.415 204.936 83.3022C204.742 83.1893 204.585 83.0206 204.484 82.8172C204.384 82.6137 204.344 82.3845 204.371 82.1584C204.398 81.9322 204.49 81.7192 204.635 81.5459C204.78 81.3727 204.972 81.2469 205.187 81.1844C205.333 81.1431 205.484 81.1315 205.634 81.1504C205.784 81.1693 205.929 81.2182 206.06 81.2943C206.191 81.3705 206.306 81.4724 206.398 81.5941C206.49 81.7158 206.558 81.8549 206.597 82.0034Z" fill="#263238" fill-opacity="0.8"/>
<path d="M205 92.9061C204.954 93.1462 204.793 93.3727 204.538 93.5569C204.282 93.7411 203.943 93.8749 203.563 93.9413C203.184 94.0077 202.78 94.0038 202.404 93.9301C202.028 93.8564 201.696 93.7162 201.45 93.5271C201.204 93.3381 201.055 93.1086 201.022 92.8678C200.988 92.6269 201.072 92.3854 201.263 92.1737C201.454 91.962 201.5 92.4998 202.015 92.7645C202.52 92.9061 202.731 92.8797 203.123 92.9061C203.386 92.9228 203.5 92.9998 204.015 92.7644C204.5 92.4998 204.417 91.8733 204.582 91.9998C204.746 92.1263 204.868 92.2716 204.94 92.4272C205.012 92.5828 205.032 92.7456 205 92.9061Z" fill="#9A4A4D"/>
<path d="M200.779 98.2274C198.45 98.1169 193.684 97.5059 191.036 93.7944C191.468 95.2424 192.272 96.5463 193.365 97.5709C195.834 99.6249 200.932 100.463 200.932 100.463L200.779 98.2274Z" fill="#9A4A4D"/>
<path d="M197.021 79.8454L194.852 82.0489C194.565 81.745 194.404 81.3397 194.404 80.9179C194.404 80.4962 194.565 80.0909 194.852 79.7869C194.995 79.6403 195.166 79.5251 195.355 79.4483C195.543 79.3715 195.745 79.3347 195.948 79.3401C196.152 79.3456 196.351 79.3932 196.536 79.4801C196.72 79.567 196.885 79.6913 197.021 79.8454Z" fill="#263238" fill-opacity="0.8"/>
<path d="M206.98 79.371L204 78.5715C204.041 78.3707 204.122 78.1806 204.238 78.0128C204.353 77.845 204.502 77.7032 204.673 77.596C204.845 77.4888 205.036 77.4186 205.235 77.3896C205.434 77.3606 205.637 77.3735 205.832 77.4275C206.23 77.5406 206.572 77.805 206.785 78.1664C206.999 78.5279 207.068 78.9589 206.98 79.371Z" fill="#263238" fill-opacity="0.8"/>
<path opacity="0.1" d="M138.484 213.758C137.627 209.418 136.162 205.226 134.133 201.311C130.745 199.79 127.281 198.418 123.842 197.073L95.515 185.951C91.7699 184.476 87.9547 182.994 83.9544 182.701C78.8504 182.337 74.2887 184.97 69.5484 186.497C68.9698 186.616 68.4441 186.922 68.0491 187.368C67.5195 188.135 67.8577 189.188 68.2341 190.046C70.4288 195.09 73.3381 199.998 77.6765 203.293C82.2701 206.771 88.3566 208.396 91.7508 213.089C93.1927 215.071 93.9902 217.437 95.3172 219.485C96.6442 221.532 98.8517 222.774 100.81 224.035C110.731 230.366 122.7 232.199 134.293 233.889C135.132 234.086 136.005 234.086 136.845 233.889C137.368 233.695 137.846 233.392 138.248 232.998C139.663 226.674 139.744 220.116 138.484 213.758Z" fill="black"/>
<path d="M101.302 177.95C101.302 177.95 106.891 149.486 106.884 138.95C106.884 133.535 104.415 132.118 100.504 132.131C96.5932 132.144 73.3381 142.531 73.3381 142.531L75.8901 150.604L94.9408 146.054C94.9408 146.054 92.2229 157.104 91.6296 159.178C91.0363 161.251 90.2132 163.234 89.3009 165.743C88.8479 166.971 87.4762 167.927 86.2066 169.409C84.937 170.891 101.302 177.95 101.302 177.95Z" fill="#FFA8A7"/>
<path d="M94.9536 146.054C97.5822 145.729 100.287 144.377 101.193 143.194C100.669 144.563 99.654 145.678 98.3541 146.314C97.1156 146.998 95.8169 147.561 94.4751 147.998L94.9536 146.054Z" fill="#F28F8F"/>
<path d="M114.604 187.206L105.608 180.803C105.678 176.253 104.185 173.699 100.613 171.703C97.0399 169.708 86.2194 169.428 86.2194 169.428C86.2194 169.428 75.8583 171.56 72.9745 172.555C70.0907 173.549 67.0602 176.676 66.5945 179.321C66.1288 181.967 66.4541 188.317 70.4225 192.139C74.6588 196.208 76.6047 197.112 81.8682 199.478C83.5844 200.245 85.6069 200.557 88.2482 202.364C90.8758 203.952 93.0696 206.187 94.6282 208.864L114.604 187.206Z" fill="#FFA8A7"/>
<path d="M100.613 171.684C97.0463 169.669 86.2195 169.246 86.2195 169.246C86.2195 169.246 75.7244 171.378 72.8215 172.373C71.5618 172.775 70.3472 173.311 69.1976 173.972C67.3602 175.135 66.8625 177.625 66.5499 179.302C66.0523 181.954 65.1463 187.693 70.6842 192.893C74.4311 196.234 78.8459 198.704 83.6228 200.134C83.559 198.867 85.6963 193.062 90.8896 188.252C96.0829 183.442 102.878 180.452 105.564 180.803C105.908 176 104.186 173.699 100.613 171.684Z" fill="#00FFE0"/>
<path opacity="0.7" d="M100.613 171.684C97.0463 169.669 86.2195 169.246 86.2195 169.246C86.2195 169.246 75.7244 171.378 72.8215 172.373C71.5618 172.775 70.3472 173.311 69.1976 173.972C67.3602 175.135 66.8625 177.625 66.5499 179.302C66.0523 181.954 65.1463 187.693 70.6842 192.893C74.4311 196.234 78.8459 198.704 83.6228 200.134C83.559 198.867 85.6963 193.062 90.8896 188.252C96.0829 183.442 102.878 180.452 105.564 180.803C105.908 176 104.186 173.699 100.613 171.684Z" fill="white"/>
<path opacity="0.1" d="M105.608 180.803C105.65 180.178 105.65 179.55 105.608 178.925C103.095 178.723 100.364 178.054 97.8375 178.528C93.8883 179.269 92.4974 182.539 88.9055 186.25C85.3135 189.962 81.0262 196.436 71.9028 191.873L70.6268 183.507L67.1943 187.966C68.01 189.844 69.2083 191.524 70.7097 192.893C74.4567 196.234 78.8714 198.704 83.6484 200.134C83.5846 198.867 85.7219 193.062 90.9152 188.252C96.1085 183.442 102.897 180.42 105.608 180.803Z" fill="black"/>
<path d="M35.6197 160.829C37.2492 161.171 38.9171 161.285 40.5769 161.167C41.6033 161.101 42.623 160.953 43.6266 160.725C44.9029 160.465 46.1305 160 47.2632 159.347C49.477 158.001 51.0082 155.739 52.1183 153.373C53.2285 151.007 53.9941 148.479 55.0914 146.106C55.5008 145.109 56.0992 144.203 56.8523 143.441C57.2306 143.062 57.6905 142.777 58.1955 142.61C58.7004 142.444 59.2366 142.399 59.7616 142.479C60.5208 142.642 61.2609 143.129 62.0137 142.947C62.9835 142.687 63.2897 141.309 62.8112 140.412C61.8989 138.696 59.5064 137.975 57.4775 137.721C56.948 137.656 56.4376 137.624 55.991 137.611C52.9605 137.526 50.3511 138.911 48.2202 141.043C46.9126 142.398 45.7552 143.896 44.7686 145.508C43.7542 147.088 42.542 148.706 40.8194 149.525C38.8224 150.481 36.5511 150.084 34.6371 149.122C33.527 148.563 32.3595 147.822 31.1409 148.063C30.69 148.157 30.2653 148.352 29.8977 148.634C29.5302 148.916 29.2291 149.279 29.0164 149.694C28.5989 150.534 28.4033 151.471 28.4485 152.411C28.4635 153.724 28.7745 155.016 29.3575 156.187C29.9405 157.358 30.7799 158.377 31.8108 159.165C32.9536 159.982 34.2506 160.549 35.6197 160.829Z" fill="#455A64"/>
<path d="M69.2167 173.972C69.2167 173.972 53.6559 163.897 51.174 162.512L65.9693 155.109L63.5512 146.919C63.5512 146.919 41.8592 152.938 37.725 154.829C35.5367 155.824 34.5733 156.714 34.4457 158.359C34.2351 161.108 36.5447 164.859 39.8687 168.219C47.0472 175.298 54.8775 181.656 63.2514 187.206C65.2501 188.428 67.1546 189.804 68.9487 191.32C69.7271 191.97 70.7032 192.893 70.7032 192.893C73.2361 194.421 77.97 182.344 69.2167 173.972Z" fill="#FFA8A7"/>
<path d="M51.174 162.512C48.6725 163.652 46.0081 164.376 43.282 164.657C43.282 164.657 47.4609 166.094 52.769 163.474L51.174 162.512Z" fill="#F28F8F"/>
<path d="M58.1412 150.864C58.1412 146.035 59.8127 141.004 65.912 138.189C69.689 136.239 73.0895 136.759 77.6129 134.536C79.6673 133.529 81.5749 132.716 83.2592 132.924C85.1732 133.165 86.7682 134.647 87.3743 137.078C87.7029 138.361 87.56 139.723 86.9724 140.906C89.2883 142.746 89.1671 147.244 85.9835 149.402L86.6215 162.642C86.6215 162.642 72.4706 172.165 71.5136 169.448C66.7669 165.086 58.1156 162.831 58.1412 150.864Z" fill="#455A64"/>
<path d="M73.402 173.588L69.6825 164.241C69.6825 164.241 68.9743 166.295 66.1735 165.45C63.6598 164.69 61.7075 161.804 62.5241 159.646C63.0983 158.118 65.9374 156.363 68.0173 158.437C68.0173 158.437 71.5008 156.968 74.9524 151.937C78.4039 146.906 78.4614 143.545 81.1856 142.187C82.8827 142.739 85.2497 145.313 87.942 153.419C89.9326 159.412 88.3185 163.208 87.304 164.722C86.5065 165.951 85.2624 166.334 82.6658 167.043L83.795 170.585C89.7859 173.673 80.924 177.794 73.402 173.588Z" fill="#FFA8A7"/>
<path d="M77.0452 154.283C77.1256 154.496 77.1428 154.727 77.0948 154.949C77.0467 155.171 76.9355 155.374 76.775 155.532C76.6146 155.69 76.4119 155.796 76.1925 155.838C75.973 155.879 75.7464 155.854 75.5411 155.765C75.3357 155.676 75.1606 155.527 75.0377 155.337C74.9149 155.147 74.8496 154.925 74.8501 154.697C74.8506 154.47 74.9169 154.248 75.0406 154.059C75.1644 153.869 75.3401 153.721 75.5459 153.633C75.8295 153.52 76.1457 153.524 76.4262 153.645C76.7067 153.767 76.929 153.996 77.0452 154.283Z" fill="#263238"/>
<path d="M85.2497 148.401L82.5063 147.653C82.551 147.471 82.6308 147.299 82.7412 147.147C82.8516 146.996 82.9903 146.869 83.1493 146.773C83.3084 146.677 83.4846 146.614 83.6677 146.587C83.8509 146.561 84.0373 146.572 84.2162 146.62C84.5833 146.719 84.8974 146.962 85.0907 147.295C85.284 147.628 85.3411 148.025 85.2497 148.401Z" fill="#263238"/>
<path d="M84.8033 151.95C84.8641 152.09 84.8968 152.241 84.8995 152.394C84.9022 152.548 84.8748 152.7 84.8189 152.842C84.763 152.984 84.6798 153.114 84.5742 153.223C84.4685 153.332 84.3425 153.418 84.2036 153.477C83.9201 153.593 83.6032 153.589 83.3222 153.468C83.0413 153.346 82.8191 153.116 82.7043 152.827C82.6473 152.687 82.6181 152.536 82.6182 152.384C82.6183 152.232 82.6478 152.082 82.7049 151.942C82.7621 151.801 82.8458 151.674 82.9514 151.567C83.0569 151.459 83.1821 151.374 83.32 151.316C83.4578 151.258 83.6055 151.228 83.7546 151.228C83.9038 151.228 84.0514 151.258 84.1891 151.317C84.3269 151.375 84.452 151.46 84.5574 151.568C84.6628 151.675 84.7463 151.803 84.8033 151.943V151.95Z" fill="#263238"/>
<path d="M79.3801 151.82L81.09 158.599L84.6117 156.779L79.3801 151.82Z" fill="#F28F8F"/>
<path d="M82.5063 162.714C83.0842 162.714 83.5526 162.237 83.5526 161.648C83.5526 161.059 83.0842 160.582 82.5063 160.582C81.9284 160.582 81.46 161.059 81.46 161.648C81.46 162.237 81.9284 162.714 82.5063 162.714Z" fill="#B16668"/>
<path d="M76.1519 157.8C76.4773 158.573 75.9095 159.574 74.8759 160.036C73.8423 160.497 72.7322 160.231 72.4005 159.451C72.0687 158.671 72.6429 157.676 73.6765 157.215C74.71 156.753 75.8201 156.994 76.1519 157.8Z" fill="#F28F8F"/>
<path d="M89.4989 153.783C89.6584 154.615 88.8609 155.466 87.7827 155.687C86.7044 155.908 85.6454 155.414 85.4859 154.582C85.3264 153.75 86.0919 152.899 87.2021 152.678C88.3122 152.457 89.3202 152.951 89.4989 153.783Z" fill="#F28F8F"/>
<path d="M82.6978 167.023C80.0948 167.608 74.4676 168.005 72.9619 166.276C73.6408 167.196 74.584 167.877 75.6607 168.226C77.6448 168.973 83.1891 168.681 83.1891 168.681L82.6978 167.023Z" fill="#F28F8F"/>
<path d="M67.8196 157.878L68.9807 161.18C69.2822 161.074 69.5601 160.908 69.7987 160.693C70.0372 160.477 70.2317 160.216 70.371 159.924C70.5103 159.631 70.5916 159.314 70.6103 158.99C70.629 158.665 70.5847 158.341 70.48 158.034L69.3572 154.842L67.8196 157.878Z" fill="#455A64"/>
<path d="M169.568 229.41C169.529 231.51 167.813 258.01 167.807 258.985C167.784 260.643 167.912 262.299 168.19 263.932C168.32 264.636 168.517 265.326 168.777 265.992C169.045 266.753 169.587 267.799 169.198 268.501C168.997 268.828 168.737 269.113 168.432 269.34C167.093 270.37 165.416 270.835 163.749 270.64C162.867 270.583 162.017 270.279 161.293 269.762C159.87 268.69 159.379 266.863 158.69 265.297C157.924 263.607 158.473 262.775 158.435 260.968C158.396 258.959 153.969 233.499 153.669 231.51C157.063 228 165.631 228.136 169.568 229.41Z" fill="#FFA8A7"/>
<path d="M164.534 208.149C159.615 204.496 134.299 192.906 125.042 191.171L95.9807 213.394C97.5119 217.294 131.243 220.869 131.243 220.869C131.243 220.869 148.526 223.671 152.718 223.801C152.66 226.406 152.772 229.012 153.056 231.601C153.662 235.93 154.536 239.927 155.704 245.173C158.983 247.714 167.583 246.869 168.879 245.14C169.389 237.392 169.67 231.282 169.919 221.604C170.142 213.095 168.796 211.321 164.534 208.149Z" fill="#455A64"/>
<path d="M149.381 223.508C149.675 219.075 148.743 217.561 145.968 215.267C143.193 212.972 127.466 204.217 127.466 204.217C127.466 204.217 127.3 199.14 125.782 195.552L123.319 205.126L147.442 223.288L149.381 223.508Z" fill="#37474F"/>
<path d="M156.948 268.586C156.92 269.321 157.038 270.055 157.293 270.744C157.529 271.478 159.991 273.285 160.846 274.494C161.701 275.703 161.803 276.184 162.76 277.835C163.832 279.662 164.381 281.891 169.293 283.809C174.206 285.726 177.549 285.018 179.891 284.329C182.232 283.64 182.972 282.47 182.972 282.47C182.972 282.47 183.865 279.61 182.334 278.921C180.803 278.232 156.948 268.586 156.948 268.586Z" fill="#263238"/>
<path d="M169.823 262.157C170.18 262.547 170.359 263.626 170.512 264.107C171.016 265.797 172.241 267.357 173.351 268.703C178.583 275.014 183.712 275.034 183.412 280.338C183.253 281.82 180.465 283.958 174.11 283.926C170.869 283.926 166.027 281.508 164.636 279.376C163.245 277.244 162.69 275.45 161.561 273.89C160.432 272.33 157.586 270.386 156.974 268.586C156.682 267.499 156.634 266.36 156.833 265.251C156.942 264.354 157.471 262.651 157.624 261.748C157.778 260.844 157.624 260.194 158.377 260.149L158.69 261.559C159.328 263.893 159.806 263.763 160.636 264.387C161.468 265.129 162.221 265.96 162.882 266.863C162.512 265.277 161.905 264.263 162.728 263.522C163.551 262.781 164.642 262.424 166.722 262.099C168.802 261.774 169.504 261.8 169.823 262.157Z" fill="#00FFE0"/>
<path opacity="0.4" d="M169.823 262.157C170.18 262.547 170.359 263.626 170.512 264.107C171.016 265.797 172.241 267.357 173.351 268.703C178.583 275.014 183.712 275.034 183.412 280.338C183.253 281.82 180.465 283.958 174.11 283.926C170.869 283.926 166.027 281.508 164.636 279.376C163.245 277.244 162.69 275.45 161.561 273.89C160.432 272.33 157.586 270.386 156.974 268.586C156.682 267.499 156.634 266.36 156.833 265.251C156.942 264.354 157.471 262.651 157.624 261.748C157.778 260.844 157.624 260.194 158.377 260.149L158.69 261.559C159.328 263.893 159.806 263.763 160.636 264.387C161.468 265.129 162.221 265.96 162.882 266.863C162.512 265.277 161.905 264.263 162.728 263.522C163.551 262.781 164.642 262.424 166.722 262.099C168.802 261.774 169.504 261.8 169.823 262.157Z" fill="black"/>
<path opacity="0.3" d="M174.11 283.945C170.869 283.945 166.027 281.527 164.636 279.395C164.179 278.691 163.764 277.959 163.392 277.205C163.494 277.335 163.596 277.478 163.692 277.582C163.902 277.816 164.119 278.043 164.33 278.232C165.175 279.138 166.234 279.809 167.405 280.182C168.464 280.442 171.054 281.183 171.928 280.143C172.42 279.558 172.235 278.576 171.75 277.809C171.545 277.484 170.914 276.717 170.914 276.717C171.896 275.914 172.999 275.278 174.18 274.832C175.286 274.429 176.446 274.198 177.619 274.15C177.979 274.595 178.411 274.976 178.895 275.274C179.447 275.568 180.054 275.736 180.675 275.768C180.893 275.746 181.107 275.695 181.313 275.619C182.704 276.841 183.54 278.134 183.412 280.357C183.253 281.839 180.465 283.978 174.11 283.945Z" fill="black"/>
<path d="M173.351 268.722C174.733 270.375 176.306 271.852 178.034 273.123C179.176 274.995 178.736 275.469 177.855 274.871C176.975 274.273 174.404 270.393 172.209 267.279C172.579 267.786 172.968 268.3 173.351 268.722Z" fill="#37474F"/>
<path d="M159.309 264.777C158.446 264.197 157.809 263.328 157.51 262.32C157.554 262.112 157.599 261.917 157.624 261.748C157.765 260.779 157.624 260.194 158.377 260.149L158.69 261.559C159.328 263.893 159.806 263.763 160.636 264.387C161.468 265.129 162.221 265.96 162.881 266.863C165.095 269.684 165.542 271.004 167.864 273.363C170.187 275.723 172.33 276.581 172.177 277.068C172.024 277.556 171.169 278.063 168.987 276.548C166.805 275.034 164.094 271.348 162.964 269.398C161.835 267.448 160.508 265.524 159.309 264.777Z" fill="#37474F"/>
<path d="M170.984 277.094C171.05 277.088 171.112 277.061 171.163 277.016C173.039 275.445 175.388 274.576 177.817 274.553C177.903 274.548 177.983 274.509 178.041 274.445C178.1 274.381 178.131 274.296 178.13 274.208C178.128 274.165 178.118 274.122 178.1 274.083C178.082 274.043 178.057 274.007 178.025 273.978C177.994 273.948 177.957 273.925 177.917 273.91C177.877 273.895 177.834 273.888 177.791 273.89C175.219 273.913 172.732 274.83 170.741 276.49C170.677 276.548 170.637 276.629 170.63 276.716C170.622 276.803 170.649 276.89 170.703 276.958C170.736 277.002 170.779 277.037 170.828 277.06C170.876 277.084 170.93 277.096 170.984 277.094Z" fill="#EBEBEB"/>
<path d="M169.07 275.047C169.133 275.039 169.192 275.014 169.242 274.975C171.254 273.387 173.716 272.507 176.26 272.466C176.304 272.465 176.347 272.456 176.387 272.437C176.427 272.419 176.463 272.393 176.493 272.36C176.523 272.327 176.546 272.289 176.561 272.247C176.576 272.205 176.582 272.16 176.579 272.115C176.576 272.025 176.538 271.94 176.474 271.878C176.409 271.816 176.323 271.782 176.235 271.784C173.538 271.828 170.928 272.761 168.796 274.442C168.737 274.487 168.694 274.551 168.675 274.624C168.655 274.697 168.66 274.774 168.689 274.843C168.717 274.913 168.768 274.97 168.832 275.007C168.897 275.044 168.971 275.058 169.044 275.047H169.07Z" fill="#EBEBEB"/>
<path d="M166.697 273.207C166.767 273.201 166.833 273.174 166.888 273.129C169.115 271.372 171.842 270.4 174.659 270.36C174.756 270.355 174.847 270.312 174.913 270.239C174.978 270.166 175.013 270.069 175.01 269.97C175.008 269.921 174.997 269.873 174.977 269.828C174.957 269.783 174.928 269.743 174.892 269.71C174.856 269.676 174.815 269.651 174.769 269.634C174.724 269.617 174.675 269.61 174.627 269.613C171.654 269.656 168.776 270.685 166.429 272.544C166.37 272.595 166.33 272.664 166.312 272.74C166.294 272.816 166.301 272.896 166.331 272.969C166.36 273.041 166.412 273.102 166.478 273.142C166.543 273.183 166.62 273.201 166.697 273.194V273.207Z" fill="#EBEBEB"/>
<path d="M164.961 271.251C165.029 271.238 165.092 271.209 165.146 271.166C167.329 269.443 170.003 268.492 172.764 268.456C172.815 268.46 172.867 268.453 172.916 268.435C172.964 268.418 173.009 268.39 173.046 268.353C173.083 268.317 173.112 268.273 173.131 268.224C173.15 268.175 173.159 268.123 173.157 268.07C173.154 268.018 173.141 267.966 173.118 267.919C173.095 267.872 173.062 267.831 173.022 267.798C172.982 267.765 172.935 267.741 172.885 267.728C172.835 267.715 172.783 267.713 172.732 267.721C169.817 267.762 166.995 268.771 164.693 270.594C164.62 270.657 164.572 270.746 164.562 270.843C164.551 270.94 164.578 271.037 164.636 271.114C164.675 271.162 164.726 271.199 164.782 271.223C164.839 271.247 164.9 271.256 164.961 271.251Z" fill="#EBEBEB"/>
<path d="M163.583 268.95C163.651 268.937 163.714 268.908 163.768 268.865C165.951 267.142 168.625 266.191 171.386 266.155C171.434 266.153 171.48 266.142 171.523 266.122C171.567 266.101 171.605 266.073 171.637 266.037C171.669 266.001 171.694 265.959 171.71 265.914C171.726 265.868 171.733 265.82 171.731 265.771C171.729 265.723 171.718 265.676 171.698 265.632C171.678 265.588 171.65 265.548 171.615 265.515C171.58 265.483 171.539 265.457 171.494 265.441C171.449 265.425 171.402 265.418 171.354 265.42C168.444 265.471 165.627 266.481 163.328 268.3C163.27 268.351 163.229 268.42 163.211 268.496C163.194 268.572 163.2 268.652 163.23 268.724C163.26 268.796 163.311 268.857 163.377 268.898C163.443 268.938 163.519 268.957 163.596 268.95H163.583Z" fill="#EBEBEB"/>
<path d="M147.461 239.173C147.461 241.273 145.305 273.201 145.298 274.15C145.275 275.807 145.403 277.463 145.681 279.096C145.812 279.798 146.009 280.486 146.268 281.15C146.536 281.917 147.078 282.964 146.689 283.666C146.494 283.991 146.241 284.275 145.943 284.504C144.603 285.534 142.927 286 141.26 285.804C140.377 285.747 139.527 285.444 138.803 284.927C137.381 283.854 136.889 282.021 136.2 280.461C135.435 278.771 135.983 277.933 135.945 276.132C135.907 274.124 131.288 243.086 130.981 241.097C134.356 237.594 143.55 237.899 147.461 239.173Z" fill="#FFA8A7"/>
<path d="M148.233 226.225C148.195 224.47 148.635 220.206 144.545 216.8C139.173 212.322 125.048 205.289 125.048 205.289C126.994 201.207 125.559 193.719 125.048 191.171C121.016 189.305 117.947 187.583 113.417 186.25C102.992 186.9 95.1642 195.864 91.4255 204.821C92.3634 206.309 92.8993 208.337 95.2535 212.283C97.0887 215.315 99.7699 217.721 102.954 219.192C115.421 225.166 124.799 227.317 130.273 229.293C130.095 231.49 129.457 235.033 130.133 239.784C130.771 244.107 131.843 249.489 133.01 254.734C136.29 257.276 145.33 256.034 146.625 254.312C147.123 246.564 148.412 235.598 148.233 226.225Z" fill="#455A64"/>
<path d="M134.618 230.522C134.892 227.987 134.963 227.155 134.663 226.589C133.961 225.257 132.155 224.685 128.563 223.547C127.217 223.118 125.539 222.592 123.613 221.916C122.507 221.535 121.399 221.158 120.289 220.785C113.953 218.653 107.401 216.449 101.933 211.685C99.6366 209.683 97.9395 206.764 96.2934 203.943C95.4768 202.552 94.6921 201.2 93.8627 200.004C93.499 200.615 93.1545 201.233 92.8291 201.85C93.4671 202.806 94.0541 203.846 94.6793 204.918C96.4019 207.876 98.1883 210.931 100.708 213.134C106.45 218.165 113.194 220.427 119.702 222.618C120.805 222.988 121.909 223.359 123.007 223.742C124.959 224.425 126.649 224.958 128.008 225.393C130.631 226.219 132.551 226.83 132.978 227.454C132.962 228.415 132.888 229.375 132.755 230.327C132.704 230.814 132.647 231.334 132.589 231.893C131.741 240.291 133.865 250.594 135.103 255.735C135.768 255.914 136.447 256.038 137.132 256.106C135.964 251.439 133.591 240.577 134.452 232.095C134.503 231.516 134.561 230.996 134.618 230.522Z" fill="#EBEBEB"/>
<path d="M90.9087 204.353C92.6107 199.379 95.6665 195.001 99.7195 191.73C106.463 186.328 110.483 186.276 112.76 185.88L118.209 187.966C118.209 187.966 112.677 187.316 103.688 194.57C95.0174 201.59 93.6011 209.28 93.6011 209.28C92.4271 206.849 91.4829 205.016 90.9087 204.353Z" fill="#37474F"/>
<path d="M134.465 283.75C134.436 284.487 134.556 285.221 134.816 285.908C135.045 286.643 137.508 288.45 138.363 289.652C139.218 290.855 139.32 291.349 140.277 293C141.349 294.826 141.898 297.056 146.81 298.973C151.723 300.891 155.066 300.182 157.407 299.493C159.749 298.804 160.495 297.634 160.495 297.634C160.495 297.634 161.382 294.775 159.857 294.086C158.332 293.397 134.465 283.75 134.465 283.75Z" fill="#263238"/>
<path d="M147.314 277.322C147.672 277.712 147.85 278.791 148.003 279.272C148.507 280.962 149.732 282.522 150.842 283.867C156.08 290.179 161.203 290.198 160.904 295.502C160.744 296.984 157.956 299.123 151.602 299.09C148.361 299.09 143.518 296.672 142.127 294.54C140.736 292.408 140.181 290.582 139.052 289.028C137.923 287.475 135.077 285.525 134.465 283.724C134.173 282.638 134.125 281.498 134.325 280.39C134.433 279.493 134.963 277.79 135.116 276.886C135.269 275.983 135.116 275.333 135.869 275.287L136.181 276.698C136.819 279.031 137.298 278.901 138.127 279.519C138.958 280.265 139.71 281.097 140.373 282.002C140.003 280.416 139.397 279.402 140.22 278.661C141.043 277.92 142.134 277.556 144.214 277.237C146.293 276.919 146.995 276.977 147.314 277.322Z" fill="#00FFE0"/>
<path opacity="0.4" d="M147.314 277.322C147.672 277.712 147.85 278.791 148.003 279.272C148.507 280.962 149.732 282.522 150.842 283.867C156.08 290.179 161.203 290.198 160.904 295.502C160.744 296.984 157.956 299.123 151.602 299.09C148.361 299.09 143.518 296.672 142.127 294.54C140.736 292.408 140.181 290.582 139.052 289.028C137.923 287.475 135.077 285.525 134.465 283.724C134.173 282.638 134.125 281.498 134.325 280.39C134.433 279.493 134.963 277.79 135.116 276.886C135.269 275.983 135.116 275.333 135.869 275.287L136.181 276.698C136.819 279.031 137.298 278.901 138.127 279.519C138.958 280.265 139.71 281.097 140.373 282.002C140.003 280.416 139.397 279.402 140.22 278.661C141.043 277.92 142.134 277.556 144.214 277.237C146.293 276.919 146.995 276.977 147.314 277.322Z" fill="black"/>
<path opacity="0.3" d="M151.602 299.11C148.361 299.11 143.518 296.692 142.127 294.56C141.66 293.856 141.234 293.125 140.851 292.369C140.953 292.499 141.055 292.642 141.151 292.746C141.362 292.98 141.579 293.208 141.789 293.396C142.633 294.304 143.692 294.976 144.864 295.346C145.923 295.606 148.514 296.341 149.388 295.307C149.879 294.722 149.694 293.741 149.209 292.974C149.005 292.649 148.373 291.882 148.373 291.882C149.356 291.078 150.459 290.442 151.64 289.997C152.737 289.579 153.89 289.334 155.06 289.269C155.42 289.714 155.851 290.094 156.336 290.393C156.887 290.687 157.494 290.855 158.116 290.887C158.333 290.864 158.548 290.814 158.754 290.738C160.144 291.96 160.98 293.253 160.853 295.476C160.776 297.004 157.956 299.142 151.602 299.11Z" fill="black"/>
<path d="M150.842 283.9C152.225 285.552 153.797 287.03 155.525 288.3C156.674 290.172 156.227 290.647 155.347 290.049C154.466 289.451 151.895 285.57 149.7 282.457C150.07 282.951 150.46 283.432 150.842 283.9Z" fill="#37474F"/>
<path d="M136.807 279.941C135.94 279.364 135.301 278.494 135.001 277.484C135.046 277.276 135.09 277.081 135.116 276.912C135.256 275.944 135.116 275.359 135.869 275.313L136.181 276.724C136.819 279.057 137.298 278.927 138.127 279.545C138.958 280.291 139.711 281.123 140.373 282.028C142.587 284.849 143.033 286.168 145.356 288.528C147.678 290.887 149.822 291.745 149.669 292.233C149.515 292.72 148.661 293.227 146.479 291.713C144.297 290.198 141.585 286.513 140.456 284.563C139.327 282.613 138 280.689 136.807 279.941Z" fill="#37474F"/>
<path d="M148.456 292.259C148.522 292.25 148.583 292.223 148.635 292.181C150.516 290.621 152.864 289.764 155.289 289.75C155.375 289.745 155.456 289.706 155.514 289.642C155.572 289.578 155.604 289.493 155.602 289.405C155.6 289.362 155.59 289.319 155.572 289.28C155.554 289.24 155.529 289.204 155.498 289.175C155.466 289.145 155.429 289.122 155.389 289.107C155.349 289.092 155.307 289.085 155.264 289.087C152.692 289.11 150.204 290.027 148.214 291.687C148.149 291.745 148.109 291.826 148.102 291.913C148.095 292 148.121 292.087 148.176 292.155C148.212 292.193 148.256 292.222 148.304 292.24C148.353 292.258 148.405 292.264 148.456 292.259Z" fill="#EBEBEB"/>
<path d="M146.581 290.211C146.643 290.203 146.702 290.178 146.753 290.14C148.764 288.552 151.227 287.671 153.771 287.631C153.815 287.63 153.858 287.62 153.898 287.602C153.938 287.584 153.974 287.557 154.004 287.525C154.034 287.492 154.056 287.453 154.071 287.411C154.086 287.369 154.092 287.324 154.09 287.28C154.086 287.19 154.048 287.104 153.984 287.042C153.92 286.98 153.834 286.947 153.745 286.948C151.049 286.993 148.439 287.925 146.306 289.607C146.237 289.664 146.193 289.747 146.184 289.837C146.174 289.927 146.2 290.017 146.255 290.088C146.294 290.136 146.344 290.173 146.401 290.194C146.459 290.216 146.52 290.222 146.581 290.211Z" fill="#EBEBEB"/>
<path d="M144.188 288.372C144.258 288.366 144.325 288.338 144.38 288.294C146.605 286.534 149.333 285.562 152.15 285.525C152.247 285.52 152.339 285.476 152.404 285.403C152.47 285.33 152.505 285.234 152.501 285.135C152.5 285.086 152.488 285.037 152.468 284.992C152.448 284.948 152.419 284.908 152.384 284.874C152.348 284.841 152.306 284.815 152.261 284.799C152.215 284.782 152.167 284.775 152.118 284.777C149.146 284.82 146.267 285.85 143.92 287.709C143.882 287.739 143.85 287.777 143.827 287.82C143.803 287.863 143.788 287.911 143.783 287.96C143.777 288.009 143.782 288.058 143.795 288.106C143.809 288.153 143.832 288.197 143.863 288.235C143.902 288.284 143.952 288.322 144.008 288.346C144.065 288.369 144.127 288.378 144.188 288.372Z" fill="#EBEBEB"/>
<path d="M142.453 286.415C142.52 286.402 142.583 286.373 142.638 286.331C144.82 284.608 147.495 283.656 150.255 283.62C150.35 283.614 150.439 283.57 150.503 283.499C150.567 283.428 150.602 283.334 150.6 283.237C150.595 283.14 150.553 283.049 150.482 282.983C150.412 282.917 150.319 282.882 150.224 282.886C147.309 282.927 144.486 283.936 142.185 285.759C142.111 285.821 142.064 285.91 142.053 286.007C142.042 286.104 142.069 286.202 142.127 286.279C142.167 286.327 142.217 286.364 142.274 286.388C142.33 286.411 142.392 286.421 142.453 286.415Z" fill="#EBEBEB"/>
<path d="M141.075 284.095C141.142 284.082 141.205 284.053 141.26 284.01C143.442 282.288 146.116 281.336 148.877 281.3C148.925 281.298 148.971 281.287 149.015 281.267C149.058 281.246 149.097 281.218 149.129 281.182C149.161 281.146 149.185 281.104 149.201 281.059C149.217 281.013 149.224 280.965 149.222 280.916C149.22 280.868 149.209 280.821 149.189 280.777C149.169 280.733 149.141 280.693 149.106 280.66C149.071 280.628 149.03 280.603 148.985 280.586C148.94 280.57 148.893 280.563 148.845 280.565C145.931 280.611 143.11 281.619 140.807 283.438C140.748 283.49 140.707 283.558 140.69 283.634C140.672 283.711 140.679 283.791 140.709 283.863C140.738 283.935 140.79 283.996 140.856 284.036C140.921 284.077 140.998 284.095 141.075 284.088V284.095Z" fill="#EBEBEB"/>
<path d="M179 84.5L161.064 89.0882C159.528 89.4812 159.038 91.42 160.203 92.4954L180.751 111.463C181.926 112.547 183.834 111.884 184.083 110.305L185 104.5L182.06 122.629C182.02 122.874 182.027 123.125 182.079 123.368L184.86 136.348C184.951 136.771 184.902 137.212 184.721 137.605L182.123 143.234C182.041 143.411 181.986 143.598 181.959 143.79L180.431 154.483C180.227 155.908 181.551 157.075 182.939 156.695L214.702 147.993C215.715 147.715 216.34 146.701 216.134 145.672L215.5 142.5L213.671 135.642C213.56 135.225 213.586 134.784 213.747 134.383L216.5 127.5L219.07 122.36C219.342 121.816 219.352 121.179 219.097 120.627L216.565 115.142C216.522 115.047 216.471 114.957 216.414 114.87L212.5 109M205.5 103.5L212.5 109M212.5 109L228.634 81.213C229.434 79.8354 228.381 78.1211 226.791 78.212L213 79" stroke="#00FF0A"/>
<path d="M179.5 157.5L216.33 185C216.759 185.32 217.041 185.798 217.115 186.328L223.213 230.422C223.369 231.553 224.44 232.324 225.562 232.113L229.915 231.297C230.84 231.124 231.519 230.329 231.546 229.388L233 178.5V173M233 173L245.482 216.688C245.773 217.706 246.806 218.321 247.839 218.091L253.401 216.855C254.331 216.649 254.986 215.815 254.967 214.863L254.024 168.179C254.009 167.452 253.6 166.789 252.957 166.45L217.72 147.88C217.258 147.636 216.72 147.583 216.219 147.731L207.381 150.35C205.792 150.821 205.432 152.908 206.771 153.884L224.767 167L233 173Z" stroke="#00FF0A"/>
<circle cx="159" cy="90" r="3" fill="#00FF57"/>
<circle cx="184" cy="114" r="3" fill="#00FF29"/>
<circle cx="185" cy="135" r="3" fill="#00FF29"/>
<circle cx="214" cy="134" r="3" fill="#00FF29"/>
<circle cx="217" cy="147" r="3" fill="#00FF29"/>
<circle cx="204" cy="151" r="3" fill="#00FF29"/>
<circle cx="181" cy="157" r="3" fill="#00FF29"/>
<circle cx="217" cy="185" r="3" fill="#00FF29"/>
<circle cx="224" cy="232" r="3" fill="#00FF29"/>
<circle cx="233" cy="174" r="3" fill="#00FF29"/>
<circle cx="254" cy="167" r="3" fill="#00FF29"/>
<circle cx="255" cy="215" r="3" fill="#00FF29"/>
<circle cx="246" cy="217" r="3" fill="#00FF29"/>
<circle cx="231" cy="230" r="3" fill="#00FF29"/>
<circle cx="230" cy="78" r="3" fill="#00FF47"/>
<circle cx="212" cy="109" r="3" fill="#00FF47"/>
<path d="M185 105L195.25 104.25M195.25 104.25L204.686 103.56C205.208 103.521 205.724 103.689 206.123 104.027L211.747 108.786C211.915 108.928 212.058 109.096 212.17 109.284L219.5 121.5M195.25 104.25V97.5" stroke="#00FF0A"/>
<path d="M195.5 104L203.5 150" stroke="#00FF0A"/>
<path d="M202.371 36.7744L189.412 41.8175L194.557 49.5971C194.659 49.7523 194.832 49.8817 195.05 49.9665L199.535 51.6927C199.69 51.7537 199.864 51.7902 200.043 51.7995C200.222 51.8088 200.402 51.7907 200.569 51.7464C200.737 51.7021 200.887 51.6329 201.009 51.544C201.13 51.455 201.221 51.3487 201.272 51.2329L206.878 38.5082L202.371 36.7744Z" fill="#00FFE0"/>
<path opacity="0.2" d="M202.371 36.7744L189.412 41.8175L194.557 49.5971C194.659 49.7523 194.832 49.8817 195.05 49.9665L199.535 51.6927C199.69 51.7537 199.864 51.7902 200.043 51.7995C200.222 51.8088 200.402 51.7907 200.569 51.7464C200.737 51.7021 200.887 51.6329 201.009 51.544C201.13 51.455 201.221 51.3487 201.272 51.2329L206.878 38.5082L202.371 36.7744Z" fill="black"/>
<path d="M193.873 43.5514L199.019 51.331C199.115 51.4843 199.279 51.6138 199.489 51.7014C199.699 51.789 199.945 51.8302 200.192 51.8194C200.439 51.8086 200.674 51.7463 200.866 51.6412C201.058 51.5361 201.196 51.3934 201.261 51.233L206.866 38.5083L193.873 43.5514Z" fill="#00FFE0"/>
<path d="M233.895 0.198625L154.301 31.1057C153.942 31.2622 153.643 31.4735 153.429 31.7224C153.214 31.9713 153.09 32.2508 153.067 32.538V54.7986C153.089 55.0851 153.212 55.3639 153.426 55.6118C153.641 55.8597 153.941 56.0694 154.301 56.2233L158.706 57.8818C159.089 58.0116 159.511 58.0793 159.939 58.0793C160.368 58.0793 160.79 58.0116 161.173 57.8818L240.767 26.9747C241.125 26.8194 241.423 26.6094 241.638 26.3618C241.852 26.1142 241.976 25.836 242 25.55V3.27426C241.974 2.9885 241.85 2.71076 241.635 2.46334C241.421 2.21591 241.124 2.00568 240.767 1.84952L236.361 0.191088C235.977 0.0641115 235.555 -0.0012887 235.127 1.92383e-05C234.699 0.00132718 234.277 0.0693064 233.895 0.198625Z" fill="#00FFE0"/>
<path d="M159.906 57.4145V35.1463C159.929 34.8601 160.053 34.5817 160.267 34.334C160.481 34.0863 160.78 33.8764 161.139 33.7216L240.733 2.81451C241.417 2.55067 241.966 2.76175 241.966 3.28943V25.5425C241.943 25.8286 241.818 26.1067 241.604 26.3543C241.39 26.602 241.091 26.812 240.733 26.9673L161.139 57.8743C160.421 58.1532 159.906 57.9422 159.906 57.4145Z" fill="#00FFE0"/>
<path opacity="0.2" d="M161.105 57.8893C160.721 58.0158 160.3 58.0815 159.872 58.0815C159.445 58.0815 159.023 58.0158 158.639 57.8893L154.233 56.2158C153.875 56.0621 153.577 55.8535 153.363 55.6071C153.148 55.3607 153.024 55.0836 153 54.7986V32.553C153.018 32.2533 153.153 31.962 153.392 31.7087L160.231 34.3396C160.007 34.5824 159.883 34.8607 159.872 35.1462V57.4144C159.906 57.8968 160.376 58.1757 161.105 57.8893Z" fill="black"/>
<path opacity="0.4" d="M241.933 3.12361C241.843 2.709 241.339 2.55823 240.722 2.79946L161.128 33.7065C160.759 33.8558 160.456 34.0694 160.253 34.3247L153.404 31.6938C153.609 31.4527 153.902 31.2504 154.256 31.1058L233.85 0.198742C234.233 0.0705959 234.655 0.00390625 235.083 0.00390625C235.511 0.00390625 235.933 0.0705959 236.316 0.198742L240.711 1.85717C241.039 1.99627 241.318 2.18153 241.529 2.40018C241.74 2.61882 241.877 2.86564 241.933 3.12361Z" fill="white"/>
<path d="M166.128 40.8678C166.056 40.7697 166.029 40.6596 166.049 40.5512C166.072 40.4257 166.125 40.3035 166.206 40.1893L169.278 36.1865C169.345 36.0885 169.446 35.9754 169.547 35.8397C169.631 35.7238 169.763 35.6269 169.928 35.5608L171.666 34.8823C171.701 34.8584 171.75 34.845 171.8 34.845C171.851 34.845 171.899 34.8584 171.935 34.8823C172.02 34.9636 172.059 35.0623 172.047 35.1613V46.1672C172.049 46.2943 172.01 46.4202 171.935 46.5366C171.892 46.6365 171.796 46.7224 171.666 46.7778L169.805 47.5316C169.766 47.5544 169.716 47.567 169.665 47.567C169.613 47.567 169.563 47.5544 169.524 47.5316C169.445 47.4487 169.406 47.3513 169.412 47.2527V39.8049L167.753 41.9684C167.701 42.0573 167.601 42.1299 167.473 42.1719C167.424 42.1844 167.369 42.1834 167.321 42.1694C167.273 42.1553 167.235 42.1292 167.215 42.0965L166.128 40.8678Z" fill="#FAFAFA"/>
<path d="M177.069 44.2524C177.069 44.3794 177.031 44.5052 176.957 44.6218C176.903 44.7179 176.81 44.8016 176.688 44.8631L174.815 45.6169C174.78 45.6408 174.731 45.6543 174.681 45.6543C174.631 45.6543 174.582 45.6408 174.546 45.6169C174.463 45.5351 174.424 45.4368 174.434 45.338V43.0765C174.432 42.9494 174.471 42.8235 174.546 42.7071C174.596 42.6097 174.69 42.5253 174.815 42.4659L176.688 41.712C176.725 41.6898 176.773 41.6775 176.822 41.6775C176.872 41.6775 176.92 41.6898 176.957 41.712C177.043 41.793 177.082 41.892 177.069 41.991V44.2524Z" fill="#FAFAFA"/>
<path d="M181.867 42.383C181.869 42.51 181.831 42.6359 181.755 42.7523C181.705 42.8498 181.611 42.9342 181.486 42.9936L179.614 43.7474C179.578 43.7713 179.53 43.7848 179.479 43.7848C179.429 43.7848 179.381 43.7713 179.345 43.7474C179.264 43.6649 179.225 43.5671 179.233 43.4685V41.207C179.238 41.0804 179.276 40.9554 179.345 40.8376C179.398 40.7415 179.492 40.6578 179.614 40.5964L181.486 39.8426C181.522 39.8186 181.57 39.8052 181.621 39.8052C181.671 39.8052 181.719 39.8186 181.755 39.8426C181.838 39.9243 181.878 40.0226 181.867 40.1215V42.383Z" fill="#FAFAFA"/>
<path d="M186.677 40.5211C186.673 40.6478 186.635 40.773 186.564 40.8905C186.515 40.99 186.416 41.0752 186.284 41.1317L184.423 41.8855C184.388 41.9095 184.339 41.9229 184.289 41.9229C184.238 41.9229 184.19 41.9095 184.154 41.8855C184.069 41.8043 184.029 41.7056 184.042 41.6066V39.3451C184.04 39.218 184.078 39.0921 184.154 38.9757C184.204 38.8783 184.298 38.7939 184.423 38.7345L186.284 37.9807C186.322 37.9563 186.372 37.9426 186.424 37.9426C186.477 37.9426 186.527 37.9563 186.564 37.9807C186.645 38.0631 186.685 38.1609 186.677 38.2596V40.5211Z" fill="#FAFAFA"/>
<path d="M196.743 28.9799C196.745 29.3098 196.719 29.6395 196.665 29.9675C196.603 30.3059 196.506 30.641 196.373 30.9701C196.22 31.3335 196.037 31.6909 195.824 32.0405C195.587 32.4432 195.313 32.8359 195.006 33.2165L193.01 35.7946L196.598 34.4075C196.633 34.3836 196.682 34.3701 196.732 34.3701C196.782 34.3701 196.831 34.3836 196.867 34.4075C196.948 34.49 196.987 34.5878 196.979 34.6864V36.4956C196.974 36.6198 196.936 36.7424 196.867 36.8575C196.817 36.9549 196.723 37.0393 196.598 37.0987L189.053 40.0537C189.017 40.0776 188.969 40.0911 188.918 40.0911C188.868 40.0911 188.82 40.0776 188.784 40.0537C188.699 39.9725 188.659 39.8737 188.672 39.7748V38.2671C188.676 38.0723 188.706 37.878 188.761 37.6867C188.824 37.483 188.934 37.2872 189.086 37.1062L193.346 31.8294C193.624 31.4977 193.835 31.1428 193.974 30.7741C194.05 30.5259 194.091 30.2735 194.098 30.0202C194.106 29.9123 194.106 29.804 194.098 29.6961C194.076 29.5694 194.019 29.4466 193.929 29.3342C193.893 29.2759 193.84 29.2231 193.772 29.179C193.705 29.135 193.625 29.1006 193.537 29.0779C193.428 29.0625 193.315 29.0632 193.207 29.0801C193.099 29.0971 192.997 29.1298 192.909 29.1759C192.644 29.2752 192.421 29.4178 192.259 29.5905C192.096 29.7491 191.964 29.9215 191.867 30.1031C191.78 30.2645 191.716 30.4311 191.676 30.6007L191.575 30.9474C191.549 31.0896 191.476 31.2261 191.362 31.347C191.265 31.4351 191.143 31.5094 191.003 31.5656L189.255 32.244C189.224 32.2626 189.184 32.2728 189.143 32.2728C189.101 32.2728 189.061 32.2626 189.03 32.244C188.963 32.1776 188.932 32.0979 188.941 32.0179C188.96 31.5112 189.047 31.0067 189.199 30.5102C189.359 29.971 189.608 29.4452 189.938 28.9422C190.255 28.4368 190.665 27.9606 191.16 27.525C191.63 27.1102 192.217 26.7618 192.887 26.4998C193.379 26.2837 193.958 26.1733 194.546 26.1832C195.014 26.2173 195.446 26.3679 195.757 26.6054C196.113 26.8936 196.363 27.2346 196.485 27.6004C196.66 28.0508 196.747 28.5145 196.743 28.9799Z" fill="#FAFAFA"/>
<path d="M201.676 34.694C201.678 34.8211 201.64 34.947 201.564 35.0634C201.514 35.1608 201.42 35.2452 201.295 35.3046L199.423 36.0584C199.387 36.0824 199.339 36.0958 199.288 36.0958C199.238 36.0958 199.189 36.0824 199.154 36.0584C199.073 35.976 199.033 35.8782 199.042 35.7795V33.518C199.045 33.3913 199.083 33.2662 199.154 33.1486C199.207 33.0526 199.301 32.9688 199.423 32.9074L201.295 32.1536C201.331 32.1297 201.379 32.1162 201.429 32.1162C201.48 32.1162 201.528 32.1297 201.564 32.1536C201.649 32.2348 201.689 32.3336 201.676 32.4325V34.694Z" fill="#FAFAFA"/>
<path d="M206.485 32.847C206.482 32.9737 206.444 33.0989 206.373 33.2164C206.321 33.3149 206.222 33.3994 206.093 33.4576L204.232 34.2114C204.196 34.2354 204.148 34.2488 204.098 34.2488C204.047 34.2488 203.999 34.2354 203.963 34.2114C203.878 34.1302 203.838 34.0315 203.851 33.9325V31.671C203.849 31.544 203.887 31.4181 203.963 31.3017C204.005 31.2017 204.101 31.1158 204.232 31.0604L206.093 30.3066C206.131 30.2822 206.181 30.2686 206.233 30.2686C206.285 30.2686 206.336 30.2822 206.373 30.3066C206.454 30.3891 206.494 30.4869 206.485 30.5855V32.847Z" fill="#FAFAFA"/>
<path d="M211.284 30.9701C211.284 31.0947 211.246 31.2179 211.171 31.3319C211.122 31.4294 211.028 31.5138 210.902 31.5732L209.03 32.327C208.995 32.3509 208.946 32.3644 208.896 32.3644C208.845 32.3644 208.797 32.3509 208.761 32.327C208.675 32.2461 208.636 32.1471 208.649 32.0481V29.7866C208.649 29.6597 208.688 29.5341 208.761 29.4172C208.818 29.3223 208.911 29.239 209.03 29.176L210.902 28.4221C210.938 28.3982 210.986 28.3848 211.037 28.3848C211.087 28.3848 211.136 28.3982 211.171 28.4221C211.256 28.5062 211.296 28.6073 211.284 28.7086V30.9701Z" fill="#FAFAFA"/>
<path d="M220.846 15.7879C220.882 15.7639 220.93 15.7505 220.981 15.7505C221.031 15.7505 221.079 15.7639 221.115 15.7879C221.2 15.8691 221.24 15.9678 221.227 16.0668V17.876C221.225 18.0039 221.195 18.1309 221.137 18.2529C221.07 18.381 221.003 18.4941 220.947 18.5846L219.22 21.3285C219.556 21.2918 219.899 21.3142 220.217 21.3935C220.536 21.4728 220.818 21.6062 221.037 21.7808C221.579 22.3295 221.824 22.9869 221.732 23.6428C221.774 24.7987 221.388 25.9435 220.611 26.9747C219.902 27.8834 218.825 28.6387 217.505 29.1533C216.954 29.3874 216.328 29.5296 215.678 29.5679C215.208 29.5849 214.743 29.4975 214.355 29.3191C213.974 29.1266 213.683 28.8651 213.514 28.5653C213.315 28.2085 213.213 27.8307 213.212 27.4496C213.213 27.3462 213.244 27.244 213.301 27.1481C213.342 27.0679 213.421 26.999 213.526 26.9521L215.319 26.2586C215.521 26.1757 215.667 26.1757 215.779 26.2586L216.126 26.4696C216.269 26.549 216.438 26.6034 216.62 26.6279C216.936 26.6351 217.248 26.5715 217.505 26.447C217.959 26.2559 218.342 25.9982 218.626 25.6932C218.928 25.3846 219.084 25.0221 219.075 24.6529C219.075 24.2534 218.918 24.0272 218.626 23.9594C218.433 23.9337 218.233 23.9351 218.04 23.9636C217.847 23.9922 217.665 24.0472 217.505 24.1252L216.317 24.5851C216.281 24.609 216.233 24.6224 216.182 24.6224C216.132 24.6224 216.084 24.609 216.048 24.5851C215.963 24.5039 215.923 24.4051 215.936 24.3061V22.7985C215.938 22.6699 215.972 22.5425 216.037 22.4216C216.104 22.2934 216.16 22.1803 216.227 22.0748L217.741 19.6626L214.019 21.1099C213.983 21.1338 213.935 21.1473 213.884 21.1473C213.834 21.1473 213.785 21.1338 213.75 21.1099C213.665 21.0258 213.625 20.9247 213.638 20.8235V19.0444C213.636 18.9173 213.674 18.7914 213.75 18.675C213.8 18.5776 213.894 18.4932 214.019 18.4338L220.846 15.7879Z" fill="#FAFAFA"/>
<path d="M226.428 25.0827C226.43 25.2097 226.392 25.3357 226.316 25.452C226.267 25.5495 226.172 25.6339 226.047 25.6933L224.186 26.4471C224.149 26.4715 224.099 26.4852 224.046 26.4852C223.994 26.4852 223.944 26.4715 223.906 26.4471C223.825 26.3646 223.786 26.2668 223.794 26.1682V23.9067C223.799 23.7801 223.837 23.6551 223.906 23.5373C223.959 23.4388 224.057 23.3543 224.186 23.2961L226.047 22.5423C226.083 22.5183 226.131 22.5049 226.182 22.5049C226.232 22.5049 226.281 22.5183 226.316 22.5423C226.4 22.624 226.439 22.7223 226.428 22.8212V25.0827Z" fill="#FAFAFA"/>
<path d="M231.238 23.2206C231.234 23.3472 231.196 23.4724 231.126 23.5899C231.076 23.6895 230.977 23.7746 230.845 23.8312L228.985 24.585C228.949 24.6089 228.9 24.6224 228.85 24.6224C228.8 24.6224 228.751 24.6089 228.715 24.585C228.63 24.5038 228.591 24.405 228.603 24.3061V22.0446C228.601 21.9175 228.64 21.7916 228.715 21.6752C228.765 21.5778 228.859 21.4934 228.985 21.434L230.845 20.6801C230.883 20.6557 230.933 20.6421 230.986 20.6421C231.038 20.6421 231.088 20.6557 231.126 20.6801C231.207 20.7626 231.246 20.8604 231.238 20.9591V23.2206Z" fill="#FAFAFA"/>
<path d="M236.036 21.3586C236.037 21.4856 235.999 21.6113 235.924 21.7279C235.871 21.824 235.777 21.9078 235.655 21.9692L233.783 22.723C233.747 22.7469 233.699 22.7604 233.648 22.7604C233.598 22.7604 233.549 22.7469 233.514 22.723C233.43 22.6412 233.391 22.5429 233.402 22.4441V20.1826C233.4 20.0555 233.438 19.9296 233.514 19.8132C233.563 19.7158 233.658 19.6314 233.783 19.572L235.655 18.8181C235.699 18.8004 235.751 18.7944 235.8 18.8014C235.85 18.8084 235.895 18.8279 235.924 18.8558C236.01 18.9368 236.05 19.0358 236.036 19.1348V21.3586Z" fill="#FAFAFA"/>
</svg>
