<svg width="23" height="31" viewBox="0 0 23 31" fill="none" xmlns="http://www.w3.org/2000/svg">
<path id="Combined Shape" fill-rule="evenodd" clip-rule="evenodd" d="M15.3333 3.83333C15.3333 1.71624 17.0495 0 19.1666 0C21.2837 0 23 1.71624 23 3.83333C23 5.95043 21.2837 7.66667 19.1666 7.66667C17.0495 7.66667 15.3333 5.95043 15.3333 3.83333ZM20.4445 3.83333C20.4445 3.12764 19.8724 2.55556 19.1667 2.55556C18.461 2.55556 17.8889 3.12764 17.8889 3.83333C17.8889 4.53903 18.461 5.11111 19.1667 5.11111C19.8724 5.11111 20.4445 4.53903 20.4445 3.83333ZM3.83424 13.5906C3.83424 10.2149 7.33721 7.66666 11.4998 7.66666C15.6626 7.66666 19.1666 10.215 19.1655 13.6441C19.0924 15.3919 18.1832 16.9957 16.7718 17.9082C16.1383 18.3582 15.5755 18.9043 15.1136 19.5136C14.1912 20.7662 13.6918 22.2913 13.6915 23.8593V25.6703C13.692 27.1358 13.0573 28.5288 11.9535 29.4788C10.8442 30.4337 9.37425 30.8434 7.89907 30.5889C5.48949 30.0975 3.78075 27.9264 3.83424 25.4712V13.5906ZM16.6113 13.5906C16.6113 11.834 14.3951 10.2222 11.5 10.2222C8.60523 10.2222 6.38997 11.8337 6.38997 13.5906L6.38967 25.4989C6.36248 26.7543 7.21846 27.8419 8.3713 28.0776C9.0544 28.1952 9.75429 28.0001 10.2866 27.542C10.8244 27.079 11.1364 26.3943 11.1362 25.6707V23.8591C11.1366 21.7467 11.8097 19.6906 13.0665 17.9842C13.6958 17.1538 14.4462 16.4256 15.3374 15.7939C16.0961 15.3027 16.5737 14.4601 16.6113 13.5906ZM10.8611 0.319444C9.27324 0.319444 7.98606 1.60663 7.98606 3.19444C7.98606 4.78226 9.27324 6.06944 10.8611 6.06944C12.4489 6.06944 13.7361 4.78226 13.7361 3.19444C13.7361 1.60663 12.4489 0.319444 10.8611 0.319444ZM10.8611 2.23611C11.3904 2.23611 11.8194 2.66517 11.8194 3.19445C11.8194 3.72372 11.3904 4.15278 10.8611 4.15278C10.3318 4.15278 9.90277 3.72372 9.90277 3.19445C9.90277 2.66517 10.3318 2.23611 10.8611 2.23611ZM5.74999 3.83334C4.69145 3.83334 3.83333 4.69146 3.83333 5.75C3.83333 6.80855 4.69145 7.66667 5.74999 7.66667C6.80854 7.66667 7.66666 6.80855 7.66666 5.75C7.66666 4.69146 6.80854 3.83334 5.74999 3.83334ZM0 9.58333C0 8.52478 0.858121 7.66666 1.91667 7.66666C2.97521 7.66666 3.83333 8.52478 3.83333 9.58333C3.83333 10.6419 2.97521 11.5 1.91667 11.5C0.858121 11.5 0 10.6419 0 9.58333Z" fill="url(#paint0_linear_5096_117)"/>
<defs>
<linearGradient id="paint0_linear_5096_117" x1="-23.655" y1="11.7716" x2="16.1398" y2="39.9417" gradientUnits="userSpaceOnUse">
<stop stop-color="#42FF00"/>
<stop offset="1" stop-color="#42FF00"/>
</linearGradient>
</defs>
</svg>
