<svg width="184" height="218" viewBox="0 0 184 218" fill="none" xmlns="http://www.w3.org/2000/svg">
<path d="M79.9023 151.574C79.9023 151.574 84.6492 160.206 85.9226 163.441C86.7297 165.505 90.2569 174.975 91.3569 178.346C92.4569 181.716 99.912 202.009 99.912 202.009L109.208 200.984C109.208 200.984 103.696 173.828 102.453 167.914C101.209 162 97.0184 151.574 97.0184 151.574H79.9023Z" fill="#FFBF9D"/>
<path d="M42.089 147.563C41.9754 148.07 39.9667 158.7 40.439 166.293C40.9113 173.886 44.3369 200.587 44.3369 200.587H51.6544C51.6544 200.587 53.4479 179.583 54.249 174.078C55.0501 168.574 54.3686 158.828 54.249 157.31C54.2723 155.278 54.406 153.25 54.6496 151.235L42.089 147.563Z" fill="#FFBF9D"/>
<path d="M52.5221 83.4355C52.5221 83.4355 43.441 98.8139 41.4382 122.958C39.4355 147.102 39.0469 150.229 39.0469 150.229L60.2163 152.44L65.7882 123.458L69.7817 152.375L98.5855 151.337C98.5855 151.337 92.1229 122.394 91.0348 115.576C89.9468 108.759 86.85 100.16 86.85 100.16L86.4853 96.1099L68.054 94.7066L52.5221 83.4355Z" fill="#263238"/>
<path d="M121.231 208.724C119.011 209.615 116.675 210.127 114.308 210.243C111.05 210.243 106.177 209.455 104.384 209.186C102.59 208.917 97.5325 210.038 97.0184 208.154C96.5043 206.27 98.6087 198.946 98.6087 198.946C98.6087 198.946 100.211 200.92 101.986 200.689C103.74 200.321 105.463 199.805 107.14 199.145C107.14 199.145 108.443 196.518 109.453 196.326C110.464 196.133 110.374 199.28 110.374 199.28C110.374 199.28 113.166 202.791 114.942 203.445C116.717 204.098 116.825 204.656 118.828 204.527C119.855 204.408 120.893 204.608 121.817 205.104C121.817 205.104 122.875 206.776 122.456 207.449C122.114 207.942 121.7 208.372 121.231 208.724Z" fill="#263238"/>
<path d="M122.505 207.411C122.181 207.955 121.748 208.415 121.237 208.757C119.018 209.647 116.682 210.159 114.314 210.275C111.056 210.275 106.184 209.487 104.39 209.218C102.597 208.949 97.5389 210.07 97.0308 208.18C96.8829 207.653 96.8664 207.094 96.983 206.559C96.983 206.559 102.28 207.59 104.755 207.321C107.23 207.052 112.73 208.449 115.558 208.174C117.571 207.93 119.561 207.501 121.506 206.892L122.391 206.251C122.558 206.681 122.726 206.975 122.505 207.411Z" fill="#455A64"/>
<path d="M114.268 202.996C114.204 203.345 114.114 203.688 113.999 204.021C113.842 204.333 113.662 204.631 113.461 204.912C113.768 204.724 114.011 204.436 114.156 204.091C114.301 203.746 114.34 203.36 114.268 202.99V202.996Z" fill="white"/>
<path d="M112.515 201.573C112.423 201.987 112.288 202.389 112.114 202.772C111.898 203.128 111.648 203.459 111.367 203.758C111.743 203.562 112.054 203.248 112.259 202.858C112.464 202.468 112.554 202.02 112.515 201.573Z" fill="white"/>
<path d="M111.243 200.202C111.028 200.476 110.828 200.762 110.645 201.061C110.316 201.516 109.981 201.83 110.005 201.875C110.303 201.698 110.565 201.458 110.775 201.171C110.986 200.884 111.141 200.555 111.231 200.202H111.243Z" fill="white"/>
<path d="M101.766 205.104C101.989 205.16 102.218 205.188 102.447 205.187C102.866 205.187 103.452 205.22 104.091 205.187C104.641 205.168 105.19 205.119 105.735 205.04C105.964 205.028 106.189 204.981 106.405 204.899C106.405 204.848 105.365 204.957 104.085 205.008C102.806 205.059 101.766 205.053 101.766 205.104Z" fill="white"/>
<path d="M51.8467 197.69C53.1828 199.883 53.9371 202.423 54.0288 205.04C54.0706 206.232 54.0288 207.513 53.431 208.474C52.9288 209.237 52.0918 209.718 51.751 210.583C51.3624 211.557 51.7152 212.684 51.5777 213.735C51.4043 215.113 49.7842 216.471 48.6184 217.029C47.4526 217.586 46.4303 217.522 45.1808 217.618C43.3873 217.759 41.7731 217.772 40.3084 216.58C39.7584 216.095 39.3156 215.486 39.0116 214.796C38.7077 214.105 38.5503 213.351 38.5508 212.588C38.5633 211.047 39.0114 209.545 39.8361 208.282C40.5117 207.206 41.3905 206.264 41.8748 205.078C42.5171 203.152 42.9797 201.163 43.2558 199.139C43.2558 199.139 43.8058 198.306 46.3107 198.229C48.8157 198.152 49.8977 201.074 50.7467 200.305C51.5956 199.536 51.8467 197.69 51.8467 197.69Z" fill="#263238"/>
<path d="M38.5859 214.357C39.6433 215.226 40.869 215.83 42.173 216.125C43.4816 216.392 44.8244 216.403 46.1366 216.157C47.0664 216.001 47.9455 215.601 48.6954 214.991C49.6519 214.043 50.0046 213.582 50.2497 212.749C50.4949 211.916 50.2976 210.871 50.5786 210C50.8954 209.026 51.7443 208.417 52.3721 207.648C53.1971 206.616 53.9623 205.021 53.8846 203.65C54.2997 204.303 54.5432 205.065 54.5894 205.854C54.6357 206.643 54.4831 207.431 54.1476 208.135C53.5498 209.211 52.4857 209.884 51.9954 211.006C51.571 211.986 51.9954 212.998 51.7384 214.049C51.3438 215.51 49.8731 216.785 48.5997 217.362C47.3095 217.893 45.9223 218.097 44.5464 217.958C43.4027 217.927 42.2756 217.657 41.2284 217.163C40.1509 216.655 39.2954 215.724 38.837 214.562" fill="#455A64"/>
<path d="M46.095 208.763C46.0472 208.853 45.1863 208.391 44.0325 208.218C42.8786 208.045 41.9281 208.218 41.9102 208.116C42.6039 207.851 43.3473 207.771 44.0764 207.883C44.8054 207.994 45.4981 208.294 46.095 208.756V208.763Z" fill="white"/>
<path d="M46.5735 206.969C46.5317 207.058 45.6708 206.591 44.511 206.418C43.3512 206.245 42.4066 206.418 42.3887 206.322C43.0824 206.056 43.8259 205.976 44.555 206.088C45.2841 206.199 45.9769 206.5 46.5735 206.962V206.969Z" fill="white"/>
<path d="M47.597 205.213C47.5551 205.303 46.6883 204.841 45.5344 204.668C44.3806 204.495 43.43 204.668 43.4121 204.566C44.1059 204.301 44.8493 204.221 45.5783 204.333C46.3073 204.445 47.0001 204.744 47.597 205.207V205.213Z" fill="white"/>
<path d="M45.1811 203.098C45.2249 202.89 45.2953 202.69 45.3904 202.502C45.6105 201.973 45.8767 201.466 46.1855 200.99C46.3974 200.635 46.6867 200.34 47.0284 200.132C47.1413 200.068 47.2688 200.04 47.3959 200.052C47.523 200.063 47.6444 200.113 47.7459 200.196C47.846 200.287 47.9243 200.403 47.9742 200.533C48.0241 200.664 48.0442 200.805 48.0328 200.945C47.9508 201.478 47.7169 201.971 47.3632 202.355C47.0082 202.775 46.5742 203.109 46.0898 203.335C45.8419 203.464 45.5701 203.53 45.2947 203.53C45.0194 203.53 44.7476 203.464 44.4996 203.335C44.0642 203.082 43.696 202.713 43.4295 202.265C43.2979 202.06 43.1844 201.862 43.0708 201.663C43.0035 201.555 42.9531 201.436 42.9213 201.311C42.9036 201.223 42.9186 201.131 42.9632 201.054C42.9847 201.014 43.0148 200.979 43.0512 200.954C43.0876 200.928 43.1291 200.912 43.1724 200.907C43.2933 200.889 43.4164 200.912 43.5251 200.971C43.6168 201.009 43.7066 201.051 43.7941 201.099C43.9594 201.184 44.1157 201.287 44.2605 201.407C44.7059 201.764 45.0546 202.242 45.2708 202.791C45.3661 202.989 45.4134 203.209 45.4083 203.432C45.4083 203.432 45.3306 203.22 45.1572 202.861C44.914 202.365 44.5635 201.939 44.1349 201.618C43.9945 201.516 43.8465 201.426 43.6925 201.349C43.5464 201.264 43.3858 201.212 43.2202 201.195C43.1784 201.195 43.1784 201.195 43.1843 201.279C43.2121 201.368 43.2524 201.452 43.3039 201.529C43.4175 201.721 43.5371 201.919 43.6626 202.105C43.9082 202.505 44.2432 202.834 44.6371 203.06C44.8449 203.168 45.0728 203.224 45.3037 203.224C45.5346 203.224 45.7624 203.168 45.9703 203.06C46.4008 202.881 46.7869 202.597 47.0981 202.232C47.4092 201.866 47.6371 201.428 47.7638 200.952C47.775 200.859 47.7652 200.764 47.735 200.676C47.7048 200.588 47.6552 200.509 47.5904 200.446C47.5281 200.394 47.4531 200.363 47.3745 200.356C47.296 200.349 47.2173 200.367 47.148 200.407C46.8436 200.592 46.582 200.848 46.3828 201.157C46.0607 201.611 45.7709 202.091 45.5159 202.592C45.3127 202.919 45.205 203.111 45.1811 203.098Z" fill="white"/>
<path d="M51.7977 203.271C51.8814 203.271 51.8814 203.874 51.5885 204.553C51.2955 205.232 50.8591 205.572 50.8053 205.508C50.7515 205.444 51.0444 205.002 51.3075 204.406C51.5705 203.81 51.708 203.259 51.7977 203.271Z" fill="white"/>
<path d="M127.556 12.5735C124.932 12.5735 109.681 21.3968 105.436 25.4785C102.549 28.2658 91.752 38.3835 91.752 38.3835L98.926 44.6245L106.638 45.3486L107.086 42.6125L114.129 36.0575C114.129 36.0575 124.107 30.124 127.473 25.3375L150.334 31.1044L153.987 25.1581C153.987 25.1581 135.269 12.5735 127.556 12.5735Z" fill="#FFBF9D"/>
<path d="M150.632 32.0145C150.632 32.0145 151.087 36.5704 151.475 38.3645C151.864 40.1587 153.215 41.6132 153.215 42.7858C153.206 43.4429 153.315 44.0957 153.538 44.7081C153.538 44.7081 154.889 44.8491 155.015 43.119C155.14 41.3889 155.015 38.3581 155.015 38.3581C155.015 38.3581 157.209 41.8759 158.757 42.6384C160.305 43.4009 163.845 43.5355 163.91 42.8435C163.976 42.1514 164.424 42.1002 163.265 41.5619C162.485 41.2186 161.687 40.9276 160.873 40.6905L158.751 38.7682C159.721 39.2822 160.734 39.6983 161.776 40.0113C162.81 40.2163 165.835 40.7738 166.033 40.2868C166.174 39.9531 166.199 39.5766 166.105 39.2244C166.011 38.8723 165.803 38.5675 165.519 38.3645C165.519 38.3645 166.613 38.0826 166.613 37.3265C166.613 36.5704 166.158 35.8719 165.776 35.9424C164.796 35.8457 163.827 35.6614 162.876 35.3914C162.679 35.3209 160.556 33.5268 160.556 33.5268L160.682 33.1102C160.682 33.1102 162.099 34.7698 162.876 34.6994C163.653 34.6289 164.998 34.6289 164.998 34.2188C164.998 33.8087 165.13 32.7642 164.161 32.7642C163.886 32.7689 163.614 32.7026 163.367 32.571C163.121 32.4395 162.907 32.2464 162.745 32.0081L160.814 30.8996C159.891 29.4809 158.893 28.1203 157.824 26.8243C156.79 25.7222 153.639 24.9597 153.639 24.9597L150.262 30.8355L150.632 32.0145Z" fill="#FFBF9D"/>
<path d="M156.343 30.124C156.598 30.466 156.78 30.8642 156.875 31.2902C157.177 32.3069 157.247 33.3864 157.079 34.438C156.91 35.4896 156.508 36.4823 155.907 37.3326C155.681 37.6981 155.385 38.0081 155.04 38.2425C155.004 38.2041 155.327 37.8516 155.727 37.1917C156.25 36.3395 156.606 35.3825 156.774 34.3787C156.926 33.373 156.89 32.3446 156.666 31.3543C156.469 30.5918 156.295 30.1432 156.343 30.124Z" fill="#FF9A6C"/>
<path d="M111.697 62.6687L135.359 53.0123C141.338 50.8145 145.092 45.2655 142.874 38.9155L142.641 38.3452C141.493 35.5723 139.414 33.3638 136.816 32.1588C134.219 30.9538 131.294 30.8405 128.622 31.8415C123.468 33.7638 117.795 35.9872 115.14 37.288C109.64 39.992 111.231 46.3228 111.231 46.3228C111.231 46.3228 107.829 47.8093 106.179 48.5014L104.75 53.1982L111.697 62.6687Z" fill="#FFBF9D"/>
<path d="M111.23 46.3481C112.371 49.0805 114.217 51.4061 116.551 53.0506C116.551 53.0506 111.631 53.1723 109.682 47.0209L111.23 46.3481Z" fill="#FF9A6C"/>
<path d="M124.95 36.6343C124.743 36.7291 124.579 36.9069 124.493 37.1296C124.407 37.3524 124.406 37.6023 124.49 37.8261C124.527 37.9373 124.584 38.0395 124.659 38.1267C124.734 38.2138 124.824 38.2842 124.924 38.3337C125.024 38.3832 125.132 38.4108 125.242 38.415C125.353 38.4192 125.463 38.3998 125.566 38.3579C125.773 38.2631 125.936 38.0853 126.022 37.8625C126.109 37.6398 126.11 37.3898 126.026 37.1661C125.989 37.0543 125.932 36.9516 125.858 36.8639C125.783 36.7763 125.693 36.7056 125.593 36.656C125.493 36.6064 125.384 36.5789 125.274 36.5751C125.163 36.5714 125.053 36.5915 124.95 36.6343Z" fill="#263238"/>
<path d="M126.703 34.2892C126.643 34.443 127.348 34.8723 127.725 35.7822C128.102 36.6921 127.946 37.5635 128.096 37.6148C128.245 37.666 128.299 37.4418 128.377 37.0573C128.47 36.5427 128.412 36.0097 128.209 35.5323C128.015 35.058 127.684 34.6628 127.265 34.4046C126.954 34.2187 126.727 34.2123 126.703 34.2892Z" fill="#263238"/>
<path d="M128.01 44.9385C127.804 45.0333 127.64 45.2111 127.554 45.4339C127.468 45.6566 127.466 45.9066 127.55 46.1303C127.587 46.2421 127.644 46.345 127.718 46.4328C127.793 46.5207 127.882 46.5917 127.983 46.6419C128.083 46.692 128.191 46.7202 128.302 46.7248C128.412 46.7293 128.523 46.7102 128.626 46.6686C128.832 46.5711 128.996 46.392 129.081 46.1687C129.167 45.9454 129.169 45.6951 129.087 45.4703C129.049 45.3591 128.992 45.2569 128.917 45.1697C128.843 45.0826 128.753 45.0122 128.653 44.9627C128.552 44.9132 128.444 44.8856 128.334 44.8814C128.224 44.8773 128.114 44.8967 128.01 44.9385Z" fill="#263238"/>
<path d="M130.193 43.3047C130.133 43.4585 130.845 43.8878 131.215 44.8041C131.586 45.7204 131.442 46.579 131.586 46.6303C131.729 46.6815 131.795 46.4637 131.873 46.0792C131.964 45.5645 131.905 45.0323 131.706 44.5542C131.506 44.088 131.176 43.7004 130.761 43.4457C130.444 43.2406 130.217 43.2342 130.193 43.3047Z" fill="#263238"/>
<path d="M122.319 43.1379C122.258 42.5924 122.135 42.0567 121.955 41.5424C121.883 41.2989 121.835 41.0619 121.955 40.9529C122.168 40.8223 122.416 40.7685 122.66 40.7991L124.597 40.703C127.341 40.5428 129.559 40.3122 129.553 40.1968C129.547 40.0815 127.317 40.1135 124.567 40.2737L122.636 40.4019C122.313 40.3811 121.993 40.4832 121.733 40.6902C121.671 40.76 121.624 40.8441 121.596 40.9363C121.568 41.0284 121.56 41.1261 121.572 41.2221C121.595 41.365 121.633 41.5048 121.686 41.6385C121.832 42.167 122.045 42.6715 122.319 43.1379Z" fill="#263238"/>
<path d="M132.728 41.7476C132.567 41.9718 133.159 42.7471 133.625 43.8172C134.091 44.8873 134.307 45.8484 134.576 45.8549C134.701 45.8549 134.821 45.5729 134.839 45.1116C134.85 44.5096 134.725 43.9136 134.474 43.3751C134.234 42.8307 133.877 42.3544 133.434 41.9846C133.087 41.7155 132.812 41.645 132.728 41.7476Z" fill="#263238"/>
<path d="M129.182 33.0587C129.063 33.3407 129.559 33.9942 129.924 34.8849C130.288 35.7756 130.45 36.6022 130.725 36.6855C130.856 36.7175 131 36.506 131.053 36.0896C131.091 35.533 130.99 34.9758 130.761 34.4748C130.552 33.9616 130.217 33.5187 129.792 33.1933C129.481 32.9434 129.242 32.9306 129.182 33.0587Z" fill="#263238"/>
<path d="M131.067 54.4731C131.15 54.55 133.871 58.0102 130.038 59.6762C126.206 61.3421 125.435 56.876 125.543 56.8183C125.65 56.7607 131.067 54.4731 131.067 54.4731Z" fill="#FFBF9D"/>
<path d="M127.474 57.4398C127.474 57.4398 127.474 57.5359 127.444 57.6768C127.44 57.8762 127.509 58.0694 127.636 58.2151C127.894 58.4108 128.196 58.5299 128.511 58.5603C128.826 58.5907 129.143 58.5313 129.429 58.3881C129.765 58.2511 130.066 58.0317 130.308 57.7473C130.413 57.658 130.497 57.5424 130.551 57.4106C130.605 57.2788 130.629 57.1349 130.619 56.9912C130.609 56.8998 130.57 56.8149 130.507 56.7516C130.445 56.6883 130.364 56.6507 130.278 56.6452C130.147 56.6452 130.081 56.6965 130.069 56.6772C130.057 56.658 130.099 56.5619 130.266 56.5235C130.371 56.5073 130.478 56.5275 130.571 56.5811C130.692 56.6608 130.779 56.7869 130.816 56.9336C130.849 57.1157 130.838 57.3039 130.783 57.4801C130.729 57.6563 130.633 57.8145 130.505 57.9396C130.24 58.2598 129.905 58.5061 129.531 58.6572C129.197 58.8254 128.824 58.8841 128.46 58.826C128.095 58.7679 127.754 58.5954 127.48 58.3304C127.409 58.2329 127.359 58.1196 127.334 57.9987C127.31 57.8778 127.31 57.7525 127.337 57.632C127.385 57.491 127.462 57.4333 127.474 57.4398Z" fill="#FF9A6C"/>
<path d="M122.852 46.2712C122.81 46.1302 121.925 46.4954 120.999 45.9444C120.072 45.3933 119.803 44.3489 119.684 44.3937C119.564 44.4386 119.594 44.6885 119.737 45.1178C119.931 45.6779 120.304 46.1458 120.79 46.4378C121.255 46.7192 121.804 46.795 122.32 46.6492C122.703 46.5339 122.882 46.3353 122.852 46.2712Z" fill="#263238"/>
<path d="M130.618 21.4031C130.869 21.3799 131.119 21.4601 131.317 21.6274C131.705 22.0191 131.987 22.5146 132.136 23.0627C132.658 24.3589 133.447 25.5113 134.444 26.4331C134.473 25.9464 134.576 25.4681 134.749 25.017C134.914 24.5417 135.198 24.1238 135.569 23.8087C135.939 23.4936 136.384 23.2932 136.853 23.2293C136.941 23.2154 137.03 23.2225 137.115 23.2502C137.2 23.2779 137.278 23.3255 137.344 23.3895C137.523 23.6201 137.343 23.9598 137.242 24.2353C137.038 24.6061 136.93 25.0287 136.93 25.4591C136.93 25.8896 137.038 26.3122 137.242 26.683C137.483 27.2179 137.835 27.6868 138.27 28.0542H138.342L139.173 28.4259C141.188 29.3422 142.682 30.2392 143.716 31.3798C145.434 33.4091 146.603 35.901 147.1 38.5884C147.381 40.9016 146.502 43.4646 144.631 44.6308C146 45.3998 146.658 47.1939 146.67 48.8214H146.7C146.771 50.6412 145.552 52.2239 144.219 53.358L143.997 53.5375C143.398 54.4215 143.008 55.4484 142.862 56.5298C142.862 56.7221 142.802 56.9399 142.64 57.0296C142.557 57.0594 142.467 57.0662 142.381 57.0494C142.294 57.0326 142.213 56.9928 142.144 56.9335C141.744 56.661 141.407 56.2952 141.158 55.8634C140.851 56.1635 140.569 56.4915 140.315 56.8438C140.1 57.1514 139.842 57.4846 139.484 57.4846C139.349 57.4582 139.224 57.3892 139.126 57.2864C139.028 57.1837 138.961 57.0518 138.934 56.9079C138.887 56.6162 138.897 56.3173 138.964 56.03L137.935 57.1386C137.625 56.601 137.437 55.9932 137.385 55.3636C135.843 55.6456 133.129 56.5362 132.005 56.5619C131.574 55.479 131.58 55.1714 131.204 54.6908C130.713 54.0501 129.643 54.8638 129.625 53.7938C129.625 53.2491 131 51.7946 131.419 51.4422C134.004 49.0935 137.03 47.3673 140.291 46.3801C140.693 45.4312 140.924 44.4094 140.972 43.3685L140.925 43.4454C140.829 41.5231 140.644 39.3958 139.298 38.1271C138.258 37.1403 136.788 36.9352 135.484 36.429C134.317 36.0317 133.242 35.3733 132.33 34.4974C131.418 33.6214 130.689 32.5479 130.193 31.3478C128.4 31.854 125.62 32.9945 124.012 33.5904L126.618 30.7711C126.756 30.5724 126.905 30.3994 127.055 30.22L127.103 30.1688C127.355 29.8939 127.595 29.6051 127.82 29.3037C127.593 29.1744 127.417 28.961 127.325 28.7033C127.233 28.4455 127.231 28.1608 127.32 27.9018C127.409 27.6429 127.583 27.4274 127.809 27.2952C128.035 27.163 128.298 27.123 128.549 27.1828C128.785 27.2469 129.011 27.3484 129.219 27.484C128.954 27.3587 128.723 27.1617 128.55 26.9124C128.377 26.663 128.268 26.3698 128.232 26.0615C128.206 25.7521 128.276 25.4421 128.43 25.1792C128.585 24.9164 128.816 24.7153 129.087 24.6069C129.277 24.549 129.478 24.5464 129.67 24.5994C129.861 24.6523 130.035 24.7588 130.175 24.9081C129.838 24.1853 129.707 23.3716 129.799 22.5693C129.853 22.0567 130.062 21.48 130.618 21.4031Z" fill="#263238"/>
<path d="M143.238 43.0483C143.159 43.3302 143.064 43.6063 142.951 43.8749C142.595 44.5838 142.074 45.182 141.439 45.6114C141.011 45.9196 140.554 46.1794 140.076 46.3867C139.562 46.6174 138.994 46.8096 138.39 47.0275C137.758 47.237 137.139 47.4895 136.537 47.7836C136.22 47.9457 135.914 48.132 135.622 48.3411C135.299 48.5458 135.03 48.8345 134.839 49.1805C134.77 49.3325 134.74 49.501 134.75 49.6695C134.761 49.838 134.812 50.0007 134.899 50.1416C135.062 50.415 135.306 50.6223 135.592 50.7311C136.134 50.8709 136.701 50.8554 137.236 50.6863L137.17 50.5645C136.818 50.9294 136.518 51.3484 136.28 51.8076C136.059 52.2452 136.006 52.7574 136.13 53.2365C136.189 53.4586 136.305 53.6584 136.465 53.8132C136.616 53.9459 136.798 54.0312 136.991 54.0595C137.184 54.0877 137.381 54.0579 137.559 53.9734C137.717 53.894 137.844 53.758 137.918 53.5889L137.84 53.5505C137.597 54.0761 137.459 54.6499 137.433 55.2357C137.424 55.3893 137.424 55.5434 137.433 55.697C137.43 55.7504 137.43 55.8039 137.433 55.8572C137.44 55.804 137.44 55.7502 137.433 55.697C137.433 55.5945 137.433 55.4407 137.433 55.2357C137.481 54.6614 137.631 54.1023 137.876 53.5889L137.798 53.5505C137.719 53.7001 137.598 53.8195 137.452 53.8919C137.306 53.9642 137.143 53.986 136.985 53.9542C136.804 53.9318 136.633 53.8514 136.495 53.7235C136.353 53.5806 136.249 53.399 136.196 53.1981C136.085 52.7517 136.139 52.2769 136.345 51.8717C136.586 51.4256 136.884 51.018 137.23 50.6606L137.374 50.5004L137.164 50.5453C136.655 50.7074 136.115 50.7229 135.598 50.5901C135.351 50.4883 135.142 50.3041 135 50.0647C134.926 49.9446 134.882 49.8055 134.874 49.6615C134.865 49.5175 134.892 49.3737 134.952 49.2445C135.129 48.9229 135.38 48.6558 135.682 48.4692C135.968 48.2623 136.267 48.0781 136.579 47.9181C137.175 47.6239 137.788 47.3693 138.414 47.1556C139.012 46.9442 139.61 46.7391 140.106 46.5149C140.589 46.2992 141.049 46.0308 141.481 45.7139C142.121 45.2671 142.639 44.6457 142.981 43.9134C143.112 43.6426 143.199 43.3502 143.238 43.0483Z" fill="#455A64"/>
<path d="M130.707 26.8496V26.9137C130.695 26.9808 130.679 27.0471 130.66 27.1123C130.635 27.2177 130.617 27.3247 130.606 27.4327C130.606 27.5609 130.57 27.7082 130.564 27.8748C130.532 28.8299 130.721 29.7785 131.114 30.6365C131.694 31.9136 132.608 32.9823 133.744 33.7122C135.134 34.5886 136.676 35.1512 138.276 35.3654C139.125 35.5063 139.956 35.5576 140.745 35.6665C141.507 35.7525 142.254 35.9531 142.963 36.2624C143.6 36.5366 144.163 36.9771 144.601 37.544C144.791 37.808 144.943 38.102 145.05 38.4154C145.139 38.7083 145.195 39.0116 145.217 39.3189C145.247 39.8494 145.169 40.3805 144.99 40.876C144.855 41.2518 144.665 41.6022 144.428 41.914C144.212 42.1697 143.969 42.3977 143.704 42.5932H143.758L143.92 42.4907C144.121 42.3465 144.306 42.1765 144.47 41.9845C145.055 41.2522 145.357 40.3076 145.313 39.3445C145.298 39.0263 145.244 38.7116 145.151 38.409C145.043 38.0832 144.89 37.7765 144.697 37.4991C144.251 36.9047 143.674 36.4398 143.017 36.1471C142.298 35.8204 141.539 35.6047 140.763 35.5063C139.968 35.391 139.137 35.3397 138.3 35.1988C136.718 34.9885 135.191 34.4393 133.81 33.584C132.691 32.8698 131.787 31.8269 131.204 30.5789C130.803 29.738 130.598 28.806 130.606 27.862C130.624 27.2148 130.761 26.856 130.707 26.8496Z" fill="#455A64"/>
<path d="M132.961 25.2285C132.933 25.3176 132.915 25.4102 132.907 25.504C132.869 25.7584 132.849 26.0154 132.847 26.273C132.839 26.6568 132.863 27.0408 132.919 27.4199C132.99 27.8831 133.102 28.338 133.254 28.7783C133.415 29.2249 133.615 29.654 133.852 30.0599C134.042 30.3833 134.256 30.6897 134.492 30.9762C134.652 31.1694 134.824 31.3513 135.006 31.5208C135.07 31.5865 135.142 31.6425 135.221 31.6874C135.221 31.6874 134.952 31.4055 134.569 30.9057C134.348 30.6155 134.148 30.307 133.971 29.983C133.754 29.5858 133.568 29.17 133.415 28.7399C133.27 28.3061 133.158 27.8604 133.081 27.4071C133.018 27.0369 132.984 26.6619 132.979 26.2858C132.931 25.6322 132.991 25.2285 132.961 25.2285Z" fill="#455A64"/>
<path d="M85.2608 43.0802C90.193 38.268 98.6583 30.8416 98.6583 30.8416C98.6583 30.8416 99.7763 32.5524 103.86 36.397C106.116 38.4809 108.618 40.2368 111.303 41.6192L108.176 46.4826C108.257 46.8187 108.238 47.1739 108.12 47.4972C108.002 47.8206 107.791 48.0957 107.518 48.2832C106.078 49.5647 105.976 52.7685 106.771 55.3316C107.871 58.8686 115.595 61.6431 115.595 61.6431C115.595 61.6431 118.172 66.8269 118.776 68.6531C119.379 70.4793 121.053 76.2526 121.053 76.2526L108.642 85.0182L99.4654 86.9405L91.6935 91.0542V93.7134L89.5174 95.0654L88.0109 102.652C88.0109 102.652 72.6106 106.625 64.7012 101.114C59.207 97.1935 54.1097 92.6687 49.4922 87.6133C49.4922 87.6133 60.4207 70.6459 62.6446 67.6855C62.6446 67.6791 80.6037 47.6168 85.2608 43.0802Z" fill="#00F978"/>
<path d="M103.859 47.2004C104.487 46.745 105.194 46.4311 105.938 46.278C106.682 46.1249 107.448 46.1357 108.188 46.3097C108.188 46.4059 107.183 46.3546 105.994 46.6045C104.804 46.8544 103.859 47.2901 103.859 47.2004Z" fill="#263238"/>
<path d="M86.9707 83.6344C87.0484 83.5831 87.993 85.0441 89.3082 86.7229C90.6235 88.4017 91.7893 89.664 91.6996 89.7344C90.6949 88.9391 89.7994 87.9965 89.0392 86.9343C88.2113 85.9416 87.5153 84.8311 86.9707 83.6344Z" fill="#263238"/>
<path d="M81.9785 91.0735C83.2837 91.4443 84.5592 91.9264 85.7927 92.5152C87.0638 92.9972 88.2989 93.582 89.4874 94.2645C88.1825 93.8925 86.9071 93.4105 85.6731 92.8228C84.4027 92.3391 83.1677 91.7544 81.9785 91.0735Z" fill="#263238"/>
<path d="M89.5527 108.438C89.8517 108.438 109.425 103.652 109.425 103.652L109.054 89.4333L108.666 83.5511L121.029 78.425C121.029 78.425 120.67 77.0922 121.029 84.8967L121.37 89.7922C121.37 89.7922 120.353 105.254 119.749 108.259C119.146 111.264 117.854 113.667 114.267 114.109C111.087 114.5 89.5527 115.826 89.5527 115.826V108.438Z" fill="#FFBF9D"/>
<path d="M89.5519 108.439C89.5519 108.439 89.4682 103.992 88.41 102.947C87.3518 101.903 82.7006 99.1026 81.8338 100.032C80.9669 100.961 81.3555 100.986 82.4316 101.461C83.5077 101.935 86.7839 103.383 86.2339 103.383C85.6838 103.383 80.7577 100.314 80.4946 101.672C80.2316 103.03 81.6903 103.473 81.6903 103.473C81.6903 103.473 81.0925 104.434 82.7425 106.177C83.7156 107.221 84.909 107.999 86.2219 108.445C86.2219 108.445 82.6648 107.163 82.4197 108.445C82.1745 109.726 83.149 110.008 84.4523 110.527C85.3656 110.904 86.2596 111.331 87.1306 111.809C87.1306 111.809 88.1828 116.736 88.9241 116.672C89.7881 116.473 90.6327 116.188 91.447 115.82L89.5519 108.439Z" fill="#FFBF9D"/>
<path d="M108.641 83.5509V91.0286L122.116 88.8628C122.116 88.8628 122.164 80.1612 120.322 73.9458L108.641 83.5509Z" fill="#00F978"/>
<path d="M119.272 76.7653C119.272 76.823 118.602 76.8294 117.55 77.0216C114.789 77.5396 112.266 79.0247 110.376 81.2443C109.659 82.0901 109.294 82.6988 109.246 82.6668C109.294 82.5034 109.366 82.3496 109.461 82.2118C109.681 81.8164 109.931 81.4413 110.209 81.0905C112.049 78.7139 114.658 77.1692 117.514 76.7653C117.94 76.7046 118.37 76.6789 118.8 76.6884C118.96 76.6884 119.119 76.7144 119.272 76.7653Z" fill="#263238"/>
<path d="M5.70678 25.6317H10.4441L15.6052 15.9872L20.8432 27.5606L21.7387 25.1784H28.2959L35.2768 9.29399L39.7734 24.0886H47.9868C50.2802 21.4164 51.4811 17.975 51.349 14.4536C51.2169 10.9323 49.7615 7.59087 47.2742 5.09865C44.6541 2.47432 41.1005 1 37.3951 1C33.6897 1 30.1361 2.47432 27.516 5.09865L26.0717 6.54532L24.6273 5.08901C21.9888 2.56177 18.4675 1.16936 14.8169 1.20978C11.1664 1.2502 7.67664 2.72024 5.09453 5.30529C2.51242 7.89034 1.04307 11.385 1.00093 15.0415C0.958797 18.698 2.34723 22.2257 4.86908 24.8698L5.70678 25.6317Z" fill="#92E3A9" stroke="#263238" stroke-linejoin="round"/>
<path d="M37.9631 26.4514L34.8626 16.2283L29.8941 27.5412H23.4236L21.0645 33.8583L15.4317 21.4652L11.9076 28.0813H8.15234L26.0715 46.0296L45.6276 26.4514H37.9631Z" fill="#92E3A9" stroke="#263238" stroke-linejoin="round"/>
<path d="M182.242 204.835C181.568 201.026 180.614 191.102 181.433 187.475C181.917 185.26 182.098 182.989 181.972 180.724V167.309C182.365 165.514 182.318 163.651 181.837 161.879C181.019 158.986 174.779 152.9 174.779 152.9V150.73H174.385L172.661 150.624H172.16H171.66L169.936 150.691H169.541V152.861C169.541 152.861 163.302 158.986 162.483 161.84C162.012 163.629 161.982 165.506 162.397 167.309V180.637C162.271 182.902 162.452 185.173 162.936 187.388C163.754 191.053 162.801 200.977 162.127 204.748C161.453 208.519 161.723 211.413 163.889 212.464C165.699 213.371 170.629 212.773 172.209 212.541C173.797 212.773 178.718 213.371 180.528 212.464C182.617 211.5 182.925 208.645 182.242 204.835Z" fill="white" stroke="#263238" stroke-linejoin="round"/>
<path d="M179.594 188.16C179.989 186.258 180.138 184.313 180.037 182.374V175.902H164.323V182.374C164.222 184.313 164.371 186.258 164.766 188.16C165.411 191.295 164.651 199.734 164.111 202.993C163.572 206.253 163.784 208.674 165.527 209.6C166.981 210.371 170.928 209.86 172.199 209.667C173.47 209.86 177.418 210.371 178.872 209.6C180.615 208.635 180.798 206.244 180.288 202.993C179.777 199.743 178.949 191.295 179.594 188.16Z" fill="#92E3A9"/>
<path d="M175.386 147.595H168.867V151.27H175.386V147.595Z" fill="#263238" stroke="#263238" stroke-linejoin="round"/>
<path d="M162.754 165.949H181.761" stroke="#263238" stroke-linejoin="round"/>
<path d="M170.428 179.548H180.942" stroke="#263238" stroke-linejoin="round"/>
<path d="M163.438 179.548H166.596" stroke="#263238" stroke-linejoin="round"/>
</svg>
