<svg width="35" height="35" viewBox="0 0 35 35" fill="none" xmlns="http://www.w3.org/2000/svg">
<path d="M13.3333 30.3073V25.8348C13.3333 24.7015 14.2549 23.7807 15.3964 23.7736H19.5879C20.7346 23.7736 21.6641 24.6964 21.6641 25.8348V30.2944C21.6641 31.2774 22.4629 32.0762 23.453 32.0834H26.3126C27.6482 32.0868 28.9302 31.5625 29.8758 30.6261C30.8214 29.6897 31.3529 28.4183 31.3529 27.0923V14.3878C31.3529 13.3167 30.8746 12.3007 30.0471 11.6135L20.3322 3.90006C18.634 2.55089 16.2086 2.59447 14.5607 4.00377L5.05476 11.6135C4.18811 12.2804 3.67013 13.2994 3.64453 14.3878V27.0793C3.64453 29.843 5.90113 32.0834 8.68478 32.0834H11.4791C11.9558 32.0868 12.4142 31.9012 12.7525 31.5678C13.0908 31.2343 13.2811 30.7806 13.2811 30.3073H13.3333Z" fill="url(#paint0_linear_3937_2267)"/>
<defs>
<linearGradient id="paint0_linear_3937_2267" x1="17.4987" y1="2.91675" x2="17.4987" y2="32.0835" gradientUnits="userSpaceOnUse">
<stop stop-color="#05FF00"/>
<stop offset="1" stop-color="#05FF00"/>
</linearGradient>
</defs>
</svg>
