<svg width="267" height="268" viewBox="0 0 267 268" fill="none" xmlns="http://www.w3.org/2000/svg">
<path d="M229.758 24.3612C228.401 22.9461 226.02 21.6436 221.951 21.5418C212.755 21.3167 215.201 27.872 212.755 29.421C210.31 30.97 209.615 28.5205 207.148 30.0964C204.681 31.6722 205.803 34.8239 203.789 35.2741C201.776 35.7244 199.08 33.232 196.612 34.84C194.145 36.448 194.145 37.7665 193.024 37.7665C191.903 37.7665 189.66 36.866 188.314 37.7665C186.968 38.667 185.398 39.7926 185.398 39.7926H209.476" stroke="#263238" stroke-linecap="round" stroke-linejoin="round"/>
<path d="M232.289 28.408C232.071 28.3008 231.841 28.1936 231.595 28.0864C231.487 27.2458 231.205 26.4371 230.768 25.7119" stroke="#263238" stroke-linecap="round" stroke-linejoin="round"/>
<path d="M212.559 39.7766H242.132C242.132 39.7766 242.804 37.7505 240.337 36.3998C237.87 35.0491 236.754 36.1747 235.857 35.0491C235.056 34.0467 237.635 31.6187 233.459 29.0298" stroke="#263238" stroke-linecap="round" stroke-linejoin="round"/>
<path d="M66.45 33.768C65.916 33.232 65.0029 32.696 63.4169 32.696C59.8498 32.6102 60.8056 35.1455 59.8498 35.7565C58.8939 36.3676 58.6323 35.4081 57.6711 36.0192C56.7099 36.6302 57.1371 37.8523 56.3681 38.0292C55.5991 38.2061 54.5365 37.2413 53.5806 37.8523C52.6248 38.4633 52.6248 38.9886 52.1869 38.9886C51.749 38.9886 50.8839 38.6402 50.3606 38.9886C49.8373 39.337 49.2285 39.7765 49.2285 39.7765H58.5735" stroke="#263238" stroke-linecap="round" stroke-linejoin="round"/>
<path d="M67.4326 35.376L67.1602 35.2527C67.1209 34.9258 67.0116 34.6113 66.8398 34.3308" stroke="#263238" stroke-linecap="round" stroke-linejoin="round"/>
<path d="M59.7754 39.7765H71.251C71.3129 39.5104 71.2767 39.2307 71.1491 38.9893C71.0215 38.7479 70.8111 38.5611 70.5569 38.4633C69.601 37.9273 69.1631 38.3775 68.816 37.9273C68.4689 37.4771 69.5049 36.5927 67.8868 35.5903" stroke="#263238" stroke-linecap="round" stroke-linejoin="round"/>
<path d="M195.075 18.91C194.541 18.374 193.633 17.838 192.042 17.838C188.501 17.7308 189.431 20.2661 188.501 20.9039C187.572 21.5418 187.284 20.5502 186.323 21.1666C185.362 21.783 185.789 22.9997 185.02 23.1766C184.251 23.3535 183.188 22.3887 182.232 22.9997C181.276 23.6107 181.25 24.1199 180.812 24.1199C180.374 24.1199 179.509 23.7715 178.986 24.1199C178.462 24.4683 177.854 24.9079 177.854 24.9079H187.199" stroke="#263238" stroke-linecap="round" stroke-linejoin="round"/>
<path d="M196.058 20.4751L195.785 20.3519C195.746 20.025 195.637 19.7105 195.465 19.4299" stroke="#263238" stroke-linecap="round" stroke-linejoin="round"/>
<path d="M188.4 24.8971H199.876C199.938 24.631 199.902 24.3514 199.774 24.1099C199.646 23.8685 199.436 23.6817 199.182 23.5839C198.226 23.0479 197.788 23.4982 197.441 23.0479C197.094 22.5977 198.114 21.7294 196.512 20.7217" stroke="#263238" stroke-linecap="round" stroke-linejoin="round"/>
<path d="M140.977 226.728C193.767 226.728 236.563 183.773 236.563 130.784C236.563 77.7957 193.767 34.8401 140.977 34.8401C88.1859 34.8401 45.3906 77.7957 45.3906 130.784C45.3906 183.773 88.1859 226.728 140.977 226.728Z" stroke="#263238" stroke-linejoin="round" stroke-dasharray="2 2"/>
<path d="M212.334 245.997H233.55" stroke="#263238" stroke-miterlimit="10"/>
<path d="M40.7227 245.997H208.559" stroke="#263238" stroke-miterlimit="10"/>
<path d="M218.49 188.275C218.29 188.277 218.094 188.227 217.919 188.13C217.778 188.056 217.654 187.954 217.552 187.83C217.451 187.707 217.375 187.564 217.329 187.411C217.283 187.259 217.267 187.098 217.283 186.939C217.299 186.78 217.347 186.626 217.422 186.485L221.379 179.056C221.538 178.785 221.795 178.586 222.096 178.501C222.398 178.415 222.72 178.451 222.996 178.599C223.273 178.747 223.481 178.997 223.578 179.296C223.674 179.595 223.652 179.92 223.515 180.203L219.553 187.632C219.45 187.826 219.297 187.988 219.11 188.101C218.923 188.214 218.709 188.275 218.49 188.275Z" fill="#263238"/>
<path d="M233.812 188.275C233.593 188.276 233.377 188.216 233.189 188.103C233.001 187.989 232.847 187.827 232.744 187.632L228.782 180.203C228.645 179.92 228.623 179.595 228.719 179.296C228.816 178.997 229.024 178.747 229.301 178.599C229.577 178.451 229.899 178.415 230.201 178.501C230.502 178.586 230.759 178.785 230.918 179.056L234.875 186.485C234.95 186.626 234.998 186.78 235.013 186.939C235.029 187.098 235.014 187.259 234.968 187.411C234.922 187.564 234.846 187.707 234.745 187.83C234.643 187.954 234.519 188.056 234.378 188.13C234.205 188.227 234.01 188.277 233.812 188.275Z" fill="#263238"/>
<path d="M226.148 183.258C232.138 183.258 236.994 178.385 236.994 172.372C236.994 166.36 232.138 161.486 226.148 161.486C220.158 161.486 215.303 166.36 215.303 172.372C215.303 178.385 220.158 183.258 226.148 183.258Z" fill="#92E3A9" stroke="#263238" stroke-linecap="round" stroke-linejoin="round"/>
<path d="M226.149 181.704C231.283 181.704 235.445 177.526 235.445 172.372C235.445 167.219 231.283 163.041 226.149 163.041C221.014 163.041 216.852 167.219 216.852 172.372C216.852 177.526 221.014 181.704 226.149 181.704Z" fill="white" stroke="#263238" stroke-linecap="round" stroke-linejoin="round"/>
<path d="M226.319 165.463C226.319 165.463 226.148 173.064 226.148 172.372L228.039 176.172" stroke="#263238" stroke-miterlimit="10"/>
<path d="M232.289 160.971C232.082 159.533 231.366 158.218 230.272 157.267C229.178 156.315 227.779 155.792 226.332 155.792C224.884 155.792 223.485 156.315 222.391 157.267C221.297 158.218 220.581 159.533 220.375 160.971H232.289Z" fill="white" stroke="#263238" stroke-linecap="round" stroke-linejoin="round"/>
<path d="M226.148 173.064C226.528 173.064 226.837 172.754 226.837 172.372C226.837 171.99 226.528 171.681 226.148 171.681C225.767 171.681 225.459 171.99 225.459 172.372C225.459 172.754 225.767 173.064 226.148 173.064Z" fill="#263238" stroke="#263238" stroke-miterlimit="10"/>
<path d="M244.935 117.481C244.936 119.057 244.627 120.618 244.026 122.074C243.426 123.531 242.545 124.854 241.435 125.968C240.324 127.083 239.006 127.967 237.555 128.57C236.104 129.173 234.549 129.483 232.979 129.482C232.311 129.485 231.644 129.427 230.987 129.31C228.206 128.833 225.682 127.384 223.862 125.219C222.043 123.054 221.045 120.313 221.045 117.481C221.045 114.649 222.043 111.907 223.862 109.743C225.682 107.578 228.206 106.128 230.987 105.651C231.645 105.539 232.311 105.483 232.979 105.485C234.549 105.484 236.103 105.794 237.554 106.397C239.004 106.999 240.323 107.883 241.433 108.997C242.543 110.111 243.424 111.433 244.025 112.889C244.626 114.345 244.935 115.905 244.935 117.481Z" fill="#14E650" stroke="#263238" stroke-linecap="round" stroke-linejoin="round"/>
<path d="M231.814 105.453C237.047 106.728 240.951 111.836 240.951 117.48C240.951 120.316 239.95 123.061 238.126 125.226C236.302 127.392 233.772 128.839 230.986 129.31" fill="#14E650"/>
<path d="M231.814 105.453C237.047 106.728 240.951 111.836 240.951 117.48C240.951 120.316 239.95 123.061 238.126 125.226C236.302 127.392 233.772 128.839 230.986 129.31" stroke="#263238" stroke-linecap="round" stroke-linejoin="round"/>
<path d="M224.494 108.835C226.529 108.835 229.642 109.505 232.301 112.769C236.696 118.156 242.549 118.665 244.503 113.75" fill="#14E650"/>
<path d="M224.494 108.835C226.529 108.835 229.642 109.505 232.301 112.769C236.696 118.156 242.549 118.665 244.503 113.75" stroke="#263238" stroke-linecap="round" stroke-linejoin="round"/>
<path d="M221.076 118.402C221.076 118.402 237.315 125.869 244.93 117.48L221.076 118.402Z" fill="#14E650"/>
<path d="M221.076 118.402C221.076 118.402 237.315 125.869 244.93 117.48" stroke="#263238" stroke-linecap="round" stroke-linejoin="round"/>
<path d="M225.646 126.807C227.738 127.086 229.866 126.805 231.814 125.992C235.718 124.277 239.183 123.382 240.839 124.524C241.073 124.663 241.277 124.848 241.438 125.068C241.6 125.288 241.715 125.539 241.779 125.805" fill="#14E650"/>
<path d="M225.646 126.807C227.738 127.086 229.866 126.805 231.814 125.992C235.718 124.277 239.183 123.382 240.839 124.524C241.073 124.663 241.277 124.848 241.438 125.068C241.6 125.288 241.715 125.539 241.779 125.805" stroke="#263238" stroke-linecap="round" stroke-linejoin="round"/>
<path d="M221.61 69.9159C221.61 75.2759 217.258 80.9253 213.066 80.9253C212.041 80.9253 209.387 80.9253 208.442 80.5662C203.273 78.5615 201.275 73.5982 201.275 69.278C201.275 67.0375 201.948 64.5934 203.716 63.0979C206.06 61.1147 208.645 62.3636 211.368 62.3636C213.739 62.3636 217.06 61.3881 218.844 62.7281C221.178 64.4111 221.61 67.2573 221.61 69.9159Z" fill="white" stroke="#263238" stroke-linejoin="round"/>
<path d="M218.823 66.3247C218.481 66.925 217.445 66.9679 216.511 66.4265C215.576 65.8852 215.101 64.9633 215.443 64.3683C215.785 63.7733 216.82 63.7251 217.755 64.2665C218.689 64.8078 219.17 65.7297 218.823 66.3247Z" fill="white" stroke="#263238" stroke-linejoin="round"/>
<path d="M210.849 63.1838L211.031 62.7604L213.567 56.8268L211.885 56.5642L210.203 62.5352L210.849 63.1838Z" fill="#263238" stroke="#263238" stroke-linejoin="round"/>
<path d="M211.24 59.1583C211.24 59.1583 210.076 56.5641 208.394 56.1782C206.712 55.7923 202.061 57.9952 202.061 57.9952C202.061 57.9952 204.383 59.6783 206.194 60.1982C208.004 60.7181 211.24 59.1583 211.24 59.1583Z" fill="#92E3A9" stroke="#263238" stroke-linejoin="round"/>
<path d="M147.176 52.6405C146.802 50.5233 146.274 45.0079 146.728 42.9925C146.996 41.7612 147.096 40.499 147.027 39.2405V31.7848C147.244 30.7875 147.219 29.7522 146.952 28.7671C146.498 27.1591 143.038 23.7769 143.038 23.7769V22.5709H142.819L141.863 22.512H141.585H141.307L140.352 22.5495H140.133V23.7555C140.133 23.7555 136.672 27.1591 136.218 28.7456C135.957 29.7398 135.94 30.7828 136.17 31.7848V39.1923C136.101 40.4508 136.201 41.7129 136.469 42.9443C136.923 44.9811 136.395 50.4965 136.021 52.5923C135.647 54.688 135.797 56.296 136.998 56.8803C138.002 57.3841 140.736 57.0518 141.612 56.9232C142.493 57.0518 145.222 57.3841 146.226 56.8803C147.384 56.3443 147.555 54.7577 147.176 52.6405Z" fill="white" stroke="#263238" stroke-linejoin="round"/>
<path d="M145.708 43.3731C145.927 42.3161 146.01 41.2352 145.954 40.1571V36.5605H137.239V40.1571C137.183 41.2352 137.266 42.3161 137.485 43.3731C137.843 45.1151 137.421 49.8051 137.122 51.6168C136.823 53.4285 136.94 54.7738 137.907 55.2884C138.713 55.7172 140.902 55.4331 141.607 55.3259C142.312 55.4331 144.502 55.7172 145.308 55.2884C146.274 54.7524 146.376 53.4231 146.093 51.6168C145.81 49.8105 145.351 45.1151 145.708 43.3731Z" fill="#92E3A9"/>
<path d="M143.375 20.8289H139.76V22.871H143.375V20.8289Z" fill="#263238" stroke="#263238" stroke-linejoin="round"/>
<path d="M136.367 31.0291H146.908" stroke="#263238" stroke-linejoin="round"/>
<path d="M140.623 38.5864H146.454" stroke="#263238" stroke-linejoin="round"/>
<path d="M136.748 38.5864H138.5" stroke="#263238" stroke-linejoin="round"/>
<path d="M65.3349 67.493H67.9622L70.8245 62.133L73.7294 68.565L74.226 67.2411H77.8626L81.7341 58.4132L84.2278 66.6354H88.7829C90.0548 65.1503 90.7208 63.2378 90.6475 61.2807C90.5743 59.3237 89.7671 57.4667 88.3877 56.0816C86.9346 54.6231 84.9638 53.8037 82.9089 53.8037C80.8539 53.8037 78.8831 54.6231 77.43 56.0816L76.629 56.8856L75.828 56.0762C74.3647 54.6717 72.4119 53.8978 70.3873 53.9203C68.3628 53.9428 66.4274 54.7598 64.9954 56.1964C63.5634 57.6331 62.7485 59.5753 62.7251 61.6074C62.7018 63.6395 63.4718 65.6001 64.8704 67.0696L65.3349 67.493Z" fill="#01FF49" stroke="#263238" stroke-linejoin="round"/>
<path d="M83.2241 67.9487L81.5046 62.2671L78.7491 68.5544H75.1606L73.8523 72.0652L70.7284 65.1776L68.774 68.8545H66.6914L76.6291 78.8295L87.4747 67.9487H83.2241Z" fill="#01FF49" stroke="#263238" stroke-linejoin="round"/>
<path d="M40.3588 113.718C40.3588 113.718 39.8729 112.11 38.4044 111.756C36.9359 111.402 33.844 111.917 33.3581 110.121C32.8722 108.325 35.147 108.813 34.6611 107.339C34.1751 105.865 30.592 105.871 29.775 103.089C28.9579 100.307 30.1007 97.3696 32.2153 98.3505C34.33 99.3314 35.3125 103.416 36.1242 105.051C36.9359 106.685 36.7757 103.416 39.0559 103.089C41.3361 102.762 43.6162 104.563 42.1531 106.841C40.6899 109.119 40.7433 110.909 41.0103 112.072C41.1972 112.881 41.2453 112.817 41.2453 112.817L40.3588 113.718Z" fill="#92E3A9" stroke="#263238" stroke-linejoin="round"/>
<path d="M32.2201 102.579C31.7689 101.921 31.4463 101.183 31.2695 100.403" stroke="#263238" stroke-miterlimit="10"/>
<path d="M40.8927 113.332C40.539 111.904 39.8319 110.59 38.8368 109.51C37.1334 107.597 34.9279 106.294 33.1764 103.973C33.0322 103.786 32.9041 103.609 32.7812 103.437" stroke="#263238" stroke-miterlimit="10"/>
<path d="M45.4694 111.054C45.4694 111.054 38.0254 112.549 38.0254 119.63C38.0254 126.71 58.1198 140.534 59.6097 137.934C61.0995 135.335 53.7837 119.839 51.9201 116.494C50.0564 113.15 48.0593 110.679 45.4694 111.054Z" fill="white" stroke="#263238" stroke-miterlimit="10"/>
<path d="M40.1992 124.829C40.1992 124.829 42.8051 120.905 45.2455 119.764" stroke="#263238" stroke-miterlimit="10"/>
<path d="M53.222 120.906C51.3992 121.67 49.7402 122.78 48.3359 124.175" stroke="#263238" stroke-miterlimit="10"/>
<path d="M49.6602 133.003C50.4555 131.148 51.8265 129.601 53.569 128.592" stroke="#263238" stroke-miterlimit="10"/>
<path d="M49.1541 117.475L47.5254 118.456" stroke="#263238" stroke-miterlimit="10"/>
<path d="M55.8288 127.445L54.6914 127.772" stroke="#263238" stroke-miterlimit="10"/>
<path d="M53.2351 184.079C59.9298 184.079 65.3569 178.631 65.3569 171.911C65.3569 165.192 59.9298 159.744 53.2351 159.744C46.5404 159.744 41.1133 165.192 41.1133 171.911C41.1133 178.631 46.5404 184.079 53.2351 184.079Z" fill="#92E3A9" stroke="#263238" stroke-linecap="round" stroke-linejoin="round"/>
<path d="M56.392 163.48C56.392 165.56 54.5069 170.041 53.236 170.041C51.9651 170.041 50.0801 165.56 50.0801 163.48C50.0801 161.4 51.9651 160.8 53.236 160.8C54.5069 160.8 56.392 161.39 56.392 163.48Z" fill="white" stroke="#263238" stroke-linecap="round" stroke-linejoin="round"/>
<path d="M47.5263 164.943C49.3205 165.983 52.4337 169.408 51.7983 170.512C51.1628 171.617 46.1699 171.472 44.3703 170.432C42.5707 169.392 42.9926 167.446 43.6281 166.342C44.2635 165.238 45.7374 163.904 47.5263 164.943Z" fill="white" stroke="#263238" stroke-linecap="round" stroke-linejoin="round"/>
<path d="M44.3704 173.385C46.1647 172.345 51.3124 171.434 51.9319 172.538C52.5513 173.643 49.3259 177.834 47.5317 178.874C45.7375 179.914 44.2636 178.584 43.6282 177.48C42.9927 176.376 42.5762 174.425 44.3704 173.385Z" fill="white" stroke="#263238" stroke-linecap="round" stroke-linejoin="round"/>
<path d="M50.0801 180.353C50.0801 178.274 51.9651 173.203 53.236 173.203C54.5069 173.203 56.392 178.274 56.392 180.353C56.392 182.433 54.5069 183.033 53.236 183.033C51.9651 183.033 50.0801 182.433 50.0801 180.353Z" fill="white" stroke="#263238" stroke-linecap="round" stroke-linejoin="round"/>
<path d="M58.938 178.874C57.1438 177.834 54.1908 173.911 54.8316 172.806C55.4724 171.702 60.2997 172.345 62.094 173.385C63.8882 174.425 63.477 176.371 62.8416 177.48C62.2061 178.59 60.7323 179.914 58.938 178.874Z" fill="white" stroke="#263238" stroke-linecap="round" stroke-linejoin="round"/>
<path d="M62.1 170.448C60.3005 171.488 55.4678 171.938 54.8323 170.834C54.1968 169.73 57.1445 166.01 58.9388 164.938C60.733 163.866 62.2068 165.233 62.8423 166.337C63.4778 167.441 63.8943 169.376 62.1 170.448Z" fill="white" stroke="#263238" stroke-linecap="round" stroke-linejoin="round"/>
<path d="M231.489 214.1C231.489 214.1 231.938 212.465 231.954 212.358C232.124 211.114 231.729 208.606 230.469 208.006C230.257 207.91 230.028 207.86 229.796 207.859C229.563 207.858 229.333 207.906 229.121 208C228.908 208.094 228.718 208.232 228.562 208.404C228.406 208.577 228.288 208.781 228.216 209.002C227.879 209.935 228.306 211.077 228.814 211.865C229.412 212.792 231.489 214.1 231.489 214.1Z" fill="#263238"/>
<path d="M206.658 213.558C207.662 213.998 210.119 213.944 210.119 213.944C210.119 213.944 209.585 212.336 209.542 212.235C209.008 211.104 207.299 209.233 205.916 209.421C205.687 209.459 205.468 209.545 205.274 209.673C205.08 209.802 204.915 209.97 204.789 210.166C204.664 210.363 204.581 210.584 204.546 210.814C204.511 211.045 204.525 211.281 204.586 211.506C204.816 212.47 205.804 213.183 206.658 213.558Z" fill="#263238"/>
<path d="M207.508 220.698C208.576 220.848 210.738 220.21 210.909 220.162C211.27 221.42 211.714 222.652 212.239 223.85C212.543 224.552 212.869 225.249 213.2 225.94C213.002 225.651 212.821 225.404 212.794 225.356C211.977 224.407 209.841 223.056 208.554 223.603C208.343 223.701 208.154 223.841 208 224.017C207.847 224.192 207.731 224.398 207.662 224.62C207.592 224.843 207.57 225.078 207.597 225.31C207.624 225.542 207.699 225.766 207.817 225.967C208.293 226.835 209.419 227.264 210.359 227.398C211.299 227.532 213.173 227.028 213.67 226.889C213.798 227.151 213.926 227.425 214.06 227.682C214.695 228.952 215.331 230.212 215.923 231.472C216.132 231.917 216.319 232.361 216.505 232.801C216.329 232.544 216.18 232.324 216.153 232.292C215.336 231.343 213.2 229.992 211.913 230.544C211.702 230.641 211.513 230.781 211.359 230.956C211.206 231.131 211.09 231.336 211.021 231.559C210.951 231.781 210.929 232.016 210.956 232.247C210.983 232.479 211.058 232.702 211.176 232.903C211.657 233.771 212.778 234.2 213.718 234.339C214.658 234.479 216.351 234.018 216.922 233.851C217.103 234.312 217.285 234.773 217.456 235.229C217.552 235.54 217.67 235.835 217.75 236.151C217.83 236.467 217.926 236.778 218.011 237.089C218.155 237.689 218.305 238.306 218.433 238.895C218.524 239.303 218.599 239.694 218.679 240.085C218.481 239.646 218.065 238.783 218.022 238.718C217.36 237.646 215.453 235.995 214.097 236.344C213.874 236.408 213.667 236.518 213.49 236.668C213.312 236.818 213.169 237.004 213.068 237.213C212.967 237.423 212.911 237.651 212.905 237.884C212.898 238.117 212.94 238.348 213.029 238.563C213.365 239.496 214.428 240.091 215.32 240.369C216.302 240.669 218.476 240.369 218.748 240.369C218.876 241.018 218.999 241.656 219.101 242.256C219.325 243.51 219.49 244.647 219.635 245.617H220.542C220.388 244.609 220.185 243.424 219.923 242.106C219.795 241.441 219.64 240.734 219.48 240.01C220.134 239.748 220.772 239.447 221.392 239.11C222.107 239.887 223.939 240.798 224.179 240.916C223.928 241.532 223.682 242.127 223.437 242.685C222.961 243.789 222.508 244.77 222.102 245.617H223.09C223.431 244.839 223.811 243.971 224.2 243.012C224.457 242.385 224.734 241.715 224.98 241.018C225.242 241.077 227.394 241.516 228.398 241.286C229.311 241.082 230.411 240.562 230.817 239.678C230.92 239.469 230.979 239.24 230.988 239.006C230.998 238.773 230.958 238.54 230.872 238.323C230.786 238.106 230.655 237.91 230.488 237.747C230.321 237.584 230.122 237.459 229.903 237.378C228.579 236.933 226.555 238.45 225.813 239.453C225.77 239.512 225.364 240.214 225.119 240.659C225.226 240.375 225.332 240.123 225.434 239.806C225.647 239.228 225.84 238.643 226.053 238.016C226.144 237.711 226.235 237.4 226.331 237.084C226.427 236.767 226.497 236.44 226.577 236.113C226.758 235.352 226.902 234.575 227.036 233.787C227.538 233.969 229.343 234.602 230.277 234.538C231.212 234.473 232.376 234.125 232.915 233.294C233.05 233.105 233.143 232.889 233.19 232.661C233.236 232.433 233.234 232.198 233.183 231.971C233.133 231.744 233.035 231.53 232.897 231.344C232.759 231.157 232.583 231.001 232.381 230.887C231.137 230.244 228.91 231.423 228.024 232.313C227.97 232.372 227.404 233.074 227.1 233.471C227.175 232.994 227.255 232.522 227.314 232.04C227.484 230.646 227.618 229.231 227.751 227.821C227.794 227.393 227.842 226.964 227.885 226.53C228.067 226.599 230.197 227.393 231.244 227.318C232.173 227.253 233.337 226.91 233.876 226.079C234.011 225.89 234.105 225.675 234.151 225.447C234.197 225.219 234.195 224.984 234.144 224.757C234.094 224.529 233.997 224.316 233.858 224.129C233.72 223.942 233.544 223.787 233.342 223.673C232.098 223.03 229.871 224.209 228.985 225.099C228.921 225.168 228.109 226.171 227.917 226.449C228.018 225.506 228.125 224.557 228.269 223.635C228.457 222.382 228.726 221.143 229.076 219.926C229.156 219.958 231.377 220.8 232.451 220.719C233.38 220.655 234.544 220.312 235.083 219.481C235.218 219.292 235.311 219.076 235.358 218.848C235.404 218.621 235.402 218.385 235.351 218.158C235.301 217.931 235.203 217.717 235.065 217.531C234.927 217.344 234.751 217.189 234.549 217.075C233.305 216.431 231.078 217.611 230.192 218.5C230.133 218.559 229.519 219.331 229.231 219.706L229.161 219.669C229.544 218.455 230.035 217.278 230.63 216.153C230.945 215.526 231.287 214.947 231.628 214.389C232.023 214.588 233.85 215.461 234.832 215.52C235.815 215.579 236.968 215.343 237.588 214.577C237.741 214.402 237.856 214.196 237.925 213.974C237.994 213.751 238.016 213.516 237.989 213.285C237.962 213.053 237.886 212.83 237.767 212.63C237.649 212.43 237.489 212.256 237.299 212.122C236.135 211.345 233.791 212.277 232.814 213.06C232.76 213.103 232.28 213.596 231.917 213.955C232.072 213.709 232.232 213.451 232.387 213.215C232.974 212.331 233.561 211.554 234.09 210.873C234.394 210.493 234.677 210.15 234.944 209.833C235.436 209.833 237.412 209.764 238.282 209.356C239.152 208.949 240.087 208.215 240.295 207.244C240.35 207.018 240.358 206.782 240.317 206.553C240.276 206.324 240.187 206.105 240.057 205.912C239.926 205.719 239.757 205.556 239.56 205.433C239.363 205.31 239.142 205.229 238.912 205.197C237.518 205.047 235.868 206.96 235.356 208.107C235.313 208.204 234.822 209.833 234.822 209.833H234.848C234.587 210.133 234.314 210.455 234.01 210.82C233.476 211.49 232.856 212.251 232.253 213.124C231.586 214.06 230.977 215.036 230.427 216.046C229.804 217.169 229.283 218.346 228.868 219.562C228.868 219.562 228.868 219.594 228.868 219.61C228.868 219.197 228.868 218.045 228.868 217.959C228.707 216.716 227.666 214.405 226.294 214.153C226.059 214.101 225.816 214.1 225.581 214.152C225.346 214.203 225.125 214.306 224.933 214.451C224.741 214.597 224.584 214.783 224.471 214.997C224.358 215.21 224.293 215.445 224.28 215.686C224.2 216.678 224.916 217.664 225.61 218.286C226.395 218.994 228.574 219.674 228.745 219.728C228.355 220.976 228.048 222.249 227.826 223.539C227.693 224.289 227.581 225.05 227.479 225.817C227.479 225.463 227.479 225.141 227.479 225.099C227.319 223.855 226.278 221.545 224.905 221.293C224.676 221.257 224.441 221.269 224.217 221.33C223.992 221.39 223.783 221.498 223.603 221.645C223.422 221.792 223.275 221.976 223.17 222.184C223.065 222.392 223.005 222.62 222.994 222.853C222.913 223.844 223.629 224.831 224.323 225.458C225.017 226.085 226.876 226.707 227.362 226.862C227.33 227.157 227.287 227.452 227.255 227.741C227.084 229.151 226.924 230.56 226.721 231.933C226.651 232.42 226.561 232.892 226.475 233.369C226.475 233.053 226.475 232.785 226.475 232.747C226.315 231.504 225.279 229.194 223.901 228.942C223.672 228.905 223.437 228.918 223.213 228.978C222.988 229.039 222.779 229.146 222.599 229.294C222.419 229.441 222.271 229.624 222.166 229.832C222.061 230.041 222.001 230.268 221.99 230.501C221.909 231.488 222.625 232.479 223.319 233.101C224.013 233.723 225.69 234.291 226.272 234.484C226.171 234.966 226.069 235.449 225.952 235.915C225.861 236.231 225.797 236.542 225.69 236.853C225.583 237.164 225.493 237.469 225.391 237.775C225.183 238.354 224.969 238.954 224.75 239.517C224.601 239.903 224.451 240.273 224.302 240.648C224.377 240.166 224.505 239.222 224.505 239.142C224.491 238.038 224.195 236.956 223.645 236.001C223.656 235.88 223.656 235.758 223.645 235.636C223.616 235.405 223.539 235.182 223.418 234.983C223.298 234.783 223.137 234.611 222.946 234.478C222.755 234.345 222.539 234.254 222.31 234.211C222.082 234.168 221.847 234.173 221.621 234.227C220.27 234.586 219.41 236.966 219.346 238.22C219.346 238.295 219.389 239.099 219.432 239.608C219.362 239.313 219.298 239.024 219.223 238.724C219.085 238.123 218.924 237.528 218.754 236.885C218.663 236.58 218.572 236.269 218.476 235.958C218.38 235.647 218.257 235.331 218.15 235.009C217.883 234.275 217.573 233.546 217.253 232.817C217.787 232.688 219.624 232.217 220.372 231.643C221.119 231.07 221.893 230.142 221.888 229.151C221.894 228.918 221.851 228.686 221.762 228.471C221.673 228.255 221.54 228.061 221.371 227.901C221.202 227.741 221.002 227.618 220.783 227.54C220.564 227.463 220.331 227.433 220.099 227.452C218.711 227.602 217.504 229.826 217.248 231.054C217.248 231.129 217.152 232.029 217.114 232.528C216.917 232.088 216.719 231.654 216.505 231.22C215.886 229.96 215.213 228.711 214.556 227.468L213.958 226.315C214.14 226.272 216.356 225.779 217.189 225.115C217.926 224.547 218.711 223.614 218.705 222.622C218.712 222.389 218.67 222.157 218.581 221.941C218.492 221.725 218.359 221.531 218.19 221.37C218.021 221.21 217.821 221.087 217.601 221.01C217.382 220.933 217.148 220.903 216.917 220.923C215.528 221.073 214.321 223.298 214.07 224.525C214.07 224.616 213.932 225.913 213.921 226.246C213.483 225.399 213.05 224.552 212.666 223.7C212.133 222.552 211.677 221.37 211.299 220.162C211.384 220.162 213.697 219.626 214.551 218.956C215.293 218.388 216.078 217.455 216.068 216.464C216.073 216.23 216.031 215.998 215.941 215.783C215.852 215.567 215.719 215.373 215.551 215.212C215.382 215.051 215.182 214.928 214.963 214.85C214.743 214.772 214.51 214.741 214.279 214.759C212.89 214.915 211.683 217.139 211.432 218.366C211.432 218.447 211.326 219.438 211.294 219.905H211.213C210.867 218.678 210.629 217.422 210.503 216.153C210.423 215.456 210.386 214.786 210.37 214.132C210.808 214.078 212.821 213.81 213.654 213.301C214.487 212.792 215.331 211.977 215.432 210.991C215.465 210.759 215.448 210.523 215.383 210.298C215.317 210.073 215.205 209.864 215.054 209.686C214.903 209.508 214.715 209.364 214.504 209.263C214.293 209.163 214.063 209.109 213.83 209.104C212.436 209.104 210.989 211.179 210.626 212.369C210.626 212.438 210.466 213.119 210.37 213.617C210.37 213.323 210.37 213.017 210.37 212.733C210.37 211.661 210.439 210.702 210.503 209.839C210.546 209.351 210.594 208.911 210.642 208.499C211.048 208.22 212.661 207.073 213.163 206.253C213.665 205.433 214.044 204.302 213.697 203.38C213.619 203.16 213.496 202.958 213.336 202.789C213.176 202.619 212.982 202.486 212.766 202.397C212.551 202.308 212.32 202.265 212.087 202.272C211.855 202.279 211.626 202.335 211.416 202.437C210.178 203.085 209.846 205.594 210.055 206.832C210.055 206.939 210.541 208.579 210.562 208.563H210.589C210.535 208.96 210.477 209.383 210.428 209.849C210.343 210.707 210.258 211.683 210.231 212.749C210.193 213.897 210.219 215.046 210.311 216.19C210.412 217.473 210.624 218.745 210.946 219.991V220.033C210.728 219.685 210.076 218.736 210.023 218.672C209.206 217.723 207.07 216.373 205.783 216.919C205.571 217.017 205.383 217.157 205.229 217.333C205.075 217.508 204.96 217.714 204.89 217.937C204.821 218.159 204.799 218.394 204.826 218.626C204.852 218.858 204.927 219.082 205.046 219.283C205.441 220.135 206.584 220.564 207.508 220.698Z" fill="#263238"/>
<path opacity="0.3" d="M206.658 213.558C207.662 213.998 210.119 213.944 210.119 213.944C210.119 213.944 209.585 212.336 209.542 212.235C209.008 211.104 207.299 209.233 205.916 209.421C205.687 209.459 205.468 209.545 205.274 209.673C205.08 209.802 204.915 209.97 204.789 210.166C204.664 210.363 204.581 210.584 204.546 210.814C204.511 211.045 204.525 211.281 204.586 211.506C204.816 212.47 205.804 213.183 206.658 213.558Z" fill="#263238"/>
<path opacity="0.3" d="M231.489 214.1C231.489 214.1 231.938 212.465 231.954 212.358C232.124 211.114 231.729 208.606 230.469 208.006C230.257 207.91 230.028 207.86 229.796 207.859C229.563 207.858 229.333 207.906 229.121 208C228.908 208.094 228.718 208.232 228.562 208.404C228.406 208.577 228.288 208.781 228.216 209.002C227.879 209.935 228.306 211.077 228.814 211.865C229.412 212.792 231.489 214.1 231.489 214.1Z" fill="#263238"/>
<path opacity="0.3" d="M207.508 220.698C208.576 220.848 210.738 220.21 210.909 220.162C211.27 221.42 211.714 222.652 212.239 223.85C212.543 224.552 212.869 225.249 213.2 225.94C213.002 225.651 212.821 225.404 212.794 225.356C211.977 224.407 209.841 223.056 208.554 223.603C208.343 223.701 208.154 223.841 208 224.017C207.847 224.192 207.731 224.398 207.662 224.62C207.592 224.843 207.57 225.078 207.597 225.31C207.624 225.542 207.699 225.766 207.817 225.967C208.293 226.835 209.419 227.264 210.359 227.398C211.299 227.532 213.173 227.028 213.67 226.889C213.798 227.151 213.926 227.425 214.06 227.682C214.695 228.952 215.331 230.212 215.923 231.472C216.132 231.917 216.319 232.361 216.505 232.801C216.329 232.544 216.18 232.324 216.153 232.292C215.336 231.343 213.2 229.992 211.913 230.544C211.702 230.641 211.513 230.781 211.359 230.956C211.206 231.131 211.09 231.336 211.021 231.559C210.951 231.781 210.929 232.016 210.956 232.247C210.983 232.479 211.058 232.702 211.176 232.903C211.657 233.771 212.778 234.2 213.718 234.339C214.658 234.479 216.351 234.018 216.922 233.851C217.103 234.312 217.285 234.773 217.456 235.229C217.552 235.54 217.67 235.835 217.75 236.151C217.83 236.467 217.926 236.778 218.011 237.089C218.155 237.689 218.305 238.306 218.433 238.895C218.524 239.303 218.599 239.694 218.679 240.085C218.481 239.646 218.065 238.783 218.022 238.718C217.36 237.646 215.453 235.995 214.097 236.344C213.874 236.408 213.667 236.518 213.49 236.668C213.312 236.818 213.169 237.004 213.068 237.213C212.967 237.423 212.911 237.651 212.905 237.884C212.898 238.117 212.94 238.348 213.029 238.563C213.365 239.496 214.428 240.091 215.32 240.369C216.302 240.669 218.476 240.369 218.748 240.369C218.876 241.018 218.999 241.656 219.101 242.256C219.325 243.51 219.49 244.647 219.635 245.617H220.542C220.388 244.609 220.185 243.424 219.923 242.106C219.795 241.441 219.64 240.734 219.48 240.01C220.134 239.748 220.772 239.447 221.392 239.11C222.107 239.887 223.939 240.798 224.179 240.916C223.928 241.532 223.682 242.127 223.437 242.685C222.961 243.789 222.508 244.77 222.102 245.617H223.09C223.431 244.839 223.811 243.971 224.2 243.012C224.457 242.385 224.734 241.715 224.98 241.018C225.242 241.077 227.394 241.516 228.398 241.286C229.311 241.082 230.411 240.562 230.817 239.678C230.92 239.469 230.979 239.24 230.988 239.006C230.998 238.773 230.958 238.54 230.872 238.323C230.786 238.106 230.655 237.91 230.488 237.747C230.321 237.584 230.122 237.459 229.903 237.378C228.579 236.933 226.555 238.45 225.813 239.453C225.77 239.512 225.364 240.214 225.119 240.659C225.226 240.375 225.332 240.123 225.434 239.806C225.647 239.228 225.84 238.643 226.053 238.016C226.144 237.711 226.235 237.4 226.331 237.084C226.427 236.767 226.497 236.44 226.577 236.113C226.758 235.352 226.902 234.575 227.036 233.787C227.538 233.969 229.343 234.602 230.277 234.538C231.212 234.473 232.376 234.125 232.915 233.294C233.05 233.105 233.143 232.889 233.19 232.661C233.236 232.433 233.234 232.198 233.183 231.971C233.133 231.744 233.035 231.53 232.897 231.344C232.759 231.157 232.583 231.001 232.381 230.887C231.137 230.244 228.91 231.423 228.024 232.313C227.97 232.372 227.404 233.074 227.1 233.471C227.175 232.994 227.255 232.522 227.314 232.04C227.484 230.646 227.618 229.231 227.751 227.821C227.794 227.393 227.842 226.964 227.885 226.53C228.067 226.599 230.197 227.393 231.244 227.318C232.173 227.253 233.337 226.91 233.876 226.079C234.011 225.89 234.105 225.675 234.151 225.447C234.197 225.219 234.195 224.984 234.144 224.757C234.094 224.529 233.997 224.316 233.858 224.129C233.72 223.942 233.544 223.787 233.342 223.673C232.098 223.03 229.871 224.209 228.985 225.099C228.921 225.168 228.109 226.171 227.917 226.449C228.018 225.506 228.125 224.557 228.269 223.635C228.457 222.382 228.726 221.143 229.076 219.926C229.156 219.958 231.377 220.8 232.451 220.719C233.38 220.655 234.544 220.312 235.083 219.481C235.218 219.292 235.311 219.076 235.358 218.848C235.404 218.621 235.402 218.385 235.351 218.158C235.301 217.931 235.203 217.717 235.065 217.531C234.927 217.344 234.751 217.189 234.549 217.075C233.305 216.431 231.078 217.611 230.192 218.5C230.133 218.559 229.519 219.331 229.231 219.706L229.161 219.669C229.544 218.455 230.035 217.278 230.63 216.153C230.945 215.526 231.287 214.947 231.628 214.389C232.023 214.588 233.85 215.461 234.832 215.52C235.815 215.579 236.968 215.343 237.588 214.577C237.741 214.402 237.856 214.196 237.925 213.974C237.994 213.751 238.016 213.516 237.989 213.285C237.962 213.053 237.886 212.83 237.767 212.63C237.649 212.43 237.489 212.256 237.299 212.122C236.135 211.345 233.791 212.277 232.814 213.06C232.76 213.103 232.28 213.596 231.917 213.955C232.072 213.709 232.232 213.451 232.387 213.215C232.974 212.331 233.561 211.554 234.09 210.873C234.394 210.493 234.677 210.15 234.944 209.833C235.436 209.833 237.412 209.764 238.282 209.356C239.152 208.949 240.087 208.215 240.295 207.244C240.35 207.018 240.358 206.782 240.317 206.553C240.276 206.324 240.187 206.105 240.057 205.912C239.926 205.719 239.757 205.556 239.56 205.433C239.363 205.31 239.142 205.229 238.912 205.197C237.518 205.047 235.868 206.96 235.356 208.107C235.313 208.204 234.822 209.833 234.822 209.833H234.848C234.587 210.133 234.314 210.455 234.01 210.82C233.476 211.49 232.856 212.251 232.253 213.124C231.586 214.06 230.977 215.036 230.427 216.046C229.804 217.169 229.283 218.346 228.868 219.562C228.868 219.562 228.868 219.594 228.868 219.61C228.868 219.197 228.868 218.045 228.868 217.959C228.707 216.716 227.666 214.405 226.294 214.153C226.059 214.101 225.816 214.1 225.581 214.152C225.346 214.203 225.125 214.306 224.933 214.451C224.741 214.597 224.584 214.783 224.471 214.997C224.358 215.21 224.293 215.445 224.28 215.686C224.2 216.678 224.916 217.664 225.61 218.286C226.395 218.994 228.574 219.674 228.745 219.728C228.355 220.976 228.048 222.249 227.826 223.539C227.693 224.289 227.581 225.05 227.479 225.817C227.479 225.463 227.479 225.141 227.479 225.099C227.319 223.855 226.278 221.545 224.905 221.293C224.676 221.257 224.441 221.269 224.217 221.33C223.992 221.39 223.783 221.498 223.603 221.645C223.422 221.792 223.275 221.976 223.17 222.184C223.065 222.392 223.005 222.62 222.994 222.853C222.913 223.844 223.629 224.831 224.323 225.458C225.017 226.085 226.876 226.707 227.362 226.862C227.33 227.157 227.287 227.452 227.255 227.741C227.084 229.151 226.924 230.56 226.721 231.933C226.651 232.42 226.561 232.892 226.475 233.369C226.475 233.053 226.475 232.785 226.475 232.747C226.315 231.504 225.279 229.194 223.901 228.942C223.672 228.905 223.437 228.918 223.213 228.978C222.988 229.039 222.779 229.146 222.599 229.294C222.419 229.441 222.271 229.624 222.166 229.832C222.061 230.041 222.001 230.268 221.99 230.501C221.909 231.488 222.625 232.479 223.319 233.101C224.013 233.723 225.69 234.291 226.272 234.484C226.171 234.966 226.069 235.449 225.952 235.915C225.861 236.231 225.797 236.542 225.69 236.853C225.583 237.164 225.493 237.469 225.391 237.775C225.183 238.354 224.969 238.954 224.75 239.517C224.601 239.903 224.451 240.273 224.302 240.648C224.377 240.166 224.505 239.222 224.505 239.142C224.491 238.038 224.195 236.956 223.645 236.001C223.656 235.88 223.656 235.758 223.645 235.636C223.616 235.405 223.539 235.182 223.418 234.983C223.298 234.783 223.137 234.611 222.946 234.478C222.755 234.345 222.539 234.254 222.31 234.211C222.082 234.168 221.847 234.173 221.621 234.227C220.27 234.586 219.41 236.966 219.346 238.22C219.346 238.295 219.389 239.099 219.432 239.608C219.362 239.313 219.298 239.024 219.223 238.724C219.085 238.123 218.924 237.528 218.754 236.885C218.663 236.58 218.572 236.269 218.476 235.958C218.38 235.647 218.257 235.331 218.15 235.009C217.883 234.275 217.573 233.546 217.253 232.817C217.787 232.688 219.624 232.217 220.372 231.643C221.119 231.07 221.893 230.142 221.888 229.151C221.894 228.918 221.851 228.686 221.762 228.471C221.673 228.255 221.54 228.061 221.371 227.901C221.202 227.741 221.002 227.618 220.783 227.54C220.564 227.463 220.331 227.433 220.099 227.452C218.711 227.602 217.504 229.826 217.248 231.054C217.248 231.129 217.152 232.029 217.114 232.528C216.917 232.088 216.719 231.654 216.505 231.22C215.886 229.96 215.213 228.711 214.556 227.468L213.958 226.315C214.14 226.272 216.356 225.779 217.189 225.115C217.926 224.547 218.711 223.614 218.705 222.622C218.712 222.389 218.67 222.157 218.581 221.941C218.492 221.725 218.359 221.531 218.19 221.37C218.021 221.21 217.821 221.087 217.601 221.01C217.382 220.933 217.148 220.903 216.917 220.923C215.528 221.073 214.321 223.298 214.07 224.525C214.07 224.616 213.932 225.913 213.921 226.246C213.483 225.399 213.05 224.552 212.666 223.7C212.133 222.552 211.677 221.37 211.299 220.162C211.384 220.162 213.697 219.626 214.551 218.956C215.293 218.388 216.078 217.455 216.068 216.464C216.073 216.23 216.031 215.998 215.941 215.783C215.852 215.567 215.719 215.373 215.551 215.212C215.382 215.051 215.182 214.928 214.963 214.85C214.743 214.772 214.51 214.741 214.279 214.759C212.89 214.915 211.683 217.139 211.432 218.366C211.432 218.447 211.326 219.438 211.294 219.905H211.213C210.867 218.678 210.629 217.422 210.503 216.153C210.423 215.456 210.386 214.786 210.37 214.132C210.808 214.078 212.821 213.81 213.654 213.301C214.487 212.792 215.331 211.977 215.432 210.991C215.465 210.759 215.448 210.523 215.383 210.298C215.317 210.073 215.205 209.864 215.054 209.686C214.903 209.508 214.715 209.364 214.504 209.263C214.293 209.163 214.063 209.109 213.83 209.104C212.436 209.104 210.989 211.179 210.626 212.369C210.626 212.438 210.466 213.119 210.37 213.617C210.37 213.323 210.37 213.017 210.37 212.733C210.37 211.661 210.439 210.702 210.503 209.839C210.546 209.351 210.594 208.911 210.642 208.499C211.048 208.22 212.661 207.073 213.163 206.253C213.665 205.433 214.044 204.302 213.697 203.38C213.619 203.16 213.496 202.958 213.336 202.789C213.176 202.619 212.982 202.486 212.766 202.397C212.551 202.308 212.32 202.265 212.087 202.272C211.855 202.279 211.626 202.335 211.416 202.437C210.178 203.085 209.846 205.594 210.055 206.832C210.055 206.939 210.541 208.579 210.562 208.563H210.589C210.535 208.96 210.477 209.383 210.428 209.849C210.343 210.707 210.258 211.683 210.231 212.749C210.193 213.897 210.219 215.046 210.311 216.19C210.412 217.473 210.624 218.745 210.946 219.991V220.033C210.728 219.685 210.076 218.736 210.023 218.672C209.206 217.723 207.07 216.373 205.783 216.919C205.571 217.017 205.383 217.157 205.229 217.333C205.075 217.508 204.96 217.714 204.89 217.937C204.821 218.159 204.799 218.394 204.826 218.626C204.852 218.858 204.927 219.082 205.046 219.283C205.441 220.135 206.584 220.564 207.508 220.698Z" fill="#263238"/>
<path d="M61.2018 214.1C61.2018 214.1 61.6504 212.465 61.6664 212.358C61.8373 211.114 61.4421 208.606 60.1819 208.006C59.9702 207.91 59.7407 207.86 59.5084 207.859C59.2762 207.858 59.0463 207.906 58.8337 208C58.6212 208.094 58.4308 208.232 58.2748 208.404C58.1188 208.577 58.0008 208.781 57.9284 209.002C57.592 209.935 58.0192 211.077 58.5265 211.865C59.1246 212.792 61.2018 214.1 61.2018 214.1Z" fill="#263238"/>
<path d="M36.3712 213.558C37.3751 213.998 39.8262 213.944 39.8315 213.944C39.8369 213.944 39.2975 212.336 39.2548 212.235C38.7208 211.104 37.012 209.233 35.629 209.421C35.3996 209.459 35.1808 209.545 34.9867 209.673C34.7926 209.802 34.6276 209.97 34.5022 210.166C34.3769 210.363 34.2941 210.584 34.2591 210.814C34.2242 211.045 34.2378 211.281 34.2993 211.506C34.5289 212.47 35.5168 213.183 36.3712 213.558Z" fill="#263238"/>
<path d="M37.2156 220.698C38.2836 220.848 40.4516 220.21 40.6225 220.162C40.9833 221.42 41.4275 222.652 41.9522 223.85C42.2548 224.565 42.5752 225.261 42.9134 225.94C42.7158 225.651 42.5342 225.404 42.5022 225.356C41.6852 224.407 39.5545 223.057 38.2676 223.603C38.0561 223.701 37.8674 223.842 37.7137 224.017C37.56 224.192 37.4446 224.398 37.3751 224.621C37.3057 224.843 37.2836 225.078 37.3104 225.31C37.3372 225.542 37.4122 225.766 37.5307 225.967C38.0059 226.835 39.1327 227.264 40.0672 227.398C41.0017 227.532 42.8867 227.028 43.3833 226.889C43.5115 227.152 43.6396 227.425 43.7731 227.682C44.4086 228.953 45.044 230.212 45.6314 231.472C45.8397 231.917 46.0319 232.362 46.2188 232.801C46.0426 232.544 45.8878 232.324 45.8611 232.292C45.044 231.343 42.9134 229.992 41.6264 230.545C41.4152 230.641 41.2265 230.782 41.0728 230.956C40.9191 231.131 40.8038 231.336 40.7343 231.559C40.6648 231.781 40.6427 232.016 40.6694 232.247C40.6962 232.479 40.7712 232.702 40.8895 232.903C41.3648 233.771 42.4915 234.2 43.426 234.339C44.3605 234.479 46.0586 234.018 46.63 233.852C46.8116 234.313 46.9931 234.774 47.164 235.229C47.2601 235.54 47.3776 235.835 47.4577 236.151C47.5378 236.467 47.6339 236.778 47.7194 237.089C47.8636 237.689 48.0131 238.306 48.1412 238.895C48.232 239.303 48.3068 239.694 48.3869 240.085C48.184 239.646 47.7728 238.783 47.7301 238.719C47.0679 237.647 45.1615 235.996 43.8052 236.344C43.5832 236.409 43.3773 236.521 43.2008 236.671C43.0244 236.821 42.8812 237.007 42.7806 237.216C42.6799 237.425 42.6241 237.653 42.6166 237.885C42.6091 238.117 42.6502 238.348 42.7372 238.563C43.0789 239.496 44.1416 240.091 45.0334 240.369C46.0159 240.67 48.1893 240.369 48.4616 240.369C48.5898 241.018 48.7126 241.656 48.8141 242.256C49.033 243.51 49.2039 244.647 49.3481 245.617H50.2612C50.101 244.609 49.9034 243.425 49.6418 242.106C49.5083 241.441 49.3588 240.734 49.1986 240.01C49.8528 239.748 50.4911 239.447 51.1103 239.11C51.8258 239.887 53.6575 240.798 53.8978 240.916C53.6468 241.533 53.3958 242.127 53.1555 242.685C52.6802 243.789 52.2263 244.77 51.8205 245.617H52.8084C53.1502 244.84 53.5293 243.971 53.9191 243.012C54.1754 242.385 54.4531 241.715 54.6988 241.018C54.9604 241.077 57.1124 241.516 58.1164 241.286C59.0242 241.082 60.1295 240.562 60.5354 239.678C60.6389 239.469 60.6973 239.24 60.7069 239.007C60.7164 238.773 60.6767 238.54 60.5906 238.323C60.5044 238.106 60.3736 237.91 60.2068 237.747C60.0399 237.585 59.8408 237.459 59.6222 237.379C58.2979 236.934 56.2741 238.451 55.5318 239.453C55.4891 239.512 55.0832 240.214 54.8376 240.659C54.9444 240.375 55.0512 240.123 55.1527 239.807C55.3663 239.228 55.5585 238.643 55.7721 238.016C55.8629 237.711 55.9537 237.4 56.0498 237.084C56.1459 236.767 56.21 236.441 56.2954 236.114C56.477 235.352 56.6212 234.575 56.7547 233.787C57.2566 233.97 59.0615 234.602 59.996 234.538C60.9305 234.473 62.0947 234.125 62.634 233.294C62.7687 233.105 62.8622 232.889 62.9084 232.661C62.9546 232.433 62.9524 232.198 62.902 231.971C62.8517 231.744 62.7542 231.53 62.616 231.344C62.4778 231.157 62.302 231.002 62.1 230.888C60.8558 230.244 58.629 231.424 57.7426 232.313C57.6892 232.372 57.1231 233.074 56.8187 233.471C56.8935 232.994 56.9736 232.522 57.0323 232.04C57.2032 230.646 57.3314 229.231 57.4702 227.822C57.5129 227.393 57.561 226.964 57.6037 226.53C57.7853 226.6 59.9106 227.393 60.9572 227.318C61.8917 227.253 63.0559 226.91 63.5952 226.08C63.7299 225.89 63.8234 225.675 63.8696 225.447C63.9158 225.219 63.9136 224.984 63.8632 224.757C63.8129 224.53 63.7154 224.316 63.5772 224.129C63.439 223.942 63.2632 223.787 63.0612 223.673C61.817 223.03 59.5902 224.209 58.7038 225.099C58.6397 225.168 57.828 226.171 57.6358 226.449C57.7319 225.506 57.844 224.557 57.9882 223.635C58.1753 222.383 58.4447 221.144 58.7945 219.926C58.8746 219.959 61.0961 220.8 62.1694 220.72C63.0986 220.655 64.2627 220.312 64.802 219.481C64.9368 219.292 65.0303 219.077 65.0764 218.849C65.1226 218.621 65.1205 218.386 65.0701 218.159C65.0197 217.931 64.9222 217.718 64.7841 217.531C64.6459 217.344 64.47 217.189 64.268 217.075C63.0238 216.432 60.797 217.611 59.9106 218.501C59.8519 218.56 59.2378 219.331 58.9494 219.707L58.88 219.669C59.2625 218.455 59.754 217.278 60.3485 216.153C60.6635 215.526 61.0053 214.947 61.3471 214.389C61.7422 214.588 63.5685 215.461 64.5511 215.52C65.5336 215.579 66.6871 215.344 67.3065 214.577C67.4599 214.402 67.5749 214.196 67.644 213.974C67.7131 213.751 67.7347 213.517 67.7075 213.285C67.6803 213.054 67.6049 212.83 67.4861 212.63C67.3673 212.43 67.2079 212.257 67.0181 212.122C65.854 211.345 63.5098 212.278 62.5325 213.06C62.4791 213.103 61.9985 213.596 61.6301 213.955L62.1053 213.216C62.6927 212.331 63.2801 211.554 63.8088 210.873C64.1132 210.493 64.3962 210.15 64.6632 209.833C65.1545 209.833 67.1303 209.764 67.9954 209.356C68.8604 208.949 69.8056 208.215 70.0139 207.245C70.0691 207.018 70.0763 206.782 70.0349 206.552C69.9935 206.322 69.9045 206.104 69.7736 205.911C69.6427 205.718 69.4728 205.554 69.2751 205.431C69.0773 205.309 68.856 205.229 68.6255 205.197C67.2371 205.047 65.587 206.961 65.0744 208.108C65.0317 208.204 64.5404 209.833 64.5404 209.833C64.2787 210.134 64.0064 210.455 63.702 210.82C63.168 211.49 62.5486 212.251 61.9398 213.125C61.2768 214.062 60.6688 215.037 60.1189 216.046C59.4965 217.169 58.9747 218.346 58.5596 219.562C58.5596 219.562 58.5596 219.594 58.5596 219.61C58.5596 219.197 58.5596 218.045 58.5596 217.959C58.3994 216.716 57.3581 214.406 55.9857 214.154C55.7562 214.117 55.5216 214.13 55.2971 214.19C55.0727 214.251 54.8636 214.358 54.6832 214.505C54.5029 214.653 54.3555 214.836 54.2505 215.044C54.1455 215.252 54.0854 215.48 54.074 215.713C53.9939 216.705 54.7094 217.691 55.4036 218.313C56.1886 219.021 58.3673 219.701 58.5382 219.755C58.1458 221.003 57.8389 222.276 57.6197 223.566C57.4862 224.316 57.3741 225.077 57.2726 225.844C57.2726 225.49 57.2726 225.168 57.2726 225.126C57.1124 223.882 56.0765 221.572 54.6988 221.32C54.4696 221.284 54.2356 221.298 54.0118 221.359C53.7881 221.42 53.5796 221.527 53.3998 221.674C53.2201 221.821 53.0732 222.004 52.9685 222.212C52.8639 222.42 52.8039 222.647 52.7924 222.88C52.7123 223.871 53.4225 224.858 54.122 225.485C54.8216 226.112 56.6692 226.734 57.1605 226.889C57.1285 227.184 57.0857 227.479 57.0537 227.768C56.8828 229.178 56.7226 230.587 56.5197 231.96C56.4449 232.447 56.3595 232.919 56.2741 233.396C56.2741 233.08 56.2741 232.812 56.2741 232.774C56.1139 231.531 55.0726 229.221 53.7002 228.969C53.4656 228.913 53.2218 228.909 52.9856 228.958C52.7494 229.006 52.5267 229.106 52.3329 229.25C52.1391 229.394 51.979 229.578 51.8638 229.791C51.7485 230.003 51.6809 230.239 51.6656 230.48C51.5855 231.466 52.3011 232.458 52.9953 233.08C53.6895 233.702 55.3663 234.27 55.9483 234.463C55.8469 234.945 55.7454 235.427 55.6279 235.894C55.5371 236.21 55.4731 236.521 55.3663 236.832C55.2595 237.143 55.1633 237.448 55.0672 237.754C54.859 238.333 54.6454 238.933 54.4264 239.496C54.2769 239.882 54.1274 240.251 53.9779 240.627C54.0526 240.144 54.1808 239.201 54.1808 239.121C54.1674 238.017 53.8714 236.935 53.321 235.98C53.3318 235.858 53.3318 235.736 53.321 235.615C53.2893 235.383 53.2089 235.159 53.085 234.96C52.9612 234.761 52.7967 234.591 52.6025 234.46C52.4083 234.33 52.1887 234.242 51.9582 234.202C51.7276 234.163 51.4915 234.173 51.2651 234.232C49.9088 234.591 49.0544 236.971 48.9903 238.225C48.9903 238.3 49.033 239.104 49.0757 239.614C49.0063 239.319 48.9422 239.029 48.8675 238.729C48.7286 238.129 48.5684 237.534 48.3976 236.891C48.3068 236.585 48.216 236.274 48.1199 235.963C48.0238 235.653 47.9009 235.336 47.7941 235.015C47.5271 234.28 47.2174 233.551 46.8917 232.823C47.4257 232.694 49.268 232.222 50.0102 231.649C50.7525 231.075 51.5375 230.148 51.5321 229.156C51.5382 228.923 51.4952 228.691 51.4061 228.476C51.3171 228.261 51.1838 228.067 51.0151 227.906C50.8464 227.746 50.6459 227.623 50.4268 227.546C50.2077 227.469 49.9748 227.438 49.7432 227.457C48.3495 227.607 47.1427 229.832 46.8917 231.059C46.8917 231.134 46.7956 232.035 46.7582 232.533C46.5606 232.094 46.363 231.659 46.1494 231.225C45.5246 229.966 44.8571 228.717 44.2003 227.473L43.5969 226.321C43.7838 226.278 45.9999 225.785 46.8329 225.12C47.5699 224.552 48.3548 223.619 48.3495 222.628C48.3564 222.394 48.314 222.162 48.2252 221.947C48.1364 221.731 48.0032 221.536 47.8343 221.376C47.6654 221.216 47.4646 221.093 47.2451 221.016C47.0256 220.939 46.7923 220.909 46.5606 220.929C45.1722 221.079 43.9654 223.303 43.7144 224.531C43.7144 224.622 43.5755 225.919 43.5649 226.251C43.127 225.404 42.6944 224.557 42.3046 223.705C41.7759 222.556 41.3211 221.375 40.9429 220.168C41.0284 220.168 43.3406 219.632 44.195 218.962C44.9319 218.393 45.7169 217.461 45.7115 216.469C45.7175 216.236 45.6745 216.004 45.5855 215.788C45.4965 215.573 45.3633 215.378 45.1947 215.218C45.0261 215.057 44.8257 214.934 44.6066 214.856C44.3875 214.778 44.1545 214.747 43.9226 214.765C42.5342 214.92 41.3274 217.145 41.0764 218.372C41.0764 218.452 40.9696 219.444 40.9376 219.91H40.8575C40.5085 218.684 40.2708 217.428 40.1473 216.158C40.0672 215.461 40.0298 214.791 40.0138 214.138C40.4516 214.084 42.4648 213.816 43.2979 213.307C44.1309 212.798 44.9746 211.983 45.0761 210.997C45.1086 210.765 45.0917 210.528 45.0265 210.303C44.9614 210.078 44.8494 209.87 44.698 209.691C44.5465 209.513 44.3592 209.369 44.1482 209.269C43.9372 209.169 43.7075 209.114 43.4741 209.11C42.075 209.11 40.6332 211.184 40.2701 212.374C40.2701 212.444 40.1099 213.125 40.0138 213.623C40.0138 213.328 40.0138 213.023 40.0138 212.739C40.0138 211.667 40.0778 210.707 40.1473 209.844C40.19 209.356 40.2327 208.917 40.2861 208.504C40.6866 208.225 42.3046 207.078 42.8066 206.258C43.3085 205.438 43.6877 204.307 43.3406 203.385C43.2624 203.166 43.1391 202.965 42.9787 202.796C42.8183 202.627 42.6244 202.494 42.4095 202.405C42.1945 202.316 41.9634 202.273 41.731 202.28C41.4986 202.286 41.2702 202.341 41.0604 202.442C39.8215 203.091 39.4904 205.599 39.6987 206.837C39.6987 206.944 40.1846 208.585 40.206 208.569H40.2327C40.174 208.965 40.1206 209.389 40.0725 209.855C39.9871 210.713 39.9016 211.688 39.8749 212.755C39.8366 213.902 39.8633 215.051 39.955 216.196C40.0525 217.472 40.2634 218.736 40.5851 219.975V220.017C40.3662 219.669 39.7147 218.72 39.656 218.656C38.839 217.707 36.7083 216.357 35.4214 216.903C35.2099 217.001 35.0212 217.142 34.8675 217.317C34.7137 217.492 34.5984 217.698 34.5289 217.921C34.4594 218.143 34.4374 218.378 34.4642 218.61C34.491 218.842 34.566 219.066 34.6844 219.267C35.1544 220.135 36.3131 220.564 37.2156 220.698Z" fill="#263238"/>
<path opacity="0.3" d="M36.3712 213.558C37.3751 213.998 39.8262 213.944 39.8315 213.944C39.8369 213.944 39.2975 212.336 39.2548 212.235C38.7208 211.104 37.012 209.233 35.629 209.421C35.3996 209.459 35.1808 209.545 34.9867 209.673C34.7926 209.802 34.6276 209.97 34.5022 210.166C34.3769 210.363 34.2941 210.584 34.2591 210.814C34.2242 211.045 34.2378 211.281 34.2993 211.506C34.5289 212.47 35.5168 213.183 36.3712 213.558Z" fill="#263238"/>
<path opacity="0.3" d="M61.2018 214.1C61.2018 214.1 61.6504 212.465 61.6664 212.358C61.8373 211.114 61.4421 208.606 60.1819 208.006C59.9702 207.91 59.7407 207.86 59.5084 207.859C59.2762 207.858 59.0463 207.906 58.8337 208C58.6212 208.094 58.4308 208.232 58.2748 208.404C58.1188 208.577 58.0008 208.781 57.9284 209.002C57.592 209.935 58.0192 211.077 58.5265 211.865C59.1246 212.792 61.2018 214.1 61.2018 214.1Z" fill="#263238"/>
<path opacity="0.3" d="M37.2156 220.698C38.2836 220.848 40.4516 220.21 40.6225 220.162C40.9833 221.42 41.4275 222.652 41.9522 223.85C42.2548 224.565 42.5752 225.261 42.9134 225.94C42.7158 225.651 42.5342 225.404 42.5022 225.356C41.6852 224.407 39.5545 223.057 38.2676 223.603C38.0561 223.701 37.8674 223.842 37.7137 224.017C37.56 224.192 37.4446 224.398 37.3751 224.621C37.3057 224.843 37.2836 225.078 37.3104 225.31C37.3372 225.542 37.4122 225.766 37.5307 225.967C38.0059 226.835 39.1327 227.264 40.0672 227.398C41.0017 227.532 42.8867 227.028 43.3833 226.889C43.5115 227.152 43.6396 227.425 43.7731 227.682C44.4086 228.953 45.044 230.212 45.6314 231.472C45.8397 231.917 46.0319 232.362 46.2188 232.801C46.0426 232.544 45.8878 232.324 45.8611 232.292C45.044 231.343 42.9134 229.992 41.6264 230.545C41.4152 230.641 41.2265 230.782 41.0728 230.956C40.9191 231.131 40.8038 231.336 40.7343 231.559C40.6648 231.781 40.6427 232.016 40.6694 232.247C40.6962 232.479 40.7712 232.702 40.8895 232.903C41.3648 233.771 42.4915 234.2 43.426 234.339C44.3605 234.479 46.0586 234.018 46.63 233.852C46.8116 234.313 46.9931 234.774 47.164 235.229C47.2601 235.54 47.3776 235.835 47.4577 236.151C47.5378 236.467 47.6339 236.778 47.7194 237.089C47.8636 237.689 48.0131 238.306 48.1412 238.895C48.232 239.303 48.3068 239.694 48.3869 240.085C48.184 239.646 47.7728 238.783 47.7301 238.719C47.0679 237.647 45.1615 235.996 43.8052 236.344C43.5832 236.409 43.3773 236.521 43.2008 236.671C43.0244 236.821 42.8812 237.007 42.7806 237.216C42.6799 237.425 42.6241 237.653 42.6166 237.885C42.6091 238.117 42.6502 238.348 42.7372 238.563C43.0789 239.496 44.1416 240.091 45.0334 240.369C46.0159 240.67 48.1893 240.369 48.4616 240.369C48.5898 241.018 48.7126 241.656 48.8141 242.256C49.033 243.51 49.2039 244.647 49.3481 245.617H50.2612C50.101 244.609 49.9034 243.425 49.6418 242.106C49.5083 241.441 49.3588 240.734 49.1986 240.01C49.8528 239.748 50.4911 239.447 51.1103 239.11C51.8258 239.887 53.6575 240.798 53.8978 240.916C53.6468 241.533 53.3958 242.127 53.1555 242.685C52.6802 243.789 52.2263 244.77 51.8205 245.617H52.8084C53.1502 244.84 53.5293 243.971 53.9191 243.012C54.1754 242.385 54.4531 241.715 54.6988 241.018C54.9604 241.077 57.1124 241.516 58.1164 241.286C59.0242 241.082 60.1295 240.562 60.5354 239.678C60.6389 239.469 60.6973 239.24 60.7069 239.007C60.7164 238.773 60.6767 238.54 60.5906 238.323C60.5044 238.106 60.3736 237.91 60.2068 237.747C60.0399 237.585 59.8408 237.459 59.6222 237.379C58.2979 236.934 56.2741 238.451 55.5318 239.453C55.4891 239.512 55.0832 240.214 54.8376 240.659C54.9444 240.375 55.0512 240.123 55.1527 239.807C55.3663 239.228 55.5585 238.643 55.7721 238.016C55.8629 237.711 55.9537 237.4 56.0498 237.084C56.1459 236.767 56.21 236.441 56.2954 236.114C56.477 235.352 56.6212 234.575 56.7547 233.787C57.2566 233.97 59.0615 234.602 59.996 234.538C60.9305 234.473 62.0947 234.125 62.634 233.294C62.7687 233.105 62.8622 232.889 62.9084 232.661C62.9546 232.433 62.9524 232.198 62.902 231.971C62.8517 231.744 62.7542 231.53 62.616 231.344C62.4778 231.157 62.302 231.002 62.1 230.888C60.8558 230.244 58.629 231.424 57.7426 232.313C57.6892 232.372 57.1231 233.074 56.8187 233.471C56.8935 232.994 56.9736 232.522 57.0323 232.04C57.2032 230.646 57.3314 229.231 57.4702 227.822C57.5129 227.393 57.561 226.964 57.6037 226.53C57.7853 226.6 59.9106 227.393 60.9572 227.318C61.8917 227.253 63.0559 226.91 63.5952 226.08C63.7299 225.89 63.8234 225.675 63.8696 225.447C63.9158 225.219 63.9136 224.984 63.8632 224.757C63.8129 224.53 63.7154 224.316 63.5772 224.129C63.439 223.942 63.2632 223.787 63.0612 223.673C61.817 223.03 59.5902 224.209 58.7038 225.099C58.6397 225.168 57.828 226.171 57.6358 226.449C57.7319 225.506 57.844 224.557 57.9882 223.635C58.1753 222.383 58.4447 221.144 58.7945 219.926C58.8746 219.959 61.0961 220.8 62.1694 220.72C63.0986 220.655 64.2627 220.312 64.802 219.481C64.9368 219.292 65.0303 219.077 65.0764 218.849C65.1226 218.621 65.1205 218.386 65.0701 218.159C65.0197 217.931 64.9222 217.718 64.7841 217.531C64.6459 217.344 64.47 217.189 64.268 217.075C63.0238 216.432 60.797 217.611 59.9106 218.501C59.8519 218.56 59.2378 219.331 58.9494 219.707L58.88 219.669C59.2625 218.455 59.754 217.278 60.3485 216.153C60.6635 215.526 61.0053 214.947 61.3471 214.389C61.7422 214.588 63.5685 215.461 64.5511 215.52C65.5336 215.579 66.6871 215.344 67.3065 214.577C67.4599 214.402 67.5749 214.196 67.644 213.974C67.7131 213.751 67.7347 213.517 67.7075 213.285C67.6803 213.054 67.6049 212.83 67.4861 212.63C67.3673 212.43 67.2079 212.257 67.0181 212.122C65.854 211.345 63.5098 212.278 62.5325 213.06C62.4791 213.103 61.9985 213.596 61.6301 213.955L62.1053 213.216C62.6927 212.331 63.2801 211.554 63.8088 210.873C64.1132 210.493 64.3962 210.15 64.6632 209.833C65.1545 209.833 67.1303 209.764 67.9954 209.356C68.8604 208.949 69.8056 208.215 70.0139 207.245C70.0691 207.018 70.0763 206.782 70.0349 206.552C69.9935 206.322 69.9045 206.104 69.7736 205.911C69.6427 205.718 69.4728 205.554 69.2751 205.431C69.0773 205.309 68.856 205.229 68.6255 205.197C67.2371 205.047 65.587 206.961 65.0744 208.108C65.0317 208.204 64.5404 209.833 64.5404 209.833C64.2787 210.134 64.0064 210.455 63.702 210.82C63.168 211.49 62.5486 212.251 61.9398 213.125C61.2768 214.062 60.6688 215.037 60.1189 216.046C59.4965 217.169 58.9747 218.346 58.5596 219.562C58.5596 219.562 58.5596 219.594 58.5596 219.61C58.5596 219.197 58.5596 218.045 58.5596 217.959C58.3994 216.716 57.3581 214.406 55.9857 214.154C55.7562 214.117 55.5216 214.13 55.2971 214.19C55.0727 214.251 54.8636 214.358 54.6832 214.505C54.5029 214.653 54.3555 214.836 54.2505 215.044C54.1455 215.252 54.0854 215.48 54.074 215.713C53.9939 216.705 54.7094 217.691 55.4036 218.313C56.1886 219.021 58.3673 219.701 58.5382 219.755C58.1458 221.003 57.8389 222.276 57.6197 223.566C57.4862 224.316 57.3741 225.077 57.2726 225.844C57.2726 225.49 57.2726 225.168 57.2726 225.126C57.1124 223.882 56.0765 221.572 54.6988 221.32C54.4696 221.284 54.2356 221.298 54.0118 221.359C53.7881 221.42 53.5796 221.527 53.3998 221.674C53.2201 221.821 53.0732 222.004 52.9685 222.212C52.8639 222.42 52.8039 222.647 52.7924 222.88C52.7123 223.871 53.4225 224.858 54.122 225.485C54.8216 226.112 56.6692 226.734 57.1605 226.889C57.1285 227.184 57.0857 227.479 57.0537 227.768C56.8828 229.178 56.7226 230.587 56.5197 231.96C56.4449 232.447 56.3595 232.919 56.2741 233.396C56.2741 233.08 56.2741 232.812 56.2741 232.774C56.1139 231.531 55.0726 229.221 53.7002 228.969C53.4656 228.913 53.2218 228.909 52.9856 228.958C52.7494 229.006 52.5267 229.106 52.3329 229.25C52.1391 229.394 51.979 229.578 51.8638 229.791C51.7485 230.003 51.6809 230.239 51.6656 230.48C51.5855 231.466 52.3011 232.458 52.9953 233.08C53.6895 233.702 55.3663 234.27 55.9483 234.463C55.8469 234.945 55.7454 235.427 55.6279 235.894C55.5371 236.21 55.4731 236.521 55.3663 236.832C55.2595 237.143 55.1633 237.448 55.0672 237.754C54.859 238.333 54.6454 238.933 54.4264 239.496C54.2769 239.882 54.1274 240.251 53.9779 240.627C54.0526 240.144 54.1808 239.201 54.1808 239.121C54.1674 238.017 53.8714 236.935 53.321 235.98C53.3318 235.858 53.3318 235.736 53.321 235.615C53.2893 235.383 53.2089 235.159 53.085 234.96C52.9612 234.761 52.7967 234.591 52.6025 234.46C52.4083 234.33 52.1887 234.242 51.9582 234.202C51.7276 234.163 51.4915 234.173 51.2651 234.232C49.9088 234.591 49.0544 236.971 48.9903 238.225C48.9903 238.3 49.033 239.104 49.0757 239.614C49.0063 239.319 48.9422 239.029 48.8675 238.729C48.7286 238.129 48.5684 237.534 48.3976 236.891C48.3068 236.585 48.216 236.274 48.1199 235.963C48.0238 235.653 47.9009 235.336 47.7941 235.015C47.5271 234.28 47.2174 233.551 46.8917 232.823C47.4257 232.694 49.268 232.222 50.0102 231.649C50.7525 231.075 51.5375 230.148 51.5321 229.156C51.5382 228.923 51.4952 228.691 51.4061 228.476C51.3171 228.261 51.1838 228.067 51.0151 227.906C50.8464 227.746 50.6459 227.623 50.4268 227.546C50.2077 227.469 49.9748 227.438 49.7432 227.457C48.3495 227.607 47.1427 229.832 46.8917 231.059C46.8917 231.134 46.7956 232.035 46.7582 232.533C46.5606 232.094 46.363 231.659 46.1494 231.225C45.5246 229.966 44.8571 228.717 44.2003 227.473L43.5969 226.321C43.7838 226.278 45.9999 225.785 46.8329 225.12C47.5699 224.552 48.3548 223.619 48.3495 222.628C48.3564 222.394 48.314 222.162 48.2252 221.947C48.1364 221.731 48.0032 221.536 47.8343 221.376C47.6654 221.216 47.4646 221.093 47.2451 221.016C47.0256 220.939 46.7923 220.909 46.5606 220.929C45.1722 221.079 43.9654 223.303 43.7144 224.531C43.7144 224.622 43.5755 225.919 43.5649 226.251C43.127 225.404 42.6944 224.557 42.3046 223.705C41.7759 222.556 41.3211 221.375 40.9429 220.168C41.0284 220.168 43.3406 219.632 44.195 218.962C44.9319 218.393 45.7169 217.461 45.7115 216.469C45.7175 216.236 45.6745 216.004 45.5855 215.788C45.4965 215.573 45.3633 215.378 45.1947 215.218C45.0261 215.057 44.8257 214.934 44.6066 214.856C44.3875 214.778 44.1545 214.747 43.9226 214.765C42.5342 214.92 41.3274 217.145 41.0764 218.372C41.0764 218.452 40.9696 219.444 40.9376 219.91H40.8575C40.5085 218.684 40.2708 217.428 40.1473 216.158C40.0672 215.461 40.0298 214.791 40.0138 214.138C40.4516 214.084 42.4648 213.816 43.2979 213.307C44.1309 212.798 44.9746 211.983 45.0761 210.997C45.1086 210.765 45.0917 210.528 45.0265 210.303C44.9614 210.078 44.8494 209.87 44.698 209.691C44.5465 209.513 44.3592 209.369 44.1482 209.269C43.9372 209.169 43.7075 209.114 43.4741 209.11C42.075 209.11 40.6332 211.184 40.2701 212.374C40.2701 212.444 40.1099 213.125 40.0138 213.623C40.0138 213.328 40.0138 213.023 40.0138 212.739C40.0138 211.667 40.0778 210.707 40.1473 209.844C40.19 209.356 40.2327 208.917 40.2861 208.504C40.6866 208.225 42.3046 207.078 42.8066 206.258C43.3085 205.438 43.6877 204.307 43.3406 203.385C43.2624 203.166 43.1391 202.965 42.9787 202.796C42.8183 202.627 42.6244 202.494 42.4095 202.405C42.1945 202.316 41.9634 202.273 41.731 202.28C41.4986 202.286 41.2702 202.341 41.0604 202.442C39.8215 203.091 39.4904 205.599 39.6987 206.837C39.6987 206.944 40.1846 208.585 40.206 208.569H40.2327C40.174 208.965 40.1206 209.389 40.0725 209.855C39.9871 210.713 39.9016 211.688 39.8749 212.755C39.8366 213.902 39.8633 215.051 39.955 216.196C40.0525 217.472 40.2634 218.736 40.5851 219.975V220.017C40.3662 219.669 39.7147 218.72 39.656 218.656C38.839 217.707 36.7083 216.357 35.4214 216.903C35.2099 217.001 35.0212 217.142 34.8675 217.317C34.7137 217.492 34.5984 217.698 34.5289 217.921C34.4594 218.143 34.4374 218.378 34.4642 218.61C34.491 218.842 34.566 219.066 34.6844 219.267C35.1544 220.135 36.3131 220.564 37.2156 220.698Z" fill="#263238"/>
<path d="M180.686 237.85L184.424 244.695C185.79 245.005 187.222 244.815 188.461 244.159C190.549 243.038 192.775 241.361 194.308 240.803C195.84 240.246 200.433 237.309 201.688 235.073C202.943 232.838 203.354 231.321 201.266 231.857C199.484 232.349 197.671 232.721 195.84 232.972C193.891 233.256 189.854 232.972 189.854 232.972L180.686 237.85Z" fill="#FFBF9D" stroke="#263238" stroke-miterlimit="10"/>
<path d="M132.694 235.706C133.791 237.371 135.211 238.796 136.87 239.897C139.379 241.436 143.555 242.417 143.278 243.81C143 245.204 140.074 246.324 137.158 245.906C133.236 245.171 129.373 244.145 125.602 242.835C123.931 242.132 122.959 241.993 122.959 240.878C122.959 239.763 126.024 231.938 126.024 231.938L132.694 235.706Z" fill="#FFBF9D" stroke="#263238" stroke-miterlimit="10"/>
<path d="M148.666 111.488C148.666 111.488 143.512 117.33 141.558 121.136C139.604 124.941 131.594 137.425 132.71 139.306C133.826 141.188 139.572 147.201 142.509 149.222C145.446 151.243 148.009 153.419 148.009 153.419L150.23 151.736C150.23 151.736 146.182 146.012 143.822 142.126C141.462 138.24 140.041 136.23 140.041 136.23C140.041 136.23 146.567 128.19 148.228 126.094C149.888 123.998 150.47 114.838 150.545 114.018C150.62 113.198 149.979 110.416 148.666 111.488Z" fill="#FFBF9D" stroke="#263238" stroke-miterlimit="10"/>
<path d="M166.534 83.1335C166.534 83.1335 168.355 85.1006 168.51 87.1856C168.665 89.2707 168.115 91.2807 169.434 92.1651C170.753 93.0495 172.301 93.2371 171.511 93.832C170.721 94.427 169.263 95.5365 169.263 95.5365C169.263 95.5365 168.617 101.888 167.944 102.22C167.271 102.553 161.734 103.244 161.734 103.244C161.734 103.244 159.752 106.61 160.174 108.54C160.596 110.469 163.992 116.805 166.091 120.712C168.19 124.62 168.307 126.147 167.474 129.996C166.641 133.844 164.014 150.203 164.153 152.856C164.291 155.51 166.24 159.422 166.24 159.422C166.24 159.422 177.38 190.162 178.629 193.651C179.879 197.141 179.468 205.39 180.301 208.461C181.134 211.532 186.565 222.295 187.403 224.252C188.241 226.208 191.403 230.442 191.403 230.442L192.097 231.841C192.097 231.841 190.148 233.519 187.921 235.191C186.133 236.516 184.152 237.554 182.047 238.268C181.075 238.547 179.82 238.965 179.82 238.965C179.82 238.965 175.548 231.375 173.871 227.323C172.195 223.271 169.418 218.8 168.862 212.937C168.307 207.073 166.497 201.756 164.964 197.146C163.432 192.536 158.423 184.432 158.423 184.432C158.423 184.432 154.386 200.641 151.182 204.554C147.978 208.466 143.391 218.94 140.464 224.252C137.538 229.563 136.15 230.818 135.872 233.331C135.715 234.808 135.389 236.261 134.9 237.662C134.9 237.662 130.025 236.687 127.52 235.009C125.863 233.862 124.325 232.551 122.928 231.096C122.928 231.096 129.87 216.147 133.229 209.581C136.587 203.015 140.603 188.484 140.742 187.503C140.881 186.523 142.275 178.284 142.83 176.467C143.385 174.65 143.529 174.511 143.391 173.535C143.252 172.56 139.492 166.691 141.02 160.961C142.547 155.231 146.701 149.608 146.701 149.608C146.701 149.608 149.136 141.032 149.115 138.781C149.094 136.53 146.755 131.39 146.109 126.394C145.463 121.399 145.772 114.232 148.02 110.7C150.269 107.168 153.894 101.588 154.097 100.307C154.3 99.0259 154.989 97.2946 153.275 92.9423C151.561 88.59 155.603 84.7844 158.417 83.171C161.232 81.5576 166.534 83.1335 166.534 83.1335Z" fill="#FFBF9D" stroke="#263238" stroke-miterlimit="10"/>
<path d="M166.95 92.417C167.212 92.417 167.425 91.8842 167.425 91.227C167.425 90.5699 167.212 90.0371 166.95 90.0371C166.687 90.0371 166.475 90.5699 166.475 91.227C166.475 91.8842 166.687 92.417 166.95 92.417Z" fill="#263238"/>
<path d="M165.691 89.2493C165.691 89.2493 166.637 88.1398 167.587 89.0885" stroke="#263238" stroke-miterlimit="10"/>
<path d="M168.846 97.6482C168.369 97.713 167.883 97.6251 167.459 97.397C167.034 97.169 166.692 96.8124 166.48 96.3779" stroke="#263238" stroke-miterlimit="10"/>
<path d="M163.041 166.406L158.865 182.754" stroke="#263238" stroke-miterlimit="10"/>
<path d="M173.343 204.409C173.343 204.409 172.483 215.869 171.949 219.76" stroke="#263238" stroke-miterlimit="10"/>
<path d="M175.015 210.98C175.015 210.98 173.76 220.06 173.76 220.896" stroke="#263238" stroke-miterlimit="10"/>
<path d="M158.995 92.5189C158.995 92.5189 156.645 89.0509 154.872 91.5648C153.1 94.0786 154.691 96.6193 155.689 96.9677C155.932 97.0739 156.194 97.1287 156.458 97.1287C156.723 97.1287 156.985 97.0739 157.227 96.9677C156.635 98.7439 155.77 100.417 154.664 101.926C152.886 104.3 148.171 106.61 144.347 105.913C140.524 105.217 133.32 98.3237 134.703 92.476C136.086 86.6282 137.549 83.7231 139.216 83.5945C140.882 83.4658 141.886 85.642 143.824 85.4973C145.762 85.3525 148.139 77.7521 155.006 76.262C161.873 74.7719 167.704 78.1219 168.436 80.4481C169.168 82.7744 168.148 84.1144 167.453 84.1626C166.759 84.2109 163.998 82.7369 162.402 83.8357C160.805 84.9345 161.868 86.119 162.081 87.0838C162.295 88.0486 160.677 88.8687 160.752 89.8442C160.826 90.8197 161.045 91.9239 160.49 91.9882C159.968 92.0883 159.464 92.2672 158.995 92.5189Z" fill="#263238" stroke="#263238" stroke-miterlimit="10"/>
<path d="M166.075 120.712C165.541 119.71 164.911 118.568 164.276 117.341C164.067 117.446 163.841 117.511 163.608 117.534C161.803 117.668 157.734 111.665 153.655 109.306C151.721 108.186 150.2 108.422 149.132 108.979C148.945 109.279 148.758 109.569 148.598 109.853C149.425 109.495 150.327 109.347 151.225 109.422C152.123 109.496 152.988 109.792 153.745 110.282C157.692 112.651 160.847 117.598 161.659 121.039C162.471 124.48 158.557 130.098 153.35 131.465C150.061 132.327 147.898 131.03 146.504 128.5C147.401 132.788 149.126 136.857 149.174 138.781C149.174 141.021 146.761 149.608 146.761 149.608C146.761 149.608 146.547 149.983 146.227 150.626C152.8 152.567 161.098 153.499 164.313 152.856C164.666 147.861 166.802 133.314 167.517 129.996C168.307 126.147 168.211 124.62 166.075 120.712Z" fill="#11ED41" stroke="#263238" stroke-miterlimit="10"/>
<path d="M151.966 110.834C151.966 110.834 155.747 110.973 157.637 113.911C159.528 116.848 168.12 129.246 169.321 130.419C170.523 131.593 172.216 133.705 172.216 133.705C172.216 133.705 185.592 125.847 187.969 123.993C190.345 122.138 192.614 118.885 192.614 118.885C192.614 118.885 192.871 116.623 192.956 115.915C193.042 115.208 195.124 115.052 195.124 115.052C195.124 115.052 196.529 113.267 197.65 113.326C198.772 113.385 199.033 115.042 199.033 115.042C199.033 115.042 200.48 117.598 200.571 118.853C200.662 120.107 198.072 122.819 196.993 123.323C195.973 123.722 194.921 124.034 193.848 124.255C193.848 124.255 185.24 134.279 182.388 137.296C179.827 139.879 176.943 142.117 173.807 143.953C172.739 144.457 168.376 142.254 167.655 141.89C166.934 141.525 148.629 124.25 148.629 124.25" fill="#FFBF9D"/>
<path d="M151.966 110.834C151.966 110.834 155.747 110.973 157.637 113.911C159.528 116.848 168.12 129.246 169.321 130.419C170.523 131.593 172.216 133.705 172.216 133.705C172.216 133.705 185.592 125.847 187.969 123.993C190.345 122.138 192.614 118.885 192.614 118.885C192.614 118.885 192.871 116.623 192.956 115.915C193.042 115.208 195.124 115.052 195.124 115.052C195.124 115.052 196.529 113.267 197.65 113.326C198.772 113.385 199.033 115.042 199.033 115.042C199.033 115.042 200.48 117.598 200.571 118.853C200.662 120.107 198.072 122.819 196.993 123.323C195.973 123.722 194.921 124.034 193.848 124.255C193.848 124.255 185.24 134.279 182.388 137.296C179.827 139.879 176.943 142.117 173.807 143.953C172.739 144.457 168.376 142.254 167.655 141.89C166.934 141.525 148.629 124.25 148.629 124.25" stroke="#263238" stroke-miterlimit="10"/>
<path d="M122.82 116.805C122.82 116.805 127.519 124.256 129.639 127.45C131.389 129.92 133.314 132.259 135.401 134.45C135.401 134.45 139.187 131.1 142.22 128.061C145.253 125.022 146.764 119.844 146.764 119.844C146.764 119.844 144.943 116.628 144.943 116.044C144.943 115.46 146.615 113.611 147.079 113.155C147.246 113.017 147.442 112.919 147.651 112.866C147.861 112.813 148.079 112.807 148.291 112.85C148.506 112.63 148.767 112.461 149.056 112.355C149.344 112.249 149.652 112.209 149.957 112.238C151.17 112.238 154.048 115.133 154.352 117.261C154.657 119.389 152.537 121.672 151.624 123.039C150.71 124.406 146.625 132.017 144.954 135.667C143.282 139.317 137.681 145.556 135.876 145.851C134.071 146.146 125.265 138.701 124.203 137.334C123.14 135.967 124.203 124.861 123.444 123.034C122.686 121.206 122.82 116.805 122.82 116.805Z" fill="#FFBF9D" stroke="#263238" stroke-miterlimit="10"/>
<path d="M148.297 112.849C148.297 112.849 152.083 115.738 150.572 116.349C150.372 116.436 150.157 116.481 149.94 116.481C149.723 116.481 149.508 116.437 149.308 116.351C149.108 116.266 148.928 116.14 148.778 115.982C148.628 115.824 148.511 115.637 148.436 115.433C148.436 115.433 149.952 117.261 149.349 118.783" stroke="#263238" stroke-miterlimit="10"/>
<path d="M149.658 116.65C149.658 116.65 151.794 118.794 152.862 118.933" stroke="#263238" stroke-miterlimit="10"/>
<path d="M102.074 171.113C102.074 171.113 97.0708 190.409 95.4048 192.553C93.7387 194.697 85.7073 201.831 84.1908 205.953C82.6742 210.074 75.3317 226.321 74.4239 228.909C73.5161 231.498 72.7578 232.254 72.7578 232.254L79.1231 235.754C79.1231 235.754 85.8568 223.292 89.4934 218.731C93.1299 214.169 97.8291 207.014 101.167 203.669C104.504 200.325 114.351 186.48 114.351 186.48L102.074 171.113Z" fill="#FFBF9D" stroke="#263238" stroke-miterlimit="10"/>
<path d="M114.351 186.474L102.069 171.113C102.069 171.113 97.6475 188.19 95.7305 192.017C98.306 195.085 101.767 197.274 105.636 198.282C109.647 193.078 114.351 186.474 114.351 186.474Z" fill="#263238" stroke="#263238" stroke-miterlimit="10"/>
<path d="M79.1221 235.749C79.1221 235.749 80.6813 232.989 82.513 229.317C80.0248 228.581 77.6559 227.487 75.4802 226.069C74.9462 227.607 74.6204 228.331 74.4122 228.904C73.499 231.493 72.7461 232.249 72.7461 232.249L79.1221 235.749Z" fill="#FFBF9D" stroke="#263238" stroke-miterlimit="10"/>
<path d="M81.8457 238.182C81.8457 238.182 81.2422 237.882 81.0874 235.443C80.9325 233.005 80.6335 231.338 79.7257 232.86L78.8179 234.382L72.9065 230.882C72.9065 230.882 71.8385 231.793 71.8385 232.71C71.8385 233.626 67.5985 237.727 68.5063 238.944C69.4141 240.16 72.5968 240.16 75.7794 242.294C78.9621 244.427 79.5708 245.51 83.5117 245.638C87.4527 245.767 88.2056 244.421 88.2056 243.66C88.2056 242.899 85.0016 241.682 83.9656 240.616C83.2159 239.844 82.5082 239.031 81.8457 238.182Z" fill="#FFBF9D" stroke="#263238" stroke-miterlimit="10"/>
<path d="M88.2108 243.66C88.2108 243.467 88.0132 243.253 87.6768 243.012C86.9025 243.51 85.183 244.228 81.979 243.81C77.2798 243.205 77.2798 241.833 74.706 239.555C72.9758 238.022 70.434 237.314 68.9388 237.014C68.4528 237.823 68.1912 238.542 68.4902 238.944C69.398 240.16 72.5806 240.16 75.7633 242.294C78.9459 244.427 79.5547 245.51 83.4956 245.638C87.4365 245.767 88.2108 244.416 88.2108 243.66Z" fill="#FFBF9D" stroke="#263238" stroke-miterlimit="10"/>
<path d="M100.253 160.007C100.253 160.007 98.5874 165.479 101.62 173.241C104.654 181.002 117.074 194.536 121.015 197.897L124.956 201.247C124.956 201.247 125.565 210.359 129.96 216.608L144.96 237.909L149.963 234.103C149.963 234.103 145.873 229.237 144.661 224.52C143.449 219.803 136.929 205.658 135.871 200.936C134.814 196.214 130.868 188.007 130.414 187.246C129.96 186.485 121.752 170.984 121.752 170.984L122.986 163.48L100.253 160.007Z" fill="#FFBF9D" stroke="#263238" stroke-miterlimit="10"/>
<path d="M120.465 197.398C121.651 195.79 125.063 192.14 132.32 191.24C131.391 189.149 130.601 187.552 130.414 187.236C129.96 186.474 121.752 170.984 121.752 170.984L122.986 163.48L100.253 159.985C100.253 159.985 98.5874 165.458 101.62 173.219C104.52 180.67 116.033 193.394 120.465 197.398Z" fill="#263238" stroke="#263238" stroke-miterlimit="10"/>
<path d="M140.211 231.145C142.881 234.956 144.958 237.893 144.958 237.893L149.962 234.087C148.331 232.077 146.934 229.887 145.797 227.559C144.14 229.049 142.253 230.26 140.211 231.145Z" fill="#FFBF9D" stroke="#263238" stroke-miterlimit="10"/>
<path d="M149.659 229.826C149.659 229.826 147.389 227.682 147.688 230.437C147.987 233.192 148.9 234.087 148.9 234.087C148.9 234.087 142.69 236.976 143.293 238.349C143.653 239.162 144.112 239.927 144.66 240.627C144.66 240.627 148.452 246.56 150.112 245.954C151.773 245.349 154.662 241.543 157.236 240.326C159.81 239.11 162.998 234.999 163.756 232.565C164.514 230.132 164.055 229.221 162.24 230.282C160.424 231.343 157.994 232.721 155.266 232.721C153.584 232.696 151.949 232.166 150.572 231.198L149.659 229.826Z" fill="#FFBF9D" stroke="#263238" stroke-miterlimit="10"/>
<path d="M163.335 229.853C163.321 229.895 163.31 229.938 163.303 229.981C162.39 234.087 157.236 236.976 154.812 239.26C152.826 241.125 149.018 243.708 147.699 244.582C148.596 245.509 149.499 246.19 150.113 245.954C151.784 245.343 154.663 241.543 157.236 240.326C159.81 239.11 162.998 234.998 163.757 232.565C164.328 230.732 164.205 229.762 163.335 229.853Z" fill="#FFBF9D" stroke="#263238" stroke-miterlimit="10"/>
<path d="M127.929 80.8288C128.758 82.3614 129.312 84.0289 129.563 85.7547C129.915 88.4347 129.798 89.9837 130.85 91.2755C131.902 92.5672 132.842 93.3873 132.607 94.0895C132.372 94.7916 130.732 95.6171 130.732 95.6171C130.732 95.6171 129.333 101.368 128.062 102.306C126.792 103.244 122.445 102.076 122.445 102.076C121.396 103.675 120.866 105.56 120.928 107.473C121.046 110.641 123.598 115.572 125.136 120.15C126.674 124.727 126.893 128.603 125.371 134.708C123.849 140.813 123.267 153.961 123.385 157.482C123.502 161.004 123.497 162.88 123.497 162.88C123.497 162.88 125.254 164.874 117.185 164.874C109.116 164.874 101.512 161.824 100.695 161.47C100.234 161.304 99.8525 160.969 99.627 160.532C99.627 160.532 101.496 139.987 100.914 138.347C100.332 136.707 99.7444 129.176 99.7444 129.176C99.7444 129.176 99.974 116.376 103.6 111.563C107.226 106.75 111.439 104.638 112.956 102.172C113.869 100.575 114.201 98.7088 113.895 96.8927C111.178 94.6464 109.15 91.6728 108.048 88.3167C106.174 82.6834 111.439 76.5783 115.295 75.1687C119.15 73.759 127.107 75.6403 128.276 77.05C129.446 78.4597 127.929 80.8288 127.929 80.8288Z" fill="#FFBF9D" stroke="#263238" stroke-miterlimit="10"/>
<path d="M128.278 77.0715C127.108 75.6618 119.157 73.7805 115.296 75.1901C111.435 76.5998 106.175 82.6941 108.05 88.3382C109.152 91.6942 111.179 94.6679 113.897 96.9142C113.897 96.9142 113.929 97.0804 113.961 97.3645C114.946 97.0676 115.902 96.6819 116.818 96.2121C116.352 95.864 115.921 95.4708 115.531 95.0382C115.184 94.5665 114.244 91.2862 116.118 90.6913C117.993 90.0963 118.457 91.3988 118.788 92.1009C119.119 92.8031 120.075 92.1009 120.428 91.7472C120.78 91.3934 120.545 88.6973 120.545 88.6973C121.425 88.0242 122.246 87.2784 123.002 86.4676C124.07 85.2937 120.075 82.5923 120.075 82.5923C120.075 82.5923 123.002 82.4744 124.523 82.2385C125.723 81.9604 126.869 81.486 127.914 80.8342C127.914 80.8342 129.447 78.4812 128.278 77.0715Z" fill="#263238" stroke="#263238" stroke-miterlimit="10"/>
<path d="M122.429 102.076L119.508 100.666L121.494 103.834L122.429 102.076Z" fill="#263238" stroke="#263238" stroke-miterlimit="10"/>
<path d="M129.1 90.5359C129.148 91.1844 129.004 91.7204 128.78 91.7419C128.555 91.7633 128.331 91.2487 128.283 90.6002C128.235 89.9516 128.374 89.4156 128.598 89.3995C128.822 89.3835 129.047 89.8927 129.1 90.5359Z" fill="#263238"/>
<path d="M127.225 88.3383C127.225 88.3383 128.047 87.0465 128.864 87.754" stroke="#263238" stroke-miterlimit="10"/>
<path d="M129.447 97.2625C129.447 97.2625 127.695 96.5549 127.695 96.0886" stroke="#263238" stroke-miterlimit="10"/>
<path d="M123.486 162.88C123.486 162.88 123.486 161.004 123.369 157.482C123.251 153.961 123.833 140.812 125.355 134.707C126.877 128.602 126.642 124.727 125.12 120.15C124.624 118.649 124.01 117.111 123.406 115.604C120.677 116.173 117.58 112.019 115.711 108.894C115.097 107.811 114.182 106.931 113.079 106.36C111.975 105.789 110.73 105.552 109.495 105.678H109.463C109.079 106.005 108.678 106.342 108.262 106.707C109.69 107.054 111.016 107.738 112.131 108.7C113.245 109.663 114.115 110.877 114.67 112.244C116.945 117.722 113.159 124.572 108.609 126.716C105.298 128.27 101.667 126.834 99.9421 125.944C99.7873 127.895 99.7659 129.219 99.7659 129.219C99.7659 129.219 100.348 136.723 100.935 138.374C101.523 140.025 99.6484 160.559 99.6484 160.559C99.8739 160.995 100.255 161.33 100.716 161.497C101.533 161.85 109.138 164.9 117.206 164.9C125.275 164.9 123.486 162.88 123.486 162.88Z" fill="#92E3A9" stroke="#263238" stroke-miterlimit="10"/>
<path d="M110.104 108.133C110.104 108.133 104.043 107.827 101.464 111.022C98.8847 114.216 86.4638 133.384 85.8551 134.906C85.2463 136.428 86.7629 138.706 86.7629 138.706C86.7629 138.706 105.709 155.746 106.313 155.896C106.916 156.046 110.408 160.157 111.466 160.462C112.523 160.768 116.015 159.851 116.469 159.39C116.923 158.929 119.043 156.957 118.135 156.174C117.228 155.392 116.619 154.958 116.619 154.502C116.619 154.046 117.073 152.358 115.407 152.069C113.741 151.779 108.587 151.763 108.587 151.763C108.587 151.763 106.014 148.724 102.676 144.007C100.759 141.316 98.9889 138.523 97.3735 135.64L111.316 122.101" fill="#FFBF9D"/>
<path d="M110.104 108.133C110.104 108.133 104.043 107.827 101.464 111.022C98.8847 114.216 86.4638 133.384 85.8551 134.906C85.2463 136.428 86.7629 138.706 86.7629 138.706C86.7629 138.706 105.709 155.746 106.313 155.896C106.916 156.046 110.408 160.157 111.466 160.462C112.523 160.768 116.015 159.851 116.469 159.39C116.923 158.929 119.043 156.957 118.135 156.174C117.228 155.392 116.619 154.958 116.619 154.502C116.619 154.046 117.073 152.358 115.407 152.069C113.741 151.779 108.587 151.763 108.587 151.763C108.587 151.763 106.014 148.724 102.676 144.007C100.759 141.316 98.9889 138.523 97.3735 135.64L111.316 122.101" stroke="#263238" stroke-miterlimit="10"/>
</svg>
