<svg width="45" height="45" viewBox="0 0 45 45" fill="none" xmlns="http://www.w3.org/2000/svg">
<path d="M44.7101 29.452L44.593 28.9543C43.6209 24.6544 42.0247 20.4993 39.8488 16.6049C37.7183 12.8026 35.0521 9.28547 31.9219 6.14777C28.812 3.87526 25.3475 2.06393 21.6499 0.777227L21.3166 0.660537C19.1667 -0.091621 17.8636 -0.548539 15.7002 1.26648C14.5456 2.23234 10.8959 5.66555 12.3162 9.35323C12.9783 11.0698 15.2137 13.2898 17.3036 13.0086C17.7686 12.9367 18.2063 12.7548 18.5752 12.48C18.8527 12.2604 19.1965 12.1272 19.5585 12.099C19.9115 12.0775 20.2654 12.1254 20.5975 12.2396C21.1401 12.4026 21.7061 12.4874 22.2759 12.4912C22.7268 12.4988 23.1745 12.4194 23.5911 12.2578C23.7508 12.1858 23.9277 12.1538 24.1045 12.165C24.9376 12.2817 25.6891 12.6984 26.1989 13.3263C26.5078 13.7341 26.7182 14.2 26.8155 14.6917C26.9127 15.1833 26.8944 15.6889 26.7619 16.1733C26.7462 16.2307 26.7381 16.2897 26.7378 16.349V23.9029C25.0814 23.3759 23.3039 23.2762 21.5921 23.6144C19.8803 23.9525 18.2973 24.7161 17.0093 25.8248C14.3059 24.4451 11.134 24.1086 8.16956 24.8871C6.67384 25.2673 5.27824 25.933 4.0704 26.8425C2.86257 27.752 1.86859 28.8855 1.15091 30.1718C0.318542 31.7773 -0.0731609 33.5518 0.0112484 35.3347C0.0956577 37.1177 0.653515 38.8527 1.63433 40.3829C2.59413 41.9787 3.9941 43.3038 5.68788 44.2196C6.96333 44.7872 8.36831 45.0523 9.77897 44.9915C10.5717 44.9915 11.3839 44.9408 12.1811 44.872C12.9752 44.7795 13.7596 44.6248 14.5261 44.4094C15.58 44.0418 16.7114 43.9113 17.829 44.0284C19.9084 44.4875 22.0655 44.5482 24.1706 44.207C29.046 43.2484 33.6618 41.3699 37.7365 38.686C40.1058 37.2385 42.2405 35.4796 44.075 33.4631C44.5389 32.9014 44.8409 32.2376 44.9521 31.5352C45.0633 30.8329 44.98 30.1155 44.7101 29.452ZM42.886 32.6069C41.1415 34.5062 39.1169 36.1631 36.8732 37.5275C32.9743 40.098 28.5573 41.8981 23.8913 42.8179C21.9943 43.1243 20.0507 43.0684 18.1773 42.6534C16.8175 42.4677 15.4297 42.6015 14.1388 43.0429C13.4559 43.2377 12.7569 43.3788 12.049 43.4646C10.1523 43.7847 8.19839 43.6136 6.39801 42.9698C4.94725 42.1789 3.74922 41.0386 2.92846 39.6673C2.07527 38.3414 1.58816 36.8374 1.5111 35.291C1.43404 33.7447 1.76946 32.2047 2.48708 30.8101C3.11011 29.6961 3.97241 28.7148 5.0198 27.9277C6.0672 27.1407 7.27706 26.565 8.57341 26.2367C11.0518 25.5818 13.7034 25.833 15.9914 26.9397C15.6535 27.3709 15.3694 27.837 15.1447 28.3287C14.6176 29.5227 14.4449 30.828 14.6447 32.1064C14.6703 32.2736 14.7594 32.4265 14.8956 32.5373C15.0318 32.6481 15.206 32.7092 15.3864 32.7095C15.4224 32.7115 15.4585 32.7115 15.4945 32.7095C15.6913 32.6827 15.8687 32.5839 15.9878 32.4347C16.1069 32.2855 16.1579 32.0981 16.1295 31.9138C15.9689 30.8868 16.1069 29.8382 16.5289 28.8784C16.8431 28.1725 17.3069 27.5336 17.8921 27.0001L17.9026 26.9861C19.1131 25.8995 20.6482 25.1838 22.3037 24.9341C23.9592 24.6845 25.6566 24.9128 27.1702 25.5886C27.2846 25.6396 27.4109 25.6627 27.5374 25.6557C27.6638 25.6487 27.7863 25.6118 27.8935 25.5485C28.0006 25.4852 28.0889 25.3976 28.1502 25.2937C28.2114 25.1898 28.2436 25.0732 28.2437 24.9545V16.4305C28.4134 15.7512 28.4253 15.0456 28.2784 14.3615C28.1315 13.6775 27.8294 13.031 27.3924 12.4659C27.0103 11.9946 26.5305 11.6003 25.9818 11.3068C25.4331 11.0133 24.8268 10.8265 24.1991 10.7577C23.8073 10.7317 23.4147 10.7954 23.0551 10.9433C22.8143 11.057 22.5445 11.1056 22.2759 11.0839C21.8467 11.0803 21.4207 11.0139 21.0133 10.8871C20.5038 10.7243 19.9652 10.6565 19.4279 10.6874C18.802 10.7357 18.2049 10.9546 17.7104 11.3173C17.533 11.4602 17.3187 11.5571 17.0889 11.5985C15.9239 11.7391 14.2364 10.1926 13.7259 8.86257C12.8507 6.59204 14.6883 3.98409 16.6985 2.30263C18.1923 1.05278 18.7418 1.2482 20.7896 1.96521L21.1259 2.08331C23.0296 2.75028 24.8718 3.56184 26.6342 4.5099C28.1221 5.30991 29.551 6.20231 30.9115 7.18111C33.9126 10.2108 36.4712 13.6 38.5202 17.26C40.6321 21.0395 42.1814 25.0721 43.1247 29.2453L43.2478 29.7627C43.5466 31.0027 43.6967 31.6227 42.886 32.6069ZM31.527 34.7368C31.3522 34.6478 31.1468 34.6273 30.9559 34.6801C30.7651 34.7328 30.6044 34.8543 30.5091 35.018C29.6178 36.5587 28.2149 37.7856 26.5126 38.5131C25.3678 38.9631 24.1349 39.1831 22.8935 39.1589C21.6522 39.1347 20.4301 38.8668 19.3063 38.3725C19.2165 38.3227 19.1165 38.2909 19.0128 38.2794C18.9091 38.2678 18.804 38.2766 18.7042 38.3052C18.6043 38.3338 18.5119 38.3816 18.4329 38.4456C18.354 38.5096 18.2901 38.5882 18.2454 38.6766C18.2007 38.765 18.1762 38.8611 18.1735 38.9589C18.1708 39.0566 18.1898 39.1539 18.2295 39.2443C18.2691 39.3348 18.3285 39.4165 18.4038 39.4842C18.4791 39.552 18.5687 39.6043 18.6668 39.6378C20.0807 40.2432 21.616 40.56 23.1707 40.5671C24.5299 40.5705 25.8745 40.3046 27.1162 39.7868C29.119 38.9323 30.7701 37.4903 31.8198 35.6788C31.9117 35.517 31.9326 35.328 31.8779 35.1521C31.8232 34.9761 31.6973 34.8271 31.527 34.7368Z" fill="#05FF00"/>
</svg>
