<svg width="25" height="31" viewBox="0 0 25 31" fill="none" xmlns="http://www.w3.org/2000/svg">
<path id="Vector" d="M11.7187 30.225L11.7187 29.45L7.03125 29.45C6.40965 29.45 5.81351 29.205 5.37397 28.769C4.93443 28.333 4.6875 27.7416 4.6875 27.125L4.6875 25.575C4.68961 25.3106 4.73717 25.0485 4.82812 24.8L2.34375 24.8C1.72215 24.8 1.12601 24.555 0.686467 24.119C0.246929 23.683 -1.00937e-06 23.0916 -9.82413e-07 22.475L-9.14661e-07 20.925C-8.87707e-07 20.3084 0.246929 19.717 0.686468 19.281C1.12601 18.845 1.72215 18.6 2.34375 18.6L11.7188 18.6L11.7188 12.4L2.34375 12.4C1.72215 12.4 1.12601 12.155 0.686468 11.719C0.24693 11.283 -4.67346e-07 10.6916 -4.40392e-07 10.075L-3.7264e-07 8.525C-3.45686e-07 7.90837 0.24693 7.317 0.686468 6.88098C1.12601 6.44495 1.72215 6.2 2.34375 6.2L4.82812 6.2C4.73717 5.95148 4.68961 5.68939 4.6875 5.425L4.6875 3.875C4.6875 3.25837 4.93443 2.667 5.37397 2.23098C5.81351 1.79495 6.40965 1.55 7.03125 1.55L11.7188 1.55L11.7188 0.775C11.7188 0.569458 11.8011 0.372333 11.9476 0.226993C12.0941 0.0816521 12.2928 5.37335e-07 12.5 5.46392e-07C12.7072 5.55449e-07 12.9059 0.0816521 13.0524 0.226993C13.1989 0.372334 13.2813 0.569458 13.2813 0.775001L13.2813 1.55L17.9688 1.55C18.5904 1.55 19.1865 1.79496 19.626 2.23098C20.0656 2.667 20.3125 3.25837 20.3125 3.875L20.3125 5.425C20.3104 5.68939 20.2628 5.95148 20.1719 6.2L22.6563 6.2C23.2779 6.2 23.874 6.44496 24.3135 6.88098C24.7531 7.317 25 7.90837 25 8.525L25 10.075C25 10.6916 24.7531 11.283 24.3135 11.719C23.874 12.155 23.2779 12.4 22.6563 12.4L13.2813 12.4L13.2813 18.6L22.6563 18.6C23.2779 18.6 23.874 18.845 24.3135 19.281C24.7531 19.717 25 20.3084 25 20.925L25 22.475C25 23.0916 24.7531 23.683 24.3135 24.119C23.874 24.555 23.2779 24.8 22.6563 24.8L20.1719 24.8C20.2628 25.0485 20.3104 25.3106 20.3125 25.575L20.3125 27.125C20.3125 27.7416 20.0656 28.333 19.626 28.769C19.1865 29.205 18.5904 29.45 17.9688 29.45L13.2812 29.45L13.2812 30.225C13.2812 30.4305 13.1989 30.6277 13.0524 30.773C12.9059 30.9183 12.7072 31 12.5 31C12.2928 31 12.0941 30.9183 11.9476 30.773C11.8011 30.6277 11.7187 30.4305 11.7187 30.225ZM11.7188 6.2L17.9688 6.2C18.176 6.2 18.3747 6.11835 18.5212 5.97301C18.6677 5.82767 18.75 5.63054 18.75 5.425L18.75 3.875C18.75 3.66946 18.6677 3.47233 18.5212 3.32699C18.3747 3.18165 18.176 3.1 17.9688 3.1L7.03125 3.1C6.82405 3.1 6.62534 3.18165 6.47882 3.32699C6.33231 3.47233 6.25 3.66946 6.25 3.875L6.25 5.425C6.25 5.63054 6.33231 5.82767 6.47882 5.97301C6.62534 6.11835 6.82405 6.2 7.03125 6.2L11.7188 6.2ZM11.7188 10.85L22.6563 10.85C22.8635 10.85 23.0622 10.7683 23.2087 10.623C23.3552 10.4777 23.4375 10.2805 23.4375 10.075L23.4375 8.525C23.4375 8.31946 23.3552 8.12233 23.2087 7.97699C23.0622 7.83165 22.8635 7.75 22.6563 7.75L2.34375 7.75C2.13655 7.75 1.93784 7.83165 1.79132 7.97699C1.64481 8.12233 1.5625 8.31946 1.5625 8.525L1.5625 10.075C1.5625 10.2805 1.64481 10.4777 1.79132 10.623C1.93784 10.7683 2.13655 10.85 2.34375 10.85L11.7188 10.85ZM7.03125 23.25L22.6563 23.25C22.8635 23.25 23.0622 23.1683 23.2087 23.023C23.3552 22.8777 23.4375 22.6805 23.4375 22.475L23.4375 20.925C23.4375 20.7195 23.3552 20.5223 23.2087 20.377C23.0622 20.2317 22.8635 20.15 22.6563 20.15L2.34375 20.15C2.13655 20.15 1.93783 20.2316 1.79132 20.377C1.64481 20.5223 1.5625 20.7195 1.5625 20.925L1.5625 22.475C1.5625 22.6805 1.64481 22.8777 1.79132 23.023C1.93783 23.1683 2.13655 23.25 2.34375 23.25L7.03125 23.25ZM11.7187 27.9L17.9688 27.9C18.1759 27.9 18.3747 27.8183 18.5212 27.673C18.6677 27.5277 18.75 27.3305 18.75 27.125L18.75 25.575C18.75 25.3695 18.6677 25.1723 18.5212 25.027C18.3747 24.8817 18.1759 24.8 17.9688 24.8L7.03125 24.8C6.82405 24.8 6.62534 24.8817 6.47882 25.027C6.33231 25.1723 6.25 25.3695 6.25 25.575L6.25 27.125C6.25 27.3305 6.33231 27.5277 6.47882 27.673C6.62533 27.8183 6.82405 27.9 7.03125 27.9L11.7187 27.9Z" fill="url(#paint0_linear_5096_60)"/>
<defs>
<linearGradient id="paint0_linear_5096_60" x1="12.5" y1="4.37139e-09" x2="12.5" y2="31" gradientUnits="userSpaceOnUse">
<stop stop-color="#00FF0A"/>
<stop offset="1" stop-color="#00FF0A"/>
</linearGradient>
</defs>
</svg>
