<svg width="305" height="302" viewBox="0 0 305 302" fill="none" xmlns="http://www.w3.org/2000/svg">
<path d="M153.123 297.059C233.519 297.059 298.694 258.021 298.694 209.866C298.694 161.71 233.519 122.672 153.123 122.672C72.7268 122.672 7.55273 161.71 7.55273 209.866C7.55273 258.021 72.7268 297.059 153.123 297.059Z" fill="#F5F5F5"/>
<path d="M179.339 135.036C171.97 139.264 171.97 146.083 179.339 150.299C186.708 154.515 198.664 154.527 206.039 150.299C213.414 146.071 213.414 139.252 206.039 135.036C198.664 130.82 186.726 130.82 179.339 135.036Z" fill="#E0E0E0"/>
<path d="M62.5248 215.441L18.3974 190.447C18.2926 190.398 18.204 190.321 18.1419 190.224C18.0798 190.128 18.0469 190.015 18.0469 189.901C18.0469 189.786 18.0798 189.674 18.1419 189.577C18.204 189.48 18.2926 189.403 18.3974 189.354L138.878 120.498C139.175 120.349 139.503 120.271 139.836 120.271C140.169 120.271 140.497 120.349 140.794 120.498L184.921 145.492C185.026 145.54 185.115 145.618 185.177 145.714C185.239 145.811 185.272 145.924 185.272 146.038C185.272 146.153 185.239 146.265 185.177 146.362C185.115 146.459 185.026 146.536 184.921 146.585L64.4402 215.441C64.1434 215.59 63.8153 215.668 63.4825 215.668C63.1497 215.668 62.8216 215.59 62.5248 215.441Z" fill="#E0E0E0"/>
<path d="M97.2091 253.62C103.172 253.62 108.006 250.856 108.006 247.447C108.006 244.038 103.172 241.274 97.2091 241.274C91.2461 241.274 86.4121 244.038 86.4121 247.447C86.4121 250.856 91.2461 253.62 97.2091 253.62Z" fill="#E0E0E0"/>
<path d="M288.695 218.678L173.667 284.369L115.266 251.167L230.293 185.476L288.695 218.678Z" fill="#E0E0E0"/>
<path d="M29.5125 176.241C29.5125 176.241 29.787 167.284 27.5849 161.093C25.3828 154.902 21.0823 150.432 16.6964 149.013C12.3105 147.593 7.74159 150.825 11.853 154.757C15.9644 158.689 23.7907 163.521 25.1998 174.882L29.5125 176.241Z" fill="#40FF67"/>
<g opacity="0.15">
<path d="M29.5125 176.241C29.5125 176.241 29.787 167.284 27.5849 161.093C25.3828 154.902 21.0823 150.432 16.6964 149.013C12.3105 147.593 7.74159 150.825 11.853 154.757C15.9644 158.689 23.7907 163.521 25.1998 174.882L29.5125 176.241Z" fill="black"/>
</g>
<path d="M27.736 172.303H27.7848C27.8491 172.293 27.9068 172.258 27.9455 172.206C27.9843 172.154 28.001 172.089 27.9922 172.025C26.0158 159.456 18.1834 152.546 14.3221 150.662C14.2639 150.633 14.1965 150.628 14.1347 150.649C14.0729 150.669 14.0218 150.713 13.9927 150.771C13.9636 150.828 13.9588 150.895 13.9794 150.956C14 151.017 14.0443 151.068 14.1025 151.097C17.8906 152.939 25.5583 159.71 27.5225 172.098C27.5292 172.151 27.554 172.2 27.5928 172.238C27.6316 172.275 27.6821 172.298 27.736 172.303Z" fill="white"/>
<path d="M9.71094 164.421C9.75974 165.375 10.4978 166.142 11.2115 166.795C11.9252 167.447 12.6938 168.148 12.8463 169.09C13.1635 170.993 10.815 172.623 11.2115 174.526C11.608 176.429 13.987 177.002 15.5364 177.643C16.5742 177.988 17.4332 178.723 17.9276 179.69C18.1691 180.555 18.2252 181.46 18.0923 182.348C18.0313 183.979 18.318 186.401 19.6722 187.518C21.2399 188.817 23.8995 189.529 25.7722 188.641C29.2858 186.974 32.8543 184.323 33.1898 180.155C33.2812 178.931 33.0934 177.702 32.6405 176.559C32.1875 175.417 31.4809 174.389 30.5729 173.553C29.8775 172.919 29.0784 172.412 28.4196 171.741C27.0715 170.382 27.2972 168.522 26.8824 166.777C26.5103 165.218 24.9853 164.463 23.4969 164.167C22.0085 163.871 20.5201 164.167 19.1781 163.563C17.8361 162.959 16.7381 162.162 15.329 161.751C14.6046 161.501 13.8322 161.418 13.0703 161.507C12.3084 161.596 11.5768 161.855 10.9309 162.265C10.5657 162.499 10.2636 162.817 10.051 163.193C9.83838 163.569 9.72165 163.99 9.71094 164.421Z" fill="#40FF67"/>
<path d="M26.6332 184.148C26.6617 184.151 26.6906 184.148 26.7182 184.14C26.7458 184.132 26.7715 184.119 26.7937 184.101C26.8159 184.083 26.8342 184.061 26.8475 184.035C26.8608 184.01 26.8688 183.983 26.8711 183.954C28.2863 170.485 15.9521 163.811 12.8411 162.881C12.8138 162.872 12.7852 162.87 12.7569 162.872C12.7285 162.875 12.701 162.884 12.676 162.897C12.651 162.911 12.629 162.929 12.6112 162.951C12.5935 162.973 12.5804 162.999 12.5727 163.026C12.5553 163.08 12.5603 163.139 12.5866 163.19C12.6128 163.241 12.6582 163.279 12.713 163.297C15.763 164.203 27.841 170.733 26.4624 183.912C26.4551 183.965 26.4688 184.02 26.5006 184.063C26.5323 184.107 26.5797 184.137 26.6332 184.148Z" fill="white"/>
<path d="M14.5604 172.496C14.6018 172.511 14.6471 172.511 14.6885 172.496C16.2849 171.915 17.9914 171.689 19.686 171.837C21.3806 171.984 23.0215 172.5 24.4912 173.348C24.5414 173.377 24.601 173.384 24.657 173.37C24.7129 173.355 24.7608 173.319 24.7901 173.27C24.8041 173.245 24.8131 173.217 24.8164 173.189C24.8197 173.16 24.8173 173.132 24.8094 173.104C24.8014 173.077 24.7881 173.051 24.7702 173.028C24.7522 173.006 24.7299 172.987 24.7047 172.974C23.1762 172.092 21.4699 171.556 19.7078 171.404C17.9457 171.251 16.1713 171.486 14.5116 172.092C14.4683 172.109 14.4321 172.14 14.4084 172.18C14.3847 172.22 14.3749 172.267 14.3804 172.312C14.386 172.358 14.4066 172.401 14.4391 172.434C14.4716 172.468 14.5142 172.489 14.5604 172.496Z" fill="white"/>
<path d="M178.192 120.492C178.201 120.401 178.234 120.314 178.287 120.24C178.341 120.166 178.413 120.107 178.497 120.069C178.725 119.956 178.977 119.897 179.232 119.897C179.487 119.897 179.739 119.956 179.967 120.069C180.051 120.107 180.123 120.166 180.177 120.24C180.23 120.314 180.263 120.401 180.272 120.492L176.569 142.127C176.562 142.19 176.538 142.249 176.501 142.3C176.463 142.35 176.414 142.391 176.356 142.417C176.195 142.497 176.018 142.539 175.837 142.539C175.657 142.539 175.48 142.497 175.319 142.417C175.261 142.391 175.212 142.35 175.174 142.3C175.137 142.249 175.113 142.19 175.105 142.127L178.192 120.492Z" fill="#455A64"/>
<path d="M206.734 120.492C206.727 120.401 206.694 120.313 206.641 120.239C206.587 120.164 206.514 120.106 206.429 120.069C206.201 119.956 205.95 119.897 205.694 119.897C205.439 119.897 205.187 119.956 204.959 120.069C204.875 120.107 204.803 120.166 204.75 120.24C204.696 120.314 204.663 120.401 204.654 120.492L208.357 142.127C208.366 142.189 208.39 142.248 208.427 142.299C208.464 142.349 208.514 142.39 208.571 142.417C208.732 142.497 208.911 142.539 209.092 142.539C209.273 142.539 209.452 142.497 209.614 142.417C209.671 142.39 209.72 142.349 209.757 142.299C209.794 142.248 209.818 142.189 209.827 142.127L206.734 120.492Z" fill="#455A64"/>
<path d="M193.633 122.129C193.624 122.039 193.59 121.953 193.537 121.88C193.483 121.807 193.411 121.749 193.328 121.712C193.101 121.596 192.849 121.535 192.593 121.535C192.337 121.535 192.085 121.596 191.858 121.712C191.774 121.749 191.702 121.807 191.649 121.88C191.595 121.953 191.562 122.039 191.553 122.129L191.858 147.865C191.865 147.928 191.888 147.987 191.926 148.038C191.963 148.089 192.013 148.129 192.071 148.155C192.232 148.238 192.411 148.282 192.593 148.282C192.774 148.282 192.953 148.238 193.114 148.155C193.172 148.129 193.222 148.089 193.26 148.038C193.297 147.987 193.321 147.928 193.328 147.865L193.633 122.129Z" fill="#455A64"/>
<path d="M211.219 113.365C211.219 110.641 209.389 107.929 205.777 105.833C198.5 101.677 186.709 101.677 179.431 105.833C175.771 107.917 173.99 110.665 173.99 113.365V114.827C174.033 117.52 175.857 120.202 179.444 122.25C186.721 126.411 198.512 126.411 205.79 122.25C209.382 120.202 211.2 117.52 211.243 114.827L211.219 113.365Z" fill="#40FF67"/>
<path d="M179.419 105.833C172.142 109.994 172.142 116.735 179.419 120.897C186.696 125.058 198.488 125.052 205.765 120.897C213.042 116.741 213.042 110.025 205.765 105.833C198.488 101.641 186.696 101.677 179.419 105.833Z" fill="#40FF67"/>
<path opacity="0.45" d="M179.419 105.833C172.142 109.994 172.142 116.735 179.419 120.897C186.696 125.058 198.488 125.052 205.765 120.897C213.042 116.741 213.042 110.025 205.765 105.833C198.488 101.641 186.696 101.677 179.419 105.833Z" fill="white"/>
<g opacity="0.05">
<path d="M196.67 109.843C198.994 111.172 198.994 113.323 196.67 114.675C195.368 115.328 193.929 115.668 192.47 115.668C191.011 115.668 189.572 115.328 188.27 114.675C185.946 113.347 185.946 111.196 188.27 109.843C189.572 109.191 191.011 108.851 192.47 108.851C193.929 108.851 195.368 109.191 196.67 109.843Z" fill="black"/>
</g>
<path d="M188.776 112.543C186.751 110.502 185.568 105.404 187.556 103.785H197.585C199.555 105.404 198.372 110.502 196.365 112.543L196.31 112.598L196.237 112.664L196.054 112.827L196.005 112.864L195.852 112.978C195.77 113.037 195.684 113.091 195.596 113.141C194.664 113.612 193.632 113.857 192.586 113.857C191.539 113.857 190.508 113.612 189.575 113.141C189.484 113.093 189.399 113.039 189.307 112.978L189.167 112.87L189.106 112.827L188.935 112.67L188.85 112.592L188.776 112.543Z" fill="#EBEBEB"/>
<path d="M196.695 103.133C198.988 104.438 198.988 106.564 196.695 107.868C195.411 108.513 193.992 108.85 192.553 108.85C191.113 108.85 189.694 108.513 188.411 107.868C186.123 106.564 186.123 104.438 188.411 103.133C189.694 102.488 191.113 102.152 192.553 102.152C193.992 102.152 195.411 102.488 196.695 103.133Z" fill="#FAFAFA"/>
<path d="M195.072 104.057C196.469 104.854 196.469 106.147 195.072 106.944C194.291 107.335 193.428 107.538 192.553 107.538C191.678 107.538 190.815 107.335 190.033 106.944C188.643 106.147 188.643 104.854 190.033 104.057C190.815 103.667 191.678 103.464 192.553 103.464C193.428 103.464 194.291 103.667 195.072 104.057Z" fill="#EBEBEB"/>
<path d="M190.033 105.428C190.813 105.035 191.677 104.83 192.552 104.83C193.428 104.83 194.291 105.035 195.072 105.428C195.408 105.608 195.695 105.868 195.907 106.183C195.698 106.502 195.41 106.764 195.072 106.944C194.29 107.335 193.427 107.538 192.552 107.538C191.677 107.538 190.814 107.335 190.033 106.944C189.694 106.764 189.407 106.502 189.197 106.183C189.409 105.868 189.696 105.608 190.033 105.428Z" fill="#E0E0E0"/>
<path d="M194.766 106.183C195.483 105.463 196.099 104.65 196.596 103.767C197.438 102.293 197.597 100.318 197.157 100.071C196.718 99.8231 194.949 101.798 194.949 101.798C195.113 100.969 195.176 100.124 195.138 99.2795C195.065 97.9688 194.742 96.7729 194.358 96.5373C193.973 96.3018 193.138 97.9507 192.765 99.1527C192.393 100.355 192.186 101.339 192.186 101.339C192.039 100.404 191.821 99.4813 191.533 98.5789C191.088 97.3286 190.685 97.0507 190.374 97.1715C190.063 97.2923 189.862 97.8782 189.764 99.5332C189.729 100.327 189.754 101.123 189.837 101.913C189.837 101.913 189.227 101.23 188.52 100.572C187.812 99.9137 187.434 99.7446 187.214 99.8835C186.995 100.022 186.934 101.152 188.117 103.266C188.702 104.341 189.454 105.319 190.344 106.165C190.344 106.165 191.979 107.228 194.766 106.183Z" fill="#40FF67"/>
<path opacity="0.3" d="M194.766 106.183C195.483 105.463 196.099 104.65 196.596 103.767C197.438 102.293 197.597 100.318 197.157 100.071C196.718 99.8231 194.949 101.798 194.949 101.798C195.113 100.969 195.176 100.124 195.138 99.2795C195.065 97.9688 194.742 96.7729 194.358 96.5373C193.973 96.3018 193.138 97.9507 192.765 99.1527C192.393 100.355 192.186 101.339 192.186 101.339C192.039 100.404 191.821 99.4813 191.533 98.5789C191.088 97.3286 190.685 97.0507 190.374 97.1715C190.063 97.2923 189.862 97.8782 189.764 99.5332C189.729 100.327 189.754 101.123 189.837 101.913C189.837 101.913 189.227 101.23 188.52 100.572C187.812 99.9137 187.434 99.7446 187.214 99.8835C186.995 100.022 186.934 101.152 188.117 103.266C188.702 104.341 189.454 105.319 190.344 106.165C190.344 106.165 191.979 107.228 194.766 106.183Z" fill="black"/>
<path d="M193.644 76.6537C193.437 76.5135 193.195 76.4325 192.944 76.4198C192.693 76.407 192.444 76.4628 192.223 76.5812C190.832 77.1852 189.509 79.263 189.271 81.2562C189.13 82.4642 189.405 83.3158 189.942 83.7084L191.339 84.7352C191.546 84.8727 191.788 84.9515 192.037 84.9632C192.286 84.9749 192.534 84.9191 192.754 84.8016C194.145 84.1976 195.468 82.1199 195.706 80.1267C195.847 78.9549 195.578 78.0791 195.047 77.7107C194.81 77.5053 193.882 76.8288 193.644 76.6537Z" fill="#40FF67"/>
<path opacity="0.3" d="M193.644 76.6537C193.437 76.5135 193.195 76.4325 192.944 76.4198C192.693 76.407 192.444 76.4628 192.223 76.5812C190.832 77.1852 189.509 79.263 189.271 81.2562C189.13 82.4642 189.405 83.3158 189.942 83.7084L191.339 84.7352C191.546 84.8727 191.788 84.9515 192.037 84.9632C192.286 84.9749 192.534 84.9191 192.754 84.8016C194.145 84.1976 195.468 82.1199 195.706 80.1267C195.847 78.9549 195.578 78.0791 195.047 77.7107C194.81 77.5053 193.882 76.8288 193.644 76.6537Z" fill="black"/>
<path d="M196.09 69.8163C194.937 68.9767 193.406 68.8378 191.631 69.5928C188.581 70.8793 186.19 73.8872 184.427 78.0186C184.067 78.8581 184.098 79.6977 184.494 80.0118C184.958 80.3802 185.757 80.9117 186.147 81.2198C186.641 81.6124 187.514 81.0205 187.977 79.9635C189.197 77.0341 190.765 75.0711 192.9 74.1651C193.589 73.8403 194.367 73.747 195.114 73.8993C195.354 74.2736 195.537 74.6806 195.657 75.1073C195.695 75.2664 195.785 75.4087 195.913 75.512L197.579 76.72C197.932 76.9737 198.518 76.72 199.006 76.0737C199.254 75.7565 199.432 75.3922 199.531 75.0035C199.63 74.6148 199.646 74.2101 199.579 73.8147C199.297 72.7224 198.669 71.7485 197.786 71.0363L196.09 69.8163Z" fill="#40FF67"/>
<path opacity="0.3" d="M196.09 69.8163C194.937 68.9767 193.406 68.8378 191.631 69.5928C188.581 70.8793 186.19 73.8872 184.427 78.0186C184.067 78.8581 184.098 79.6977 184.494 80.0118C184.958 80.3802 185.757 80.9117 186.147 81.2198C186.641 81.6124 187.514 81.0205 187.977 79.9635C189.197 77.0341 190.765 75.0711 192.9 74.1651C193.589 73.8403 194.367 73.747 195.114 73.8993C195.354 74.2736 195.537 74.6806 195.657 75.1073C195.695 75.2664 195.785 75.4087 195.913 75.512L197.579 76.72C197.932 76.9737 198.518 76.72 199.006 76.0737C199.254 75.7565 199.432 75.3922 199.531 75.0035C199.63 74.6148 199.646 74.2101 199.579 73.8147C199.297 72.7224 198.669 71.7485 197.786 71.0363L196.09 69.8163Z" fill="black"/>
<path d="M202.043 67.7567C201.537 66.3898 200.656 65.1895 199.5 64.2897C199.213 64.0783 198.091 63.2508 197.81 63.0817C195.98 61.7167 193.491 61.4932 190.643 62.7012C186.141 64.6159 182.499 68.3788 179.62 74.4007C179.199 75.2886 179.175 76.2127 179.62 76.569C180.102 76.9556 180.84 77.4388 181.273 77.777C181.749 78.1636 182.572 77.614 183.048 76.6113C185.384 71.6827 188.227 68.8439 191.911 67.2735C193.815 66.4702 195.504 66.446 196.889 67.0742C197.453 67.7095 197.897 68.4398 198.2 69.2304C198.249 69.3614 198.334 69.4764 198.444 69.5626L200.104 70.7706C200.464 71.0364 201.037 70.8129 201.531 70.1666C201.796 69.8299 201.979 69.4378 202.068 69.0202C202.157 68.6026 202.149 68.1705 202.043 67.7567Z" fill="#40FF67"/>
<path opacity="0.3" d="M202.043 67.7567C201.537 66.3898 200.656 65.1895 199.5 64.2897C199.213 64.0783 198.091 63.2508 197.81 63.0817C195.98 61.7167 193.491 61.4932 190.643 62.7012C186.141 64.6159 182.499 68.3788 179.62 74.4007C179.199 75.2886 179.175 76.2127 179.62 76.569C180.102 76.9556 180.84 77.4388 181.273 77.777C181.749 78.1636 182.572 77.614 183.048 76.6113C185.384 71.6827 188.227 68.8439 191.911 67.2735C193.815 66.4702 195.504 66.446 196.889 67.0742C197.453 67.7095 197.897 68.4398 198.2 69.2304C198.249 69.3614 198.334 69.4764 198.444 69.5626L200.104 70.7706C200.464 71.0364 201.037 70.8129 201.531 70.1666C201.796 69.8299 201.979 69.4378 202.068 69.0202C202.157 68.6026 202.149 68.1705 202.043 67.7567Z" fill="black"/>
<path d="M195.705 80.1267C195.467 82.1199 194.143 84.2097 192.752 84.8016C191.361 85.3935 190.422 84.2641 190.66 82.2769C190.898 80.2897 192.221 78.1939 193.612 77.6019C195.003 77.01 195.942 78.1395 195.705 80.1267Z" fill="#40FF67"/>
<path d="M193.29 70.8069C190.24 72.0995 187.843 75.1074 186.086 79.2629C185.726 80.1025 185.756 80.942 186.147 81.2561C186.641 81.6487 187.513 81.0568 187.977 79.9998C189.197 77.0704 190.765 75.1074 192.9 74.2014C195.035 73.2954 196.688 74.2014 197.316 76.3456C197.542 77.1247 198.359 76.9979 199.006 76.1161C199.253 75.7989 199.432 75.4345 199.531 75.0458C199.629 74.6571 199.646 74.2524 199.579 73.8571C198.664 70.825 196.322 69.5204 193.29 70.8069Z" fill="#40FF67"/>
<path d="M192.301 63.885C187.793 65.8057 184.151 69.5626 181.278 75.5905C180.851 76.4723 180.833 77.4025 181.278 77.7528C181.754 78.1394 182.578 77.5897 183.053 76.5871C185.39 71.6584 188.232 68.8196 191.917 67.2492C195.601 65.6788 198.517 67.056 199.847 70.4202C200.121 71.1088 200.89 70.982 201.518 70.1243C201.779 69.7927 201.962 69.4073 202.053 68.9965C202.144 68.5857 202.14 68.1599 202.043 67.7506C200.39 63.6554 196.821 61.9703 192.301 63.885Z" fill="#40FF67"/>
<path d="M140.33 124.285L142.85 122.848L156.569 51.781C157.026 49.4073 155.69 48.459 153.573 49.667L43.4196 112.561C41.0973 114.062 39.4345 116.378 38.7653 119.042L25.3087 188.756C25.2302 189.15 25.2765 189.558 25.4414 189.924C25.6063 190.291 25.8817 190.598 26.2298 190.804L57.1019 208.495L172.319 142.659L140.33 124.285Z" fill="#455A64"/>
<path d="M40.1446 119.918L26.7246 189.499L144.455 122.642L157.954 52.6508C158.411 50.2831 157.069 49.3349 154.959 50.5429L44.805 113.437C42.4804 114.937 40.8153 117.253 40.1446 119.918Z" fill="#263238"/>
<path d="M141.922 123.633L26.6992 189.499L58.0044 207.402L173.221 141.535L141.922 123.633Z" fill="#37474F"/>
<path d="M156.825 51.9017L45.8045 115.249C43.3645 116.638 42.6081 118.873 43.0412 121.857L55.0948 205.118C55.5279 208.084 57.913 209.824 60.3469 208.428L170.373 145.564C172.813 144.175 174.429 140.641 174.002 137.67L162.01 54.7586C161.583 51.793 159.258 50.5125 156.825 51.9017Z" fill="#455A64"/>
<path d="M164.311 53.8406C163.816 53.6721 163.289 53.6177 162.77 53.6816C162.251 53.7455 161.753 53.9259 161.315 54.2091L51.2898 117.085C50.057 117.851 49.0806 118.961 48.4838 120.275L44.9336 118.783C45.7144 117.098 47.0747 116.481 48.2398 115.811L158.259 52.9346C158.714 52.637 159.234 52.453 159.776 52.3983C160.318 52.3436 160.865 52.4199 161.37 52.6205L164.311 53.8406Z" fill="#40FF67"/>
<path opacity="0.1" d="M164.311 53.8406C163.816 53.6721 163.289 53.6177 162.77 53.6816C162.251 53.7455 161.753 53.9259 161.315 54.2091L51.2898 117.085C50.057 117.851 49.0806 118.961 48.4838 120.275L44.9336 118.783C45.7144 117.098 47.0747 116.481 48.2398 115.811L158.259 52.9346C158.714 52.637 159.234 52.453 159.776 52.3983C160.318 52.3436 160.865 52.4199 161.37 52.6205L164.311 53.8406Z" fill="black"/>
<path d="M58.6652 209.346C57.5733 208.906 56.7681 207.782 56.5302 206.151L44.6108 123.699C44.3424 121.845 44.2509 120.184 44.9341 118.783L48.4843 120.275C48.3928 120.468 48.3074 120.667 48.222 120.879C48.1366 121.09 48.1 121.205 48.0451 121.368C48.0416 121.392 48.0416 121.416 48.0451 121.44C47.978 121.628 47.9231 121.821 47.8743 122.008C47.8255 122.195 47.7767 122.407 47.7462 122.612C47.7169 122.762 47.6965 122.913 47.6852 123.065C47.5937 123.704 47.5937 124.353 47.6852 124.992L59.6534 207.879C59.8913 209.528 60.7148 210.663 61.8189 211.098L58.6652 209.346Z" fill="#40FF67"/>
<path opacity="0.3" d="M61.818 211.098L61.6411 211.026L58.6643 209.353C57.5724 208.912 56.7672 207.794 56.5293 206.157L44.6099 123.705C44.3354 121.845 44.25 120.184 44.9271 118.783L47.9771 120.051C47.4489 121.358 47.3071 122.787 47.5684 124.17L47.6904 124.98L59.6525 207.891C59.6649 207.994 59.6832 208.097 59.7074 208.199C59.7161 208.254 59.7283 208.308 59.744 208.362C59.7558 208.438 59.7742 208.513 59.7989 208.585C59.7989 208.664 59.8355 208.736 59.8599 208.809L59.9331 209.02C59.9615 209.105 59.9961 209.188 60.0368 209.268C60.0734 209.353 60.11 209.431 60.1527 209.51C60.1954 209.588 60.232 209.661 60.2747 209.733C60.3998 209.949 60.547 210.151 60.7139 210.337L60.8725 210.5L61.0494 210.657C61.2813 210.842 61.5405 210.991 61.818 211.098Z" fill="black"/>
<path d="M161.315 54.2152L50.2945 117.557C47.8545 118.952 47.1042 121.181 47.5312 124.201L59.6397 207.915C60.0667 210.887 62.3908 212.143 64.8247 210.772L174.857 147.871C177.297 146.482 178.919 142.943 178.517 139.977L166.53 57.0721C166.073 54.1004 163.748 52.826 161.315 54.2152Z" fill="#40FF67"/>
<path opacity="0.2" d="M161.315 54.2152L50.2945 117.557C47.8545 118.952 47.1042 121.181 47.5312 124.201L59.6397 207.915C60.0667 210.887 62.3908 212.143 64.8247 210.772L174.857 147.871C177.297 146.482 178.919 142.943 178.517 139.977L166.53 57.0721C166.073 54.1004 163.748 52.826 161.315 54.2152Z" fill="black"/>
<path d="M168.392 147.376L70.1819 203.488C68.9192 204.212 67.7418 203.548 67.4917 202.008L55.8773 121.658C55.7845 120.87 55.9104 120.073 56.2415 119.351C56.5726 118.63 57.0963 118.011 57.7561 117.563L155.966 61.4509C157.229 60.7261 158.406 61.3905 158.65 62.9307L170.271 143.293C170.364 144.079 170.238 144.874 169.907 145.594C169.576 146.314 169.052 146.93 168.392 147.376Z" fill="#263238"/>
<path d="M55.8769 121.658L67.4974 202.02L67.534 202.201L165.744 146.083C166.406 145.638 166.931 145.021 167.263 144.3C167.594 143.579 167.719 142.781 167.623 141.994L155.972 61.4509L57.7618 117.563C57.1008 118.01 56.5759 118.629 56.2437 119.35C55.9115 120.072 55.7847 120.87 55.8769 121.658Z" fill="#40FF67"/>
<path opacity="0.85" d="M55.8769 121.658L67.4974 202.02L67.534 202.201L165.744 146.083C166.406 145.638 166.931 145.021 167.263 144.3C167.594 143.579 167.719 142.781 167.623 141.994L155.972 61.4509L57.7618 117.563C57.1008 118.01 56.5759 118.629 56.2437 119.35C55.9115 120.072 55.7847 120.87 55.8769 121.658Z" fill="white"/>
<path d="M59.2736 166.607C59.3209 167.003 59.2577 167.403 59.091 167.765C58.9243 168.127 58.6604 168.437 58.3281 168.661C57.7181 169.023 57.1081 168.691 56.9739 167.918C56.93 167.519 56.9979 167.116 57.1701 166.753C57.3422 166.389 57.612 166.08 57.9499 165.858C58.5599 165.496 59.1699 165.828 59.2736 166.607Z" fill="#263238"/>
<path d="M56.1204 153.192C55.8619 153.367 55.6566 153.609 55.5265 153.891C55.3964 154.173 55.3466 154.485 55.3823 154.793L56.4193 161.95C56.5047 162.554 56.9744 162.808 57.4685 162.554C57.7271 162.379 57.9324 162.138 58.0625 161.856C58.1926 161.574 58.2424 161.262 58.2066 160.954L57.1696 153.796C57.0537 153.174 56.584 152.915 56.1204 153.192Z" fill="#263238"/>
<path d="M137.749 162.059L124.188 169.808L121.022 171.62L99.709 183.791C101.222 170.503 103.723 151.87 106.419 145.908L136.309 146.512L137.749 162.059Z" fill="#455A64"/>
<path d="M132.656 153.778C130.661 160.428 124.561 163.684 124.561 163.684L124.189 169.839L121.023 171.651L121.914 162.397C121.914 162.397 129.692 159.263 132.656 153.778Z" fill="#37474F"/>
<path d="M125.982 105.875C128.337 104.408 132.827 103.242 136.651 104.54C142.239 101.369 147.149 101.992 151.859 102.698C153.024 102.873 156.885 102.318 157.617 102.976C158.172 103.477 158.331 104.063 158.599 105.229L156.251 111.42C152.17 112.223 149.815 113.232 143.971 114.126C139.366 114.845 136.42 115.292 135.913 117.448C131.804 114.339 128.418 110.393 125.982 105.875Z" fill="#FFA8A7"/>
<path d="M160.588 109.155C161.362 108.194 161.387 107.017 161.295 105.476C161.155 103.006 160.728 98.15 160.356 96.0178C159.746 92.6173 159.532 90.4852 158.819 88.3108C157.898 85.4962 158.209 83.7446 156.928 81.8359C155.647 79.9273 149.449 78.52 148.089 81.3286C147.326 82.9412 150.12 83.7446 150.199 84.9526C150.199 84.9526 148.016 86.6438 149.589 87.2236C150.809 87.6826 151.993 87.8759 152.359 91.6992C152.682 95.0756 151.541 98.8385 151.541 103.942C151.541 106.044 152.609 112.229 152.609 112.229C155.232 111.529 158.855 111.305 160.588 109.155Z" fill="#FFA8A7"/>
<path d="M149.779 86.7283C149.962 87.3927 153.043 87.9363 153.732 87.8035C153.92 87.7774 154.097 87.7028 154.246 87.5872C154.394 87.4716 154.51 87.3191 154.58 87.1451L156.697 87.7853L156.776 86.0398L149.92 85.7136C149.814 86.0413 149.767 86.3846 149.779 86.7283Z" fill="#F28F8F"/>
<path d="M156.25 105.096C156.25 105.096 155.829 102.885 151.608 101.387C151.608 101.792 151.541 102.263 151.541 102.638C153.315 102.997 154.949 103.849 156.25 105.096Z" fill="#F28F8F"/>
<path d="M148.4 79.8185C148.233 79.2036 147.905 78.6431 147.45 78.1936C146.994 77.744 146.427 77.4212 145.806 77.2577C145.184 77.0942 144.53 77.0958 143.909 77.2622C143.289 77.4287 142.723 77.7541 142.27 78.2058L142.203 78.2844C142.173 78.3095 142.147 78.3379 142.123 78.3689C141.403 79.2135 140.886 80.2092 140.611 81.2806C140.337 82.3521 140.311 83.4713 140.537 84.5539C140.537 84.6626 140.598 84.7653 140.635 84.868C140.95 85.7142 141.571 86.414 142.379 86.8306C143.187 87.2472 144.122 87.3507 145.003 87.1209C145.265 87.0486 145.518 86.9494 145.759 86.8249C146.106 86.6569 146.421 86.4323 146.692 86.1605C147.465 85.3106 148.024 84.2924 148.325 83.1885C148.626 82.0845 148.66 80.9259 148.425 79.8064C148.417 79.8109 148.409 79.8149 148.4 79.8185Z" fill="#455A64"/>
<path d="M144.709 78.8643C143.937 79.7142 143.377 80.7324 143.076 81.8364C142.775 82.9403 142.741 84.099 142.977 85.2184C143.52 87.2418 145.179 87.6887 146.68 86.2089C147.452 85.359 148.012 84.3408 148.313 83.2369C148.614 82.1329 148.648 80.9743 148.412 79.8549C147.869 77.8315 146.21 77.3845 144.709 78.8643Z" fill="#37474F"/>
<path d="M158.947 84.3122H158.916L146.399 80.8573C146.239 80.8205 146.071 80.8293 145.916 80.8828C145.76 80.9362 145.623 81.0321 145.521 81.1593C145.226 81.4823 145.012 81.869 144.896 82.2885C144.779 82.708 144.763 83.1487 144.85 83.5753C144.877 83.7352 144.949 83.8845 145.057 84.007C145.164 84.1294 145.303 84.2204 145.46 84.2699L157.989 87.7489C158.148 87.7812 158.313 87.7696 158.466 87.7153C158.618 87.6609 158.753 87.566 158.855 87.4409C159.148 87.1173 159.361 86.7304 159.477 86.3109C159.592 85.8914 159.607 85.4511 159.52 85.0249C159.497 84.8663 159.432 84.7167 159.331 84.5914C159.23 84.4661 159.098 84.3697 158.947 84.3122Z" fill="#263238"/>
<path d="M157.417 87.0605C157.624 87.8397 158.259 88.0088 158.838 87.4411C159.132 87.1175 159.344 86.7305 159.46 86.311C159.575 85.8916 159.59 85.4512 159.503 85.0251C159.495 84.8636 159.435 84.709 159.332 84.5833C159.23 84.4575 159.089 84.3671 158.932 84.3249C158.774 84.2827 158.607 84.2909 158.455 84.3483C158.302 84.4057 158.172 84.5094 158.082 84.6445C157.789 84.9681 157.576 85.3551 157.46 85.7745C157.345 86.194 157.33 86.6344 157.417 87.0605Z" fill="#455A64"/>
<path d="M157.161 82.2467C156.581 80.5797 156.777 80.2354 155.38 79.9334C153.983 79.6314 153.971 78.4838 152.58 78.6469C151.189 78.81 150.14 79.2509 149.53 79.0878C148.92 78.9247 147.669 79.565 147.09 80.4891C146.51 81.4132 146.523 82.7782 146.602 83.7144C146.681 84.6506 147.651 85.8103 149.652 86.3177C151.653 86.825 153.684 87.2599 154.105 86.3177C154.434 85.5687 154.135 84.9285 154.233 84.5057C154.294 84.251 154.412 84.0133 154.579 83.8103C154.746 83.6074 154.957 83.4445 155.197 83.3339L156.179 83.5997L157.161 82.2467Z" fill="#FFA8A7"/>
<path d="M163.296 83.8833C163.13 83.2679 162.803 82.7068 162.348 82.2566C161.892 81.8063 161.325 81.4828 160.704 81.3187C160.082 81.1545 159.428 81.1555 158.807 81.3216C158.185 81.4877 157.619 81.8129 157.166 82.2646L157.093 82.3371L157.013 82.4217C156.295 83.2688 155.781 84.2658 155.507 85.3379C155.233 86.41 155.208 87.5296 155.433 88.6127C155.433 88.7214 155.5 88.8241 155.537 88.9267C155.853 89.7719 156.475 90.4702 157.282 90.8857C158.09 91.3011 159.025 91.4037 159.905 91.1736C160.538 91.0008 161.117 90.6726 161.588 90.2193C162.364 89.3712 162.926 88.3534 163.228 87.249C163.53 86.1446 163.564 84.985 163.327 83.8652C163.318 83.8733 163.308 83.8795 163.296 83.8833Z" fill="#455A64"/>
<path d="M159.6 82.929C158.827 83.779 158.268 84.7971 157.967 85.9011C157.666 87.0051 157.632 88.1637 157.868 89.2831C158.417 91.3065 160.07 91.7535 161.57 90.2737C162.343 89.4238 162.903 88.4058 163.205 87.302C163.507 86.1982 163.543 85.0395 163.309 83.9196C162.76 81.8902 161.107 81.4492 159.6 82.929Z" fill="#37474F"/>
<path d="M152.256 91.053C151.945 90.0504 149.993 88.782 148.785 88.1357C148.309 87.9227 147.885 87.6091 147.543 87.2168C147.202 86.8245 146.951 86.363 146.809 85.8646C146.76 85.685 146.755 85.4967 146.792 85.3144C146.829 85.1321 146.908 84.9608 147.022 84.8137C147.306 84.5762 147.617 84.3734 147.95 84.2097L149.267 83.5211C149.767 83.2554 150.243 82.9171 150.725 82.6151C150.841 82.5373 150.966 82.4743 151.097 82.4279C151.165 82.4071 151.236 82.4007 151.307 82.4091C151.377 82.4174 151.445 82.4403 151.506 82.4762C151.982 82.8084 151.921 83.7204 151.726 84.1795C151.496 84.6157 151.188 85.0067 150.817 85.3331C150.48 85.6104 150.219 85.9679 150.06 86.372C149.987 86.7525 150.469 87.0424 150.756 87.1693C151.283 87.4136 151.835 87.6018 152.403 87.731C153.141 87.876 152.037 90.3463 152.256 91.053Z" fill="#FFA8A7"/>
<path d="M134.809 115.171C133.973 110.423 129.77 106.25 123.67 105.609L115.466 105.47C115.466 105.47 113.349 105.821 109.689 106.582C106.029 107.343 104.138 109.052 103.815 111.939C103.601 113.878 103.68 114.959 104.339 118.191L105.144 123.729C105.144 123.729 107.975 131.436 108.194 134.39C108.525 138.315 107.913 142.262 106.407 145.908C117.204 150.607 127.269 152.093 135.632 146.126C136.889 138.92 137.121 128.133 134.809 115.171Z" fill="#FFA8A7"/>
<path d="M137.018 122.503C136.03 111.136 125.983 105.875 125.983 105.875L119.176 104.492L109.574 106.606C109.574 106.606 111.971 118.408 105.17 123.723C105.17 123.723 105.676 125.825 106.841 130.162C108.006 134.499 108.873 140.303 105.322 147.195C105.322 147.195 108.311 150.118 119.651 150.909C130.991 151.701 136.335 146.512 136.335 146.512C136.335 146.512 137.982 133.901 137.018 122.503Z" fill="#40FF67"/>
<path opacity="0.1" d="M117.528 150.728C118.138 149.762 118.748 148.463 118.748 147.618C118.687 146.132 113.13 145.492 112.105 144.906C111.08 144.32 111.446 139.524 111.068 135.658C110.69 131.793 108.25 125.39 107.042 122.31L107.31 121.495C106.717 122.339 106.002 123.092 105.188 123.729C105.188 123.729 105.694 125.831 106.859 130.168C108.024 134.505 108.89 140.309 105.34 147.201C105.322 147.201 107.969 149.75 117.528 150.728Z" fill="black"/>
<path d="M109.573 106.612C109.573 106.612 104.895 105.404 101.808 107.216C99.2705 108.702 97.8919 110.496 96.7024 114.083C94.6994 115.643 92.9022 117.444 91.3527 119.447C88.5467 123.246 86.4727 127.679 84.905 130.114C84.051 131.43 82.9164 132.693 83.2092 134.589C83.3251 135.326 83.8192 135.749 84.6793 136.564L93.2803 134.191C95.8057 131.461 101.412 127.547 104.87 123.119L105.169 123.723C106.644 122.813 107.876 121.567 108.765 120.088C109.653 118.61 110.171 116.942 110.275 115.225C110.684 108.213 109.573 106.612 109.573 106.612Z" fill="#FFA8A7"/>
<path d="M83.7285 135.586C84.6801 136.546 86.2234 138.751 89.2185 141.288C91.4938 143.22 96.4897 146.12 98.3685 147.189C100.955 148.663 101.937 149.387 103.932 150.565C105.438 151.447 108.763 153.15 111.929 153.168C113.759 153.168 116.059 152.015 117.474 149.285C118.2 147.889 115.918 146.995 112.85 146.506C109.019 145.902 108.275 145.081 107.329 144.586C106.719 144.247 106.719 143.831 106.957 143.154C107.13 142.673 107.259 142.178 107.342 141.674C107.195 141.572 106.457 141.674 105.609 142.339C104.584 143.154 103.724 143.353 101.29 140.883C98.7711 138.322 97.7463 135.803 94.4523 133.031C91.1583 130.259 83.7285 135.586 83.7285 135.586Z" fill="#FFA8A7"/>
<path d="M106.963 121.283C107.024 120.365 107.012 119.924 107.012 119.924C106.357 121.021 105.642 122.081 104.871 123.101L105.17 123.705C105.837 123.31 106.452 122.833 107 122.286C106.952 121.954 106.939 121.618 106.963 121.283Z" fill="#F28F8F"/>
<path d="M94.44 133.019C93.6778 132.614 92.8407 132.365 91.979 132.288C91.1173 132.212 90.2488 132.308 89.4258 132.572C89.4258 132.572 91.5181 130.5 95.5624 132.01L94.44 133.019Z" fill="#F28F8F"/>
<path d="M112.563 81.1233C111.939 81.297 111.371 81.6265 110.912 82.0803C110.454 82.534 110.121 83.0967 109.946 83.7145C109.488 85.2063 109.751 88.027 110.696 91.7235C111.29 94.1627 112.185 96.5201 113.362 98.742C113.728 99.3708 114.324 99.8359 115.027 100.041L114.893 95.6555L114.71 92.5933C114.71 92.5933 116.68 89.8994 116.882 87.7009C117.144 84.8741 116.534 83.7205 116.534 83.7205L112.563 81.1233Z" fill="#37474F"/>
<path d="M112.763 82.1017L109.469 81.4312C109.562 80.9802 109.825 80.5813 110.205 80.3154C110.584 80.0496 111.052 79.9367 111.512 79.9998C111.734 80.0553 111.943 80.154 112.127 80.29C112.31 80.426 112.464 80.5967 112.581 80.7922C112.697 80.9877 112.773 81.2041 112.804 81.4289C112.835 81.6537 112.821 81.8823 112.763 82.1017Z" fill="#37474F"/>
<path d="M112.848 81.2621L110.408 79.0092C110.716 78.6622 111.15 78.4488 111.615 78.4149C112.081 78.381 112.541 78.5294 112.897 78.828C113.057 78.9898 113.184 79.1817 113.268 79.3924C113.353 79.6032 113.394 79.8285 113.39 80.0552C113.385 80.2819 113.335 80.5055 113.242 80.7127C113.149 80.92 113.015 81.1068 112.848 81.2621Z" fill="#37474F"/>
<path d="M119.473 86.3298C119.486 87.7417 119.922 89.118 120.725 90.2847C121.529 91.4513 122.663 92.3559 123.986 92.8841C125.308 93.4122 126.759 93.5402 128.155 93.2519C129.551 92.9635 130.83 92.2718 131.828 91.2641C132.827 90.2564 133.502 88.9781 133.767 87.5907C134.032 86.2034 133.876 84.7693 133.318 83.4699C132.76 82.1704 131.826 81.064 130.633 80.2904C129.44 79.5169 128.042 79.111 126.616 79.1241C125.669 79.1328 124.733 79.326 123.862 79.6929C122.99 80.0597 122.201 80.5929 121.537 81.262C120.874 81.9311 120.35 82.7231 119.996 83.5926C119.642 84.4621 119.464 85.3922 119.473 86.3298Z" fill="#37474F"/>
<path d="M114.825 92.1041C114.081 92.7503 113.465 91.0954 112.837 90.4551C112.208 89.8149 110.153 88.9512 109.177 91.0591C108.201 93.1671 110.104 96.2535 111.678 96.8575C112.043 97.0196 112.446 97.0816 112.844 97.037C113.242 96.9923 113.621 96.8428 113.941 96.6039L114.002 105.912C115.081 107.995 119.339 110.689 124.195 109.862C126.275 109.511 125.305 106.999 124.195 105.591L124.152 102.161C125.388 102.343 126.639 102.395 127.885 102.318C129.923 101.985 130.972 100.457 131.545 98.2709C132.503 94.7556 132.863 88.8606 131.46 82.0595C129.172 80.3261 121.267 80.6643 116.503 83.6964C116.924 89.7545 115.563 91.4638 114.825 92.1041Z" fill="#FFA8A7"/>
<path d="M132.594 77.2516C132.57 77.192 132.53 77.1399 132.478 77.1006C132.427 77.0613 132.366 77.0363 132.301 77.0281C132.197 77.0388 132.099 77.081 132.021 77.149C131.446 77.6022 130.834 78.0063 130.191 78.3569C130.345 77.5589 130.345 76.739 130.191 75.941C130.099 75.4457 129.947 74.292 129.324 74.1773C128.958 74.1048 128.635 74.4128 128.361 74.6665C125.89 76.9859 122.633 75.9409 119.638 76.0557C117.131 76.1463 114.111 77.1791 112.995 79.5951C112.482 80.7065 112.385 81.8662 113.428 82.6151C114.345 83.2131 115.388 83.5934 116.478 83.7265C121.48 84.554 128.678 86.5472 132.338 81.9145C132.872 81.2238 133.14 80.3673 133.094 79.4985C133.095 78.7346 132.92 77.9807 132.582 77.2939L132.594 77.2516Z" fill="#37474F"/>
<path d="M124.158 102.185C124.158 102.185 119.608 101.321 118.009 100.5C116.942 99.9499 115.508 99.0499 115.246 98.4338C115.304 98.9893 115.48 99.5262 115.763 100.009C116.046 100.492 116.429 100.911 116.887 101.236C119.327 103.048 124.177 103.652 124.177 103.652L124.158 102.185Z" fill="#F28F8F"/>
<path d="M122.914 90.3946C122.92 90.6371 122.829 90.8723 122.661 91.0489C122.493 91.2254 122.262 91.3289 122.017 91.3368C121.77 91.3321 121.535 91.2311 121.362 91.0559C121.19 90.8807 121.094 90.6453 121.096 90.4006C121.096 90.1603 121.192 89.9299 121.364 89.76C121.535 89.5901 121.768 89.4946 122.011 89.4946C122.253 89.4946 122.486 89.5901 122.658 89.76C122.829 89.9299 122.926 90.1603 122.926 90.4006L122.914 90.3946Z" fill="#263238"/>
<path d="M122.409 87.6464L120.384 88.5585C120.266 88.2837 120.26 87.9747 120.367 87.6957C120.474 87.4167 120.685 87.1893 120.957 87.0605C121.091 87.0015 121.235 86.9698 121.382 86.9674C121.528 86.9651 121.673 86.9921 121.809 87.0468C121.945 87.1015 122.068 87.1829 122.171 87.2859C122.274 87.389 122.355 87.5116 122.409 87.6464Z" fill="#263238"/>
<path d="M123.037 96.175L126.697 97.4918C126.619 97.7312 126.494 97.9529 126.328 98.1438C126.163 98.3347 125.96 98.491 125.733 98.6035C125.506 98.716 125.258 98.7825 125.005 98.799C124.751 98.8155 124.497 98.7818 124.257 98.6998C123.762 98.5182 123.358 98.1532 123.131 97.682C122.903 97.2108 122.869 96.6704 123.037 96.175Z" fill="#B16668"/>
<path d="M124.225 98.7057C124.548 98.8208 124.896 98.8438 125.232 98.7721C125.211 98.3224 125.015 97.8981 124.685 97.5884C124.356 97.2786 123.917 97.1076 123.463 97.1111C123.297 97.1153 123.133 97.1418 122.975 97.1897C123.03 97.529 123.174 97.848 123.394 98.1142C123.614 98.3804 123.9 98.5845 124.225 98.7057Z" fill="#F28F8F"/>
<path d="M131.198 88.2445L129.088 87.4895C129.132 87.3514 129.204 87.2235 129.299 87.1135C129.394 87.0035 129.51 86.9137 129.641 86.8494C129.772 86.7851 129.915 86.7476 130.061 86.7393C130.207 86.731 130.353 86.752 130.491 86.801C130.772 86.9073 131.002 87.1158 131.133 87.384C131.265 87.6522 131.288 87.9599 131.198 88.2445Z" fill="#263238"/>
<path d="M130.727 90.1289C130.721 90.305 130.663 90.4754 130.561 90.6191C130.458 90.7629 130.314 90.8735 130.149 90.9374C129.983 91.0012 129.802 91.0155 129.628 90.9784C129.454 90.9413 129.295 90.8545 129.17 90.7287C129.046 90.6029 128.961 90.4437 128.927 90.2708C128.893 90.0978 128.911 89.9188 128.979 89.7559C129.046 89.593 129.161 89.4534 129.308 89.3544C129.455 89.2553 129.628 89.2012 129.806 89.1987C130.053 89.2019 130.288 89.3015 130.461 89.4758C130.633 89.65 130.729 89.8848 130.727 90.1289Z" fill="#263238"/>
<path d="M125.738 89.1262L126.299 94.834L129.349 93.8072L125.738 89.1262Z" fill="#F28F8F"/>
<path d="M288.695 213.846L173.667 279.537L115.266 246.335L230.293 180.644L288.695 213.846Z" fill="#40FF67"/>
<path opacity="0.7" d="M288.695 213.846L173.667 279.537L115.266 246.335L230.293 180.644L288.695 213.846Z" fill="white"/>
<path d="M288.696 213.846V215.459L173.668 281.15V279.537L288.696 213.846Z" fill="#40FF67"/>
<path opacity="0.5" d="M288.696 213.846V215.459L173.668 281.15V279.537L288.696 213.846Z" fill="white"/>
<path d="M173.667 279.537L115.266 246.335V247.948L173.667 281.15V279.537Z" fill="#40FF67"/>
<path opacity="0.4" d="M173.667 279.537L115.266 246.335V247.948L173.667 281.15V279.537Z" fill="white"/>
<path opacity="0.1" d="M181.353 265.452L180.054 264.709C179.17 264.202 179.17 263.386 180.054 262.897L182.958 261.236L173.893 256.048L170.989 257.709C170.492 257.956 169.944 258.084 169.388 258.084C168.832 258.084 168.284 257.956 167.787 257.709L166.488 256.96C165.603 256.458 165.603 255.637 166.488 255.148L175.296 250.056C175.791 249.806 176.339 249.675 176.894 249.675C177.45 249.675 177.998 249.806 178.492 250.056L179.798 250.799C180.682 251.306 180.682 252.122 179.798 252.611L176.589 254.423L185.654 259.611L188.862 257.799C189.358 257.552 189.905 257.423 190.461 257.423C191.016 257.423 191.563 257.552 192.059 257.799L193.364 258.548C194.249 259.05 194.249 259.871 193.364 260.36L184.556 265.392C184.065 265.651 183.519 265.792 182.962 265.803C182.405 265.813 181.854 265.693 181.353 265.452Z" fill="black"/>
<path d="M176.901 247.857C176.901 247.857 176.901 247.857 176.901 247.827C176.901 247.031 176.688 246.249 176.284 245.56C175.88 244.871 175.299 244.3 174.601 243.905C173.902 243.511 173.11 243.306 172.306 243.311C171.502 243.317 170.713 243.533 170.02 243.937H169.99L169.88 244.01C169.837 244.033 169.796 244.059 169.758 244.088C168.615 244.88 167.669 245.918 166.99 247.124C166.312 248.331 165.919 249.674 165.842 251.053V251.101C165.842 251.24 165.842 251.379 165.842 251.512C165.899 252.152 166.095 252.773 166.415 253.332C166.735 253.891 167.173 254.376 167.698 254.754C168.224 255.132 168.825 255.393 169.461 255.522C170.097 255.65 170.754 255.642 171.387 255.498C171.86 255.407 172.314 255.235 172.729 254.991C173.937 254.213 174.942 253.163 175.663 251.928C176.383 250.693 176.799 249.306 176.877 247.882C176.877 247.882 176.901 247.87 176.901 247.857Z" fill="#455A64"/>
<path d="M172.734 245.532C171.526 246.31 170.521 247.359 169.8 248.595C169.079 249.83 168.663 251.216 168.586 252.641C168.586 255.262 170.446 256.325 172.734 255.015C173.942 254.237 174.947 253.188 175.668 251.952C176.389 250.717 176.805 249.33 176.882 247.906C176.9 245.284 175.021 244.221 172.734 245.532Z" fill="#37474F"/>
<path d="M185.349 254.399H185.318L174.655 248.244C174.438 248.13 174.193 248.079 173.948 248.097C173.703 248.115 173.468 248.202 173.271 248.347C172.714 248.706 172.25 249.19 171.917 249.76C171.585 250.33 171.392 250.969 171.355 251.626C171.337 251.864 171.385 252.101 171.492 252.314C171.599 252.526 171.763 252.706 171.965 252.834L182.628 258.953C182.845 259.06 183.089 259.107 183.331 259.086C183.573 259.066 183.804 258.98 184.001 258.838C184.557 258.479 185.019 257.994 185.351 257.424C185.683 256.854 185.874 256.215 185.91 255.558C185.921 255.334 185.875 255.111 185.777 254.908C185.679 254.706 185.532 254.531 185.349 254.399Z" fill="#263238"/>
<path d="M182.061 257.793C182.061 259.001 182.915 259.49 183.97 258.886C184.526 258.527 184.989 258.042 185.32 257.472C185.652 256.903 185.844 256.263 185.879 255.607C185.879 254.399 185.025 253.909 183.97 254.513C183.414 254.873 182.951 255.358 182.619 255.927C182.288 256.497 182.096 257.136 182.061 257.793Z" fill="#455A64"/>
<path d="M190.698 255.758C190.699 255.164 190.581 254.576 190.352 254.027C190.123 253.478 189.787 252.979 189.363 252.559C188.94 252.139 188.436 251.806 187.882 251.578C187.328 251.351 186.735 251.234 186.135 251.234C185.323 251.226 184.525 251.434 183.823 251.838H183.793L183.683 251.904L183.555 251.983C182.413 252.775 181.468 253.813 180.791 255.02C180.114 256.226 179.722 257.569 179.645 258.947V259.001C179.645 259.134 179.645 259.273 179.645 259.412C179.703 260.053 179.899 260.673 180.22 261.233C180.541 261.792 180.979 262.277 181.505 262.654C182.031 263.032 182.632 263.294 183.269 263.422C183.905 263.551 184.562 263.542 185.196 263.398C185.67 263.31 186.124 263.138 186.538 262.891C187.745 262.113 188.751 261.064 189.471 259.828C190.192 258.593 190.608 257.207 190.686 255.782C190.686 255.782 190.698 255.776 190.698 255.758Z" fill="#455A64"/>
<path d="M186.556 253.432C185.348 254.211 184.342 255.261 183.621 256.498C182.9 257.734 182.485 259.122 182.408 260.548C182.408 263.163 184.238 264.226 186.556 262.915C187.764 262.137 188.769 261.088 189.49 259.853C190.211 258.617 190.627 257.231 190.704 255.806C190.704 253.185 188.844 252.128 186.556 253.432Z" fill="#37474F"/>
<path d="M104.809 234.255C104.497 233.141 104.074 232.061 103.547 231.03C103.492 230.909 103.431 230.794 103.376 230.674C102.871 229.708 102.615 228.634 102.63 227.546C102.645 226.459 102.93 225.392 103.461 224.44C103.504 224.374 103.541 224.307 103.577 224.241C104.231 223.127 104.569 221.858 104.553 220.569C104.512 219.863 104.298 219.178 103.929 218.573C103.56 217.968 103.048 217.461 102.437 217.096C102.121 216.916 101.793 216.758 101.454 216.625C101.141 216.503 100.872 216.292 100.681 216.017C100.491 215.742 100.388 215.417 100.387 215.084V213.212H94.2442V215.115C94.239 215.448 94.1334 215.772 93.9411 216.045C93.7487 216.318 93.4783 216.528 93.1645 216.649C92.8229 216.777 92.4924 216.932 92.1763 217.114C91.5623 217.473 91.0462 217.976 90.673 218.578C90.2999 219.18 90.0809 219.864 90.0352 220.569C90.007 221.857 90.3339 223.129 90.9807 224.247L91.0844 224.434C91.6109 225.392 91.8913 226.463 91.9009 227.553C91.9104 228.643 91.6489 229.719 91.1393 230.686C91.0783 230.8 91.0173 230.915 90.9624 231.036C90.4233 232.063 89.992 233.141 89.6753 234.255C89.4544 235.332 89.3542 236.43 89.3764 237.529L89.3398 246.384C89.3398 247.531 90.0962 248.685 91.6212 249.561C92.9894 250.304 94.5049 250.743 96.062 250.847C96.8009 250.908 97.5436 250.908 98.2824 250.847C99.8308 250.753 101.34 250.326 102.705 249.597C104.242 248.733 105.011 247.586 105.017 246.438V240.036C105.017 239.238 105.053 238.405 105.053 237.571C105.097 236.46 105.015 235.348 104.809 234.255Z" fill="#455A64"/>
<path d="M103.462 224.44C103.504 224.374 103.541 224.307 103.577 224.241C104.135 223.292 104.461 222.227 104.529 221.13C104.379 221.574 104.174 221.999 103.919 222.393C103.161 223.489 102.225 224.455 101.15 225.25C100.094 226.101 98.9232 227.062 98.7951 228.409C98.667 229.756 99.5942 230.885 100.625 231.67C101.656 232.455 102.906 233.005 103.846 233.911C104.252 234.312 104.612 234.755 104.919 235.234C104.877 234.902 104.828 234.575 104.761 234.255C104.449 233.141 104.026 232.061 103.498 231.03C103.443 230.909 103.382 230.794 103.327 230.674C102.83 229.704 102.582 228.628 102.605 227.54C102.629 226.453 102.923 225.388 103.462 224.44Z" fill="#37474F"/>
<path d="M93.2129 215.284V216.304C93.2456 216.669 93.3758 217.019 93.5903 217.317C93.8047 217.615 94.0956 217.852 94.4329 218.002C95.3482 218.46 96.3596 218.699 97.3853 218.699C98.4111 218.699 99.4225 218.46 100.338 218.002C100.699 217.81 101.014 217.542 101.259 217.216C101.451 216.957 101.558 216.644 101.564 216.322V215.284C101.566 215.19 101.556 215.097 101.533 215.006C101.451 214.699 101.302 214.413 101.098 214.168C100.894 213.923 100.639 213.725 100.35 213.586L100.289 213.556C99.3819 213.106 98.3814 212.872 97.367 212.872C96.3526 212.872 95.3522 213.106 94.4451 213.556C94.1516 213.689 93.8906 213.882 93.68 214.124C93.4694 214.366 93.3142 214.65 93.2251 214.957C93.2062 215.065 93.2021 215.175 93.2129 215.284Z" fill="#40FF67"/>
<path opacity="0.1" d="M93.2129 215.284V216.304C93.2456 216.669 93.3758 217.019 93.5903 217.317C93.8047 217.615 94.0956 217.852 94.4329 218.002C95.3482 218.46 96.3596 218.699 97.3853 218.699C98.4111 218.699 99.4225 218.46 100.338 218.002C100.699 217.81 101.014 217.542 101.259 217.216C101.451 216.957 101.558 216.644 101.564 216.322V215.284C101.566 215.19 101.556 215.097 101.533 215.006C101.451 214.699 101.302 214.413 101.098 214.168C100.894 213.923 100.639 213.725 100.35 213.586L100.289 213.556C99.3819 213.106 98.3814 212.872 97.367 212.872C96.3526 212.872 95.3522 213.106 94.4451 213.556C94.1516 213.689 93.8906 213.882 93.68 214.124C93.4694 214.366 93.3142 214.65 93.2251 214.957C93.2062 215.065 93.2021 215.175 93.2129 215.284Z" fill="black"/>
<path opacity="0.2" d="M100.332 216.987C101.961 216.063 101.967 214.571 100.332 213.611C99.4176 213.151 98.406 212.911 97.38 212.911C96.354 212.911 95.3424 213.151 94.4276 213.611C92.7928 214.535 92.7867 216.027 94.4276 216.981C95.342 217.442 96.3533 217.683 97.3793 217.684C98.4053 217.685 99.4171 217.446 100.332 216.987Z" fill="black"/>
<path d="M93.2131 214.088V214.692C93.2114 214.789 93.2216 214.887 93.2436 214.982C93.3285 215.287 93.4779 215.571 93.6819 215.814C93.8859 216.058 94.1399 216.256 94.427 216.395C95.2304 216.825 96.1246 217.063 97.0378 217.09C98.1779 217.171 99.3184 216.937 100.332 216.413C100.695 216.222 101.012 215.954 101.259 215.628C101.392 215.448 101.485 215.242 101.533 215.024C101.556 214.931 101.566 214.836 101.564 214.74V214.106C101.532 213.742 101.401 213.393 101.187 213.096C100.972 212.798 100.681 212.563 100.344 212.415C100.271 212.372 100.198 212.33 100.118 212.294C99.225 211.887 98.2507 211.684 97.2676 211.701C96.2845 211.718 95.3178 211.954 94.4392 212.391C94.1007 212.54 93.8085 212.776 93.593 213.074C93.3774 213.372 93.2463 213.722 93.2131 214.088Z" fill="#40FF67"/>
<path opacity="0.1" d="M93.2131 214.088V214.692C93.2114 214.789 93.2216 214.887 93.2436 214.982C93.3285 215.287 93.4779 215.571 93.6819 215.814C93.8859 216.058 94.1399 216.256 94.427 216.395C95.2304 216.825 96.1246 217.063 97.0378 217.09C98.1779 217.171 99.3184 216.937 100.332 216.413C100.695 216.222 101.012 215.954 101.259 215.628C101.392 215.448 101.485 215.242 101.533 215.024C101.556 214.931 101.566 214.836 101.564 214.74V214.106C101.532 213.742 101.401 213.393 101.187 213.096C100.972 212.798 100.681 212.563 100.344 212.415C100.271 212.372 100.198 212.33 100.118 212.294C99.225 211.887 98.2507 211.684 97.2676 211.701C96.2845 211.718 95.3178 211.954 94.4392 212.391C94.1007 212.54 93.8085 212.776 93.593 213.074C93.3774 213.372 93.2463 213.722 93.2131 214.088Z" fill="black"/>
<path d="M93.2129 214.07C93.2129 215.38 95.0734 216.449 97.3792 216.486C99.685 216.522 101.558 215.435 101.564 214.124C101.57 212.813 99.7033 211.744 97.3975 211.708C95.0917 211.672 93.219 212.759 93.2129 214.07Z" fill="#40FF67"/>
<path d="M95.9515 211.629V213.774C95.9485 213.806 95.9485 213.838 95.9515 213.87C95.9818 213.976 96.0344 214.075 96.1059 214.159C96.1774 214.243 96.2662 214.312 96.3663 214.36C96.6432 214.511 96.9529 214.594 97.2691 214.601C97.6643 214.632 98.0602 214.551 98.4098 214.366C98.5359 214.301 98.6446 214.208 98.727 214.094C98.7754 214.032 98.8088 213.959 98.8246 213.882C98.8276 213.85 98.8276 213.818 98.8246 213.786V211.642C98.8157 211.513 98.7719 211.389 98.6979 211.282C98.6238 211.176 98.5222 211.091 98.4037 211.038L98.3305 211.001C98.0208 210.86 97.6829 210.789 97.3419 210.794C97.0008 210.799 96.6653 210.881 96.3602 211.031C96.2445 211.086 96.1456 211.17 96.0737 211.275C96.0019 211.381 95.9597 211.503 95.9515 211.629Z" fill="#40FF67"/>
<path opacity="0.1" d="M95.9515 211.629V213.774C95.9485 213.806 95.9485 213.838 95.9515 213.87C95.9818 213.976 96.0344 214.075 96.1059 214.159C96.1774 214.243 96.2662 214.312 96.3663 214.36C96.6432 214.511 96.9529 214.594 97.2691 214.601C97.6643 214.632 98.0602 214.551 98.4098 214.366C98.5359 214.301 98.6446 214.208 98.727 214.094C98.7754 214.032 98.8088 213.959 98.8246 213.882C98.8276 213.85 98.8276 213.818 98.8246 213.786V211.642C98.8157 211.513 98.7719 211.389 98.6979 211.282C98.6238 211.176 98.5222 211.091 98.4037 211.038L98.3305 211.001C98.0208 210.86 97.6829 210.789 97.3419 210.794C97.0008 210.799 96.6653 210.881 96.3602 211.031C96.2445 211.086 96.1456 211.17 96.0737 211.275C96.0019 211.381 95.9597 211.503 95.9515 211.629Z" fill="black"/>
<path d="M95.9531 211.623C95.9531 212.076 96.5997 212.451 97.3988 212.451C98.1979 212.451 98.8445 212.088 98.8445 211.635C98.8445 211.182 98.2345 210.808 97.4049 210.808C96.5753 210.808 95.9531 211.17 95.9531 211.623Z" fill="#40FF67"/>
<path d="M96.8848 211.63C96.8848 211.787 97.1105 211.919 97.3972 211.919C97.6839 211.919 97.9096 211.793 97.9096 211.63C97.9096 211.466 97.6839 211.34 97.3972 211.34C97.1105 211.34 96.8848 211.466 96.8848 211.63Z" fill="#40FF67"/>
<path opacity="0.3" d="M96.8848 211.63C96.8848 211.787 97.1105 211.919 97.3972 211.919C97.6839 211.919 97.9096 211.793 97.9096 211.63C97.9096 211.466 97.6839 211.34 97.3972 211.34C97.1105 211.34 96.8848 211.466 96.8848 211.63Z" fill="black"/>
<path opacity="0.1" d="M246.824 204.962C246.41 206.574 246.605 208.296 246.135 209.89C245.458 212.173 243.506 213.871 241.414 215.036C233.099 219.663 222.571 217.452 213.488 220.345C210.676 221.245 207.723 223.015 207.174 225.89C206.778 227.956 207.784 230.118 209.346 231.538C210.969 232.903 212.871 233.905 214.921 234.473C223.016 237.118 231.751 236.847 240.182 235.56C249.13 234.189 257.567 229.128 260.702 226.766C265.582 223.112 269.144 217.193 268.284 211.213C267.497 205.777 262.361 201.754 257.347 199.918C253.376 198.462 247.904 200.788 246.824 204.962Z" fill="black"/>
<path d="M254.102 92.1523C256.273 90.7933 260.427 89.7363 263.959 90.9443C270.059 88.8605 273.109 89.241 277.989 89.235C279.081 89.235 282.637 88.8907 283.308 89.5007C283.821 89.9598 283.973 90.5034 284.217 91.5785L282.046 97.3044C278.276 98.0413 276.104 98.9533 270.7 99.7989C266.43 100.469 263.721 100.874 263.252 102.873C259.463 99.9875 256.344 96.3318 254.102 92.1523Z" fill="#FFA8A7"/>
<path d="M286.09 95.1843C286.809 94.2964 286.828 93.2092 286.748 91.7838C286.614 89.5006 285.772 85.1398 285.425 83.1949C284.876 80.048 284.254 78.1515 283.802 75.6388C283.32 72.945 283.607 71.5316 282.631 69.3995C281.74 67.4546 275.775 66.8748 274.542 69.466C273.835 70.9578 276.421 71.7068 276.494 72.8423C276.494 72.8423 274.134 72.1115 274.628 73.549C275.238 75.2764 277.464 75.1738 277.733 77.3844C278.117 80.495 277.733 85.6773 277.733 90.3946C277.733 92.3394 278.721 98.0533 278.721 98.0533C281.13 97.3768 284.479 97.1714 286.09 95.1843Z" fill="#FFA8A7"/>
<path d="M282.289 75.6389L283.198 72.788L275.164 71.272C275.774 71.8095 276.445 72.2927 276.481 72.8726C276.481 72.8726 274.121 72.1417 274.615 73.5793C274.752 73.9576 274.983 74.296 275.286 74.5638C276.069 75.0158 276.884 75.4095 277.726 75.7416C279.184 76.1825 280.294 76.0436 280.843 75.198C280.867 75.1436 282.289 75.6389 282.289 75.6389Z" fill="#9A4A4D"/>
<path d="M277.721 89.1685C279.394 89.1999 280.996 89.8456 282.216 90.9805C282.216 90.9805 281.911 88.7396 277.727 88.0088V89.1201L277.721 89.1685Z" fill="#9A4A4D"/>
<path d="M274.817 68.0769C274.664 67.5077 274.361 66.9886 273.94 66.5722C273.519 66.1558 272.995 65.8567 272.42 65.7054C271.845 65.554 271.24 65.5556 270.666 65.7101C270.091 65.8645 269.569 66.1664 269.15 66.5851C269.126 66.6057 269.104 66.6279 269.083 66.6515L269.01 66.73C268.346 67.5125 267.87 68.4334 267.616 69.4239C267.362 70.4144 267.338 71.4489 267.546 72.4499V72.4801C267.546 72.5828 267.607 72.6794 267.637 72.77C267.928 73.5521 268.503 74.1985 269.25 74.5828C269.997 74.9671 270.862 75.0616 271.675 74.8478C271.916 74.7798 272.149 74.6888 272.371 74.576C272.69 74.425 272.981 74.2207 273.231 73.972C273.946 73.1871 274.463 72.2465 274.742 71.2265C275.021 70.2064 275.053 69.1357 274.835 68.1011L274.817 68.0769Z" fill="#455A64"/>
<path d="M271.407 67.1951C270.689 67.9814 270.169 68.9251 269.89 69.9487C269.611 70.9723 269.581 72.0468 269.803 73.0841C270.309 74.9565 271.84 75.3672 273.225 74.0022C273.939 73.2173 274.457 72.2767 274.736 71.2567C275.015 70.2366 275.047 69.1659 274.829 68.1313C274.323 66.2348 272.792 65.8361 271.407 67.1951Z" fill="#37474F"/>
<path d="M284.564 72.2263H284.533L272.943 69.0372C272.796 69.003 272.641 69.011 272.497 69.0602C272.354 69.1093 272.227 69.1977 272.132 69.3151C271.858 69.6159 271.659 69.9771 271.553 70.3688C271.447 70.7604 271.436 71.1714 271.522 71.568C271.544 71.7146 271.606 71.8524 271.702 71.9664C271.798 72.0803 271.923 72.1661 272.065 72.2143L283.655 75.4034C283.802 75.4324 283.954 75.4213 284.094 75.3713C284.235 75.3212 284.36 75.2342 284.454 75.1195C284.729 74.8174 284.927 74.4552 285.033 74.0626C285.139 73.6699 285.15 73.258 285.064 72.8605C285.043 72.7212 284.985 72.5897 284.898 72.4786C284.81 72.3676 284.695 72.2807 284.564 72.2263Z" fill="#263238"/>
<path d="M283.149 74.7633C283.155 74.9131 283.209 75.0571 283.304 75.1744C283.398 75.2917 283.527 75.3764 283.673 75.416C283.819 75.4557 283.974 75.4484 284.116 75.3951C284.257 75.3418 284.378 75.2454 284.461 75.1197C284.735 74.8176 284.934 74.4554 285.04 74.0628C285.146 73.6701 285.156 73.2582 285.071 72.8607C284.875 72.142 284.29 71.9849 283.759 72.5104C283.485 72.8113 283.286 73.1724 283.18 73.5641C283.074 73.9558 283.063 74.3668 283.149 74.7633Z" fill="#455A64"/>
<path d="M282.912 70.3178C282.381 68.7776 282.558 68.4575 281.265 68.1796C279.972 67.9018 279.966 66.8388 278.679 66.9716C277.392 67.1045 276.422 67.5756 275.848 67.3763C275.275 67.177 274.128 67.8233 273.597 68.6749C273.156 69.6023 273.001 70.6383 273.152 71.6526C273.225 72.5164 274.146 73.5432 275.921 74.2619C277.697 74.9807 280.277 76.0739 280.838 74.6062L280.106 74.4069C279.859 73.8515 279.824 73.2259 280.008 72.6469C280.192 72.0679 280.582 71.575 281.106 71.26L282.009 71.5077L282.912 70.3178Z" fill="#FFA8A7"/>
<path d="M288.578 71.8278C288.346 70.9709 287.781 70.2402 287.005 69.7963C286.23 69.3523 285.308 69.2314 284.442 69.4601C283.861 69.6118 283.332 69.9165 282.911 70.3419L282.85 70.4144L282.771 70.4929C282.106 71.2747 281.63 72.1959 281.377 73.1867C281.125 74.1776 281.103 75.2123 281.313 76.2128V76.249C281.343 76.3457 281.374 76.4423 281.411 76.539C281.701 77.321 282.277 77.9675 283.023 78.3518C283.77 78.7361 284.635 78.8305 285.449 78.6167C285.689 78.5529 285.923 78.4638 286.144 78.351C286.464 78.1982 286.757 77.9941 287.01 77.747C287.722 76.9607 288.236 76.0191 288.511 74.9989C288.785 73.9787 288.812 72.9087 288.59 71.8761C288.591 71.8591 288.587 71.8423 288.578 71.8278Z" fill="#455A64"/>
<path d="M285.169 70.9459C284.456 71.7313 283.939 72.6722 283.662 73.6922C283.384 74.7122 283.353 75.7827 283.571 76.8168C284.071 78.6892 285.603 79.0999 286.993 77.7288C287.705 76.9462 288.221 76.0084 288.499 74.9915C288.776 73.9747 288.808 72.9074 288.592 71.8761C288.091 69.9916 286.56 69.5809 285.169 70.9459Z" fill="#37474F"/>
<path d="M213.274 226.077C213.072 226.144 213.042 227.285 213.225 227.678C213.408 228.07 214.695 229.49 217.287 229.991C219.88 230.492 223.448 229.991 224.979 229.9C226.511 229.81 231.33 230.39 232.861 230.595C235.264 230.915 237.131 230.396 238.015 229.532C238.161 229.359 238.268 229.158 238.33 228.942C238.392 228.725 238.408 228.498 238.375 228.276C238.332 227.267 238.241 227.068 238.119 227.068L213.274 226.077Z" fill="#37474F"/>
<path d="M237.722 224.084C237.771 224.285 237.814 224.487 237.85 224.688C238.083 225.702 238.159 226.744 238.076 227.781C237.885 228.125 237.624 228.426 237.309 228.664C236.994 228.902 236.632 229.072 236.246 229.164C234.416 229.731 233.05 229.641 231.043 229.266C229.024 228.972 226.983 228.847 224.943 228.892C223.174 229.104 221.392 229.193 219.611 229.158C218.268 229.098 216.942 228.829 215.683 228.36C214.628 227.913 213.554 227.346 213.298 226.271C213.224 225.552 213.374 224.827 213.728 224.195C214.083 223.564 214.625 223.055 215.28 222.737C217.214 221.614 219.684 221.596 221.862 221.529C223.613 221.475 225.431 221.433 226.986 220.635C227.757 220.137 228.557 219.685 229.383 219.282C229.986 219.163 230.603 219.135 231.213 219.198C232.574 219.168 233.934 219.137 235.288 219.125C235.66 219.125 236.032 219.125 236.398 219.125C237.13 219.186 237.265 221.692 237.35 222.175C237.423 222.562 237.435 222.967 237.539 223.341C237.594 223.589 237.661 223.836 237.722 224.084Z" fill="#455A64"/>
<path d="M225.699 221.124C224.826 221.818 224.245 222.808 224.071 223.903C224.107 224.664 222.759 224.73 222.723 223.969C222.723 223.969 222.845 222.248 223.9 221.426C224.452 221.138 225.082 221.033 225.699 221.124Z" fill="#FAFAFA"/>
<path d="M222.576 221.505C222.576 221.505 221.533 222.049 221.264 223.921C221.264 224.483 220.044 224.434 220.087 223.873C220.087 223.873 220.27 222.254 221.161 221.523C221.533 221.288 222.454 221.282 222.576 221.505Z" fill="#FAFAFA"/>
<path d="M250.153 203.137C249.696 204.913 249.751 205.68 250.282 207.069C251.038 209.068 252.38 209.987 253.283 210.766C254.305 211.663 255.2 212.693 255.942 213.828C256.678 215.071 257.616 216.185 258.718 217.126C259.578 217.833 261.957 217.851 263.098 217.349C264.238 216.848 264.61 216.413 264.507 214.601C264.403 212.789 258.828 212.276 258.828 212.276L250.153 203.137Z" fill="#37474F"/>
<path d="M263.641 209.244C264.11 209.413 264.251 210.301 264.354 212.065C264.44 213.399 265.044 215.35 263.201 216.226C261.713 216.939 259.31 216.534 258.267 215.29C256.973 213.744 256.089 212.379 254.241 210.494C252.642 208.857 251.001 208.332 250.233 205.016C249.745 202.884 250.672 201.996 252.112 201.392C254.094 200.51 256.845 202.6 258.279 203.578C259.438 204.339 263.165 209.081 263.641 209.244Z" fill="#455A64"/>
<path d="M258.279 203.482L258.011 203.397C257.103 203.467 256.231 203.774 255.481 204.285C254.731 204.796 254.131 205.494 253.741 206.308C253.479 206.912 254.32 207.341 254.802 206.876C255.221 206.085 255.829 205.407 256.574 204.901C257.318 204.396 258.176 204.079 259.072 203.977C258.845 203.76 258.575 203.592 258.279 203.482Z" fill="#FAFAFA"/>
<path d="M259.603 204.472C258.743 204.579 257.924 204.898 257.222 205.402C256.52 205.906 255.958 206.577 255.589 207.353C255.333 207.957 256.168 208.386 256.65 207.921C257.004 207.229 257.507 206.623 258.125 206.147C258.743 205.671 259.46 205.336 260.225 205.167C260.03 204.919 259.81 204.678 259.603 204.472Z" fill="#FAFAFA"/>
<path d="M263.196 170.165C262.885 163.666 263.598 152.28 263.525 144.284C265.605 137.247 264.135 134.281 262.305 130.808C260.958 128.156 259.425 125.601 257.718 123.162L253.448 140.974L246.598 148.185C246.598 148.185 250.679 169.138 251.685 173.656C252.539 177.497 257.175 209.54 257.175 209.54C257.608 211.63 262.519 211.895 263.684 210.415C264.013 203.306 265.325 183.084 265.343 180.819C265.41 174.181 263.196 170.165 263.196 170.165Z" fill="#FFA8A7"/>
<path d="M233.397 138.231C233.397 138.231 230.683 176.73 230.683 184.371C230.683 187.294 229.072 220.388 229.072 220.388C229.072 221.251 229.884 221.891 231.89 221.807C234.751 221.68 236.374 221.155 236.49 220.599C236.575 220.206 240.961 202.05 242.096 196.119C242.931 191.696 243.092 187.174 242.572 182.704C244.188 174.188 247.452 155.627 248.214 149.532C248.879 144.32 233.397 138.231 233.397 138.231Z" fill="#FFA8A7"/>
<path d="M234.355 124.351C232.971 132.644 232.72 135.223 231.702 145.854C230.909 154.129 230.421 178.047 230.384 181.387C230.348 184.727 229.707 205.36 229.707 205.36C229.707 205.36 236.008 207.71 240.016 205.964C240.016 205.964 241.791 198.776 242.56 195.515C243.639 190.936 243.615 187.711 243.09 182.559L247.665 154.413C247.665 154.413 251.325 174.634 252.411 180.385C253.497 186.135 254.552 191.722 254.552 191.722C256.265 192.338 258.081 192.623 259.902 192.561C261.751 192.488 263.528 191.834 264.977 190.695C264.977 190.695 265.514 183.072 265.532 180.493C265.563 176.38 265.197 174.332 263.434 170.05L264.013 144.265C264.013 144.265 265.911 139.681 264.623 135.205C262.989 129.606 258.005 121.187 258.005 121.187L234.355 124.351Z" fill="#37474F"/>
<path d="M247.66 154.455L249.49 147.763C249.49 147.763 255.157 147.316 258.17 143.444C257.207 145.256 256.279 147.412 251.168 149.339L249.38 156.17L252.028 178.482L247.66 154.455Z" fill="#263238"/>
<path d="M263.257 99.8655C262.873 97.1656 261.903 93.892 259.28 92.7685C256.657 91.6451 251.93 92.086 251.93 92.086C251.558 93.294 247.05 94.8946 244.793 92.7685C242.621 93.2215 239.955 93.7108 237.034 94.4174C234.716 94.9731 233.374 103.665 231.83 106.497C230.037 109.789 232.318 113.141 234.6 114.893C234.6 114.893 234.539 120.148 234.362 124.382C238.363 127.704 245.836 128.61 251.613 127.118C255.962 125.995 257.67 124.654 258.03 122.981C258.316 121.676 259.085 117.448 259.719 115.171C261.183 109.892 263.77 103.459 263.257 99.8655Z" fill="#FFA8A7"/>
<path d="M259.279 92.7683C256.65 91.6509 251.923 92.0858 251.923 92.0858C251.55 93.2938 247.043 94.8943 244.786 92.7683C242.614 93.2213 239.948 93.7105 237.026 94.4172C234.708 94.9729 232.183 100.518 230.89 106.183C230.06 109.807 232.165 113.02 234.44 114.748C234.44 114.748 234.507 116.282 234.531 118.239C239.052 120.395 245.103 121.44 252.27 120.087C254.678 119.638 256.993 118.795 259.121 117.593C259.267 117.158 259.419 116.469 260.402 113.667C261.384 110.864 263.769 103.459 263.256 99.8653C262.872 97.1654 261.902 93.8917 259.279 92.7683Z" fill="#40FF67"/>
<path d="M237.026 94.4174C233.507 94.1818 229.627 95.2388 228.065 102.088C226.845 103.822 224.93 105.881 223.185 108.521C221.233 111.541 220.135 114.126 218.305 117.43C216.53 120.945 217.323 122.002 219.074 123.615C220.678 125.095 230.475 131.467 231.06 132.204C231.646 132.94 231.06 140.146 232.116 141.173C232.116 141.215 232.116 141.227 232.116 141.173C232.116 140.95 232.317 140.019 232.585 138.86C233.161 137.021 233.982 135.266 235.025 133.641C235.904 132.179 236.709 130.518 236.453 128.809C236.313 127.861 234.946 127.196 234.013 126.303C231.542 123.965 226.858 119.405 226.858 119.405L238.149 106.842C240.101 104.341 241.217 96.7005 237.026 94.4174Z" fill="#FFA8A7"/>
<path opacity="0.1" d="M226.877 119.411C225.901 120.324 224.801 121.096 223.607 121.706C225.014 121.526 226.344 120.966 227.45 120.087L226.877 119.411Z" fill="black"/>
<path d="M235.509 67.2192V67.1769C235.452 66.7625 235.481 66.3409 235.594 65.9379C235.707 65.5349 235.903 65.1591 236.168 64.8334C236.627 64.4461 237.173 64.1728 237.76 64.0361C239.327 63.5469 240.895 63.0576 242.481 62.6288C245.47 61.8194 248.581 61.2215 251.668 61.608C254.754 61.9946 257.804 63.4804 259.451 66.0837C259.778 66.5262 259.999 67.0362 260.098 67.5756C260.128 67.938 259.982 68.2641 260 68.6326C260.055 69.762 260.61 70.8613 260.757 71.9787C260.901 73.1812 260.96 74.3921 260.934 75.6027C260.934 80.6159 249.033 83.3641 249.112 86.8009C247.135 84.2037 245.161 81.6024 243.189 78.9972C243.189 78.6831 242.353 77.8617 242.17 77.5899C241.816 77.0765 241.505 76.5268 241.182 75.9953C240.181 74.3343 238.492 73.4585 237.327 71.9606C236.256 70.5957 235.622 68.9441 235.509 67.2192Z" fill="#263238"/>
<path d="M237.771 75.9712C237.771 75.9712 235.612 78.8644 235.862 79.1905C236.323 79.518 236.839 79.7614 237.387 79.9093L237.771 75.9712Z" fill="#9A4A4D"/>
<path d="M244.384 66.7905C242.371 67.6965 238.894 69.3816 237.674 76.4061C236.454 83.6179 237.998 86.2091 238.974 87.2057C239.632 87.8761 243.158 88.2627 245.031 87.8097C247.367 87.2057 252.479 85.0192 254.986 81.3831C257.945 77.0947 258.774 71.254 255.688 68.8139C251.375 65.359 246.092 66.0234 244.384 66.7905Z" fill="#FFA8A7"/>
<path d="M244.072 87.3929L243.98 93.2094C245.969 95.8066 253.313 95.3657 252.947 92.1766L253.088 86.1003L244.072 87.3929Z" fill="#FFA8A7"/>
<path d="M239.18 87.3385C239.991 87.8278 242.297 88.1237 244.06 87.9425L244.102 86.6318C243.336 86.9216 242.543 87.14 241.736 87.2842C240.892 87.4338 240.029 87.4522 239.18 87.3385Z" fill="#9A4A4D"/>
<path d="M243.53 66.5368C242.684 66.805 241.89 67.2134 241.182 67.7448C240.827 68.013 240.534 68.3527 240.322 68.7414C240.151 69.1055 240.078 69.5068 240.108 69.9071C240.14 70.4521 240.316 70.9791 240.619 71.4351C240.923 71.8911 241.342 72.2599 241.835 72.5043C241.556 72.8521 241.356 73.2561 241.251 73.6879C241.146 74.1198 241.137 74.5692 241.225 75.0049C241.546 76.0222 242.13 76.9385 242.92 77.6625C242.961 77.7103 243.011 77.7493 243.067 77.7772C243.124 77.7869 243.182 77.7843 243.238 77.7697C243.294 77.7552 243.345 77.7289 243.39 77.6927C244.665 76.9256 245.495 75.5485 247.221 76.1887C249.478 77.0343 249.508 79.2449 248.063 81.1415C247.821 81.5196 247.498 81.8399 247.116 82.0791C246.734 82.3183 246.303 82.4705 245.855 82.5247C245.599 82.5569 245.339 82.5312 245.095 82.4496C244.851 82.368 244.629 82.2325 244.445 82.0535C244.445 82.0535 244.635 86.2815 247.788 87.858C247.788 87.858 251.021 88.9995 253.089 87.7915C254.376 85.6292 256.517 84.2461 257.969 82.3555C261.812 77.3363 265.161 68.8743 257.152 65.8905C256.877 65.7878 256.597 65.6912 256.316 65.6066C252.418 64.4266 248.225 64.6404 244.47 66.2106C244.159 66.3073 243.842 66.4401 243.53 66.5368Z" fill="#263238"/>
<path d="M269.009 91.0046C267.849 91.0054 266.7 90.78 265.629 90.3411C264.557 89.9022 263.583 89.2586 262.763 88.4469C261.943 87.6353 261.292 86.6715 260.848 85.6108C260.404 84.55 260.176 83.413 260.176 82.2648V67.9983C262.517 67.9983 264.763 68.9189 266.419 70.5578C268.076 72.1966 269.007 74.4197 269.009 76.7382V91.0046Z" fill="#263238"/>
<path d="M242.664 80.2112C242.455 80.1295 242.264 80.0073 242.102 79.8518C241.941 79.6962 241.813 79.5104 241.725 79.3052C241.637 79.0999 241.591 78.8794 241.59 78.6565C241.589 78.4335 241.633 78.2126 241.719 78.0066C241.899 77.5903 242.237 77.2609 242.661 77.0892C243.084 76.9174 243.558 76.9172 243.982 77.0885L242.664 80.2112Z" fill="#263238"/>
<path d="M259.486 67.7145C259.639 67.8407 259.815 67.9357 260.004 67.9938C260.194 68.0519 260.394 68.0719 260.591 68.0528C260.789 68.0337 260.981 67.9758 261.155 67.8824C261.33 67.7891 261.484 67.6622 261.609 67.5091C261.861 67.1958 261.977 66.7969 261.934 66.399C261.89 66.0011 261.69 65.6361 261.377 65.3831L259.486 67.7145Z" fill="#263238"/>
<path d="M79.1406 67.1588L76.5542 62.3268L78.6343 56.3713V52.7473L72.2598 56.3713V59.9953L74.9987 64.6944C75.0407 64.7688 75.1076 64.8265 75.1878 64.8575L79.1406 67.1588Z" fill="#40FF67"/>
<path opacity="0.2" d="M79.1406 67.1588L76.5542 62.3268L78.6343 56.3713V52.7473L72.2598 56.3713V59.9953L74.9987 64.6944C75.0407 64.7688 75.1076 64.8265 75.1878 64.8575L79.1406 67.1588Z" fill="black"/>
<path d="M91.3717 38.4325C91.3361 37.7765 91.1446 37.1382 90.8129 36.5693C90.4811 36.0005 90.0184 35.5172 89.4624 35.1588L87.9069 34.2649C87.3133 33.9704 86.6585 33.8171 85.9946 33.8171C85.3306 33.8171 84.6758 33.9704 84.0822 34.2649L38.8507 60.2369C38.2946 60.5966 37.8319 61.081 37.5002 61.6508C37.1685 62.2206 36.977 62.8598 36.9414 63.5166V76.5026C36.9775 77.1584 37.1692 77.7966 37.5009 78.3654C37.8326 78.9341 38.2951 79.4175 38.8507 79.7763L40.4062 80.6641C40.9989 80.9618 41.654 81.1169 42.3186 81.1169C42.9831 81.1169 43.6383 80.9618 44.2309 80.6641L76.2498 62.3267L78.9887 67.0198C79.0283 67.0863 79.0863 67.1402 79.1558 67.1752C79.2254 67.2101 79.3035 67.2246 79.3811 67.217C79.4587 67.2094 79.5325 67.18 79.5938 67.1322C79.655 67.0844 79.7012 67.0202 79.7268 66.9473L82.6182 58.6906L89.4502 54.6982C90.0063 54.3385 90.469 53.8541 90.8007 53.2843C91.1324 52.7144 91.3239 52.0752 91.3595 51.4185L91.3717 38.4325Z" fill="#40FF67"/>
<path opacity="0.2" d="M36.9414 76.4844C36.9775 77.1403 37.1692 77.7784 37.5009 78.3472C37.8326 78.916 38.2951 79.3994 38.8507 79.7581L40.4062 80.646C40.9446 80.9151 41.5344 81.0682 42.1369 81.0953C42.7393 81.1223 43.3407 81.0227 43.9015 80.803C43.0048 81.1352 42.3216 80.6339 42.3216 79.5528V66.5728C42.3448 65.9143 42.5357 65.2723 42.8767 64.7064L37.5026 61.6079C37.157 62.1721 36.9637 62.8148 36.9414 63.4743V76.4844Z" fill="black"/>
<path opacity="0.4" d="M91.311 37.8949C91.0853 37.0916 90.3472 36.8379 89.481 37.3392L44.2495 63.3112C43.6833 63.6577 43.2185 64.145 42.9014 64.7246L37.5273 61.6563C37.8422 61.0771 38.3049 60.5898 38.8693 60.2429L84.1008 34.2709C84.6935 33.9732 85.3487 33.8181 86.0132 33.8181C86.6777 33.8181 87.3329 33.9732 87.9255 34.2709L89.481 35.1588C89.9567 35.469 90.3641 35.8713 90.6786 36.3416C90.9931 36.8118 91.2082 37.3402 91.311 37.8949Z" fill="white"/>
<path d="M44.5291 69.7015C44.4819 69.6257 44.4645 69.5354 44.4803 69.4478C44.4935 69.3392 44.5287 69.2345 44.584 69.1398L46.5482 65.7211C46.597 65.6366 46.6519 65.5339 46.7251 65.4252C46.7834 65.3215 46.8674 65.2342 46.9691 65.1715L48.0793 64.5373C48.1031 64.5148 48.1348 64.5022 48.1677 64.5022C48.2007 64.5022 48.2323 64.5148 48.2562 64.5373C48.2834 64.5674 48.3041 64.6029 48.3167 64.6414C48.3293 64.6798 48.3336 64.7205 48.3294 64.7608V73.7543C48.3284 73.8611 48.3034 73.9663 48.2562 74.0624C48.2207 74.1477 48.1587 74.2196 48.0793 74.2677L46.8593 74.9563C46.8352 74.9759 46.805 74.9867 46.7739 74.9867C46.7427 74.9867 46.7125 74.9759 46.6885 74.9563C46.6618 74.9258 46.6416 74.8903 46.629 74.8519C46.6164 74.8135 46.6118 74.773 46.6153 74.7328V68.6445L45.5234 70.5229C45.4882 70.6023 45.4254 70.6666 45.3465 70.7041C45.3171 70.7172 45.2839 70.7189 45.2534 70.7088C45.2229 70.6987 45.1973 70.6776 45.1818 70.6498L44.5291 69.7015Z" fill="#FAFAFA"/>
<path d="M49.4533 71.4531C49.4704 71.3033 49.5095 71.1568 49.5692 71.0182C49.621 70.8786 49.7202 70.7611 49.8498 70.686L50.9722 70.0639C50.9919 70.0477 51.0168 70.0388 51.0424 70.0388C51.068 70.0388 51.0928 70.0477 51.1125 70.0639C51.1352 70.088 51.1524 70.1167 51.163 70.1479C51.1735 70.1792 51.1771 70.2123 51.1735 70.2451C51.1769 70.2792 51.1769 70.3136 51.1735 70.3478L50.4659 73.5248C50.4359 73.6496 50.393 73.7711 50.3378 73.8872C50.287 74.0175 50.1922 74.1264 50.0694 74.1953L49.3862 74.5879C49.3671 74.6053 49.3421 74.6149 49.3161 74.6149C49.2901 74.6149 49.2651 74.6053 49.2459 74.5879C49.2232 74.5638 49.206 74.5351 49.1955 74.5038C49.185 74.4726 49.1814 74.4394 49.1849 74.4067L49.4533 71.4531Z" fill="#FAFAFA"/>
<path d="M57.0646 62.52C57.0645 62.7907 57.0462 63.0611 57.0096 63.3293C56.9687 63.6136 56.9054 63.8943 56.8206 64.1689C56.7274 64.477 56.6111 64.7778 56.4729 65.0689C56.317 65.4106 56.1419 65.7433 55.9483 66.0655L54.6673 68.2519L56.9608 66.9413C56.9847 66.9187 57.0164 66.9062 57.0493 66.9062C57.0822 66.9062 57.1139 66.9187 57.1377 66.9413C57.165 66.9714 57.1856 67.0068 57.1982 67.0453C57.2108 67.0838 57.2152 67.1245 57.2109 67.1647V68.6385C57.21 68.7453 57.185 68.8505 57.1377 68.9465C57.1007 69.0325 57.0392 69.1059 56.9608 69.1579L52.1419 71.9122C52.1174 71.9334 52.0859 71.9451 52.0534 71.9451C52.0209 71.9451 51.9894 71.9334 51.965 71.9122C51.9383 71.8817 51.9181 71.8462 51.9055 71.8078C51.8929 71.7694 51.8883 71.7289 51.8917 71.6887V70.4807C51.8921 70.3198 51.9126 70.1595 51.9527 70.0035C51.9921 69.8277 52.0623 69.6601 52.1602 69.5083L54.899 65.0024C55.0757 64.725 55.2113 64.424 55.3017 64.1085C55.3528 63.911 55.3815 63.7084 55.3871 63.5045C55.3871 63.4381 55.3871 63.3535 55.3871 63.2448C55.372 63.1424 55.3367 63.0439 55.2833 62.9549C55.2304 62.8727 55.1473 62.8142 55.0515 62.7918C54.9066 62.7786 54.7616 62.8171 54.6429 62.9005C54.4777 62.99 54.3358 63.1161 54.2281 63.2689C54.1277 63.4058 54.0438 63.5538 53.9779 63.7099C53.9267 63.844 53.8839 63.9812 53.8498 64.1206L53.795 64.4165C53.7748 64.5395 53.7246 64.6556 53.6485 64.7548C53.5888 64.8312 53.5141 64.8949 53.4289 64.942L52.3004 65.5883C52.2807 65.6045 52.2559 65.6134 52.2303 65.6134C52.2047 65.6134 52.1799 65.6045 52.1602 65.5883C52.1184 65.5375 52.0986 65.4723 52.1052 65.4071C52.1155 64.9838 52.1707 64.5627 52.27 64.1508C52.3626 63.691 52.5079 63.2431 52.7031 62.8159C52.912 62.383 53.1743 61.9772 53.4838 61.6079C53.7951 61.2366 54.1711 60.9236 54.594 60.6838C54.9129 60.4784 55.2815 60.3616 55.6615 60.3456C55.9446 60.3414 56.219 60.4427 56.4302 60.6295C56.6556 60.8405 56.8199 61.1075 56.906 61.4026C57.0137 61.7654 57.0672 62.1418 57.0646 62.52Z" fill="#FAFAFA"/>
<path d="M58.1565 66.4763C58.1736 66.3265 58.2126 66.18 58.2724 66.0414C58.3262 65.903 58.4249 65.7862 58.553 65.7092L59.6754 65.0629C59.6951 65.0467 59.7199 65.0378 59.7455 65.0378C59.7711 65.0378 59.7959 65.0467 59.8157 65.0629C59.8384 65.087 59.8556 65.1157 59.8661 65.1469C59.8766 65.1782 59.8802 65.2114 59.8767 65.2441C59.88 65.2783 59.88 65.3127 59.8767 65.3468L59.1691 68.5359C59.139 68.6608 59.0961 68.7822 59.041 68.8983C58.9902 69.0286 58.8953 69.1375 58.7726 69.2064L58.0894 69.599C58.0702 69.6164 58.0452 69.626 58.0192 69.626C57.9932 69.626 57.9682 69.6164 57.9491 69.599C57.9263 69.5749 57.9091 69.5462 57.8986 69.5149C57.8881 69.4837 57.8845 69.4505 57.8881 69.4178L58.1565 66.4763Z" fill="#FAFAFA"/>
<path d="M65.4409 54.6014C65.4637 54.5793 65.4943 54.5669 65.5263 54.5669C65.5582 54.5669 65.5889 54.5793 65.6117 54.6014C65.6385 54.6306 65.6588 54.6651 65.6714 54.7025C65.684 54.7399 65.6886 54.7796 65.6849 54.8189V56.2987C65.6848 56.4062 65.6641 56.5128 65.6239 56.6127C65.5812 56.7215 65.5385 56.8121 65.5019 56.8906L64.3978 59.222C64.5988 59.171 64.8092 59.1691 65.0111 59.2164C65.213 59.2638 65.4003 59.359 65.5568 59.4938C65.7293 59.6998 65.8582 59.938 65.9357 60.1943C66.0133 60.4506 66.0379 60.7198 66.0082 60.9857C66.0365 61.9414 65.7989 62.8864 65.3212 63.7174C64.8435 64.5483 64.1442 65.2331 63.2998 65.6969C62.9463 65.9151 62.5522 66.0609 62.1408 66.1257C61.8465 66.1689 61.5459 66.1204 61.2807 65.9868C61.0423 65.8478 60.856 65.6358 60.75 65.3828C60.6186 65.1008 60.5519 64.7935 60.5548 64.4829C60.5552 64.3974 60.5739 64.313 60.6097 64.2352C60.64 64.1655 60.6911 64.1065 60.7561 64.0661L61.9029 63.4077C62.0289 63.3353 62.1265 63.3232 62.1957 63.3715L62.4214 63.5285C62.5167 63.5887 62.6258 63.624 62.7386 63.6312C62.9399 63.6235 63.1347 63.5585 63.2998 63.444C63.5903 63.2871 63.8456 63.0734 64.0501 62.8158C64.2392 62.5625 64.3399 62.2551 64.3368 61.94C64.3368 61.6199 64.2392 61.4327 64.0501 61.3964C63.7907 61.3734 63.5314 61.4418 63.3181 61.5897L62.5617 62.0246C62.5376 62.0442 62.5074 62.055 62.4763 62.055C62.4451 62.055 62.4149 62.0442 62.3909 62.0246C62.3642 61.9941 62.344 61.9586 62.3314 61.9202C62.3189 61.8818 62.3142 61.8413 62.3177 61.8011V60.5931C62.3184 60.4856 62.339 60.3791 62.3787 60.279C62.4214 60.1703 62.4641 60.0737 62.5068 59.9831L63.4401 57.9838L61.055 59.3489C61.0309 59.3685 61.0007 59.3792 60.9696 59.3792C60.9384 59.3792 60.9082 59.3685 60.8842 59.3489C60.8575 59.3183 60.8373 59.2828 60.8247 59.2445C60.8122 59.2061 60.8075 59.1656 60.811 59.1254V57.6093C60.812 57.5045 60.8371 57.4013 60.8842 57.3073C60.9177 57.2211 60.9773 57.1472 61.055 57.0959L65.4409 54.6014Z" fill="#FAFAFA"/>
<path d="M68.5633 62.212C68.5623 62.3188 68.5373 62.4241 68.4901 62.5201C68.4547 62.607 68.3929 62.6808 68.3132 62.7315L67.0932 63.414C67.0704 63.4361 67.0398 63.4485 67.0078 63.4485C66.9759 63.4485 66.9452 63.4361 66.9224 63.414C66.8952 63.3839 66.8745 63.3484 66.8619 63.3099C66.8493 63.2714 66.845 63.2308 66.8492 63.1905V61.3785C66.8503 61.2737 66.8753 61.1704 66.9224 61.0765C66.9559 60.9903 67.0156 60.9164 67.0932 60.8651L68.3132 60.1826C68.3377 60.1614 68.3691 60.1497 68.4017 60.1497C68.4342 60.1497 68.4657 60.1614 68.4901 60.1826C68.5168 60.2131 68.537 60.2486 68.5496 60.287C68.5621 60.3254 68.5668 60.3659 68.5633 60.4061V62.212Z" fill="#FAFAFA"/>
<path d="M71.1859 60.6838C71.1849 60.7906 71.1599 60.8958 71.1127 60.9919C71.0773 61.0788 71.0155 61.1526 70.9358 61.2033L69.7158 61.8858C69.6923 61.9066 69.6619 61.9181 69.6304 61.9181C69.5989 61.9181 69.5685 61.9066 69.545 61.8858C69.5184 61.8553 69.4982 61.8198 69.4856 61.7814C69.473 61.743 69.4683 61.7025 69.4718 61.6623V59.8503C69.4728 59.7435 69.4978 59.6383 69.545 59.5423C69.5799 59.4584 69.6394 59.3869 69.7158 59.3369L70.9358 58.6483C70.9613 58.6292 70.9923 58.6189 71.0243 58.6189C71.0562 58.6189 71.0873 58.6292 71.1127 58.6483C71.1394 58.6789 71.1596 58.7144 71.1722 58.7527C71.1847 58.7911 71.1894 58.8316 71.1859 58.8718V60.6838Z" fill="#FAFAFA"/>
<path d="M73.809 59.1918C73.808 59.2986 73.783 59.4039 73.7358 59.4999C73.7006 59.5852 73.6413 59.6586 73.565 59.7113L72.345 60.3938C72.3205 60.415 72.2891 60.4267 72.2565 60.4267C72.224 60.4267 72.1925 60.415 72.1681 60.3938C72.1414 60.3633 72.1212 60.3278 72.1086 60.2894C72.0961 60.251 72.0914 60.2105 72.0949 60.1703V58.3583C72.0959 58.2515 72.1209 58.1463 72.1681 58.0503C72.2052 57.966 72.2668 57.8945 72.345 57.8449L73.565 57.1564C73.589 57.1367 73.6192 57.126 73.6504 57.126C73.6815 57.126 73.7117 57.1367 73.7358 57.1564C73.7624 57.1869 73.7826 57.2224 73.7952 57.2608C73.8078 57.2991 73.8125 57.3396 73.809 57.3798V59.1918Z" fill="#FAFAFA"/>
<path d="M77.4327 49.8299C77.2349 49.9429 77.0576 50.0878 76.9081 50.2587C76.7702 50.4284 76.6553 50.6152 76.5665 50.8144C76.4802 51.0084 76.4148 51.2109 76.3713 51.4184C76.3284 51.638 76.2978 51.8598 76.2798 52.0828C76.2798 52.2097 76.2798 52.3788 76.2798 52.5962V53.2606C76.2798 53.4841 76.2798 53.7076 76.2798 53.925C76.2798 54.1425 76.2798 54.3055 76.2798 54.4203C76.2905 54.6098 76.3191 54.7978 76.3652 54.982C76.402 55.1279 76.4707 55.264 76.5665 55.3807C76.6101 55.4295 76.6636 55.4687 76.7235 55.4958C76.7834 55.5228 76.8483 55.5371 76.9142 55.5377C77.0995 55.5352 77.2799 55.4784 77.4327 55.3746C77.5956 55.2819 77.7454 55.1682 77.878 55.0364C78.0226 54.8979 78.1459 54.7392 78.244 54.5653C78.3509 54.375 78.4328 54.172 78.488 53.9613C78.551 53.7124 78.5818 53.4567 78.5795 53.2002L77.817 53.6411C77.7915 53.6602 77.7605 53.6706 77.7285 53.6706C77.6966 53.6706 77.6655 53.6602 77.6401 53.6411C77.6134 53.6106 77.5932 53.5751 77.5806 53.5367C77.5681 53.4983 77.5634 53.4579 77.5669 53.4177V51.9439C77.5671 51.8389 77.5921 51.7355 77.6401 51.6419C77.6755 51.555 77.7374 51.4811 77.817 51.4305L80.0252 50.1621C80.0487 50.1413 80.0791 50.1298 80.1106 50.1298C80.1421 50.1298 80.1725 50.1413 80.196 50.1621C80.2231 50.1911 80.2437 50.2255 80.2563 50.263C80.2689 50.3005 80.2733 50.3402 80.2692 50.3795V52.1613C80.271 52.7441 80.1972 53.3247 80.0496 53.8888C79.912 54.4292 79.7071 54.9507 79.4396 55.4411C79.195 55.9024 78.8916 56.3307 78.5368 56.7155C78.2134 57.0703 77.8369 57.3738 77.4205 57.6155C77.0694 57.8377 76.6655 57.9648 76.2493 57.9839C75.928 57.9862 75.6165 57.8748 75.3709 57.6698C75.103 57.4346 74.9084 57.1287 74.8097 56.788C74.6688 56.3584 74.5928 55.9107 74.584 55.4592C74.584 55.0927 74.584 54.6901 74.584 54.2512C74.584 53.8163 74.584 53.3935 74.584 52.9888C74.5981 52.4549 74.6717 51.9242 74.8036 51.4063C74.9355 50.8807 75.1236 50.3704 75.3648 49.8843C75.6015 49.4115 75.8988 48.971 76.2493 48.5736C76.5858 48.1883 76.9835 47.8599 77.4266 47.6011C77.7717 47.3853 78.166 47.2586 78.5734 47.2327C78.8802 47.2192 79.184 47.2971 79.4457 47.4562C79.6861 47.6182 79.8778 47.8415 80.0008 48.1025C80.1349 48.3739 80.2097 48.6702 80.2204 48.9722C80.225 49.0582 80.206 49.1437 80.1655 49.2199C80.1332 49.2901 80.0827 49.3505 80.0191 49.395L78.7991 50.0896C78.7076 50.1379 78.6344 50.1379 78.5856 50.0896L78.4331 49.9265C78.3471 49.8065 78.2256 49.7158 78.0854 49.6668C77.9711 49.6495 77.8545 49.655 77.7424 49.683C77.6303 49.711 77.525 49.761 77.4327 49.8299Z" fill="#FAFAFA"/>
<path d="M85.9615 48.4649C85.9615 48.5978 85.9615 48.779 85.9615 48.9964C85.9615 49.2139 85.9615 49.3951 85.9615 49.534C85.9477 49.9972 85.8802 50.4572 85.7602 50.9051C85.641 51.3583 85.4733 51.7977 85.26 52.2158C85.0511 52.6218 84.793 53.001 84.4914 53.3452C84.2011 53.6733 83.8592 53.9527 83.4788 54.1727C83.1758 54.3625 82.8299 54.4746 82.4723 54.4989C82.1923 54.5118 81.9171 54.4238 81.6976 54.2512C81.4669 54.0547 81.2941 53.8001 81.1974 53.5144C81.0674 53.1495 80.9994 52.7658 80.9961 52.3788C80.9961 52.2399 80.9961 52.0648 80.9961 51.8473C80.9961 51.6299 80.9961 51.4487 80.9961 51.3037C81.0028 50.8428 81.0663 50.3844 81.1852 49.9387C81.3065 49.4852 81.4762 49.0458 81.6915 48.628C81.9045 48.2178 82.1667 47.8345 82.4723 47.4864C82.7572 47.1537 83.0977 46.8718 83.4788 46.6529C83.7825 46.4609 84.1315 46.3506 84.4914 46.3328C84.7714 46.3268 85.0449 46.4164 85.2661 46.5865C85.4987 46.7814 85.6719 47.0365 85.7663 47.3234C85.8946 47.6906 85.9606 48.0763 85.9615 48.4649ZM82.637 51.34C82.6288 51.4656 82.6467 51.5915 82.6898 51.71C82.7328 51.8284 82.8 51.9369 82.8871 52.0285C82.9789 52.0891 83.0881 52.1183 83.1982 52.1118C83.3083 52.1053 83.4133 52.0633 83.4971 51.9923C83.7599 51.8433 83.9722 51.6205 84.1071 51.352C84.26 51.0494 84.3453 50.7178 84.3572 50.3796C84.3572 50.2346 84.3572 50.0716 84.3572 49.8964C84.3572 49.7212 84.3572 49.5642 84.3572 49.4374C84.3654 49.3117 84.3474 49.1858 84.3044 49.0673C84.2614 48.9489 84.1942 48.8405 84.1071 48.7488C84.0153 48.6882 83.9061 48.659 83.796 48.6655C83.6858 48.6721 83.5809 48.714 83.4971 48.785C83.2356 48.9357 83.0238 49.1581 82.8871 49.4253C82.7359 49.7285 82.6507 50.0598 82.637 50.3977C82.637 50.5427 82.637 50.7058 82.637 50.8809C82.637 51.0561 82.6248 51.2373 82.637 51.34Z" fill="#FAFAFA"/>
<path d="M88.4916 47.7944C88.4907 47.9012 88.4656 48.0064 88.4184 48.1024C88.3849 48.1887 88.3253 48.2625 88.2476 48.3138L87.0947 48.9722C87.0712 48.993 87.0408 49.0045 87.0093 49.0045C86.9778 49.0045 86.9474 48.993 86.9239 48.9722C86.8973 48.9417 86.8771 48.9062 86.8645 48.8678C86.8519 48.8294 86.8472 48.7889 86.8507 48.7487V42.7329C86.8518 42.628 86.8768 42.5248 86.9239 42.4309C86.9574 42.3446 87.0171 42.2708 87.0947 42.2195L88.2476 41.5611C88.2711 41.5403 88.3015 41.5288 88.333 41.5288C88.3645 41.5288 88.3949 41.5403 88.4184 41.5611C88.4451 41.5916 88.4653 41.6271 88.4779 41.6655C88.4905 41.7039 88.4951 41.7444 88.4916 41.7846V47.7944ZM88.4916 50.8144C88.4907 50.9212 88.4656 51.0264 88.4184 51.1224C88.3833 51.2077 88.324 51.2812 88.2476 51.3338L87.0947 51.9439C87.0707 51.9635 87.0405 51.9742 87.0093 51.9742C86.9782 51.9742 86.948 51.9635 86.9239 51.9439C86.8973 51.9133 86.8771 51.8778 86.8645 51.8395C86.8519 51.8011 86.8472 51.7606 86.8507 51.7204V50.3251C86.8517 50.2184 86.8767 50.1131 86.9239 50.0171C86.9591 49.9318 87.0184 49.8584 87.0947 49.8057L88.2476 49.1473C88.2717 49.1277 88.3019 49.117 88.333 49.117C88.3642 49.117 88.3944 49.1277 88.4184 49.1473C88.4451 49.1779 88.4653 49.2134 88.4779 49.2518C88.4905 49.2901 88.4951 49.3306 88.4916 49.3708V50.8144Z" fill="#FAFAFA"/>
<path d="M249.143 52.8257L246.55 47.9937L248.636 42.0383V38.4143L242.262 42.0383V45.6623L245.001 50.3614C245.045 50.4341 245.111 50.4911 245.19 50.5245L249.143 52.8257Z" fill="#40FF67"/>
<path opacity="0.2" d="M249.143 52.8257L246.55 47.9937L248.636 42.0383V38.4143L242.262 42.0383V45.6623L245.001 50.3614C245.045 50.4341 245.111 50.4911 245.19 50.5245L249.143 52.8257Z" fill="black"/>
<path d="M265.649 21.7078C265.614 21.051 265.422 20.4118 265.091 19.842C264.759 19.2722 264.296 18.7878 263.74 18.4281L262.185 17.516C261.592 17.2184 260.937 17.0632 260.272 17.0632C259.608 17.0632 258.953 17.2184 258.36 17.516L226.097 35.9259C225.541 36.2847 225.078 36.768 224.745 37.3366C224.412 37.9053 224.219 38.5435 224.182 39.1996V52.1856C224.218 52.8428 224.411 53.4822 224.744 54.052C225.077 54.6218 225.54 55.106 226.097 55.4653L227.653 56.3532C228.244 56.6508 228.898 56.806 229.562 56.806C230.225 56.806 230.88 56.6508 231.471 56.3532L246.264 47.9939L248.996 52.6869C249.036 52.7535 249.094 52.8074 249.164 52.8423C249.233 52.8773 249.311 52.8918 249.389 52.8842C249.466 52.8766 249.54 52.8471 249.602 52.7993C249.663 52.7515 249.709 52.6874 249.735 52.6145L252.626 44.3578L263.74 37.9735C264.296 37.6138 264.759 37.1294 265.091 36.5596C265.422 35.9898 265.614 35.3505 265.649 34.6938V21.7078Z" fill="#40FF67"/>
<path opacity="0.2" d="M224.182 52.1857C224.218 52.8429 224.411 53.4823 224.744 54.0521C225.077 54.6219 225.54 55.1061 226.097 55.4655L227.653 56.3533C228.191 56.6215 228.781 56.7735 229.384 56.7996C229.986 56.8256 230.587 56.725 231.148 56.5043C230.245 56.8426 229.562 56.3413 229.562 55.2601V42.2801C229.584 41.6226 229.778 40.9819 230.123 40.4198L224.743 37.3455C224.4 37.9087 224.207 38.5487 224.182 39.2058V52.1857Z" fill="black"/>
<path opacity="0.4" d="M265.589 21.17C265.363 20.3667 264.625 20.113 263.759 20.6144L231.49 39.0001C230.925 39.3481 230.46 39.8351 230.142 40.4135L224.768 37.3391C225.088 36.762 225.552 36.2755 226.116 35.9258L258.36 17.5158C258.954 17.2214 259.609 17.0681 260.273 17.0681C260.937 17.0681 261.591 17.2214 262.185 17.5158L263.74 18.4098C264.222 18.7209 264.635 19.1262 264.953 19.6009C265.27 20.0756 265.487 20.6095 265.589 21.17Z" fill="white"/>
<path d="M232.057 45.3C232.009 45.2268 231.991 45.1381 232.008 45.0524C232.021 44.9438 232.057 44.839 232.112 44.7443L234.076 41.3197C234.125 41.2411 234.18 41.1385 234.253 41.0237C234.311 40.9218 234.395 40.8365 234.497 40.7761L235.607 40.1721C235.631 40.1495 235.663 40.137 235.696 40.137C235.728 40.137 235.76 40.1495 235.784 40.1721C235.811 40.2013 235.831 40.2357 235.844 40.2731C235.856 40.3106 235.861 40.3502 235.857 40.3895V49.3891C235.857 49.494 235.832 49.5975 235.784 49.6911C235.749 49.778 235.687 49.8518 235.607 49.9025L234.387 50.5911C234.363 50.6107 234.333 50.6214 234.302 50.6214C234.271 50.6214 234.24 50.6107 234.216 50.5911C234.19 50.5605 234.169 50.525 234.157 50.4867C234.144 50.4483 234.14 50.4078 234.143 50.3676V44.243L233.051 46.1215C233.012 46.1983 232.95 46.2615 232.874 46.3027C232.845 46.3157 232.812 46.3174 232.781 46.3073C232.751 46.2972 232.725 46.2762 232.71 46.2483L232.057 45.3Z" fill="#FAFAFA"/>
<path d="M237.005 47.0455C237.023 46.8978 237.062 46.7534 237.12 46.6166C237.174 46.4764 237.273 46.3576 237.401 46.2784L238.511 45.6381C238.53 45.6207 238.555 45.6111 238.581 45.6111C238.607 45.6111 238.632 45.6207 238.652 45.6381C238.674 45.6622 238.691 45.6909 238.702 45.7222C238.713 45.7534 238.716 45.7866 238.713 45.8193C238.716 45.8535 238.716 45.8879 238.713 45.922L238.005 49.0991C237.975 49.2239 237.932 49.3453 237.877 49.4615C237.826 49.5918 237.731 49.7006 237.608 49.7695L236.925 50.1621C236.906 50.1783 236.881 50.1872 236.855 50.1872C236.83 50.1872 236.805 50.1783 236.785 50.1621C236.762 50.138 236.745 50.1094 236.735 50.0781C236.724 50.0468 236.72 50.0137 236.724 49.9809L237.005 47.0455Z" fill="#FAFAFA"/>
<path d="M244.611 38.1185C244.611 38.3892 244.593 38.6595 244.557 38.9278C244.515 39.212 244.452 39.4926 244.367 39.7674C244.273 40.0752 244.157 40.3759 244.02 40.6674C243.864 41.0091 243.689 41.3418 243.495 41.664L242.214 43.8746L244.508 42.5639C244.532 42.5414 244.563 42.5288 244.596 42.5288C244.629 42.5288 244.661 42.5414 244.685 42.5639C244.711 42.5931 244.732 42.6276 244.744 42.665C244.757 42.7024 244.762 42.7421 244.758 42.7814V44.2732C244.757 44.38 244.732 44.4853 244.685 44.5813C244.647 44.6655 244.586 44.737 244.508 44.7866L239.689 47.5469C239.664 47.5682 239.633 47.5799 239.6 47.5799C239.568 47.5799 239.536 47.5682 239.512 47.5469C239.485 47.5164 239.465 47.4809 239.452 47.4425C239.44 47.4041 239.435 47.3636 239.439 47.3234V46.1154C239.439 45.9525 239.46 45.7903 239.5 45.6322C239.54 45.4587 239.61 45.2932 239.707 45.143L242.434 40.6009C242.61 40.3235 242.746 40.0225 242.836 39.707C242.887 39.5094 242.916 39.3068 242.922 39.103C242.922 39.0366 242.922 38.952 242.922 38.8433C242.908 38.7406 242.872 38.6419 242.818 38.5534C242.765 38.4712 242.682 38.4127 242.586 38.3903C242.442 38.3699 242.295 38.4068 242.178 38.493C242.013 38.5865 241.872 38.7143 241.763 38.8674C241.661 39.0035 241.577 39.1516 241.513 39.3084C241.461 39.4422 241.418 39.5794 241.385 39.7191L241.33 40.009C241.31 40.134 241.26 40.2523 241.183 40.3533C241.122 40.4281 241.048 40.4916 240.964 40.5405L239.835 41.1808C239.816 41.1982 239.791 41.2078 239.765 41.2078C239.739 41.2078 239.714 41.1982 239.695 41.1808C239.653 41.1299 239.633 41.0648 239.64 40.9996C239.65 40.5762 239.705 40.1551 239.805 39.7432C239.91 39.2861 240.067 38.8423 240.274 38.4205C240.483 37.9875 240.746 37.5817 241.055 37.2125C241.366 36.8253 241.744 36.496 242.171 36.24C242.49 36.0359 242.859 35.9212 243.239 35.9078C243.522 35.9036 243.796 36.005 244.008 36.1917C244.233 36.4028 244.397 36.6697 244.483 36.9648C244.584 37.3408 244.628 37.7297 244.611 38.1185Z" fill="#FAFAFA"/>
<path d="M245.709 42.0747C245.726 41.9249 245.765 41.7784 245.825 41.6398C245.879 41.4996 245.977 41.3808 246.106 41.3016L247.228 40.6613C247.247 40.6439 247.272 40.6343 247.298 40.6343C247.324 40.6343 247.349 40.6439 247.368 40.6613C247.391 40.6854 247.408 40.7141 247.419 40.7454C247.429 40.7766 247.433 40.8098 247.429 40.8425C247.433 40.8767 247.433 40.9111 247.429 40.9452L246.722 44.1223C246.692 44.2471 246.649 44.3685 246.594 44.4847C246.543 44.615 246.448 44.7238 246.325 44.7927L245.642 45.1853C245.622 45.2015 245.598 45.2104 245.572 45.2104C245.546 45.2104 245.522 45.2015 245.502 45.1853C245.479 45.1612 245.462 45.1325 245.451 45.1013C245.441 45.07 245.437 45.0369 245.441 45.0041L245.709 42.0747Z" fill="#FAFAFA"/>
<path d="M252.992 30.2001C253.016 30.1804 253.047 30.1697 253.078 30.1697C253.109 30.1697 253.139 30.1804 253.163 30.2001C253.19 30.2306 253.21 30.2661 253.223 30.3045C253.235 30.3428 253.24 30.3833 253.236 30.4235V31.9033C253.236 32.0109 253.216 32.1175 253.175 32.2174C253.133 32.3261 253.09 32.4167 253.053 32.4953L251.931 34.8267C252.133 34.778 252.343 34.7778 252.545 34.8262C252.746 34.8745 252.933 34.97 253.09 35.1045C253.263 35.3101 253.392 35.5483 253.47 35.8047C253.548 36.0611 253.572 36.3304 253.541 36.5964C253.562 37.5694 253.315 38.5296 252.828 39.3748C252.346 40.1799 251.658 40.8446 250.833 41.3016C250.481 41.5236 250.086 41.6716 249.674 41.7365C249.38 41.7769 249.08 41.7285 248.814 41.5975C248.575 41.4586 248.389 41.2466 248.283 40.9935C248.152 40.7115 248.085 40.4042 248.088 40.0936C248.088 40.0081 248.107 39.9237 248.143 39.8459C248.175 39.7757 248.226 39.7153 248.289 39.6708L249.436 39.0185C249.564 38.9399 249.662 38.9339 249.729 38.9822L249.955 39.1393C250.05 39.1994 250.159 39.2347 250.272 39.2419C250.473 39.2342 250.668 39.1692 250.833 39.0547C251.118 38.8945 251.365 38.6763 251.559 38.4145C251.752 38.1627 251.855 37.8547 251.852 37.5387C251.852 37.2125 251.754 37.0313 251.559 36.9951C251.301 36.9696 251.043 37.0384 250.833 37.1883L250.077 37.6172C250.054 37.6393 250.023 37.6517 249.991 37.6517C249.959 37.6517 249.929 37.6393 249.906 37.6172C249.879 37.588 249.859 37.5535 249.846 37.5161C249.833 37.4787 249.829 37.439 249.833 37.3997V36.2401C249.833 36.1325 249.853 36.0259 249.894 35.926C249.936 35.8173 249.979 35.7206 250.022 35.63L250.992 33.5885L248.606 34.9475C248.584 34.9696 248.553 34.982 248.521 34.982C248.489 34.982 248.458 34.9696 248.436 34.9475C248.409 34.9183 248.389 34.8839 248.376 34.8464C248.363 34.809 248.359 34.7693 248.362 34.7301V33.2201C248.363 33.1133 248.388 33.008 248.436 32.912C248.471 32.8282 248.53 32.7566 248.606 32.7067L252.992 30.2001Z" fill="#FAFAFA"/>
<path d="M256.116 37.7803C256.115 37.887 256.09 37.9923 256.042 38.0883C256.005 38.1742 255.944 38.2477 255.866 38.2997L254.646 38.9822C254.622 39.003 254.592 39.0145 254.56 39.0145C254.529 39.0145 254.498 39.003 254.475 38.9822C254.448 38.9517 254.428 38.9162 254.415 38.8778C254.403 38.8394 254.398 38.7989 254.402 38.7587V36.9467C254.402 36.8399 254.428 36.7347 254.475 36.6387C254.51 36.5549 254.569 36.4833 254.646 36.4333L255.866 35.7448C255.891 35.7257 255.922 35.7153 255.954 35.7153C255.986 35.7153 256.017 35.7257 256.042 35.7448C256.069 35.7753 256.089 35.8108 256.102 35.8492C256.114 35.8876 256.119 35.9281 256.116 35.9683V37.7803Z" fill="#FAFAFA"/>
<path d="M258.739 36.2822C258.738 36.389 258.713 36.4942 258.665 36.5903C258.628 36.6762 258.567 36.7496 258.489 36.8017L257.269 37.4842C257.245 37.505 257.215 37.5165 257.183 37.5165C257.152 37.5165 257.121 37.505 257.098 37.4842C257.071 37.4537 257.051 37.4182 257.038 37.3798C257.026 37.3414 257.021 37.3009 257.025 37.2607V35.4487C257.026 35.3419 257.051 35.2367 257.098 35.1407C257.133 35.0553 257.192 34.9819 257.269 34.9293L258.489 34.2467C258.514 34.2276 258.545 34.2173 258.577 34.2173C258.609 34.2173 258.64 34.2276 258.665 34.2467C258.692 34.2773 258.712 34.3128 258.725 34.3511C258.737 34.3895 258.742 34.43 258.739 34.4702V36.2822Z" fill="#FAFAFA"/>
<path d="M261.356 34.7844C261.355 34.8912 261.33 34.9964 261.283 35.0924C261.248 35.1777 261.188 35.2511 261.112 35.3038L259.892 35.9863C259.867 36.0076 259.836 36.0193 259.803 36.0193C259.771 36.0193 259.739 36.0076 259.715 35.9863C259.688 35.9558 259.668 35.9203 259.655 35.8819C259.643 35.8435 259.638 35.803 259.642 35.7628V33.9508C259.643 33.8441 259.668 33.7388 259.715 33.6428C259.752 33.5569 259.813 33.4835 259.892 33.4314L261.112 32.7489C261.136 32.7292 261.166 32.7185 261.197 32.7185C261.228 32.7185 261.259 32.7292 261.283 32.7489C261.309 32.7794 261.33 32.8149 261.342 32.8533C261.355 32.8917 261.359 32.9322 261.356 32.9724V34.7844Z" fill="#FAFAFA"/>
</svg>
