<svg width="26" height="33" viewBox="0 0 26 33" fill="none" xmlns="http://www.w3.org/2000/svg">
<path id="Shape" fill-rule="evenodd" clip-rule="evenodd" d="M9.1845 9.09024C8.92287 9.40549 8.69213 9.68824 8.4955 9.93849C8.09412 10.4504 7.7155 10.9509 7.358 11.4367C4.57113 15.2474 3.25 18.2065 3.25 20.1191C3.25 25.1241 7.58063 29.25 13 29.25C18.4194 29.25 22.75 25.1257 22.75 20.1191C22.75 17.0511 19.5487 11.7829 13.0455 4.75799C11.1085 6.88187 9.815 8.33299 9.1845 9.09024ZM13 32.5C5.82075 32.5 0 26.9571 0 20.1191C0 17.368 1.57788 13.8352 4.73525 9.51925C5.35727 8.66016 6.00874 7.82279 6.6885 7.00863C7.59363 5.92313 9.698 3.58637 13 0C21.6661 8.85462 26 15.561 26 20.1191C26 26.9571 20.1793 32.5 13 32.5ZM13 27.625C9.40875 27.625 6.5 24.8528 6.5 21.4338C6.5 19.1555 8.66613 15.8015 13 11.375C17.3339 15.8015 19.5 19.1555 19.5 21.4338C19.5 24.8528 16.5912 27.625 13 27.625ZM9.75 21.4337C9.75 23.0214 11.1702 24.375 13 24.375C14.8298 24.375 16.25 23.0214 16.25 21.4337C16.25 20.5611 15.1873 18.7119 13 16.1687C10.8127 18.7119 9.75 20.5611 9.75 21.4337Z" fill="#42FF00"/>
</svg>
