<svg width="56" height="55" viewBox="0 0 56 55" fill="none" xmlns="http://www.w3.org/2000/svg">
<path d="M13.661 37.8694C14.1492 37.7137 14.6439 37.5844 15.1434 37.4819C13.5745 35.5177 12.3536 33.2419 11.5447 30.7741C13.1234 30.5055 17.008 30.1272 20.434 31.9897C20.3807 31.4389 20.3493 30.8793 20.3397 30.311C15.6964 28.1491 10.7444 29.4166 10.512 29.4785C10.4245 29.5016 10.3422 29.5443 10.2699 29.6038C10.1976 29.6633 10.1369 29.7384 10.0915 29.8247C10.046 29.9109 10.0167 30.0065 10.0053 30.1057C9.99398 30.2049 10.0008 30.3056 10.0254 30.4017C10.7947 33.1273 12.029 35.6627 13.661 37.8694ZM44.4554 30.7744C43.6434 33.2539 42.4149 35.5392 40.8354 37.5089C41.3434 37.6153 41.8374 37.7475 42.317 37.8987C43.9601 35.6855 45.2022 33.1396 45.9747 30.4017C45.9993 30.3056 46.0061 30.2049 45.9947 30.1057C45.9834 30.0065 45.9541 29.9109 45.9086 29.8247C45.8632 29.7384 45.8025 29.6633 45.7302 29.6038C45.6579 29.5443 45.5755 29.5016 45.488 29.4785C45.2557 29.4166 40.3034 28.1491 35.6604 30.311C35.6519 30.8791 35.6205 31.4386 35.566 31.9897C38.9924 30.1272 42.877 30.5055 44.4554 30.7744ZM28 27.583C27.4726 27.583 26.9571 27.7568 26.5185 28.0825C26.08 28.4082 25.7382 28.8711 25.5364 29.4127C25.3345 29.9543 25.2817 30.5503 25.3846 31.1252C25.4875 31.7002 25.7415 32.2283 26.1144 32.6428C26.4874 33.0573 26.9625 33.3396 27.4798 33.454C27.9971 33.5683 28.5333 33.5096 29.0205 33.2853C29.5078 33.061 29.9243 32.6811 30.2173 32.1937C30.5103 31.7062 30.6667 31.1332 30.6667 30.547C30.6658 29.7612 30.3846 29.0079 29.8847 28.4522C29.3848 27.8966 28.707 27.584 28 27.583ZM28 32.0289C27.7363 32.0289 27.4785 31.942 27.2593 31.7792C27.04 31.6163 26.8691 31.3849 26.7682 31.1141C26.6673 30.8433 26.6409 30.5453 26.6923 30.2578C26.7438 29.9704 26.8708 29.7063 27.0572 29.499C27.2437 29.2918 27.4813 29.1506 27.7399 29.0935C27.9986 29.0363 28.2666 29.0656 28.5103 29.1778C28.7539 29.29 28.9622 29.4799 29.1087 29.7236C29.2552 29.9673 29.3334 30.2539 29.3334 30.547C29.333 30.9399 29.1924 31.3166 28.9425 31.5944C28.6925 31.8723 28.3536 32.0286 28 32.0289Z" fill="#05FF00"/>
<path d="M28.9996 9.36767C29.1974 9.36767 29.3907 9.30249 29.5551 9.18035C29.7196 9.05822 29.8478 8.88463 29.9235 8.68154C29.9991 8.47844 30.0189 8.25496 29.9804 8.03935C29.9418 7.82374 29.8465 7.62569 29.7067 7.47025C29.5668 7.31481 29.3886 7.20895 29.1947 7.16606C29.0007 7.12318 28.7996 7.14519 28.6169 7.22931C28.4342 7.31344 28.278 7.4559 28.1681 7.63868C28.0582 7.82146 27.9996 8.03636 27.9996 8.25619C27.9998 8.55088 28.1053 8.83342 28.2928 9.0418C28.4802 9.25018 28.7344 9.36738 28.9996 9.36767ZM28.9996 7.70045C29.0985 7.70045 29.1951 7.73304 29.2774 7.79411C29.3596 7.85517 29.4237 7.94197 29.4615 8.04352C29.4994 8.14506 29.5093 8.25681 29.49 8.36461C29.4707 8.47241 29.4231 8.57144 29.3531 8.64916C29.2832 8.72688 29.1941 8.77981 29.0971 8.80125C29.0001 8.8227 28.8996 8.81169 28.8082 8.76963C28.7169 8.72757 28.6388 8.65633 28.5838 8.56494C28.5289 8.47355 28.4996 8.3661 28.4996 8.25619C28.4997 8.10883 28.5524 7.96753 28.6461 7.86333C28.7399 7.75913 28.867 7.70055 28.9996 7.70045ZM51.2219 16.5923C51.0901 16.5923 50.9612 16.6358 50.8515 16.7172C50.7419 16.7986 50.6564 16.9143 50.606 17.0497C50.5555 17.1851 50.5423 17.3341 50.5681 17.4779C50.5938 17.6216 50.6573 17.7536 50.7505 17.8573C50.8437 17.9609 50.9625 18.0315 51.0919 18.0601C51.2212 18.0886 51.3552 18.074 51.477 18.0179C51.5989 17.9618 51.703 17.8668 51.7762 17.745C51.8495 17.6231 51.8886 17.4799 51.8886 17.3333C51.8884 17.1368 51.8181 16.9485 51.6931 16.8096C51.5681 16.6706 51.3987 16.5925 51.2219 16.5923ZM51.2219 17.7038C51.156 17.7038 51.0915 17.6821 51.0367 17.6414C50.9819 17.6007 50.9392 17.5428 50.9139 17.4751C50.8887 17.4074 50.8821 17.3329 50.895 17.261C50.9078 17.1892 50.9396 17.1231 50.9862 17.0713C51.0328 17.0195 51.0922 16.9842 51.1569 16.9699C51.2215 16.9556 51.2886 16.963 51.3495 16.991C51.4104 17.0191 51.4624 17.0665 51.4991 17.1275C51.5357 17.1884 51.5552 17.26 51.5552 17.3333C51.5552 17.4315 51.52 17.5257 51.4575 17.5952C51.395 17.6646 51.3103 17.7037 51.2219 17.7038ZM37.7772 19.9268C37.6454 19.9268 37.5165 19.9702 37.4069 20.0516C37.2972 20.1331 37.2118 20.2488 37.1613 20.3842C37.1109 20.5196 37.0977 20.6686 37.1234 20.8123C37.1491 20.9561 37.2126 21.0881 37.3058 21.1917C37.3991 21.2953 37.5179 21.3659 37.6472 21.3945C37.7765 21.4231 37.9105 21.4084 38.0324 21.3523C38.1542 21.2963 38.2583 21.2013 38.3316 21.0794C38.4048 20.9576 38.4439 20.8143 38.4439 20.6678C38.4437 20.4713 38.3734 20.2829 38.2484 20.144C38.1235 20.0051 37.954 19.927 37.7772 19.9268ZM37.7772 21.0383C37.7113 21.0383 37.6469 21.0165 37.592 20.9758C37.5372 20.9351 37.4945 20.8772 37.4693 20.8095C37.444 20.7418 37.4374 20.6673 37.4503 20.5955C37.4632 20.5236 37.4949 20.4576 37.5415 20.4058C37.5882 20.354 37.6475 20.3187 37.7122 20.3044C37.7769 20.2901 37.8439 20.2974 37.9048 20.3255C37.9657 20.3535 38.0178 20.401 38.0544 20.4619C38.091 20.5229 38.1106 20.5945 38.1106 20.6678C38.1105 20.766 38.0753 20.8602 38.0128 20.9296C37.9504 20.9991 37.8656 21.0382 37.7772 21.0383ZM53.1106 0.784424C52.9787 0.784424 52.8498 0.827882 52.7402 0.909303C52.6306 0.990724 52.5451 1.10645 52.4947 1.24185C52.4442 1.37725 52.431 1.52624 52.4567 1.66997C52.4824 1.81371 52.5459 1.94574 52.6392 2.04937C52.7324 2.153 52.8512 2.22357 52.9805 2.25216C53.1098 2.28076 53.2439 2.26608 53.3657 2.21C53.4875 2.15391 53.5916 2.05894 53.6649 1.93708C53.7381 1.81523 53.7772 1.67197 53.7772 1.52541C53.7771 1.32895 53.7068 1.14059 53.5818 1.00167C53.4568 0.862751 53.2873 0.78462 53.1106 0.784424ZM53.1106 1.89591C53.0446 1.89591 52.9802 1.87418 52.9254 1.83347C52.8706 1.79276 52.8278 1.73489 52.8026 1.6672C52.7774 1.5995 52.7708 1.525 52.7836 1.45313C52.7965 1.38126 52.8283 1.31525 52.8749 1.26343C52.9215 1.21162 52.9809 1.17633 53.0455 1.16204C53.1102 1.14774 53.1772 1.15508 53.2381 1.18312C53.299 1.21116 53.3511 1.25865 53.3877 1.31958C53.4244 1.3805 53.4439 1.45214 53.4439 1.52541C53.4438 1.62364 53.4087 1.71782 53.3462 1.78728C53.2837 1.85674 53.199 1.89581 53.1106 1.89591ZM5.7679 6.83571C5.7679 6.68916 5.7288 6.5459 5.65555 6.42404C5.5823 6.30219 5.47818 6.20721 5.35636 6.15113C5.23454 6.09504 5.1005 6.08037 4.97118 6.10896C4.84186 6.13755 4.72307 6.20813 4.62983 6.31175C4.5366 6.41538 4.4731 6.54742 4.44738 6.69115C4.42166 6.83489 4.43486 6.98388 4.48532 7.11928C4.53578 7.25467 4.62122 7.3704 4.73086 7.45182C4.84049 7.53324 4.96938 7.5767 5.10124 7.5767C5.27799 7.57651 5.44746 7.49837 5.57245 7.35945C5.69743 7.22053 5.76773 7.03218 5.7679 6.83571ZM4.7679 6.83571C4.7679 6.76244 4.78745 6.6908 4.82408 6.62988C4.86071 6.56895 4.91277 6.52146 4.97368 6.49342C5.03458 6.46538 5.10161 6.45804 5.16627 6.47234C5.23093 6.48663 5.29032 6.52192 5.33694 6.57373C5.38356 6.62555 5.4153 6.69156 5.42817 6.76343C5.44103 6.8353 5.43443 6.9098 5.4092 6.97749C5.38397 7.04519 5.34124 7.10306 5.28643 7.14377C5.23161 7.18448 5.16716 7.20621 5.10124 7.20621C5.01286 7.20611 4.92813 7.16704 4.86563 7.09758C4.80314 7.02812 4.76799 6.93394 4.7679 6.83571Z" fill="#05FF00"/>
<path d="M3.62976 22.03L4.12543 21.3057L3.81243 21.1086L3.4941 21.9199H3.48376L3.16043 21.1141L2.8421 21.3171L3.33243 22.0244V22.0359L2.56543 21.9259V22.3201L3.33743 22.21V22.2215L2.8421 22.9284L3.1391 23.1374L3.47843 22.3201H3.48876L3.80176 23.1315L4.13043 22.9229L3.62976 22.2271V22.2156L4.4171 22.3201V21.9259L3.62976 22.0418V22.03ZM21.0544 0.640956L20.7691 1.04813L20.9401 1.16817L21.1354 0.697642H21.1414L21.3218 1.16484L21.5111 1.0448L21.2228 0.64429V0.637622L21.6761 0.697642V0.470528L21.2228 0.537217V0.530548L21.5081 0.113372L21.3278 0L21.1448 0.467194H21.1384L20.9524 0.00333474L20.7691 0.12004L21.0514 0.527214V0.533883L20.6098 0.470528V0.697642L21.0544 0.634287V0.640956ZM41.4394 2.30337V1.91694L40.6671 2.03068V2.0192L41.1531 1.30859L40.8461 1.11519L40.5341 1.91101H40.5238L40.2068 1.12075L39.8944 1.32007L40.3754 2.01364V2.02512L39.6231 1.91694V2.30337L40.3804 2.19555V2.20704L39.8944 2.9006L40.1861 3.10549L40.5188 2.30337H40.5288L40.8358 3.09956L41.1581 2.89505L40.6671 2.21259V2.20111L41.4394 2.30337ZM18.4448 19.1423L18.8641 18.5292L18.5994 18.3625L18.3301 19.049H18.3214L18.0478 18.3673L17.7784 18.5392L18.1934 19.1375V19.1472L17.5444 19.0542V19.3876L18.1978 19.2946V19.3043L17.7784 19.9026L18.0298 20.0793L18.3171 19.3876H18.3254L18.5904 20.0741L18.8684 19.8978L18.4448 19.3091V19.2994L19.1111 19.3876V19.0542L18.4448 19.152V19.1423Z" fill="#05FF00"/>
<path d="M0.666667 49.813C1.03486 49.813 1.33333 49.4813 1.33333 49.072C1.33333 48.6628 1.03486 48.3311 0.666667 48.3311C0.298477 48.3311 0 48.6628 0 49.072C0 49.4813 0.298477 49.813 0.666667 49.813Z" fill="#05FF00"/>
<path d="M3.66667 48.3311H2.66667C2.48986 48.3311 2.32029 48.4091 2.19526 48.5481C2.07024 48.687 2 48.8755 2 49.072C2 49.2686 2.07024 49.457 2.19526 49.596C2.32029 49.735 2.48986 49.813 2.66667 49.813H3.66667C3.84348 49.813 4.01305 49.735 4.13807 49.596C4.2631 49.457 4.33333 49.2686 4.33333 49.072C4.33333 48.8755 4.2631 48.687 4.13807 48.5481C4.01305 48.4091 3.84348 48.3311 3.66667 48.3311ZM53.3333 48.3311H52.3333C52.1565 48.3311 51.987 48.4091 51.8619 48.5481C51.7369 48.687 51.6667 48.8755 51.6667 49.072C51.6667 49.2686 51.7369 49.457 51.8619 49.596C51.987 49.735 52.1565 49.813 52.3333 49.813H53.3333C53.5101 49.813 53.6797 49.735 53.8047 49.596C53.9298 49.457 54 49.2686 54 49.072C54 48.8755 53.9298 48.687 53.8047 48.5481C53.6797 48.4091 53.5101 48.3311 53.3333 48.3311Z" fill="#05FF00"/>
<path d="M55.3337 49.813C55.7018 49.813 56.0003 49.4813 56.0003 49.072C56.0003 48.6628 55.7018 48.3311 55.3337 48.3311C54.9655 48.3311 54.667 48.6628 54.667 49.072C54.667 49.4813 54.9655 49.813 55.3337 49.813Z" fill="#05FF00"/>
<path d="M39.3844 51.2952H36.615C36.4471 51.3096 36.2903 51.394 36.176 51.5313C36.0616 51.6687 35.998 51.849 35.998 52.0362C35.998 52.2233 36.0616 52.4036 36.176 52.541C36.2903 52.6783 36.4471 52.7627 36.615 52.7771H39.3844C39.5523 52.7627 39.7091 52.6783 39.8234 52.541C39.9378 52.4036 40.0014 52.2233 40.0014 52.0362C40.0014 51.849 39.9378 51.6687 39.8234 51.5313C39.7091 51.394 39.5523 51.3096 39.3844 51.2952ZM19.3844 51.2952H16.615C16.4471 51.3096 16.2903 51.394 16.176 51.5313C16.0616 51.6687 15.998 51.849 15.998 52.0362C15.998 52.2233 16.0616 52.4036 16.176 52.541C16.2903 52.6783 16.4471 52.7627 16.615 52.7771H19.3844C19.5523 52.7627 19.7091 52.6783 19.8234 52.541C19.9378 52.4036 20.0014 52.2233 20.0014 52.0362C20.0014 51.849 19.9378 51.6687 19.8234 51.5313C19.7091 51.394 19.5523 51.3096 19.3844 51.2952ZM34.6664 51.2952H21.333C21.1562 51.2952 20.9867 51.3732 20.8616 51.5122C20.7366 51.6512 20.6664 51.8396 20.6664 52.0362C20.6664 52.2327 20.7366 52.4212 20.8616 52.5601C20.9867 52.6991 21.1562 52.7771 21.333 52.7771H26.6464V53.5181H23.9997C23.8229 53.5181 23.6533 53.5962 23.5283 53.7352C23.4033 53.8741 23.333 54.0626 23.333 54.2591C23.333 54.4556 23.4033 54.6441 23.5283 54.7831C23.6533 54.922 23.8229 55.0001 23.9997 55.0001H32.333C32.5098 55.0001 32.6794 54.922 32.8044 54.7831C32.9295 54.6441 32.9997 54.4556 32.9997 54.2591C32.9997 54.0626 32.9295 53.8741 32.8044 53.7352C32.6794 53.5962 32.5098 53.5181 32.333 53.5181H29.353V52.7771H34.6664C34.8432 52.7771 35.0127 52.6991 35.1378 52.5601C35.2628 52.4212 35.333 52.2327 35.333 52.0362C35.333 51.8396 35.2628 51.6512 35.1378 51.5122C35.0127 51.3732 34.8432 51.2952 34.6664 51.2952Z" fill="#05FF00"/>
<path d="M50.2401 48.3311H43.9321C45.8206 47.4155 47.5706 46.1811 49.1201 44.6717C49.1882 44.6014 49.2423 44.5161 49.279 44.4212C49.3157 44.3262 49.3341 44.2238 49.3331 44.1205C49.332 44.0172 49.3116 43.9153 49.273 43.8213C49.2344 43.7273 49.1786 43.6433 49.1091 43.5747C48.9058 43.3739 44.0991 38.6949 38.0918 38.6949C38.0468 38.6949 38.0011 38.6949 37.9561 38.6957C35.716 38.7557 33.5174 39.3803 31.5261 40.5222C32.9491 37.8176 34.3331 34.1319 34.3331 30.0098C34.3331 21.7203 28.7318 14.7691 28.4931 14.4775C28.429 14.4042 28.3523 14.3459 28.2676 14.3062C28.1828 14.2664 28.0918 14.2458 27.9998 14.2458C27.9078 14.2458 27.8167 14.2664 27.732 14.3062C27.6473 14.3459 27.5706 14.4042 27.5064 14.4775C27.2678 14.7691 21.6664 21.7203 21.6664 30.0098C21.6664 34.1319 23.0504 37.8169 24.4731 40.5218C22.4818 39.3799 20.2832 38.7554 18.0431 38.6953L17.9078 38.6949C11.9011 38.6949 7.09344 43.3743 6.89044 43.5743C6.82089 43.6429 6.76501 43.727 6.72641 43.821C6.6878 43.915 6.66733 44.017 6.66629 44.1203C6.66526 44.2237 6.68368 44.3261 6.72039 44.4211C6.7571 44.5161 6.81128 44.6014 6.87944 44.6717C8.42895 46.1811 10.1789 47.4155 12.0674 48.3311H5.75944C5.6646 48.3173 5.5682 48.3262 5.4767 48.3572C5.38519 48.3881 5.30067 48.4404 5.22879 48.5105C5.15691 48.5806 5.09932 48.667 5.05986 48.7639C5.02041 48.8607 5 48.9658 5 49.0721C5 49.1784 5.02041 49.2835 5.05986 49.3803C5.09932 49.4772 5.15691 49.5636 5.22879 49.6337C5.30067 49.7038 5.38519 49.7561 5.4767 49.7871C5.5682 49.818 5.6646 49.8269 5.75944 49.8131H50.2398C50.3346 49.8269 50.431 49.818 50.5225 49.7871C50.614 49.7561 50.6986 49.7038 50.7704 49.6337C50.8423 49.5636 50.8999 49.4772 50.9394 49.3803C50.9788 49.2835 50.9992 49.1784 50.9992 49.0721C50.9992 48.9658 50.9788 48.8607 50.9394 48.7639C50.8999 48.667 50.8423 48.5806 50.7704 48.5105C50.6986 48.4404 50.614 48.3881 50.5225 48.3572C50.431 48.3262 50.3349 48.3173 50.2401 48.3311ZM37.9701 40.178L38.0891 40.1773C42.4164 40.1773 46.1868 42.9452 47.6148 44.1427C46.2018 45.3849 42.4451 48.2785 38.0581 48.33C33.6774 48.3715 30.0298 45.5602 28.6824 44.3631C30.0044 43.1342 33.5884 40.2295 37.9701 40.178ZM22.9998 30.0098C22.9998 23.6947 26.6508 18.0154 28.0001 16.1322C29.3501 18.0132 32.9998 23.684 32.9998 30.0098C32.9998 36.3319 29.3358 41.7434 27.9998 43.5058C26.6638 41.7434 22.9998 36.3319 22.9998 30.0098ZM17.9104 40.1773L18.0294 40.178C22.4111 40.2295 25.9951 43.1346 27.3171 44.3631C25.9698 45.5602 22.3308 48.3678 17.9411 48.33C13.5658 48.2785 9.80177 45.3846 8.38577 44.1419C9.81444 42.9438 13.5838 40.1773 17.9104 40.1773ZM24.0134 48.3311C25.4354 47.6253 26.7741 46.7284 27.9998 45.6606C29.2249 46.7285 30.5632 47.6254 31.9848 48.3311H24.0134Z" fill="#05FF00"/>
</svg>
