<svg width="30" height="35" viewBox="0 0 30 35" fill="none" xmlns="http://www.w3.org/2000/svg">
<path fill-rule="evenodd" clip-rule="evenodd" d="M6.85714 7.73256C6.85714 5.68176 7.71505 3.71495 9.24213 2.26481C10.7692 0.814678 12.8404 0 15 0C17.1596 0 19.2308 0.814678 20.7579 2.26481C22.285 3.71495 23.1429 5.68176 23.1429 7.73256C23.1429 9.78336 22.285 11.7502 20.7579 13.2003C19.2308 14.6504 17.1596 15.4651 15 15.4651C12.8404 15.4651 10.7692 14.6504 9.24213 13.2003C7.71505 11.7502 6.85714 9.78336 6.85714 7.73256ZM9.51429 19.5349C6.99094 19.5349 4.57094 20.4868 2.78667 22.1811C1.0024 23.8755 0 26.1736 0 28.5698C0 30.2752 0.713416 31.9107 1.98331 33.1166C3.25319 34.3225 4.97553 35 6.77143 35H23.2286C25.0245 35 26.7468 34.3225 28.0167 33.1166C29.2866 31.9107 30 30.2752 30 28.5698C30 27.3833 29.7539 26.2084 29.2758 25.1123C28.7976 24.0161 28.0968 23.0201 27.2133 22.1811C26.3298 21.3422 25.281 20.6767 24.1267 20.2226C22.9723 19.7686 21.7351 19.5349 20.4857 19.5349H9.51429Z" fill="#737474"/>
</svg>
