<svg width="13" height="29" viewBox="0 0 13 29" fill="none" xmlns="http://www.w3.org/2000/svg">
<path d="M10.843 28.9999C10.5655 29.0009 10.2913 28.9326 10.0406 28.8C9.78988 28.6674 9.56899 28.4738 9.39417 28.2335L0.422554 15.8061C0.149353 15.4355 0 14.9706 0 14.4909C0 14.0111 0.149353 13.5462 0.422554 13.1756L9.70994 0.748238C10.0252 0.325258 10.4783 0.0592605 10.9695 0.00876442C11.4606 -0.0417317 11.9497 0.127409 12.329 0.478977C12.7083 0.830545 12.9469 1.33574 12.9921 1.88343C13.0374 2.43112 12.8857 2.97644 12.5705 3.39942L4.26753 14.5012L12.2918 25.603C12.519 25.9071 12.6633 26.2773 12.7076 26.6699C12.752 27.0625 12.6945 27.461 12.5421 27.8184C12.3897 28.1757 12.1487 28.4769 11.8476 28.6863C11.5464 28.8957 11.1978 29.0045 10.843 28.9999Z" fill="#8E8E8E"/>
</svg>
