<svg width="35" height="35" viewBox="0 0 35 35" fill="none" xmlns="http://www.w3.org/2000/svg">
<path id="Vector" fill-rule="evenodd" clip-rule="evenodd" d="M17.5 35C15.2019 35 12.9262 34.5473 10.803 33.6679C8.67984 32.7884 6.75066 31.4994 5.12563 29.8744C3.5006 28.2493 2.21157 26.3202 1.3321 24.1971C0.452647 22.0737 0 19.7981 0 17.5C0 15.2019 0.452647 12.9262 1.3321 10.803C2.21157 8.67984 3.5006 6.75066 5.12563 5.12563C6.75066 3.5006 8.67984 2.21157 10.803 1.3321C12.9262 0.452647 15.2019 0 17.5 0C22.1412 0 26.5924 1.84374 29.8744 5.12563C33.1563 8.40753 35 12.8587 35 17.5C35 22.1412 33.1563 26.5924 29.8744 29.8744C26.5924 33.1563 22.1412 35 17.5 35ZM15.3592 14.0389C14.8769 14.2858 14.2897 14.8692 14.0408 15.3572L10.1889 22.9386C9.11944 25.0464 9.95944 25.8825 12.0653 24.8111L19.6447 20.9611C20.1269 20.7142 20.7142 20.1308 20.9611 19.6428L24.8131 12.0614C25.8864 9.95556 25.0464 9.1175 22.9386 10.1869L15.3611 14.0408L15.3592 14.0389ZM17.5 19.4444C16.9843 19.4444 16.4897 19.2395 16.1251 18.8749C15.7605 18.5103 15.5556 18.0157 15.5556 17.5C15.5556 16.9843 15.7605 16.4897 16.1251 16.1251C16.4897 15.7605 16.9843 15.5556 17.5 15.5556C18.0157 15.5556 18.5103 15.7605 18.8749 16.1251C19.2395 16.4897 19.4444 16.9843 19.4444 17.5C19.4444 18.0157 19.2395 18.5103 18.8749 18.8749C18.5103 19.2395 18.0157 19.4444 17.5 19.4444Z" fill="#737474"/>
</svg>
