<svg width="31" height="36" viewBox="0 0 31 36" fill="none" xmlns="http://www.w3.org/2000/svg">
<g id="Group 601">
<path id="Vector" d="M8.75 9.43373V7.74699C8.75 4.02073 11.7731 1 15.5023 1C19.2314 1 22.2546 4.02073 22.2546 7.74699V9.43373" stroke="#737474" stroke-width="1.5" stroke-linecap="round" stroke-linejoin="round"/>
<path id="Vector_2" fill-rule="evenodd" clip-rule="evenodd" d="M1.64721 15.1218C2.17835 11.1414 5.57641 8.1687 9.59523 8.1687H21.4047C25.4237 8.1687 28.8216 11.1414 29.3528 15.1218L30.9283 26.929C31.5693 31.7322 27.8297 36 22.9804 36H8.0197C3.17028 36 -0.569246 31.7322 0.0716659 26.929L1.64721 15.1218ZM11.7011 17.8675C11.7011 19.9634 13.4017 21.6627 15.4993 21.6627C17.5969 21.6627 19.2975 19.9634 19.2975 17.8675V16.1807C19.2975 15.4821 19.8643 14.9157 20.5635 14.9157C21.2627 14.9157 21.8296 15.4821 21.8296 16.1807V17.8675C21.8296 21.3609 18.9955 24.1928 15.4993 24.1928C12.0032 24.1928 9.16903 21.3609 9.16903 17.8675V16.1807C9.16903 15.4821 9.73587 14.9157 10.4351 14.9157C11.1343 14.9157 11.7011 15.4821 11.7011 16.1807V17.8675Z" fill="#737474"/>
</g>
</svg>
