<svg width="20" height="20" viewBox="0 0 20 20" fill="none" xmlns="http://www.w3.org/2000/svg">
<g id="&#240;&#159;&#166;&#134; icon &#34;user unfollow stroke&#34;">
<path id="Vector" d="M6.66614 12.8573C10.1125 12.8573 13.0363 15.6044 13.3296 19.2243C13.3403 19.4103 13.2828 19.5936 13.1692 19.7348C13.0556 19.876 12.8949 19.964 12.7216 19.9801C12.5482 19.9961 12.3759 19.9389 12.2414 19.8206C12.1069 19.7023 12.0209 19.5324 12.0017 19.3471C11.7684 16.4801 9.43391 14.2858 6.66614 14.2858C3.95304 14.2858 1.56657 16.5672 1.33059 19.35C1.32271 19.4434 1.29774 19.5342 1.25709 19.6173C1.21645 19.7004 1.16093 19.7741 1.09371 19.8342C1.02648 19.8943 0.94887 19.9396 0.865301 19.9676C0.781733 19.9955 0.693844 20.0055 0.606654 19.9971C0.519464 19.9887 0.434679 19.9619 0.357141 19.9184C0.279602 19.8748 0.210829 19.8153 0.154747 19.7433C0.0986652 19.6712 0.0563732 19.5881 0.0302858 19.4985C0.00419842 19.409 -0.0051735 19.3148 0.00270515 19.2214C0.301347 15.6944 3.2691 12.8573 6.66614 12.8573ZM6.66614 2.85756C7.72692 2.85756 8.74425 3.30908 9.49433 4.11278C10.2444 4.91649 10.6658 6.00655 10.6658 7.14316C10.6658 8.27977 10.2444 9.36983 9.49433 10.1735C8.74425 10.9772 7.72692 11.4288 6.66614 11.4288C5.60537 11.4288 4.58804 10.9772 3.83795 10.1735C3.08787 9.36983 2.66648 8.27977 2.66648 7.14316C2.66648 6.00655 3.08787 4.91649 3.83795 4.11278C4.58804 3.30908 5.60537 2.85756 6.66614 2.85756ZM6.66614 4.28609C5.95896 4.28609 5.28074 4.5871 4.78068 5.12291C4.28063 5.65871 3.9997 6.38542 3.9997 7.14316C3.9997 7.9009 4.28063 8.62761 4.78068 9.16341C5.28074 9.69921 5.95896 10.0002 6.66614 10.0002C7.37333 10.0002 8.05155 9.69921 8.5516 9.16341C9.05166 8.62761 9.33258 7.9009 9.33258 7.14316C9.33258 6.38542 9.05166 5.65871 8.5516 5.12291C8.05155 4.5871 7.37333 4.28609 6.66614 4.28609ZM14.3775 0.127631L14.4708 0.209057L16.6653 2.56185L18.8598 0.209057C18.9702 0.090953 19.1159 0.0181167 19.2713 0.00323735C19.4267 -0.0116419 19.5821 0.0323789 19.7104 0.127631L19.8037 0.209057C19.8658 0.275406 19.915 0.354227 19.9486 0.441003C19.9822 0.52778 19.9995 0.620807 19.9995 0.714758C19.9995 0.808709 19.9822 0.901737 19.9486 0.988513C19.915 1.07529 19.8658 1.15411 19.8037 1.22046L17.6079 3.57183L19.8037 5.92319C19.9218 6.04917 19.9916 6.21798 19.9993 6.39635C20.007 6.57473 19.9521 6.74972 19.8453 6.88686C19.7386 7.02399 19.5878 7.11331 19.4226 7.13722C19.2575 7.16112 19.09 7.11788 18.9531 7.01602L18.8598 6.93459L16.6653 4.5818L14.4708 6.93459C14.3604 7.0527 14.2147 7.12553 14.0593 7.14041C13.9039 7.15529 13.7485 7.11127 13.6202 7.01602L13.5269 6.93459C13.4648 6.86824 13.4156 6.78942 13.382 6.70265C13.3484 6.61587 13.3311 6.52284 13.3311 6.42889C13.3311 6.33494 13.3484 6.24191 13.382 6.15514C13.4156 6.06836 13.4648 5.98954 13.5269 5.92319L15.7227 3.57183L13.5269 1.22046C13.4088 1.09448 13.339 0.925667 13.3313 0.747295C13.3236 0.568923 13.3785 0.393927 13.4853 0.256795C13.592 0.119663 13.7428 0.0303413 13.908 0.00643327C14.0731 -0.0174747 14.2406 0.0257649 14.3775 0.127631Z" fill="#FF0000"/>
</g>
</svg>
