<svg width="23" height="6" viewBox="0 0 23 6" fill="none" xmlns="http://www.w3.org/2000/svg">
<g id="&#240;&#159;&#166;&#134; icon &#34;options horizontal&#34;">
<path id="Vector" d="M11.5 6C12.2625 6 12.9938 5.68393 13.5329 5.12132C14.0721 4.55871 14.375 3.79565 14.375 3C14.375 2.20435 14.0721 1.44129 13.5329 0.87868C12.9938 0.316071 12.2625 0 11.5 0C10.7375 0 10.0062 0.316071 9.46707 0.87868C8.9279 1.44129 8.625 2.20435 8.625 3C8.625 3.79565 8.9279 4.55871 9.46707 5.12132C10.0062 5.68393 10.7375 6 11.5 6ZM2.875 6C3.6375 6 4.36876 5.68393 4.90793 5.12132C5.4471 4.55871 5.75 3.79565 5.75 3C5.75 2.20435 5.4471 1.44129 4.90793 0.87868C4.36876 0.316071 3.6375 0 2.875 0C2.1125 0 1.38123 0.316071 0.842068 0.87868C0.302901 1.44129 0 2.20435 0 3C0 3.79565 0.302901 4.55871 0.842068 5.12132C1.38123 5.68393 2.1125 6 2.875 6ZM20.125 6C20.8875 6 21.6188 5.68393 22.1579 5.12132C22.6971 4.55871 23 3.79565 23 3C23 2.20435 22.6971 1.44129 22.1579 0.87868C21.6188 0.316071 20.8875 0 20.125 0C19.3625 0 18.6312 0.316071 18.0921 0.87868C17.5529 1.44129 17.25 2.20435 17.25 3C17.25 3.79565 17.5529 4.55871 18.0921 5.12132C18.6312 5.68393 19.3625 6 20.125 6Z" fill="#9F9F9F"/>
</g>
</svg>
