<svg width="38" height="35" viewBox="0 0 38 35" fill="none" xmlns="http://www.w3.org/2000/svg">
<path id="Subtract" fill-rule="evenodd" clip-rule="evenodd" d="M33.1431 11.2656C33.3521 12.411 33.4733 13.5881 33.4733 14.7971C33.4733 24.1335 26.9657 31.9168 18.3967 33.5885C20.2089 34.4794 22.2395 35 24.4031 35C26.4432 35 28.3694 34.543 30.1079 33.7476C32.3095 34.6616 34.713 34.8988 36.7009 34.8988C35.8032 33.5878 35.0429 32.146 34.4375 30.6066C36.6415 28.2117 38 25.0388 38 21.5449C38 17.4147 36.1071 13.7327 33.1431 11.2656ZM29.9107 14.7971C29.9107 6.62631 23.2156 0 14.9554 0C6.69513 0 0 6.62631 0 14.7971C0 19.0604 1.83112 22.8898 4.74762 25.5913C4.01621 27.8727 2.98552 29.9943 1.69575 31.8734C4.6835 31.8734 8.531 31.3962 11.4926 29.1806C12.6065 29.4438 13.7631 29.5971 14.9554 29.5971C23.2156 29.5942 29.9107 22.9708 29.9107 14.7971ZM7 12.5C7 11.6716 7.67157 11 8.5 11H19.5C20.3284 11 21 11.6716 21 12.5C21 13.3284 20.3284 14 19.5 14H8.5C7.67157 14 7 13.3284 7 12.5ZM8.5 16C7.67157 16 7 16.6716 7 17.5C7 18.3284 7.67157 19 8.5 19H13.5C14.3284 19 15 18.3284 15 17.5C15 16.6716 14.3284 16 13.5 16H8.5Z" fill="#737474"/>
</svg>
