<svg width="40" height="41" viewBox="0 0 40 41" fill="none" xmlns="http://www.w3.org/2000/svg">
<path d="M34 4.10035H31.1C30.8611 3.35275 30.4881 2.65749 30 2.05037C29.4341 1.40183 28.7404 0.883757 27.9646 0.530378C27.1889 0.176998 26.3489 -0.00364286 25.5 0.00038951H14.54C13.6844 -0.00948063 12.8366 0.168335 12.0536 0.521905C11.2706 0.875475 10.5704 1.39662 10 2.05037C9.4977 2.6542 9.11094 3.34967 8.86 4.10035H6C4.4087 4.10035 2.88258 4.74829 1.75736 5.90163C0.632141 7.05496 0 8.61922 0 10.2503V34.8501C0 36.4811 0.632141 38.0454 1.75736 39.1987C2.88258 40.3521 4.4087 41 6 41H34C35.5913 41 37.1174 40.3521 38.2426 39.1987C39.3679 38.0454 40 36.4811 40 34.8501V10.2503C40 8.61922 39.3679 7.05496 38.2426 5.90163C37.1174 4.74829 35.5913 4.10035 34 4.10035ZM13.04 4.79734C13.2274 4.57868 13.4581 4.40342 13.7168 4.28324C13.9754 4.16307 14.256 4.10072 14.54 4.10035H25.46C25.744 4.10072 26.0246 4.16307 26.2832 4.28324C26.5419 4.40342 26.7726 4.57868 26.96 4.79734C27.1487 5.01259 27.2909 5.26636 27.377 5.54196C27.4632 5.81755 27.4915 6.10873 27.46 6.39633L26.46 14.5962C26.401 15.0963 26.1646 15.5565 25.7957 15.8893C25.4268 16.222 24.9514 16.4039 24.46 16.4002H21.18L23.46 11.4803C23.6449 10.9978 23.6446 10.4615 23.4591 9.97922C23.2737 9.49698 22.9169 9.10464 22.4606 8.88118C22.0043 8.65772 21.4824 8.61973 20.9998 8.77487C20.5173 8.93001 20.11 9.26674 19.86 9.7173L16.74 16.4002H15.54C15.0486 16.4039 14.5732 16.222 14.2043 15.8893C13.8354 15.5565 13.599 15.0963 13.54 14.5962L12.54 6.39633C12.5085 6.10873 12.5368 5.81755 12.623 5.54196C12.7091 5.26636 12.8513 5.01259 13.04 4.79734ZM36 34.8501C36 35.3937 35.7893 35.9152 35.4142 36.2996C35.0391 36.6841 34.5304 36.9 34 36.9H6C5.46957 36.9 4.96086 36.6841 4.58579 36.2996C4.21071 35.9152 4 35.3937 4 34.8501V10.2503C4 9.7066 4.21071 9.18518 4.58579 8.80074C4.96086 8.41629 5.46957 8.20031 6 8.20031H8.74L9.58 15.1087C9.76139 16.6051 10.4728 17.9809 11.5789 18.9749C12.6851 19.9689 14.109 20.5117 15.58 20.5002H24.5C25.971 20.5117 27.3949 19.9689 28.5011 18.9749C29.6072 17.9809 30.3186 16.6051 30.5 15.1087L31.26 8.20031H34C34.5304 8.20031 35.0391 8.41629 35.4142 8.80074C35.7893 9.18518 36 9.7066 36 10.2503V34.8501ZM24 28.7001H16C15.4696 28.7001 14.9609 28.9161 14.5858 29.3005C14.2107 29.685 14 30.2064 14 30.7501C14 31.2938 14.2107 31.8152 14.5858 32.1996C14.9609 32.5841 15.4696 32.8001 16 32.8001H24C24.5304 32.8001 25.0391 32.5841 25.4142 32.1996C25.7893 31.8152 26 31.2938 26 30.7501C26 30.2064 25.7893 29.685 25.4142 29.3005C25.0391 28.9161 24.5304 28.7001 24 28.7001Z" fill="#1FE132"/>
</svg>
