<svg width="31" height="31" viewBox="0 0 31 31" fill="none" xmlns="http://www.w3.org/2000/svg">
<g id="Frame">
<path id="Vector" d="M15.7736 14.2373C15.7443 14.2537 15.715 14.2666 15.6795 14.283L15.6502 14.2893C15.4913 14.3252 15.3418 14.3022 15.1957 14.2373L15.1894 14.2244L15.0172 14.1596L15.0009 14.153H14.988C13.8131 13.7863 12.8619 13.2022 12.0864 12.4392C11.2489 11.6181 10.616 10.5958 10.1845 9.47284C10.0674 9.15461 10.2134 8.80713 10.5284 8.69352C10.8463 8.56385 11.2001 8.72279 11.3203 9.03788C11.7034 9.9953 12.229 10.8747 12.9431 11.5759C13.576 12.1925 14.3616 12.6828 15.3417 12.9847L15.371 13.0007L15.4425 13.0136L15.501 13.0429L15.5561 13.0136L15.5983 13.0007L15.6565 12.9847C16.624 12.6828 17.4221 12.1925 18.0488 11.5759C18.7692 10.8747 19.2952 9.9953 19.6747 9.03788C19.7918 8.72279 20.1518 8.56385 20.4537 8.69352C20.7719 8.80713 20.9148 9.15461 20.8012 9.47284C20.3662 10.5958 19.7496 11.6181 18.8992 12.4392C18.1363 13.2022 17.1691 13.7863 16.0039 14.153H15.9942L15.9746 14.1596L15.8157 14.2244L15.7736 14.2373Z" fill="#42FF00"/>
<path id="Vector_2" d="M6.17449 26.6685H7.0249C7.17442 23.5721 7.87534 21.2384 8.89129 19.489L8.90419 19.4531C9.96896 17.6226 11.3809 16.4282 12.864 15.698C11.3809 14.958 9.96896 13.7766 8.90419 11.9461L8.89129 11.9133C7.83977 10.0894 7.11902 7.62591 7.00886 4.32807H6.17446C5.60665 4.32807 5.15882 3.88339 5.15882 3.31873C5.15882 2.76037 5.60665 2.3125 6.17446 2.3125H24.8277C25.3893 2.3125 25.8437 2.76037 25.8437 3.31873C25.8437 3.88336 25.3893 4.32807 24.8277 4.32807H23.9906C23.8703 7.62591 23.1628 10.0894 22.1113 11.9133L22.0918 11.9461C21.0238 13.7766 19.6185 14.958 18.1285 15.698C19.6185 16.4282 21.0238 17.6226 22.0918 19.4531L22.1113 19.489C23.1206 21.2384 23.8184 23.5721 23.9711 26.6685H24.8277C25.3893 26.6685 25.8438 27.1164 25.8438 27.6619C25.8438 28.2394 25.3893 28.6876 24.8277 28.6876H6.17452C5.60671 28.6876 5.15888 28.2394 5.15888 27.6619C5.15885 27.1164 5.60668 26.6685 6.17449 26.6685ZM22.2866 23.241C21.9813 22.0013 21.5658 20.9658 21.0594 20.1024L21.0465 20.0572C19.8228 17.9537 18.0801 16.8308 16.3078 16.2821L16.2364 16.2399H16.2203C16.1844 16.2271 16.1489 16.2107 16.1196 16.1849L16.1067 16.1685L16.0611 16.1392L16.0547 16.1263L16.0126 16.081L16.0059 16.0678C15.9767 16.0388 15.9607 16.0029 15.9314 15.9674V15.951C15.9052 15.9089 15.8892 15.86 15.8892 15.8085L15.8826 15.7952V15.75L15.8759 15.714V15.6851L15.8826 15.6492V15.6199L15.8892 15.5941C15.8892 15.5422 15.9052 15.4902 15.9314 15.4481V15.4352C15.9607 15.3895 15.9767 15.3602 16.0059 15.3345L16.0126 15.3118L16.0547 15.2759H16.0611L16.1067 15.2337L16.1196 15.2177C16.1489 15.1981 16.1844 15.1755 16.2203 15.1525L16.2364 15.1462L16.3078 15.117C18.0801 14.5847 19.8228 13.4454 21.0465 11.3291L21.0594 11.313C22.0105 9.6512 22.6598 7.38221 22.7766 4.32801H8.22597C8.32669 7.38221 8.97566 9.6512 9.93969 11.313L9.9557 11.3291C11.1732 13.4454 12.9224 14.5847 14.6784 15.117L14.7662 15.1462L14.7822 15.1525C14.8181 15.1755 14.847 15.1982 14.8829 15.2177L14.8959 15.2337L14.938 15.2759L14.99 15.3118L14.9966 15.3345C15.0192 15.3602 15.0419 15.3895 15.0548 15.4352L15.068 15.4481C15.0841 15.4903 15.097 15.5422 15.1134 15.5941V15.8085C15.097 15.86 15.0841 15.9089 15.068 15.951L15.0548 15.9674C15.0419 16.003 15.0192 16.0388 14.9966 16.0678L14.99 16.081L14.938 16.1263V16.1392L14.8959 16.1685L14.8829 16.1849C14.8536 16.2107 14.8181 16.2271 14.7822 16.2399H14.7662L14.6784 16.2821C12.9224 16.8308 11.1732 17.9537 9.9557 20.0572L9.93969 20.1024C9.43016 20.9658 9.0178 23.3191 8.71598 24.5428C9.40751 23.6341 10.2447 22.9005 11.1794 22.3616C12.5039 21.6053 14.0032 21.216 15.5093 21.216C16.9992 21.216 18.4987 21.6053 19.8294 22.3682C20.7446 22.9005 21.5047 23.3903 22.3168 24.1795L22.5287 24.5428L22.2866 23.241ZM22.6306 26.7896C21.7497 24.766 20.7575 24.3124 19.2191 23.4198C18.0864 22.7576 16.7979 22.4264 15.5093 22.4264C14.2044 22.4264 12.9225 22.7576 11.7831 23.4198C10.2447 24.3124 9.82074 24.6168 8.37198 26.6685L22.6306 26.7896Z" fill="#42FF00"/>
<path id="Vector_3" d="M15.4985 19.7383C14.9217 19.7383 14.4541 19.2436 14.4541 18.6333C14.4541 18.023 14.9217 16.7412 15.4985 16.7412C16.0754 16.7412 16.543 18.023 16.543 18.6333C16.543 19.2436 16.0754 19.7383 15.4985 19.7383Z" fill="#42FF00"/>
</g>
</svg>
