<svg width="20" height="20" viewBox="0 0 20 20" fill="none" xmlns="http://www.w3.org/2000/svg">
<g id="&#240;&#159;&#166;&#134; icon &#34;report&#34;">
<path id="Vector" fill-rule="evenodd" clip-rule="evenodd" d="M14 0C14.2652 0 14.5196 0.105357 14.7071 0.292893L19.7071 5.29289C19.8946 5.48043 20 5.73478 20 6V13C20 13.2339 19.918 13.4605 19.7682 13.6402L14.7682 19.6402C14.5782 19.8682 14.2968 20 14 20H6C5.73478 20 5.48043 19.8946 5.29289 19.7071L0.292893 14.7071C0.105357 14.5196 0 14.2652 0 14V6C0 5.73478 0.105357 5.48043 0.292893 5.29289L5.29289 0.292893C5.48043 0.105357 5.73478 0 6 0H14ZM13.5858 2H6.41421L2 6.41421V13.5858L6.41421 18H13.5316L18 12.6379V6.41421L13.5858 2ZM10 14C10.5523 14 11 14.4477 11 15C11 15.5523 10.5523 16 10 16C9.44772 16 9 15.5523 9 15C9 14.4477 9.44772 14 10 14ZM10 4C10.5523 4 11 4.44772 11 5V11C11 11.5523 10.5523 12 10 12C9.44772 12 9 11.5523 9 11V5C9 4.44772 9.44772 4 10 4Z" fill="#FF0000"/>
</g>
</svg>
