<svg width="273" height="268" viewBox="0 0 273 268" fill="none" xmlns="http://www.w3.org/2000/svg">
<path d="M136.069 253.019C203.938 253.019 258.957 221.836 258.957 183.371C258.957 144.906 203.938 113.723 136.069 113.723C68.1996 113.723 13.1807 144.906 13.1807 183.371C13.1807 221.836 68.1996 253.019 136.069 253.019Z" fill="#92E3A9"/>
<path opacity="0.3" d="M136.069 253.019C203.938 253.019 258.957 221.836 258.957 183.371C258.957 144.906 203.938 113.723 136.069 113.723C68.1996 113.723 13.1807 144.906 13.1807 183.371C13.1807 221.836 68.1996 253.019 136.069 253.019Z" fill="black"/>
<path d="M49.1789 134.118C29.3809 145.342 17.762 159.433 14.2949 174.034L152.537 252.392C178.297 250.424 203.167 243.816 222.971 232.619C228.553 229.493 233.814 225.843 238.679 221.722L68.3981 125.242C61.7629 127.697 55.3364 130.665 49.1789 134.118Z" fill="#92E3A9"/>
<path opacity="0.5" d="M49.1789 134.118C29.3809 145.342 17.762 159.433 14.2949 174.034L152.537 252.392C178.297 250.424 203.167 243.816 222.971 232.619C228.553 229.493 233.814 225.843 238.679 221.722L68.3981 125.242C61.7629 127.697 55.3364 130.665 49.1789 134.118Z" fill="white"/>
<path opacity="0.1" d="M123.118 213.548C142.703 213.548 158.581 204.549 158.581 193.448C158.581 182.347 142.703 173.348 123.118 173.348C103.532 173.348 87.6553 182.347 87.6553 193.448C87.6553 204.549 103.532 213.548 123.118 213.548Z" fill="black"/>
<path opacity="0.1" d="M209.621 178.627C227.077 178.627 241.229 170.607 241.229 160.714C241.229 150.821 227.077 142.801 209.621 142.801C192.164 142.801 178.013 150.821 178.013 160.714C178.013 170.607 192.164 178.627 209.621 178.627Z" fill="black"/>
<path d="M77.2917 39.2727L77.2589 39.2406C77.0694 39.0758 76.8647 38.9286 76.6474 38.801C75.8721 38.3508 72.3831 36.3837 72.2029 36.2711C70.3575 35.1241 67.4364 35.376 64.8265 36.6678C61.1028 38.517 57.996 42.4244 55.6209 48.9207C55.6209 48.9207 53.224 47.2323 52.4432 46.8089C50.5158 45.7744 48.2663 46.2729 45.7274 47.8809C42.8664 49.7086 40.9171 52.0778 39.1372 55.6636L39.1044 55.7279C37.5633 58.7706 36.7191 62.1076 36.631 65.5046C36.6037 73.0086 39.7651 76.6105 43.8437 79.3012C45.0067 80.0677 48.0861 81.6918 48.3919 81.8901C50.8539 83.485 53.5759 84.6543 56.4399 85.3473L60.4639 86.2692L64.4825 80.7913C67.4092 76.7533 70.0963 72.553 72.5305 68.2114C76.6092 60.895 79.7705 53.7394 79.7432 46.2354C79.7487 43.0301 78.8095 40.6395 77.2917 39.2727Z" fill="#92E3A9"/>
<path opacity="0.3" d="M77.2917 39.2727L77.2589 39.2406C77.0694 39.0758 76.8647 38.9286 76.6474 38.801C75.8721 38.3508 72.3831 36.3837 72.2029 36.2711C70.3575 35.1241 67.4364 35.376 64.8265 36.6678C61.1028 38.517 57.996 42.4244 55.6209 48.9207C55.6209 48.9207 53.224 47.2323 52.4432 46.8089C50.5158 45.7744 48.2663 46.2729 45.7274 47.8809C42.8664 49.7086 40.9171 52.0778 39.1372 55.6636L39.1044 55.7279C37.5633 58.7706 36.7191 62.1076 36.631 65.5046C36.6037 73.0086 39.7651 76.6105 43.8437 79.3012C45.0067 80.0677 48.0861 81.6918 48.3919 81.8901C50.8539 83.485 53.5759 84.6543 56.4399 85.3473L60.4639 86.2692L64.4825 80.7913C67.4092 76.7533 70.0963 72.553 72.5305 68.2114C76.6092 60.895 79.7705 53.7394 79.7432 46.2354C79.7487 43.0301 78.8095 40.6395 77.2917 39.2727Z" fill="black"/>
<path d="M77.2918 39.2727L77.259 39.2406C77.0695 39.0758 76.8648 38.9286 76.6475 38.801C75.8722 38.3508 72.3832 36.3837 72.2031 36.2711C70.3576 35.1241 67.4365 35.376 64.8266 36.6678C61.0974 38.517 57.9961 42.4244 55.621 48.9207C55.621 48.9207 53.2241 47.2323 52.4433 46.8089C50.5159 45.7744 48.2664 46.2729 45.7275 47.8809C42.8665 49.7086 40.9173 52.0778 39.1373 55.6636L39.1045 55.7279L38.8916 56.1942L69.3966 73.4856C70.4886 71.765 71.5315 70.0123 72.5361 68.2114C76.6147 60.895 79.7761 53.7394 79.7488 46.2354C79.7488 43.0301 78.8097 40.6395 77.2918 39.2727Z" fill="#92E3A9"/>
<path opacity="0.15" d="M77.2918 39.2727L77.259 39.2406C77.0695 39.0758 76.8648 38.9286 76.6475 38.801C75.8722 38.3508 72.3832 36.3837 72.2031 36.2711C70.3576 35.1241 67.4365 35.376 64.8266 36.6678C61.0974 38.517 57.9961 42.4244 55.621 48.9207C55.621 48.9207 53.2241 47.2323 52.4433 46.8089C50.5159 45.7744 48.2664 46.2729 45.7275 47.8809C42.8665 49.7086 40.9173 52.0778 39.1373 55.6636L39.1045 55.7279L38.8916 56.1942L69.3966 73.4856C70.4886 71.765 71.5315 70.0123 72.5361 68.2114C76.6147 60.895 79.7761 53.7394 79.7488 46.2354C79.7488 43.0301 78.8097 40.6395 77.2918 39.2727Z" fill="black"/>
<path d="M55.626 48.9101L59.7155 54.1415L66.3003 46.4927L58.8583 42.2744C57.5295 44.3596 56.4451 46.5856 55.626 48.9101Z" fill="#92E3A9"/>
<path opacity="0.3" d="M55.626 48.9101L59.7155 54.1415L66.3003 46.4927L58.8583 42.2744C57.5295 44.3596 56.4451 46.5856 55.626 48.9101Z" fill="black"/>
<path d="M77.2915 39.2727L77.2588 39.2406C75.4788 37.6755 72.2356 37.8416 69.3745 39.2406C65.4706 41.1863 62.2438 45.3831 59.8305 52.4744C57.4172 48.1221 54.1903 47.9827 50.2809 50.4751C47.4199 52.3029 45.4707 54.672 43.6798 58.2579L43.647 58.3275C42.1079 61.3724 41.2674 64.7114 41.1846 68.1095C41.1846 75.6135 44.3186 79.2101 48.3972 81.9008C50.8592 83.4958 53.5812 84.6651 56.4453 85.358L60.4693 86.2799L64.4879 80.802C67.4126 76.7627 70.0997 72.5626 72.5359 68.2221C76.6145 60.9057 79.7758 53.7501 79.7486 46.2461C79.7486 43.0301 78.8094 40.6395 77.2915 39.2727Z" fill="#92E3A9"/>
<g opacity="0.07">
<path d="M73.8572 38.5009C74.9864 38.4405 76.099 38.7875 76.9858 39.4764L77.0568 39.5568C78.5528 40.9021 79.3882 43.3088 79.3991 46.2514C79.3991 54.0717 75.79 61.6561 72.2301 68.0398C69.804 72.3666 67.126 76.5525 64.2094 80.5769L60.3437 85.8511L56.5818 84.9881C53.7609 84.3054 51.0796 83.1543 48.6539 81.5845C44.9793 79.1618 41.5558 75.8493 41.6104 68.1095C41.6973 64.767 42.5265 61.4835 44.0402 58.4883V58.424C45.831 54.8221 47.7584 52.528 50.4939 50.7967C52.1319 49.7247 53.5733 49.2262 54.8619 49.2262C56.7128 49.2262 58.2307 50.3518 59.5083 52.6566C59.5424 52.7168 59.5923 52.7669 59.6528 52.8018C59.7133 52.8367 59.7822 52.855 59.8523 52.8549H59.8851C59.9596 52.8471 60.0304 52.8189 60.0893 52.7734C60.1482 52.7278 60.1929 52.6669 60.2181 52.5977C62.5277 45.8226 65.5853 41.5668 69.5766 39.5889C70.9087 38.9142 72.3804 38.5475 73.879 38.5169M73.879 38.1364C72.3185 38.1699 70.7867 38.5551 69.4018 39.262C65.4707 41.1862 62.2438 45.3831 59.8305 52.4744C58.4327 49.9498 56.762 48.8457 54.84 48.8457C53.4477 48.8457 51.9244 49.4299 50.2809 50.4537C47.4199 52.3029 45.4707 54.672 43.6798 58.2578L43.647 58.3275C42.1079 61.3723 41.2674 64.7114 41.1846 68.1095C41.1846 75.6135 44.3186 79.2101 48.3972 81.9008C50.8592 83.4957 53.5812 84.665 56.4453 85.358L60.4693 86.2799L64.4879 80.802C67.4145 76.764 70.1017 72.5637 72.5359 68.2221C76.6145 60.9057 79.7758 53.7501 79.7486 46.2461C79.7486 43.0301 78.7985 40.6341 77.2806 39.2781L77.2479 39.2459C76.2909 38.4754 75.0772 38.0801 73.8408 38.1364H73.879Z" fill="black"/>
</g>
<path d="M76.8495 59.4961L69.0199 63.9288L66.1424 53.5465C66.0964 53.3905 65.9989 53.2539 65.8654 53.1581C65.7318 53.0622 65.5696 53.0126 65.4042 53.0169C65.2388 53.0211 65.0796 53.0791 64.9513 53.1818C64.8231 53.2844 64.7331 53.4259 64.6955 53.584L60.1637 73.8984L56.3417 63.6608C56.2882 63.5153 56.1889 63.3903 56.0582 63.3039C55.9275 63.2175 55.7722 63.1741 55.6147 63.1801C55.4572 63.1861 55.3058 63.2411 55.1823 63.3371C55.0587 63.4332 54.9696 63.5653 54.9276 63.7144L52.3614 72.6871L43.751 77.57C44.0353 77.9736 44.3415 78.3618 44.6683 78.7332L53.3715 73.802C53.5374 73.7058 53.6588 73.5501 53.71 73.3678L55.7466 66.2819L59.645 76.75C59.6971 76.9004 59.7992 77.0292 59.9348 77.1157C60.0705 77.2023 60.2319 77.2414 60.3931 77.227C60.5541 77.2166 60.7072 77.155 60.8294 77.0515C60.9515 76.948 61.036 76.8083 61.0701 76.6535L65.52 56.8161L67.8569 65.242C67.8859 65.3507 67.9402 65.4513 68.0154 65.536C68.0906 65.6207 68.1848 65.6872 68.2905 65.7303C68.3962 65.7734 68.5107 65.7919 68.6249 65.7843C68.7391 65.7768 68.85 65.7435 68.9489 65.6869L75.894 61.7259C76.2216 60.9808 76.5437 60.2358 76.8495 59.4961Z" fill="white"/>
<path d="M203.707 84.9883V158.956C203.707 159.846 204.302 160.73 205.498 161.411C206.839 162.077 208.322 162.424 209.825 162.424C211.328 162.424 212.811 162.077 214.152 161.411C215.342 160.73 215.943 159.846 215.943 158.956V84.9883H203.707Z" fill="#B16668"/>
<path d="M250.363 123.28L212.465 33.4143H207.185L169.26 123.28C168.987 123.93 168.863 124.631 168.899 125.334C168.934 126.036 169.128 126.722 169.465 127.342C169.803 127.962 170.277 128.501 170.852 128.92C171.427 129.339 172.09 129.628 172.793 129.766L173.41 129.884C174.612 130.116 175.68 130.787 176.397 131.762C177.115 132.737 177.428 133.943 177.275 135.136C177.175 135.924 177.277 136.724 177.572 137.464C177.868 138.203 178.347 138.858 178.967 139.368C179.586 139.879 180.326 140.229 181.119 140.387C181.912 140.545 182.732 140.505 183.505 140.271L185.378 139.703C186.505 139.364 187.718 139.439 188.793 139.915C189.867 140.39 190.728 141.233 191.215 142.287L193.098 146.366C193.377 146.976 193.784 147.522 194.293 147.967C194.801 148.413 195.4 148.747 196.049 148.95C196.699 149.152 197.385 149.218 198.062 149.142C198.739 149.066 199.392 148.85 199.978 148.51L207.333 144.222C208.081 143.787 208.934 143.558 209.803 143.558C210.673 143.558 211.526 143.787 212.274 144.222L219.623 148.51C220.21 148.851 220.863 149.066 221.541 149.142C222.218 149.218 222.904 149.152 223.554 148.95C224.204 148.748 224.803 148.413 225.312 147.967C225.821 147.522 226.229 146.976 226.508 146.366L228.392 142.287C228.875 141.229 229.736 140.381 230.812 139.903C231.888 139.425 233.106 139.35 234.234 139.692L236.107 140.261C236.88 140.494 237.7 140.534 238.493 140.376C239.286 140.218 240.026 139.868 240.645 139.358C241.265 138.847 241.744 138.192 242.04 137.453C242.335 136.714 242.437 135.914 242.337 135.126C242.185 133.933 242.499 132.729 243.215 131.754C243.931 130.78 244.996 130.107 246.197 129.873L246.819 129.75C247.521 129.614 248.184 129.327 248.759 128.91C249.335 128.492 249.809 127.955 250.148 127.337C250.487 126.718 250.682 126.033 250.719 125.332C250.756 124.631 250.635 123.93 250.363 123.28Z" fill="#92E3A9"/>
<path opacity="0.5" d="M250.363 123.28L212.465 33.4143H207.185L169.26 123.28C168.987 123.93 168.863 124.631 168.899 125.334C168.934 126.036 169.128 126.722 169.465 127.342C169.803 127.962 170.277 128.501 170.852 128.92C171.427 129.339 172.09 129.628 172.793 129.766L173.41 129.884C174.612 130.116 175.68 130.787 176.397 131.762C177.115 132.737 177.428 133.943 177.275 135.136C177.175 135.924 177.277 136.724 177.572 137.464C177.868 138.203 178.347 138.858 178.967 139.368C179.586 139.879 180.326 140.229 181.119 140.387C181.912 140.545 182.732 140.505 183.505 140.271L185.378 139.703C186.505 139.364 187.718 139.439 188.793 139.915C189.867 140.39 190.728 141.233 191.215 142.287L193.098 146.366C193.377 146.976 193.784 147.522 194.293 147.967C194.801 148.413 195.4 148.747 196.049 148.95C196.699 149.152 197.385 149.218 198.062 149.142C198.739 149.066 199.392 148.85 199.978 148.51L207.333 144.222C208.081 143.787 208.934 143.558 209.803 143.558C210.673 143.558 211.526 143.787 212.274 144.222L219.623 148.51C220.21 148.851 220.863 149.066 221.541 149.142C222.218 149.218 222.904 149.152 223.554 148.95C224.204 148.748 224.803 148.413 225.312 147.967C225.821 147.522 226.229 146.976 226.508 146.366L228.392 142.287C228.875 141.229 229.736 140.381 230.812 139.903C231.888 139.425 233.106 139.35 234.234 139.692L236.107 140.261C236.88 140.494 237.7 140.534 238.493 140.376C239.286 140.218 240.026 139.868 240.645 139.358C241.265 138.847 241.744 138.192 242.04 137.453C242.335 136.714 242.437 135.914 242.337 135.126C242.185 133.933 242.499 132.729 243.215 131.754C243.931 130.78 244.996 130.107 246.197 129.873L246.819 129.75C247.521 129.614 248.184 129.327 248.759 128.91C249.335 128.492 249.809 127.955 250.148 127.337C250.487 126.718 250.682 126.033 250.719 125.332C250.756 124.631 250.635 123.93 250.363 123.28Z" fill="black"/>
<path opacity="0.1" d="M202.949 43.4536L207.186 34.0093H212.466L219.493 50.0089L242.365 104.236C242.258 104.806 241.97 105.328 241.542 105.728C241.115 106.127 240.569 106.384 239.984 106.46C239.055 106.611 238.221 107.107 237.654 107.846C237.088 108.584 236.833 109.509 236.943 110.427L237.025 111.113C237.092 111.725 236.999 112.343 236.754 112.909C236.509 113.475 236.12 113.97 235.624 114.347C235.128 114.723 234.542 114.969 233.922 115.059C233.303 115.15 232.669 115.083 232.083 114.865L230.178 114.168C229.304 113.839 228.335 113.852 227.47 114.204C226.605 114.556 225.911 115.22 225.531 116.06L223.205 121.184C222.993 121.647 222.683 122.061 222.296 122.398C221.909 122.735 221.454 122.988 220.96 123.14C220.467 123.292 219.946 123.339 219.432 123.279C218.919 123.22 218.424 123.054 217.98 122.792L211.701 118.681C211.133 118.349 210.484 118.174 209.823 118.174C209.162 118.174 208.513 118.349 207.945 118.681L200.929 122.83C200.485 123.091 199.991 123.257 199.478 123.317C198.964 123.377 198.444 123.329 197.951 123.177C197.457 123.025 197.003 122.772 196.616 122.435C196.23 122.098 195.921 121.685 195.709 121.222L193.383 116.103C193.003 115.263 192.309 114.598 191.445 114.245C190.58 113.892 189.611 113.878 188.736 114.206L186.858 114.908C186.274 115.122 185.643 115.185 185.026 115.092C184.41 114.999 183.828 114.753 183.335 114.377C182.843 114.001 182.456 113.508 182.213 112.944C181.97 112.38 181.877 111.765 181.944 111.156L182.026 110.47C182.135 109.551 181.88 108.626 181.312 107.887C180.745 107.148 179.909 106.653 178.979 106.503C178.56 106.449 178.16 106.302 177.808 106.072C177.456 105.843 177.162 105.537 176.948 105.179L202.949 43.4536Z" fill="black"/>
<path d="M241.91 97.1392L212.465 29.823H207.185L177.002 97.1392C175.91 99.2832 176.538 101.883 178.962 102.274C179.892 102.424 180.728 102.919 181.295 103.658C181.862 104.397 182.118 105.322 182.009 106.241L181.927 106.927C181.86 107.535 181.952 108.151 182.196 108.715C182.439 109.279 182.825 109.772 183.318 110.148C183.81 110.524 184.392 110.77 185.009 110.863C185.626 110.956 186.256 110.892 186.841 110.679L188.719 109.976C189.594 109.649 190.563 109.663 191.427 110.016C192.292 110.369 192.985 111.034 193.366 111.874L195.692 116.993C195.903 117.456 196.213 117.869 196.599 118.206C196.985 118.543 197.44 118.796 197.933 118.948C198.427 119.1 198.947 119.148 199.46 119.088C199.974 119.028 200.468 118.862 200.911 118.601L207.922 114.49C208.49 114.158 209.139 113.983 209.8 113.983C210.461 113.983 211.11 114.158 211.678 114.49L217.957 118.601C218.401 118.862 218.896 119.028 219.41 119.088C219.923 119.148 220.444 119.1 220.938 118.948C221.431 118.796 221.887 118.544 222.274 118.206C222.66 117.869 222.97 117.456 223.183 116.993L225.509 111.874C225.888 111.033 226.581 110.367 227.446 110.014C228.311 109.661 229.28 109.648 230.155 109.976L232.028 110.679C232.614 110.897 233.247 110.964 233.867 110.873C234.487 110.782 235.073 110.537 235.568 110.161C236.064 109.784 236.453 109.289 236.699 108.723C236.944 108.157 237.037 107.538 236.969 106.927L236.887 106.241C236.778 105.322 237.033 104.398 237.599 103.66C238.165 102.921 238.999 102.425 239.928 102.274C242.38 101.883 243.002 99.3047 241.91 97.1392Z" fill="#92E3A9"/>
<path opacity="0.3" d="M241.91 97.1392L212.465 29.823H207.185L177.002 97.1392C175.91 99.2832 176.538 101.883 178.962 102.274C179.892 102.424 180.728 102.919 181.295 103.658C181.862 104.397 182.118 105.322 182.009 106.241L181.927 106.927C181.86 107.535 181.952 108.151 182.196 108.715C182.439 109.279 182.825 109.772 183.318 110.148C183.81 110.524 184.392 110.77 185.009 110.863C185.626 110.956 186.256 110.892 186.841 110.679L188.719 109.976C189.594 109.649 190.563 109.663 191.427 110.016C192.292 110.369 192.985 111.034 193.366 111.874L195.692 116.993C195.903 117.456 196.213 117.869 196.599 118.206C196.985 118.543 197.44 118.796 197.933 118.948C198.427 119.1 198.947 119.148 199.46 119.088C199.974 119.028 200.468 118.862 200.911 118.601L207.922 114.49C208.49 114.158 209.139 113.983 209.8 113.983C210.461 113.983 211.11 114.158 211.678 114.49L217.957 118.601C218.401 118.862 218.896 119.028 219.41 119.088C219.923 119.148 220.444 119.1 220.938 118.948C221.431 118.796 221.887 118.544 222.274 118.206C222.66 117.869 222.97 117.456 223.183 116.993L225.509 111.874C225.888 111.033 226.581 110.367 227.446 110.014C228.311 109.661 229.28 109.648 230.155 109.976L232.028 110.679C232.614 110.897 233.247 110.964 233.867 110.873C234.487 110.782 235.073 110.537 235.568 110.161C236.064 109.784 236.453 109.289 236.699 108.723C236.944 108.157 237.037 107.538 236.969 106.927L236.887 106.241C236.778 105.322 237.033 104.398 237.599 103.66C238.165 102.921 238.999 102.425 239.928 102.274C242.38 101.883 243.002 99.3047 241.91 97.1392Z" fill="black"/>
<path opacity="0.1" d="M207.186 29.823H212.465L233.923 78.8777C233.755 79.0211 233.572 79.1468 233.377 79.2529L233.213 79.344C232.659 79.6464 232.207 80.1001 231.91 80.65C231.614 81.1999 231.486 81.8224 231.543 82.4421C231.586 82.9593 231.502 83.4792 231.299 83.9582C231.095 84.4372 230.778 84.8613 230.373 85.1951C229.969 85.529 229.488 85.7627 228.973 85.8768C228.457 85.991 227.921 85.9821 227.409 85.8511L226.132 85.5188C225.414 85.3302 224.653 85.3867 223.972 85.6789C223.292 85.971 222.732 86.4816 222.386 87.1268L220.628 90.3428C220.217 91.0881 219.523 91.6442 218.697 91.8901C217.871 92.136 216.98 92.0518 216.216 91.656L211.368 89.1689C210.896 88.9283 210.371 88.8028 209.839 88.8028C209.307 88.8028 208.783 88.9283 208.31 89.1689L203.451 91.656C202.68 92.051 201.782 92.1318 200.951 91.881C200.12 91.6301 199.423 91.0678 199.012 90.316L197.259 87.1C196.913 86.4537 196.353 85.9424 195.671 85.6501C194.989 85.3579 194.227 85.3021 193.508 85.492L192.231 85.8243C191.719 85.9621 191.181 85.9758 190.662 85.8643C190.144 85.7527 189.661 85.5192 189.255 85.1839C188.849 84.8485 188.532 84.4213 188.331 83.939C188.13 83.4568 188.052 82.9339 188.103 82.4153C188.159 81.795 188.03 81.1721 187.733 80.6222C187.435 80.0722 186.982 79.6189 186.427 79.3172L186.263 79.2261C185.918 79.031 185.611 78.7769 185.356 78.4757L207.186 29.823Z" fill="black"/>
<path d="M234.578 70.6609L212.443 24.983L212.268 24.7096C212.022 24.2862 211.667 23.9342 211.238 23.6893C210.809 23.4444 210.321 23.3154 209.825 23.3154C209.328 23.3154 208.841 23.4444 208.412 23.6893C207.983 23.9342 207.627 24.2862 207.381 24.7096L207.201 24.9937L185.094 70.6663C184.857 71.0367 184.7 71.4507 184.631 71.8828C184.563 72.315 184.585 72.7563 184.697 73.1797C184.808 73.6031 185.006 73.9998 185.279 74.3455C185.552 74.6911 185.894 74.9785 186.284 75.1901L186.448 75.2812C187.003 75.5829 187.457 76.0362 187.754 76.5861C188.052 77.1361 188.18 77.759 188.124 78.3793C188.073 78.8979 188.152 79.4208 188.352 79.903C188.553 80.3853 188.87 80.8125 189.276 81.1478C189.682 81.4832 190.165 81.7167 190.683 81.8283C191.202 81.9398 191.74 81.9261 192.252 81.7882L193.529 81.4559C194.248 81.272 195.008 81.3306 195.689 81.6222C196.369 81.9139 196.93 82.4217 197.28 83.0639L199.033 86.2799C199.445 87.0318 200.141 87.5941 200.972 87.845C201.803 88.0958 202.701 88.015 203.472 87.6199L208.315 85.1329C208.787 84.8923 209.312 84.7667 209.844 84.7667C210.376 84.7667 210.9 84.8923 211.373 85.1329L216.221 87.6199C216.602 87.8183 217.019 87.941 217.448 87.9809C217.877 88.0209 218.309 87.9774 218.721 87.853C219.133 87.7285 219.516 87.5255 219.848 87.2555C220.179 86.9856 220.454 86.6541 220.655 86.2799L222.413 83.0639C222.759 82.4188 223.318 81.9082 223.999 81.616C224.679 81.3238 225.441 81.2674 226.158 81.4559L227.436 81.7882C227.948 81.9206 228.484 81.9304 229 81.8167C229.517 81.7031 229.998 81.4694 230.403 81.1353C230.808 80.8012 231.125 80.3765 231.328 79.8969C231.531 79.4173 231.614 78.8968 231.569 78.3793C231.513 77.7596 231.64 77.137 231.937 76.5871C232.233 76.0372 232.686 75.5836 233.24 75.2812L233.404 75.1901C233.79 74.9744 234.128 74.6844 234.398 74.3374C234.667 73.9904 234.863 73.5936 234.972 73.1707C235.082 72.7478 235.104 72.3075 235.036 71.8763C234.968 71.445 234.812 71.0316 234.578 70.6609Z" fill="#92E3A9"/>
<path opacity="0.2" d="M234.578 70.6609L212.443 24.983L212.268 24.7096C212.022 24.2862 211.667 23.9342 211.238 23.6893C210.809 23.4444 210.321 23.3154 209.825 23.3154C209.328 23.3154 208.841 23.4444 208.412 23.6893C207.983 23.9342 207.627 24.2862 207.381 24.7096L207.201 24.9937L185.094 70.6663C184.857 71.0367 184.7 71.4507 184.631 71.8828C184.563 72.315 184.585 72.7563 184.697 73.1797C184.808 73.6031 185.006 73.9998 185.279 74.3455C185.552 74.6911 185.894 74.9785 186.284 75.1901L186.448 75.2812C187.003 75.5829 187.457 76.0362 187.754 76.5861C188.052 77.1361 188.18 77.759 188.124 78.3793C188.073 78.8979 188.152 79.4208 188.352 79.903C188.553 80.3853 188.87 80.8125 189.276 81.1478C189.682 81.4832 190.165 81.7167 190.683 81.8283C191.202 81.9398 191.74 81.9261 192.252 81.7882L193.529 81.4559C194.248 81.272 195.008 81.3306 195.689 81.6222C196.369 81.9139 196.93 82.4217 197.28 83.0639L199.033 86.2799C199.445 87.0318 200.141 87.5941 200.972 87.845C201.803 88.0958 202.701 88.015 203.472 87.6199L208.315 85.1329C208.787 84.8923 209.312 84.7667 209.844 84.7667C210.376 84.7667 210.9 84.8923 211.373 85.1329L216.221 87.6199C216.602 87.8183 217.019 87.941 217.448 87.9809C217.877 88.0209 218.309 87.9774 218.721 87.853C219.133 87.7285 219.516 87.5255 219.848 87.2555C220.179 86.9856 220.454 86.6541 220.655 86.2799L222.413 83.0639C222.759 82.4188 223.318 81.9082 223.999 81.616C224.679 81.3238 225.441 81.2674 226.158 81.4559L227.436 81.7882C227.948 81.9206 228.484 81.9304 229 81.8167C229.517 81.7031 229.998 81.4694 230.403 81.1353C230.808 80.8012 231.125 80.3765 231.328 79.8969C231.531 79.4173 231.614 78.8968 231.569 78.3793C231.513 77.7596 231.64 77.137 231.937 76.5871C232.233 76.0372 232.686 75.5836 233.24 75.2812L233.404 75.1901C233.79 74.9744 234.128 74.6844 234.398 74.3374C234.667 73.9904 234.863 73.5936 234.972 73.1707C235.082 72.7478 235.104 72.3075 235.036 71.8763C234.968 71.445 234.812 71.0316 234.578 70.6609Z" fill="black"/>
<path d="M206.874 161.261C206.874 160.283 206.478 159.345 205.774 158.653C205.069 157.962 204.114 157.573 203.117 157.573C202.121 157.573 201.166 157.962 200.461 158.653C199.757 159.345 199.361 160.283 199.361 161.261C199.354 161.329 199.354 161.397 199.361 161.465C199.412 161.768 199.539 162.055 199.729 162.3C199.919 162.545 200.168 162.74 200.453 162.869C201.276 163.279 202.186 163.492 203.109 163.492C204.032 163.492 204.942 163.279 205.765 162.869C206.05 162.74 206.298 162.544 206.489 162.3C206.679 162.055 206.806 161.768 206.857 161.465V161.261H206.874Z" fill="#37474F"/>
<path d="M205.771 162.869C206.056 162.74 206.304 162.544 206.494 162.3C206.685 162.055 206.811 161.768 206.863 161.465V161.261C206.844 160.617 206.654 159.989 206.311 159.44C205.968 158.891 205.484 158.44 204.908 158.131C204.908 158.163 206.776 160.446 205.411 161.963C204.466 163.035 201.223 163.207 199.798 162.381C199.99 162.573 200.209 162.737 200.448 162.869C201.272 163.281 202.184 163.495 203.109 163.495C204.034 163.495 204.946 163.281 205.771 162.869Z" fill="#263238"/>
<path d="M200.797 163.115C200.766 162.446 200.473 161.814 199.979 161.35C199.486 160.887 198.829 160.629 198.146 160.629C197.463 160.629 196.806 160.887 196.313 161.35C195.819 161.814 195.526 162.446 195.495 163.115C195.492 163.14 195.492 163.166 195.495 163.191C195.492 163.214 195.492 163.237 195.495 163.26C195.53 163.476 195.62 163.679 195.755 163.852C195.89 164.026 196.068 164.163 196.271 164.252C196.851 164.543 197.494 164.694 198.146 164.694C198.798 164.694 199.441 164.543 200.022 164.252C200.224 164.162 200.401 164.024 200.536 163.851C200.671 163.679 200.761 163.475 200.797 163.26C200.8 163.237 200.8 163.214 200.797 163.191C200.8 163.166 200.8 163.14 200.797 163.115Z" fill="#455A64"/>
<path d="M200.022 164.252C200.224 164.162 200.401 164.025 200.536 163.852C200.672 163.679 200.761 163.476 200.797 163.26C200.8 163.237 200.8 163.214 200.797 163.191C200.8 163.166 200.8 163.141 200.797 163.116C200.791 162.82 200.73 162.527 200.617 162.253C200.683 163.368 200.148 164.048 198.471 164.257C196.795 164.466 195.698 163.77 195.556 163.512C195.698 163.834 195.951 164.096 196.271 164.252C196.852 164.543 197.494 164.694 198.146 164.694C198.798 164.694 199.441 164.543 200.022 164.252Z" fill="#37474F"/>
<path d="M220.257 160.511C220.257 159.825 219.979 159.168 219.486 158.684C218.992 158.199 218.323 157.927 217.625 157.927C216.927 157.927 216.258 158.199 215.764 158.684C215.271 159.168 214.993 159.825 214.993 160.511C214.991 160.534 214.991 160.557 214.993 160.58C214.991 160.605 214.991 160.63 214.993 160.655C215.028 160.868 215.116 161.069 215.249 161.24C215.383 161.411 215.557 161.547 215.758 161.636C216.335 161.924 216.974 162.074 217.622 162.074C218.27 162.074 218.909 161.924 219.487 161.636C219.687 161.547 219.862 161.41 219.996 161.239C220.13 161.069 220.22 160.868 220.257 160.655V160.511Z" fill="#455A64"/>
<path d="M219.492 161.636C219.692 161.547 219.867 161.411 220.001 161.24C220.135 161.069 220.225 160.868 220.262 160.655V160.511C220.253 160.217 220.192 159.927 220.082 159.653C220.147 160.763 219.612 161.433 217.952 161.642C216.293 161.851 215.222 161.159 215.059 160.907C215.202 161.222 215.45 161.479 215.763 161.636C216.341 161.924 216.98 162.075 217.628 162.075C218.276 162.075 218.914 161.924 219.492 161.636Z" fill="#37474F"/>
<path d="M154.218 100.891C152.999 101.697 151.67 102.329 150.27 102.767C150.766 102.24 151.183 101.646 151.509 101.004C151.7 100.673 151.756 100.283 151.665 99.9132C151.575 99.5434 151.346 99.2207 151.023 99.0099C150.729 98.8599 150.407 99.6103 149.336 100.42C147.971 101.449 146.879 101.631 145.733 103.067C145.301 103.603 143.358 104.52 140.409 104.52C137.461 104.52 135.064 104.429 135.064 104.429C135.064 104.429 137.99 99.4441 139.432 96.0887C140.873 92.7334 143.516 85.3259 143.385 82.871C143.139 78.0899 137.062 77.6986 134.136 78.1649C134.136 78.1649 127.758 102.617 125.946 107.961C124.133 113.305 130.188 111.917 134.627 111.713C137.319 111.598 139.999 111.299 142.648 110.818C145.04 110.581 147.412 110.178 149.746 109.612C156.118 108.192 158.072 106.187 158.345 103.448C158.826 99.0903 157.155 99.0099 154.218 100.891Z" fill="#FFBF9D"/>
<path d="M96.74 178.166C96.4015 177.995 95.4569 179.045 95.304 179.447C95.1854 180.25 95.2526 181.069 95.5006 181.843C95.8205 183.04 95.9422 184.28 95.8609 185.515C95.6949 187.23 95.8541 188.96 96.3305 190.618C96.9475 192.708 99.1096 196.514 104.133 196.514C107.18 196.514 107.715 195.302 107.715 194.611L96.74 178.166Z" fill="#455A64"/>
<path d="M106.028 179.024C105.383 180.412 104.209 184.432 105.962 187.852C107.136 190.157 107.687 192.386 107.054 194.284C106.393 196.262 99.1152 193.174 98.2197 191.641C97.3187 190.083 96.8499 188.32 96.8602 186.528C96.8001 184.92 97.1059 183.907 96.9257 182.722C96.7346 181.436 96.0685 179.833 96.4398 178.708C96.6418 178.091 97.6737 177.169 98.6238 176.44C99.5738 175.711 100.349 175.154 100.808 175.422L100.497 175.861C100.77 176.408 101.172 176.882 101.67 177.244C101.9 177.427 101.752 178.477 102.053 178.59C102.353 178.702 102.413 177.85 103.008 177.743C103.583 177.656 104.171 177.73 104.705 177.957C105.24 178.184 105.698 178.553 106.028 179.024Z" fill="#92E3A9"/>
<path opacity="0.3" d="M106.028 179.024C105.383 180.412 104.209 184.432 105.962 187.852C107.136 190.157 107.687 192.386 107.054 194.284C106.393 196.262 99.1152 193.174 98.2197 191.641C97.3187 190.083 96.8499 188.32 96.8602 186.528C96.8001 184.92 97.1059 183.907 96.9257 182.722C96.7346 181.436 96.0685 179.833 96.4398 178.708C96.6418 178.091 97.6737 177.169 98.6238 176.44C99.5738 175.711 100.349 175.154 100.808 175.422L100.497 175.861C100.77 176.408 101.172 176.882 101.67 177.244C101.9 177.427 101.752 178.477 102.053 178.59C102.353 178.702 102.413 177.85 103.008 177.743C103.583 177.656 104.171 177.73 104.705 177.957C105.24 178.184 105.698 178.553 106.028 179.024Z" fill="black"/>
<path d="M101.009 181.908C100.924 181.898 100.837 181.909 100.756 181.939C100.675 181.969 100.603 182.017 100.545 182.08C100.487 182.143 100.445 182.218 100.422 182.3C100.4 182.382 100.397 182.468 100.415 182.55C100.433 182.633 100.47 182.711 100.524 182.777C100.578 182.843 100.648 182.895 100.727 182.93C100.805 182.964 100.891 182.98 100.977 182.976C101.064 182.971 101.148 182.947 101.222 182.905C102.5 182.686 103.809 182.712 105.077 182.98C105.194 182.651 105.231 182.301 105.186 181.956C103.81 181.676 102.392 181.66 101.009 181.908Z" fill="white"/>
<path d="M105.056 184.202C103.633 183.966 102.176 184.01 100.77 184.33C100.673 184.391 100.598 184.481 100.556 184.586C100.514 184.692 100.507 184.807 100.536 184.917C100.565 185.026 100.629 185.124 100.718 185.196C100.807 185.268 100.917 185.31 101.032 185.317C102.386 185.02 103.787 185.002 105.149 185.263C105.26 184.911 105.227 184.53 105.056 184.202Z" fill="white"/>
<path d="M105.503 186.742C103.929 186.396 102.296 186.405 100.726 186.769C100.629 186.83 100.554 186.92 100.512 187.025C100.47 187.13 100.463 187.246 100.492 187.356C100.521 187.465 100.585 187.563 100.674 187.634C100.763 187.706 100.873 187.748 100.988 187.755C102.655 187.374 104.396 187.45 106.022 187.975C106.175 187.932 105.924 187.117 105.503 186.742Z" fill="white"/>
<path d="M98.2197 191.636C98.2197 191.636 100.093 188.881 103.445 188.844C106.797 188.806 107.431 190.184 107.72 190.677C108.01 191.17 109.194 193.978 106.89 195.27C106.89 195.27 101.348 196.712 98.2197 191.636Z" fill="#FAFAFA"/>
<path d="M135.571 152.154C135.44 151.045 135.282 149.748 135.112 148.333C136.351 145.938 137.457 143.479 138.427 140.968C141.266 133.646 142.32 115.481 142.189 111.654L115.538 112.276C115.538 116.178 115.276 119.732 115.724 124.791C116.27 130.655 118.787 139.537 120.9 146.146C118.853 148.467 115.986 151.806 114.703 153.875C112.519 157.3 102.604 172.881 102.604 172.881L100.327 176.097C99.961 176.751 99.819 178.241 101.348 179.351C102.877 180.46 104.88 180.267 105.345 179.715C105.345 179.715 117.433 167.923 124.596 160.955C124.962 162.955 125.443 165.243 126.016 167.425C127.616 173.546 130.93 182.465 132.568 186.844C133.246 188.627 133.745 190.471 134.059 192.349L134.927 194.809L140.933 193.469L139.841 188.356C139.841 188.356 136.461 159.54 135.571 152.154Z" fill="#FFBF9D"/>
<path d="M120.605 146.13L123.598 154.958C123.598 154.958 123.843 158.581 124.324 161.036L123.057 162.295C123.057 162.295 122.304 158.12 122.724 155.172L120.605 146.13Z" fill="#9A4A4D"/>
<path d="M115.206 115.058C115.206 115.39 114.207 123.419 115.206 128.592C116.205 133.764 121.086 152.454 121.086 152.454C121.086 152.454 122.795 154.33 129.014 152.99C135.233 151.65 135.566 150.444 135.566 150.444V148.568C138.076 143.709 139.861 138.521 140.868 133.164C141.745 127.801 142.306 122.392 142.549 116.966L115.206 115.058Z" fill="#92E3A9"/>
<path opacity="0.6" d="M115.206 115.058C115.206 115.39 114.207 123.419 115.206 128.592C116.205 133.764 121.086 152.454 121.086 152.454C121.086 152.454 122.795 154.33 129.014 152.99C135.233 151.65 135.566 150.444 135.566 150.444V148.568C138.076 143.709 139.861 138.521 140.868 133.164C141.745 127.801 142.306 122.392 142.549 116.966L115.206 115.058Z" fill="black"/>
<path opacity="0.4" d="M134.622 147.261C134.622 147.261 132.781 128.56 132.197 126.185C132.197 126.185 136.565 124.545 137.93 123.039C137.93 123.039 136.964 125.145 133.83 127.011L134.622 147.261Z" fill="black"/>
<path d="M114.583 120.348C118.219 122.948 135.222 125.451 142.86 119.978C142.953 119.914 142.86 119.072 142.86 118.965L142.811 114.382C142.778 112.024 142.742 109.665 142.702 107.307C142.655 104.57 142.596 101.833 142.527 99.0956C142.462 96.4263 142.378 93.7588 142.276 91.0931C142.232 89.9246 142.18 88.7561 142.118 87.5876C142.029 85.7918 141.609 84.0266 140.878 82.3777C140.242 80.8104 139.036 79.5308 137.493 78.7865C136.426 78.3974 135.3 78.1872 134.163 78.1648C133.372 78.1577 132.582 78.2043 131.798 78.3041C130.914 78.3738 130.035 78.4542 129.15 78.54C127.359 78.7222 125.569 78.9312 123.783 79.1563L123.139 79.2368L122.593 79.3064C120.332 79.5959 118.662 79.8424 118.405 79.8746H118.367C117.63 80.0622 116.942 80.2337 116.39 80.4106C114.878 80.8501 116.003 80.4749 115.67 81.906C114.698 86.1136 115.833 101.416 115.833 101.416L114.583 120.348Z" fill="#37474F"/>
<path d="M133.715 196.492C133.365 196.637 133.578 198.031 133.791 198.406C134.256 199.077 134.893 199.617 135.637 199.971C136.695 200.502 137.611 201.27 138.312 202.211C139.52 203.647 141.031 204.808 142.74 205.615C143.858 206.051 145.056 206.253 146.258 206.207C147.46 206.16 148.639 205.868 149.718 205.347C152.033 204.275 152.213 203.621 152.077 202.721L133.715 196.492Z" fill="#455A64"/>
<path d="M140.562 190.023C141.234 191.411 142.986 195.104 145.815 196.674C148.059 197.923 151.045 199.285 152.121 200.995C153.197 202.704 149.184 204.366 147.376 204.452C145.968 204.516 144.1 204.666 142.637 203.916C141.91 203.551 141.222 203.114 140.584 202.613C139.306 201.627 138.34 200.341 137.406 199.553C136.473 198.765 134.578 198.073 133.939 197.06C133.584 196.524 133.53 195.131 133.573 193.946C133.606 192.874 133.437 191.867 133.945 191.695L134.087 192.306C134.788 192.325 135.491 192.279 136.183 192.167C136.473 192.113 137.199 192.906 137.483 192.751C137.767 192.595 137.139 192.001 137.439 191.481C138.422 189.776 140.562 190.023 140.562 190.023Z" fill="#92E3A9"/>
<path opacity="0.3" d="M140.562 190.023C141.234 191.411 142.986 195.104 145.815 196.674C148.059 197.923 151.045 199.285 152.121 200.995C153.197 202.704 149.184 204.366 147.376 204.452C145.968 204.516 144.1 204.666 142.637 203.916C141.91 203.551 141.222 203.114 140.584 202.613C139.306 201.627 138.34 200.341 137.406 199.553C136.473 198.765 134.578 198.073 133.939 197.06C133.584 196.524 133.53 195.131 133.573 193.946C133.606 192.874 133.437 191.867 133.945 191.695L134.087 192.306C134.788 192.325 135.491 192.279 136.183 192.167C136.473 192.113 137.199 192.906 137.483 192.751C137.767 192.595 137.139 192.001 137.439 191.481C138.422 189.776 140.562 190.023 140.562 190.023Z" fill="black"/>
<path d="M145.46 196.455C144.081 196.861 142.871 197.692 142.009 198.824C141.938 198.937 141.913 199.073 141.938 199.203C141.963 199.334 142.037 199.451 142.146 199.531C142.261 199.601 142.399 199.626 142.532 199.601C142.665 199.576 142.785 199.503 142.866 199.397C143.339 198.789 143.935 198.282 144.616 197.908C145.297 197.535 146.049 197.303 146.825 197.226C146.664 197.013 146.459 196.834 146.224 196.701C145.989 196.568 145.729 196.484 145.46 196.455Z" fill="white"/>
<path d="M143.472 194.707C142.161 195.067 140.996 195.816 140.136 196.851C140.059 196.961 140.027 197.095 140.045 197.226C140.063 197.358 140.131 197.478 140.234 197.564C140.323 197.631 140.433 197.667 140.545 197.666C140.625 197.665 140.703 197.646 140.775 197.612C140.847 197.578 140.91 197.528 140.96 197.468C141.818 196.482 142.993 195.814 144.291 195.576C144.248 195.371 144.148 195.183 144.004 195.03C143.86 194.877 143.676 194.765 143.472 194.707Z" fill="white"/>
<path d="M142.599 193.592C142.63 193.395 142.586 193.194 142.475 193.027C142.364 192.859 142.194 192.738 141.998 192.687C140.635 192.984 139.404 193.699 138.482 194.729C138.42 194.803 138.381 194.894 138.369 194.99C138.357 195.086 138.374 195.183 138.416 195.27C138.458 195.357 138.525 195.43 138.608 195.481C138.691 195.533 138.788 195.56 138.886 195.559C138.963 195.558 139.039 195.54 139.108 195.508C139.178 195.476 139.24 195.429 139.29 195.372C140.158 194.431 141.324 193.804 142.599 193.592Z" fill="white"/>
<path d="M142.637 203.916C142.637 203.916 142.904 200.383 145.831 198.733C148.757 197.082 149.991 198.277 150.494 198.572C150.996 198.867 153.453 200.475 152.077 202.72C152.077 202.72 148.31 206.569 142.637 203.916Z" fill="#FAFAFA"/>
<path d="M120.999 66.1262C120.999 66.1262 122.217 71.7274 122.703 72.6493C123.028 73.215 123.561 73.6369 124.193 73.8285L124.111 69.8889L120.999 66.1262Z" fill="#263238"/>
<path d="M122.522 58.1023C122.098 58.0541 121.668 58.1014 121.265 58.2407C120.862 58.38 120.496 58.6076 120.196 58.9063C119.197 59.9087 119.754 63.0496 120.999 66.1263L123.287 66.3835L122.522 58.1023Z" fill="#263238"/>
<path d="M123.975 66.3834C123.516 66.6568 122.883 65.7885 122.293 65.2096C121.703 64.6307 119.885 63.8321 118.962 65.7456C118.04 67.6591 119.776 70.2533 121.228 70.6982C123.734 71.4701 124.111 69.8942 124.111 69.8942L124.275 78.9365C126.901 83.5997 135.779 81.2145 132.465 78.1218V75.8331C133.582 76.0081 134.715 76.0638 135.845 75.9993C137.685 75.7205 138.842 74.2948 139.405 72.3384C140.3 69.1921 140.66 66.7693 140.104 60.4713C139.481 53.6641 130.991 53.5998 126.672 56.2798C122.353 58.9598 123.975 66.3834 123.975 66.3834Z" fill="#FFBF9D"/>
<path d="M121.665 63.4677C121.796 64.0037 121.916 64.8613 122.353 65.2686C122.899 65.8046 123.778 67.2572 123.991 67.2518C125.209 67.2518 125.411 62.2349 125.629 61.3558C125.72 61.1071 125.879 60.8881 126.089 60.7234C126.299 60.5586 126.552 60.4547 126.819 60.4232C127.356 60.3716 127.897 60.4115 128.419 60.5411C130.613 60.877 132.836 60.9883 135.053 60.8734C136.636 60.8306 138.253 59.9837 139.672 59.303C141.763 58.2953 142.899 55.7922 141.616 53.6964C141.243 53.1181 140.692 52.6717 140.043 52.4221C139.394 52.1724 138.681 52.1325 138.007 52.3082C137.826 51.6875 137.463 51.133 136.962 50.7141C136.462 50.2952 135.847 50.0305 135.194 49.9533C134.541 49.876 133.88 49.9896 133.292 50.2798C132.705 50.5699 132.218 51.0238 131.892 51.5846C131.35 51.1576 130.703 50.8795 130.016 50.7787C129.329 50.6779 128.627 50.7581 127.982 51.011C127.346 51.2858 126.814 51.7497 126.462 52.3374C126.109 52.9251 125.953 53.6068 126.017 54.286C125.458 53.9897 124.823 53.8594 124.19 53.9108C123.557 53.9622 122.953 54.1931 122.451 54.5754C121.96 54.9703 121.567 55.4712 121.305 56.0392C121.042 56.6073 120.917 57.2271 120.939 57.8504C120.97 59.7433 121.214 61.6271 121.665 63.4677Z" fill="#263238"/>
<path d="M119.683 60.8949C119.683 60.8949 122.167 58.7509 128.277 57.845C134.387 56.9392 139.355 57.845 140.349 58.917C140.928 60.0694 140.666 61.4148 140.245 62.6101C140.245 62.6101 140.207 61.4201 133.879 61.4201C127.551 61.4201 121.796 63.5641 120.426 64.5825C120.426 64.5557 119.071 62.5833 119.683 60.8949Z" fill="#92E3A9"/>
<path d="M140.666 60.0909C140.655 59.9359 140.633 59.7819 140.601 59.6299C134.928 57.2983 125.859 58.1345 119.541 61.522C119.53 61.6755 119.53 61.8295 119.541 61.983C125.831 58.5043 135.053 57.6574 140.666 60.0909Z" fill="white"/>
<path d="M119.841 63.4034C119.895 63.5374 119.945 63.6607 119.999 63.7786C126.093 60.4393 134.883 59.5442 140.512 61.6882C140.545 61.5542 140.572 61.4256 140.594 61.2916C134.861 59.1476 126.011 60.032 119.841 63.4034Z" fill="white"/>
<path d="M132.443 75.8277C132.443 75.8277 128.31 75.0398 126.896 74.2626C126.049 73.8321 125.356 73.1592 124.908 72.333C125.124 73.157 125.507 73.9298 126.033 74.6057C127.087 75.9296 132.443 76.8997 132.443 76.8997V75.8277Z" fill="#9A4A4D"/>
<path d="M131.285 65.7778C131.279 65.9364 131.225 66.0896 131.13 66.2184C131.036 66.3472 130.905 66.4459 130.754 66.5022C130.603 66.5586 130.438 66.5701 130.281 66.5353C130.123 66.5006 129.979 66.4211 129.867 66.3067C129.755 66.1923 129.68 66.0481 129.65 65.8921C129.621 65.736 129.639 65.575 129.702 65.4289C129.766 65.2829 129.871 65.1584 130.006 65.0708C130.141 64.9832 130.299 64.9364 130.461 64.9363C130.571 64.9384 130.68 64.9618 130.781 65.0052C130.882 65.0486 130.974 65.1112 131.05 65.1894C131.127 65.2675 131.187 65.3597 131.227 65.4607C131.268 65.5616 131.287 65.6694 131.285 65.7778Z" fill="#263238"/>
<path d="M130.461 63.098L128.697 64.0574C128.573 63.8195 128.546 63.5435 128.624 63.287C128.701 63.0304 128.876 62.813 129.112 62.6799C129.228 62.6173 129.356 62.5785 129.487 62.5657C129.619 62.5529 129.752 62.5665 129.878 62.6056C130.004 62.6447 130.121 62.7084 130.221 62.7931C130.321 62.8777 130.403 62.9814 130.461 63.098Z" fill="#263238"/>
<path d="M132.525 71.3684L134.403 72.0599C134.362 72.1837 134.296 72.2982 134.209 72.3965C134.122 72.4949 134.016 72.5752 133.897 72.6326C133.778 72.6901 133.648 72.7235 133.516 72.731C133.383 72.7385 133.251 72.7199 133.126 72.6762C132.873 72.5768 132.669 72.385 132.557 72.1411C132.445 71.8973 132.434 71.6203 132.525 71.3684Z" fill="#9A4A4D"/>
<path d="M138.553 63.5696L136.702 62.7549C136.749 62.6329 136.821 62.5217 136.914 62.4281C137.006 62.3344 137.117 62.2602 137.24 62.21C137.362 62.1599 137.494 62.1348 137.627 62.1363C137.76 62.1378 137.891 62.1659 138.013 62.2189C138.259 62.3365 138.451 62.5406 138.551 62.7908C138.651 63.0409 138.652 63.3189 138.553 63.5696Z" fill="#263238"/>
<path d="M138.045 65.7778C138.038 65.9364 137.985 66.0896 137.89 66.2184C137.796 66.3472 137.665 66.4459 137.514 66.5022C137.363 66.5586 137.198 66.5701 137.04 66.5353C136.883 66.5006 136.739 66.4211 136.627 66.3067C136.515 66.1923 136.439 66.0481 136.41 65.8921C136.381 65.736 136.399 65.575 136.462 65.4289C136.525 65.2829 136.631 65.1584 136.766 65.0708C136.901 64.9832 137.059 64.9364 137.22 64.9363C137.331 64.9384 137.44 64.9618 137.541 65.0052C137.642 65.0486 137.734 65.1112 137.81 65.1894C137.887 65.2675 137.947 65.3597 137.987 65.4607C138.027 65.5616 138.047 65.6694 138.045 65.7778Z" fill="#263238"/>
<path d="M133.649 65.2151L133.922 70.082L136.51 69.219L133.649 65.2151Z" fill="#9A4A4D"/>
<path d="M125.159 123.007C125.407 122.217 125.575 121.406 125.662 120.584L125.694 120.305C125.769 119.532 126.036 118.789 126.472 118.141C126.908 117.494 127.5 116.961 128.195 116.591L128.342 116.516C129.178 116.099 129.881 115.465 130.374 114.683C130.626 114.243 130.765 113.75 130.779 113.245C130.794 112.741 130.682 112.241 130.455 111.788C130.335 111.559 130.199 111.339 130.046 111.129C129.904 110.936 129.823 110.706 129.815 110.468C129.808 110.23 129.873 109.996 130.002 109.794L130.756 108.658L127.037 106.3L126.284 107.436C126.156 107.639 125.967 107.799 125.744 107.895C125.521 107.991 125.273 108.018 125.034 107.972C124.776 107.92 124.515 107.886 124.253 107.87C123.739 107.853 123.228 107.958 122.765 108.178C122.302 108.397 121.9 108.724 121.594 109.13C121.072 109.894 120.772 110.783 120.726 111.702C120.726 111.756 120.726 111.804 120.726 111.858C120.666 112.63 120.414 113.375 119.992 114.03C119.571 114.684 118.992 115.226 118.307 115.61L118.061 115.755C117.333 116.168 116.648 116.653 116.019 117.202C115.461 117.765 114.968 118.387 114.55 119.056L111.056 124.363C110.603 125.054 110.614 126.035 111.193 127.145C111.727 128.114 112.473 128.956 113.377 129.61C113.799 129.931 114.248 130.216 114.72 130.462C115.696 130.995 116.778 131.315 117.892 131.4C119.159 131.465 120.076 131.068 120.529 130.382L123.057 126.539C123.374 126.062 123.718 125.574 124.051 125.076C124.494 124.427 124.866 123.733 125.159 123.007Z" fill="#92E3A9"/>
<path opacity="0.75" d="M125.159 123.007C125.407 122.217 125.575 121.406 125.662 120.584L125.694 120.305C125.769 119.532 126.036 118.789 126.472 118.141C126.908 117.494 127.5 116.961 128.195 116.591L128.342 116.516C129.178 116.099 129.881 115.465 130.374 114.683C130.626 114.243 130.765 113.75 130.779 113.245C130.794 112.741 130.682 112.241 130.455 111.788C130.335 111.559 130.199 111.339 130.046 111.129C129.904 110.936 129.823 110.706 129.815 110.468C129.808 110.23 129.873 109.996 130.002 109.794L130.756 108.658L127.037 106.3L126.284 107.436C126.156 107.639 125.967 107.799 125.744 107.895C125.521 107.991 125.273 108.018 125.034 107.972C124.776 107.92 124.515 107.886 124.253 107.87C123.739 107.853 123.228 107.958 122.765 108.178C122.302 108.397 121.9 108.724 121.594 109.13C121.072 109.894 120.772 110.783 120.726 111.702C120.726 111.756 120.726 111.804 120.726 111.858C120.666 112.63 120.414 113.375 119.992 114.03C119.571 114.684 118.992 115.226 118.307 115.61L118.061 115.755C117.333 116.168 116.648 116.653 116.019 117.202C115.461 117.765 114.968 118.387 114.55 119.056L111.056 124.363C110.603 125.054 110.614 126.035 111.193 127.145C111.727 128.114 112.473 128.956 113.377 129.61C113.799 129.931 114.248 130.216 114.72 130.462C115.696 130.995 116.778 131.315 117.892 131.4C119.159 131.465 120.076 131.068 120.529 130.382L123.057 126.539C123.374 126.062 123.718 125.574 124.051 125.076C124.494 124.427 124.866 123.733 125.159 123.007Z" fill="white"/>
<path opacity="0.05" d="M128.195 116.591L128.342 116.516C129.054 116.16 129.67 115.646 130.144 115.015C129.884 115.228 129.598 115.408 129.292 115.551C128.403 115.926 127.456 116.15 126.491 116.216C125.52 116.323 124.433 116.462 123.827 117.218C123.221 117.974 123.341 119.008 123.669 119.898C124.084 120.735 124.449 121.596 124.761 122.476C124.848 122.872 124.892 123.277 124.892 123.682C124.995 123.468 125.094 123.253 125.176 123.033C125.423 122.244 125.591 121.432 125.678 120.611L125.711 120.332C125.779 119.556 126.042 118.808 126.475 118.156C126.908 117.503 127.499 116.965 128.195 116.591Z" fill="black"/>
<path opacity="0.1" d="M114.059 120.16C114.059 120.16 113.961 120.16 113.797 120.16L112.705 121.806C113.284 123.639 115.353 125.992 117.772 126.63C120.038 127.214 122.495 126.742 123.778 125.461L124.439 124.389L117.171 121.586L114.059 120.16Z" fill="black"/>
<path d="M125.579 107.2L125.175 107.811C125.05 108.042 124.991 108.302 125.004 108.563C125.016 108.824 125.1 109.077 125.246 109.296C125.618 109.922 126.136 110.454 126.756 110.848C127.376 111.242 128.082 111.487 128.817 111.563C129.112 111.585 129.409 111.542 129.685 111.44C129.909 111.362 130.1 111.215 130.231 111.022L130.641 110.394C130.68 110.34 130.711 110.281 130.734 110.218C130.801 110.001 130.821 109.774 130.793 109.549C130.765 109.325 130.689 109.109 130.57 108.915V108.872C130.193 108.257 129.677 107.737 129.061 107.351C128.446 106.965 127.747 106.724 127.021 106.648C126.792 106.621 126.56 106.642 126.339 106.709C126.119 106.777 125.916 106.889 125.743 107.039C125.682 107.086 125.627 107.14 125.579 107.2Z" fill="#92E3A9"/>
<path opacity="0.1" d="M129.222 110.92C130.576 110.984 131.171 110.078 130.554 108.894C130.182 108.267 129.665 107.735 129.045 107.342C128.424 106.949 127.718 106.706 126.983 106.632C125.629 106.562 125.034 107.468 125.651 108.652C126.023 109.279 126.54 109.811 127.161 110.205C127.781 110.598 128.487 110.843 129.222 110.92Z" fill="black"/>
<path d="M126.043 106.46L125.803 106.83C125.764 106.889 125.731 106.952 125.705 107.018C125.638 107.234 125.619 107.462 125.648 107.687C125.677 107.911 125.754 108.127 125.874 108.32C126.19 108.884 126.637 109.367 127.179 109.73C127.839 110.215 128.624 110.51 129.445 110.582C129.738 110.604 130.033 110.562 130.308 110.459C130.463 110.403 130.603 110.313 130.717 110.196C130.766 110.151 130.809 110.098 130.843 110.041L131.094 109.66C131.197 109.394 131.236 109.108 131.208 108.825C131.181 108.541 131.088 108.268 130.936 108.025C130.553 107.44 130.042 106.946 129.439 106.58C128.836 106.215 128.157 105.987 127.452 105.913C127.189 105.873 126.92 105.903 126.672 105.999C126.424 106.095 126.207 106.254 126.043 106.46Z" fill="#92E3A9"/>
<path opacity="0.5" d="M126.055 106.45C125.509 107.238 126.246 108.594 127.638 109.473C129.031 110.352 130.581 110.437 131.1 109.655C131.619 108.872 130.909 107.511 129.517 106.626C128.124 105.742 126.574 105.662 126.055 106.45Z" fill="white"/>
<path d="M128.67 106.026L127.824 107.312C127.811 107.333 127.8 107.354 127.791 107.377C127.766 107.451 127.758 107.53 127.768 107.608C127.777 107.686 127.804 107.76 127.846 107.827C127.976 108.043 128.155 108.227 128.371 108.363C128.586 108.499 128.831 108.583 129.085 108.61C129.187 108.619 129.29 108.605 129.385 108.567C129.438 108.546 129.487 108.515 129.527 108.476C129.545 108.46 129.56 108.442 129.571 108.422L130.417 107.136C130.47 107.056 130.498 106.963 130.498 106.868C130.498 106.772 130.47 106.679 130.417 106.6L130.385 106.546C130.252 106.344 130.075 106.173 129.866 106.047C129.657 105.921 129.422 105.842 129.178 105.817C129.082 105.801 128.983 105.812 128.893 105.849C128.803 105.886 128.726 105.947 128.67 106.026Z" fill="#92E3A9"/>
<path opacity="0.5" d="M128.67 106.026C128.49 106.294 128.736 106.766 129.216 107.071C129.697 107.377 130.237 107.409 130.418 107.136C130.598 106.862 130.352 106.39 129.872 106.064C129.391 105.737 128.856 105.753 128.67 106.026Z" fill="white"/>
<path opacity="0.5" d="M129.238 106.38C129.172 106.476 129.238 106.642 129.429 106.755C129.62 106.868 129.794 106.873 129.855 106.755C129.915 106.637 129.855 106.492 129.663 106.38C129.472 106.267 129.298 106.283 129.238 106.38Z" fill="#92E3A9"/>
<path opacity="0.3" d="M129.238 106.38C129.172 106.476 129.238 106.642 129.429 106.755C129.62 106.868 129.794 106.873 129.855 106.755C129.915 106.637 129.855 106.492 129.663 106.38C129.472 106.267 129.298 106.283 129.238 106.38Z" fill="black"/>
<path d="M122.773 119.351C121.43 119.153 119.038 118.167 118.334 117.373C118.139 117.192 117.984 116.973 117.877 116.731C117.771 116.488 117.717 116.227 117.717 115.964C118.308 115.636 118.857 115.242 119.355 114.79C118.721 114.423 118.069 114.088 117.4 113.787C116.598 113.493 115.216 112.287 114.228 111.316C111.851 108.528 109.759 105.517 107.982 102.328L115.364 93.6445C116.386 93.5306 117.361 93.1593 118.194 92.5668C119.027 91.9742 119.69 91.1805 120.119 90.2624C121.211 88.1881 122.62 83.3426 119.732 79.6817C117.974 79.6456 116.229 79.9954 114.627 80.7055C112.721 81.4881 109.587 85.1543 107.114 88.708C104.962 91.8007 98.8581 99.9961 98.6397 103.057C98.5469 104.316 100.081 106.273 103.93 110.234C105.639 112.051 107.605 114.029 109.702 116.162C111.099 117.561 113.475 121.795 114.829 123.264C116.729 125.327 118.039 125.869 119.743 125.901C121.446 125.933 124.564 125.365 125.47 122.862C126.376 120.359 125.11 119.705 122.773 119.351Z" fill="#FFBF9D"/>
<path d="M111.411 118.376C111.217 118.077 111.103 117.735 111.081 117.381C111.059 117.028 111.13 116.674 111.286 116.355C112.022 114.962 113.13 113.791 114.491 112.967C115.501 112.431 115.987 112.882 115.987 112.882C115.59 112.09 114.987 111.415 114.24 110.925C114.056 110.811 113.835 110.771 113.623 110.813C113.046 110.926 112.508 111.179 112.056 111.547C111.051 112.335 109.795 113.659 109.402 114.806C109.22 115.323 109.192 115.881 109.32 116.414C109.937 117.145 110.639 117.804 111.411 118.376Z" fill="#37474F"/>
<path d="M110.221 114.281L111.313 115.353C111.39 115.432 111.484 115.495 111.587 115.538C111.69 115.581 111.801 115.603 111.913 115.603C112.025 115.603 112.136 115.581 112.239 115.538C112.343 115.495 112.436 115.432 112.514 115.353L113.879 113.932C114.037 113.766 114.124 113.548 114.124 113.321C114.124 113.094 114.037 112.876 113.879 112.71L112.858 111.67C112.781 111.591 112.688 111.527 112.585 111.484C112.482 111.441 112.372 111.418 112.26 111.418C112.148 111.418 112.037 111.441 111.935 111.484C111.832 111.527 111.739 111.591 111.662 111.67L110.21 113.117C110.06 113.276 109.977 113.485 109.98 113.701C109.982 113.917 110.068 114.125 110.221 114.281Z" fill="#263238"/>
<path d="M109.921 114.296L111.013 115.368C111.091 115.448 111.184 115.511 111.287 115.553C111.39 115.596 111.501 115.619 111.613 115.619C111.726 115.619 111.836 115.596 111.94 115.553C112.043 115.511 112.136 115.448 112.214 115.368L113.579 113.948C113.737 113.782 113.825 113.564 113.825 113.337C113.825 113.11 113.737 112.892 113.579 112.726L112.558 111.681C112.481 111.602 112.388 111.539 112.285 111.496C112.182 111.453 112.072 111.431 111.96 111.431C111.849 111.431 111.738 111.453 111.635 111.496C111.533 111.539 111.44 111.602 111.362 111.681L109.91 113.096C109.83 113.175 109.767 113.269 109.724 113.373C109.682 113.476 109.66 113.587 109.661 113.698C109.662 113.81 109.686 113.92 109.73 114.023C109.775 114.126 109.84 114.219 109.921 114.296Z" fill="#455A64"/>
<path d="M113.503 113.283C113.509 113.361 113.498 113.44 113.472 113.514C113.446 113.587 113.404 113.655 113.35 113.712L111.985 115.133C111.888 115.23 111.757 115.287 111.619 115.293C111.48 115.291 111.347 115.238 111.248 115.143L110.156 114.071C110.063 113.981 110.007 113.861 109.997 113.734C109.992 113.659 110.003 113.584 110.03 113.514C110.056 113.444 110.097 113.38 110.15 113.326L111.597 111.884C111.644 111.835 111.701 111.796 111.764 111.77C111.826 111.743 111.894 111.729 111.963 111.729C112.103 111.734 112.236 111.791 112.334 111.89L113.35 112.93C113.443 113.026 113.499 113.151 113.508 113.283H113.503Z" fill="#92E3A9"/>
<g opacity="0.3">
<path d="M107.267 116.591H107.191L104.161 116.055C104.106 116.047 104.054 116.028 104.007 116C103.959 115.972 103.918 115.935 103.886 115.892C103.853 115.848 103.829 115.799 103.816 115.746C103.803 115.694 103.8 115.639 103.808 115.586C103.817 115.532 103.836 115.481 103.864 115.435C103.893 115.388 103.93 115.348 103.974 115.316C104.019 115.284 104.069 115.26 104.123 115.247C104.176 115.234 104.232 115.232 104.286 115.24L107.322 115.776C107.424 115.792 107.517 115.846 107.58 115.927C107.644 116.008 107.674 116.109 107.664 116.21C107.654 116.312 107.606 116.406 107.528 116.474C107.45 116.541 107.349 116.577 107.246 116.575L107.267 116.591Z" fill="black"/>
<path d="M104.439 119.11C104.355 119.11 104.272 119.084 104.204 119.036C104.135 118.988 104.084 118.92 104.057 118.842C104.035 118.791 104.024 118.736 104.025 118.68C104.027 118.625 104.039 118.57 104.063 118.52C104.086 118.47 104.12 118.425 104.163 118.388C104.205 118.351 104.254 118.323 104.308 118.306L107.218 117.304C107.269 117.281 107.325 117.27 107.381 117.27C107.438 117.27 107.493 117.281 107.545 117.303C107.597 117.325 107.643 117.357 107.682 117.397C107.72 117.438 107.75 117.485 107.768 117.537C107.787 117.589 107.795 117.645 107.791 117.7C107.787 117.755 107.772 117.809 107.746 117.858C107.719 117.907 107.683 117.95 107.64 117.985C107.596 118.019 107.545 118.045 107.491 118.059L104.575 119.067C104.533 119.09 104.487 119.104 104.439 119.11Z" fill="black"/>
<path d="M106.192 121.672C106.113 121.672 106.036 121.65 105.97 121.609C105.904 121.567 105.851 121.508 105.819 121.438C105.786 121.368 105.774 121.29 105.785 121.214C105.796 121.137 105.829 121.066 105.881 121.007L107.89 118.708C107.925 118.668 107.968 118.635 108.016 118.611C108.064 118.587 108.117 118.573 108.17 118.569C108.224 118.565 108.278 118.571 108.329 118.588C108.381 118.604 108.428 118.631 108.469 118.665C108.55 118.735 108.6 118.834 108.609 118.94C108.617 119.047 108.582 119.152 108.512 119.233L106.498 121.533C106.46 121.576 106.413 121.612 106.361 121.636C106.308 121.66 106.25 121.672 106.192 121.672Z" fill="black"/>
<path d="M109.009 123.039H108.932C108.826 123.018 108.732 122.957 108.672 122.868C108.612 122.78 108.589 122.671 108.61 122.567L109.156 119.592C109.162 119.537 109.179 119.483 109.207 119.435C109.234 119.386 109.272 119.344 109.317 119.31C109.362 119.277 109.414 119.253 109.47 119.24C109.525 119.227 109.582 119.226 109.638 119.236C109.694 119.246 109.747 119.267 109.794 119.298C109.84 119.329 109.88 119.37 109.91 119.417C109.941 119.464 109.961 119.517 109.969 119.572C109.977 119.627 109.974 119.683 109.959 119.737L109.413 122.717C109.394 122.808 109.343 122.89 109.269 122.949C109.196 123.008 109.104 123.039 109.009 123.039Z" fill="black"/>
</g>
</svg>
