<svg width="25" height="25" viewBox="0 0 25 25" fill="none" xmlns="http://www.w3.org/2000/svg">
<g id="&#240;&#159;&#166;&#134; icon &#34;notifications active&#34;">
<path id="Vector" d="M12.5026 22.9167C13.6484 22.9167 14.5859 21.9792 14.5859 20.8334H10.4193C10.4193 21.9792 11.3568 22.9167 12.5026 22.9167ZM18.7526 16.6667V11.4584C18.7526 8.2605 17.0547 5.58341 14.0651 4.87508V4.16675C14.0651 3.30216 13.3672 2.60425 12.5026 2.60425C11.638 2.60425 10.9401 3.30216 10.9401 4.16675V4.87508C7.96094 5.58341 6.2526 8.25008 6.2526 11.4584V16.6667L4.16927 18.7501V19.7917H20.8359V18.7501L18.7526 16.6667ZM16.6693 17.7084H8.33594V11.4584C8.33594 8.87508 9.90885 6.77091 12.5026 6.77091C15.0964 6.77091 16.6693 8.87508 16.6693 11.4584V17.7084ZM7.89844 4.25008L6.40885 2.7605C3.90885 4.66675 2.26302 7.60425 2.11719 10.9376H4.20052C4.35677 8.17716 5.77344 5.7605 7.89844 4.25008ZM20.8047 10.9376H22.888C22.7318 7.60425 21.0859 4.66675 18.5964 2.7605L17.1172 4.25008C19.2214 5.7605 20.6484 8.17716 20.8047 10.9376Z" fill="white"/>
</g>
</svg>
