<svg width="42" height="40" viewBox="0 0 42 40" fill="none" xmlns="http://www.w3.org/2000/svg">
<path d="M29.1351 39.9999H12.7449C5.73806 39.9999 3.01318 37.5249 3.01318 31.1607V16.2736C3.01318 15.5106 3.70977 14.8779 4.54977 14.8779H37.3303C38.1703 14.8779 38.8668 15.5106 38.8668 16.2736V31.1607C38.8668 37.5249 36.142 39.9999 29.1351 39.9999ZM6.08635 17.6693V31.1607C6.08635 35.9618 7.45904 37.2086 12.7449 37.2086H29.1351C34.421 37.2086 35.7937 35.9618 35.7937 31.1607V17.6693H6.08635Z" fill="#05FF00"/>
<path d="M36.3659 17.6693H5.63415C2.04878 17.6693 0 15.8084 0 12.5518V10.6909C0 7.43437 2.04878 5.57349 5.63415 5.57349H36.3659C39.8488 5.57349 42 7.52742 42 10.6909V12.5518C42 15.7153 39.8488 17.6693 36.3659 17.6693ZM5.63415 8.36482C3.76976 8.36482 3.07317 8.99752 3.07317 10.6909V12.5518C3.07317 14.2452 3.76976 14.8779 5.63415 14.8779H36.3659C38.1688 14.8779 38.9268 14.1894 38.9268 12.5518V10.6909C38.9268 9.05335 38.1688 8.36482 36.3659 8.36482H5.63415Z" fill="#05FF00"/>
<path d="M20.261 8.36469H8.95177C8.52152 8.36469 8.11177 8.19721 7.82494 7.91808C6.57518 6.67128 6.61616 4.75457 7.92738 3.5636L10.8366 0.921139C12.1888 -0.307047 14.422 -0.307047 15.7742 0.921139L21.3468 5.98275C21.7771 6.37354 21.9205 6.98763 21.6747 7.50868C21.4493 8.02973 20.8961 8.36469 20.261 8.36469ZM10.0786 5.57336H16.5732L13.6025 2.89368C13.4386 2.74481 13.1723 2.74481 13.0084 2.89368L10.0991 5.53614C10.0991 5.55475 10.0786 5.55475 10.0786 5.57336Z" fill="#05FF00"/>
<path d="M33.0269 8.36469H21.7176C21.103 8.36469 20.5294 8.02973 20.304 7.50868C20.0581 6.98763 20.2015 6.39215 20.6318 5.98275L26.2045 0.921139C27.5567 -0.307047 29.7898 -0.307047 31.142 0.921139L34.0513 3.5636C35.3625 4.75457 35.424 6.67128 34.1537 7.91808C33.8669 8.19721 33.4572 8.36469 33.0269 8.36469ZM25.4464 5.57336H31.9411C31.9206 5.55475 31.9206 5.55475 31.9001 5.53614L28.9908 2.89368C28.8269 2.74481 28.5606 2.74481 28.3967 2.89368L25.4464 5.57336Z" fill="#05FF00"/>
<path d="M16.7782 29.1137C16.2046 29.1137 15.6104 28.9835 15.0777 28.7229C13.9099 28.1461 13.1929 27.0481 13.1929 25.8572V16.2736C13.1929 15.5106 13.8895 14.8779 14.7295 14.8779H27.1042C27.9442 14.8779 28.6408 15.5106 28.6408 16.2736V25.8199C28.6408 27.0295 27.9237 28.1274 26.7559 28.6857C25.5881 29.2626 24.1744 29.1882 23.0681 28.5182L21.2447 27.4017C21.0808 27.29 20.8554 27.29 20.671 27.4017L18.7452 28.5555C18.151 28.9276 17.4544 29.1137 16.7782 29.1137ZM16.266 17.6693V25.8386C16.266 26.0805 16.4299 26.1921 16.5324 26.248C16.6348 26.3038 16.8397 26.3596 17.0652 26.2293L18.991 25.0756C20.1998 24.3498 21.7569 24.3498 22.9452 25.0756L24.7686 26.1921C24.994 26.3224 25.1988 26.2666 25.3013 26.2107C25.4037 26.1549 25.5676 26.0433 25.5676 25.8013V17.6507H16.266V17.6693Z" fill="#05FF00"/>
</svg>
