<svg width="51" height="58" viewBox="0 0 51 58" fill="none" xmlns="http://www.w3.org/2000/svg">
<path fill-rule="evenodd" clip-rule="evenodd" d="M17.9981 44.389C17.9981 44.389 15.74 48.3874 15.1896 52.8121C15.0198 54.1784 15.8624 55.4393 17.2206 55.8501C20.1079 56.7238 23.7509 57.1591 26.9366 57.1591C29.3686 57.1591 32.2303 56.9573 34.4974 56.4382C36.0389 56.0857 37.0107 54.6066 36.6879 53.1074C36.4528 52.0167 35.8493 49.8372 35.6435 48.7422C35.6435 48.7422 35.9883 46.6725 35.7779 45.1901C35.5673 43.7072 35.5973 40.0427 36.2591 38.3564C36.9206 36.67 37.8826 31.9595 38.2433 28.3536C38.6043 24.7479 39.5064 22.3053 40.529 20.8511C41.5512 19.3975 34.0143 16.9878 33.0521 17.2207C32.0897 17.4531 30.1214 16.5306 30.1214 16.5306L29.0474 15.7263L27.8948 12.1316C27.8948 12.1316 28.44 11.4509 28.8867 10.4507C28.8867 10.4507 29.4975 10.3671 29.7229 10.0329C29.9484 9.69815 30.4894 7.64865 30.3995 6.97933C30.3544 6.64328 29.9476 6.68222 29.5547 6.80351C29.5652 4.81948 29.1314 1.53611 26.3043 0.466388C22.1543 -1.10389 19.9738 1.79446 19.9738 1.79446C19.9738 1.79446 18.7558 3.43799 18.9664 5.41498C19.1768 7.39253 19.237 7.97394 19.237 7.97394C19.237 7.97394 18.3515 7.47172 18.2762 8.34468C18.2008 9.2167 19.3532 10.9947 19.4434 11.1401C19.5333 11.2853 20.0523 11.0453 20.0523 11.0453C20.0523 11.0453 20.4811 12.2953 20.721 12.5867C20.9623 12.8771 21.0897 12.9357 21.0897 12.9357C21.0897 12.9357 22.007 16.0536 22.007 16.3741C22.007 16.6937 18.5788 18.845 17.8571 19.0197C17.5029 19.1054 16.1412 19.1072 14.5266 19.4993C12.9117 19.8913 13.8093 21.4336 13.8093 21.4336C13.8093 21.4336 14.4034 25.4608 15.0952 27.0018C15.7866 28.5428 17.5907 32.6431 18.9741 34.3006C20.3572 35.958 19.7128 39.1481 19.7128 39.1481L17.9981 44.389Z" fill="#00690B"/>
<path fill-rule="evenodd" clip-rule="evenodd" d="M25.8935 57.1386H25.9048C24.7119 56.1052 24.9085 52.9899 25.1869 52.3289C24.4626 53.6978 24.5492 55.5314 25.1365 56.6935C25.2025 56.8239 25.0755 56.9819 24.938 57.0932C25.2554 57.113 25.5734 57.128 25.8935 57.1386ZM24.6277 23.3454C24.6277 23.3454 23.4843 22.7692 23.1235 23.0092C22.763 23.2495 23.0042 23.6015 23.4854 23.7697C23.967 23.9379 24.1553 24.0713 24.6522 24.3523C24.9485 24.5201 25.4721 24.4771 25.7677 24.3083C26.2628 24.0262 26.286 23.9276 26.7669 23.7577C27.2479 23.5876 27.487 23.2352 27.1263 22.9964C26.7646 22.7571 25.6756 23.2942 25.6756 23.2942C25.3756 23.4148 24.9274 23.4487 24.6277 23.3454ZM23.2547 16.6522C22.9833 16.8501 23.2217 17.1201 23.6112 17.208C24 17.2952 24.1597 17.3824 24.5717 17.5554C24.8172 17.6587 25.1175 17.7293 25.3287 17.573C25.6833 17.3109 25.9552 17.2776 26.3098 17.1036C26.6773 16.9237 26.671 16.7548 26.5432 16.6439C26.4122 16.5309 26.147 16.4827 25.5362 16.8794C24.7963 17.3696 23.6097 16.3929 23.2547 16.6522ZM24.4902 18.2236C24.4902 18.2236 23.4517 17.714 23.1285 17.9333C22.805 18.1533 23.0267 18.4691 23.4634 18.6171C23.9002 18.7648 24.0715 18.8838 24.5228 19.1333C24.792 19.2816 25.265 19.2384 25.5298 19.0841C25.975 18.8245 25.9943 18.7351 26.427 18.5774C26.8597 18.4196 27.0729 18.0993 26.744 17.8862C26.4155 17.6733 25.437 18.1683 25.437 18.1683C25.1676 18.28 24.7629 18.3141 24.4902 18.2236ZM24.5671 19.7946C24.5671 19.7946 23.424 19.2189 23.0633 19.4593C22.7027 19.6993 22.944 20.0507 23.4256 20.2191C23.9068 20.3877 24.0957 20.5214 24.592 20.8024C24.8879 20.9699 25.4123 20.9267 25.7074 20.7581C26.203 20.476 26.2254 20.3771 26.7063 20.2074C27.1872 20.0372 27.4272 19.6846 27.066 19.4461C26.7043 19.2069 25.6154 19.7436 25.6154 19.7436C25.3154 19.8645 24.8672 19.8979 24.5671 19.7946ZM24.6576 21.655C24.6576 21.655 23.5138 21.0787 23.1538 21.3191C22.7929 21.5591 23.0341 21.9107 23.5157 22.0789C23.9969 22.2471 24.1856 22.3812 24.682 22.6618C24.9785 22.8293 25.502 22.7864 25.7976 22.6179C26.2931 22.3354 26.316 22.2367 26.7964 22.0669C27.2772 21.8972 27.5173 21.5444 27.1562 21.3059C26.7945 21.0667 25.7055 21.6034 25.7055 21.6034C25.4059 21.7243 24.9577 21.7579 24.6576 21.655ZM26.9884 41.0595C26.9884 41.0595 25.8772 40.4304 25.5043 40.6535C25.1315 40.8763 25.3536 41.239 25.825 41.4299C27.2214 41.9937 27.3426 42.2234 27.5029 42.204C27.6518 42.186 27.8341 41.9527 29.1028 41.5719C29.592 41.425 29.85 41.084 29.5019 40.8282C29.154 40.5729 28.0382 41.058 28.0382 41.058C27.7325 41.1643 27.2828 41.1767 26.9884 41.0595ZM27.0035 39.4393C27.0035 39.4393 25.8923 38.8106 25.5199 39.0334C25.1467 39.2561 25.3687 39.6192 25.8401 39.8093C26.3117 40.0005 26.4932 40.1424 26.974 40.4462C27.2605 40.6276 27.7864 40.6092 28.0906 40.4549C28.6005 40.1962 28.6285 40.0985 29.118 39.9519C29.6072 39.8043 29.8655 39.4634 29.5174 39.2079C29.1695 38.9525 28.0534 39.4375 28.0534 39.4375C27.7473 39.5441 27.2979 39.5565 27.0035 39.4393ZM27.0517 37.6463C27.0517 37.6463 25.82 37.2617 25.5086 37.5558C25.1971 37.85 25.4984 38.1582 26.0037 38.2468C26.5083 38.3359 26.7183 38.4373 27.259 38.6348C27.5814 38.7524 28.0898 38.6267 28.35 38.4132C28.7869 38.0556 28.7912 37.9551 29.2344 37.7109C29.6772 37.4664 29.8492 37.0807 29.4495 36.903C29.0499 36.7253 28.0746 37.4288 28.0746 37.4288C27.8015 37.5948 27.3658 37.7001 27.0517 37.6463ZM26.5824 35.7723C26.5824 35.7723 25.4385 35.1964 25.0782 35.436C24.7178 35.6767 24.9589 36.0284 25.4403 36.1966C25.9218 36.3648 26.1102 36.4981 26.6069 36.7795C26.9028 36.947 27.4264 36.9037 27.7219 36.7352C28.2175 36.4531 28.2402 36.3542 28.7213 36.1842C29.2021 36.0148 29.4419 35.6621 29.0806 35.4232C28.719 35.184 27.6303 35.7214 27.6303 35.7214C27.3305 35.8416 26.8823 35.8754 26.5824 35.7723ZM26.0406 34.0393C26.0406 34.0393 24.8971 33.4635 24.5372 33.7031C24.1764 33.9435 24.4171 34.2951 24.8992 34.4633C25.3804 34.6319 25.5688 34.7656 26.0655 35.0466C26.3614 35.214 26.8854 35.1708 27.1805 35.0022C27.6765 34.7198 27.6991 34.6209 28.1799 34.4512C28.6607 34.2815 28.9009 33.9288 28.5391 33.6903C28.178 33.4511 27.0889 33.9878 27.0889 33.9878C26.7895 34.1087 26.3405 34.1424 26.0406 34.0393ZM25.6347 32.1794C25.6347 32.1794 24.4913 31.6037 24.131 31.8433C23.7704 32.0837 24.0113 32.4355 24.4932 32.6037C24.974 32.7721 25.163 32.9058 25.6597 33.1866C25.9556 33.3542 26.4792 33.311 26.7747 33.1423C27.2703 32.8604 27.2927 32.7615 27.7737 32.5918C28.2549 32.4219 28.4945 32.0694 28.1333 31.8305C27.772 31.5913 26.683 32.1284 26.683 32.1284C26.3833 32.2489 25.9351 32.2823 25.6347 32.1794ZM25.3494 30.3196C25.3494 30.3196 24.2059 29.7437 23.8454 29.9833C23.485 30.2237 23.7259 30.5757 24.2075 30.7439C24.6887 30.9121 24.8774 31.0458 25.3737 31.3264C25.6697 31.4943 26.194 31.4514 26.4892 31.2829C26.9849 31.0004 27.0074 30.9017 27.4885 30.7319C27.9693 30.5618 28.2087 30.2091 27.8478 29.9706C27.4862 29.7313 26.3975 30.2684 26.3975 30.2684C26.0977 30.3889 25.6495 30.4227 25.3494 30.3196ZM25.0786 28.516C25.0786 28.516 23.9351 27.9405 23.5744 28.1801C23.2142 28.4205 23.4551 28.7721 23.9367 28.9403C24.4183 29.1091 24.6068 29.2423 25.1035 29.5232C25.3994 29.6907 25.9234 29.648 26.2189 29.4793C26.7141 29.1968 26.7366 29.0982 27.2179 28.9286C27.6987 28.7586 27.9387 28.4058 27.5771 28.1675C27.2158 27.9283 26.1269 28.4652 26.1269 28.4652C25.8271 28.5859 25.3789 28.6193 25.0786 28.516ZM24.9884 26.797C24.9884 26.797 23.845 26.2215 23.4846 26.4615C23.1239 26.7011 23.3653 27.0531 23.8465 27.2213C24.3279 27.3899 24.5163 27.5232 25.013 27.8046C25.3093 27.9717 25.8329 27.9287 26.1284 27.7603C26.624 27.4782 26.647 27.3791 27.1274 27.2096C27.6086 27.0396 27.8481 26.6868 27.487 26.4483C27.1259 26.2091 26.0363 26.7462 26.0363 26.7462C25.737 26.8663 25.2884 26.9003 24.9884 26.797ZM24.7027 25.0787C24.7027 25.0787 23.5589 24.5029 23.1987 24.7425C22.8383 24.9825 23.0796 25.3345 23.5608 25.5027C24.0424 25.6709 24.2307 25.8046 24.727 26.0856C25.0235 26.253 25.5473 26.2098 25.8426 26.0416C26.3386 25.7592 26.361 25.6605 26.8418 25.4906C27.3226 25.3209 27.5624 24.9678 27.2012 24.7297C26.8399 24.4904 25.751 25.0275 25.751 25.0275C25.451 25.1477 25.0028 25.1816 24.7027 25.0787ZM18.2422 44.5994L21.3997 46.3729L25.1582 47.2453C25.1582 47.2453 25.1582 46.8093 24.9179 46.5623C24.677 46.315 21.8957 45.1372 21.8957 45.1372L21.039 44.5558L23.2489 45.3412L27.0229 45.7336C27.0229 45.7336 27.2931 45.443 27.0979 45.1372C26.9024 44.8323 24.1965 44.3527 24.1965 44.3527L21.6705 43.4074L21.3846 43.0584L23.9254 43.8874C23.9254 43.8874 26.3012 44.1923 26.5269 44.1051C26.7521 44.0179 26.5565 43.509 26.5565 43.509L23.7748 42.5205L21.7373 41.772V41.4881L22.9028 41.8885L25.5415 42.237C25.5415 42.237 25.9777 42.0916 25.6616 41.6845C25.3461 41.2774 22.8278 40.6524 22.8278 40.6524C22.8278 40.6524 22.5121 40.3765 20.8583 39.5475C20.5053 39.3705 20.1134 39.2403 19.7153 39.1445L18.2422 44.5994Z" fill="#004012"/>
<path fill-rule="evenodd" clip-rule="evenodd" d="M14.4392 19.5211C12.7845 19.9352 10.8826 20.7639 9.52912 22.5092C9.52912 22.5092 4.71761 25.2421 2.61258 28.8482C0.50754 32.4541 -0.815779 33.6169 0.568144 35.3619C1.95111 37.1069 13.3478 40.538 14.0695 40.9453C14.6981 41.2997 15.7096 42.3225 15.9593 42.5794L18.2416 44.6029L19.7147 39.148C18.2465 38.7947 16.6925 38.9114 16.6925 38.9114C16.6925 38.9114 16.3018 38.9696 14.8287 37.8353C13.3547 36.7015 5.98781 32.6885 5.98781 32.6885C5.98781 32.6885 7.46129 32.0195 8.90448 31.1764C10.3482 30.3332 15.097 27.0018 15.097 27.0018C15.097 27.0018 16.0316 25.3315 16.9338 23.0346C17.8359 20.7372 14.4392 19.5211 14.4392 19.5211ZM38.6475 25.6854C39.1017 23.5014 39.784 21.9128 40.5308 20.851C41.5531 19.3974 47.2966 14.8609 48.1384 12.0113C48.9807 9.16175 50.454 7.12578 50.8148 6.10836C51.1755 5.09056 51.2357 2.47355 48.8304 2.41531C46.4244 2.35708 32.9829 7.21332 32.9829 7.21332L31.0887 7.67863C31.0887 7.67863 30.03 7.81272 29.5623 8.24799L29.4489 8.37615L27.6588 10.3381L25.2826 11.5866C25.2826 11.5866 23.9598 11.6755 24.02 12.112C24.0803 12.5484 25.5133 12.332 25.5133 12.332L27.5458 11.6684L25.6761 12.5729C25.6761 12.5729 23.5837 12.8826 23.5237 13.0423C23.4639 13.202 23.4957 13.6973 23.8114 13.6684C24.1273 13.6395 26.7263 13.3333 26.7263 13.3333L28.335 12.8969L26.4105 13.8418C26.4105 13.8418 23.298 14.1766 23.223 14.4965C23.148 14.8166 23.223 15.1215 23.4336 15.1944C23.644 15.2669 26.7714 15.0343 26.7714 15.0343L29.177 14.104L27.1465 15.2765L24.3206 15.7758C24.3206 15.7758 24.1948 16.4408 24.676 16.528C25.1568 16.6152 27.6922 16.3045 27.6922 16.3045L30.6742 15.0697C30.6742 15.0697 32.6632 12.9288 32.8287 12.1C32.9937 11.271 33.1534 11.1005 33.5593 10.7517C33.9651 10.4027 34.0479 10.5844 34.0479 10.5844L41.9412 8.82533C41.9412 8.82533 41.0237 9.78489 40.5876 10.628C40.1519 11.4713 35.8666 12.7793 35.0247 14.6404C33.5543 17.8906 32.5825 17.4035 30.1232 16.5306C30.1232 16.5306 28.1043 18.1927 28.0876 18.8484C27.9998 22.1899 29.7531 31.1069 29.9184 31.2033C30.1165 31.3183 35.4328 33.2245 38.6475 25.6854Z" fill="#0F9645"/>
<path fill-rule="evenodd" clip-rule="evenodd" d="M30.3417 7.8479C30.0594 7.93655 29.7587 8.06619 29.5625 8.24905L29.4492 8.3772L27.659 10.3392L25.4759 11.4862C25.2884 11.5845 24.1868 11.6142 23.9363 11.8423C23.2248 12.4886 25.3672 12.3809 25.5878 12.3087L27.5461 11.6695L25.6764 12.5739C25.6764 12.5739 23.5142 12.9588 23.454 13.1185C23.3941 13.2781 23.377 13.6811 23.6927 13.6522C24.0086 13.6233 26.0897 13.5749 26.0897 13.5749L28.1577 12.9463L27.8969 12.1326C27.8969 12.1326 28.4421 11.4519 28.8892 10.4517C28.8892 10.4517 29.4996 10.3681 29.725 10.0339C29.8841 9.79763 30.2015 8.70472 30.3417 7.8479ZM28.1686 12.9799L26.1156 13.9782C26.1156 13.9782 23.2982 14.1776 23.2232 14.4975C23.1482 14.8176 23.3164 14.9727 23.527 15.0452C23.7374 15.1181 26.5308 14.9979 26.5308 14.9979L28.6009 14.3278L28.1686 12.9799ZM28.6308 14.4209L27.1468 15.2776L24.5019 15.7449C24.3864 15.7651 24.3049 15.861 24.3061 15.9743C24.308 16.1776 24.3667 16.473 24.6762 16.529C25.157 16.6158 27.5775 16.1824 27.5775 16.1824L29.0639 15.7377L29.0495 15.7273L28.6308 14.4209Z" fill="#004012"/>
<path fill-rule="evenodd" clip-rule="evenodd" d="M21.8131 14.832C23.3687 14.832 24.6296 16.0516 24.6296 17.5557C24.6296 19.0603 23.3687 20.2799 21.8131 20.2799C20.2571 20.2799 18.9961 19.0603 18.9961 17.5557C18.9961 16.0516 20.2571 14.832 21.8131 14.832ZM21.8131 12.4209C23.2781 12.4209 24.6053 12.9958 25.5661 13.9246L25.568 13.9265C26.5285 14.8558 27.1232 16.1393 27.1232 17.5557C27.1232 18.9728 26.5285 20.2558 25.568 21.1853L25.5661 21.1868C24.6053 22.1156 23.2781 22.6907 21.8131 22.6907C20.348 22.6907 19.0209 22.1156 18.0597 21.1868L18.0581 21.1853C17.0977 20.2558 16.5029 18.9728 16.5029 17.5557C16.5029 16.1393 17.0977 14.8558 18.0581 13.9265L18.0597 13.9246C19.0209 12.9958 20.348 12.4209 21.8131 12.4209ZM24.9898 14.4839C24.1772 13.6985 23.0539 13.2126 21.8131 13.2126C20.5722 13.2126 19.4489 13.6985 18.636 14.4839C17.8243 15.2695 17.3217 16.3558 17.3217 17.5557C17.3217 18.7562 17.8243 19.8418 18.636 20.628C19.4489 21.4129 20.5722 21.899 21.8131 21.899C23.0539 21.899 24.1772 21.4129 24.9898 20.628C25.8018 19.8418 26.3045 18.7562 26.3045 17.5557C26.3045 16.3558 25.8018 15.2695 24.9898 14.4839Z" fill="#05FF00"/>
<path fill-rule="evenodd" clip-rule="evenodd" d="M14.6664 24.792C14.5868 25.4188 14.7884 26.9847 14.5088 27.4133C15.2238 28.4277 16.0565 29.1631 16.76 30.577C16.0038 28.9737 15.2556 27.3239 14.6664 24.792Z" fill="#004012"/>
<path fill-rule="evenodd" clip-rule="evenodd" d="M29.4502 43.0073C30.5209 43.0073 31.3891 43.8467 31.3891 44.8821C31.3891 45.9175 30.5209 46.7571 29.4502 46.7571C28.3794 46.7571 27.5114 45.9175 27.5114 44.8821C27.5114 43.8467 28.3794 43.0073 29.4502 43.0073ZM29.4502 41.3474C30.4588 41.3474 31.3722 41.7434 32.0337 42.3826C32.7216 43.0477 33.1054 43.9412 33.1054 44.8821C33.1054 45.8574 32.6959 46.7407 32.0349 47.3804C31.3467 48.046 30.4235 48.4167 29.4502 48.4167C28.4419 48.4167 27.5281 48.0208 26.8666 47.3815C26.1787 46.7161 25.7949 45.8233 25.7949 44.8821C25.7949 43.9071 26.2044 43.0234 26.8655 42.3838C27.5532 41.7185 28.4772 41.3474 29.4502 41.3474ZM31.6369 42.7675C31.0775 42.227 30.3046 41.8925 29.4502 41.8925C28.5961 41.8925 27.8229 42.227 27.2636 42.7675C26.7046 43.3085 26.3586 44.0562 26.3586 44.8821C26.3586 45.7083 26.7046 46.4557 27.2636 46.9967C27.8229 47.5375 28.5961 47.8717 29.4502 47.8717C30.3046 47.8717 31.0775 47.5375 31.6369 46.9967C32.1961 46.4557 32.5417 45.7083 32.5417 44.8821C32.5417 44.0562 32.1961 43.3085 31.6369 42.7675Z" fill="#05FF00"/>
<path d="M41.9397 8.82931C42.3599 8.85027 44.2085 8.4608 45.3454 7.69727L46.4635 6.94653C44.9935 8.44244 43.7122 9.05872 41.4961 9.33023C41.7469 9.0309 41.9397 8.82931 41.9397 8.82931Z" fill="#ED4C54"/>
</svg>
