<svg width="186" height="168" viewBox="0 0 186 168" fill="none" xmlns="http://www.w3.org/2000/svg">
<g clip-path="url(#clip0_3523_3485)">
<path d="M165.517 3.55884H20.4769C15.9588 3.55884 12.2969 6.87094 12.2969 10.9518V35.5324H173.702V10.9518C173.702 6.87061 170.035 3.55884 165.517 3.55884ZM53.8236 18.3494C51.661 18.3494 49.906 16.7643 49.906 14.8109C49.906 12.8576 51.661 11.2724 53.8236 11.2724C55.9863 11.2724 57.7413 12.8576 57.7413 14.8109C57.7413 16.7643 55.9859 18.3494 53.8236 18.3494ZM133.199 18.3494C131.037 18.3494 129.282 16.7643 129.282 14.8109C129.282 12.8576 131.037 11.2724 133.199 11.2724C135.362 11.2724 137.117 12.8576 137.117 14.8109C137.117 16.7643 135.362 18.3494 133.199 18.3494Z" fill="#E6E6E6"/>
<path d="M185.82 37.2497L173.441 95.5589L178.497 156.194C178.868 160.643 174.971 164.441 170.025 164.441H15.9698C11.0285 164.441 7.12644 160.643 7.49735 156.194L12.559 95.5589L0.1794 37.2497C-0.985282 31.7674 3.66872 26.6765 9.85324 26.6765H176.142C182.332 26.6765 186.985 31.7674 185.82 37.2497Z" fill="#038500"/>
<path d="M170.024 164.441H15.9695C11.0282 164.441 7.12616 160.643 7.49708 156.194L12.5587 95.5588H101.358H173.441L178.497 156.194C178.868 160.643 174.971 164.441 170.024 164.441Z" fill="#04C600"/>
<g filter="url(#filter0_d_3523_3485)">
<path d="M50.2148 24.3516H134.59V39H65.6445L63.3008 82.1641C70.918 80.7318 78.9258 80.0156 87.3242 80.0156C122.48 80.0156 140.059 93.362 140.059 120.055C140.059 150.003 121.829 164.977 85.3711 164.977C73.0013 164.977 60.306 163.023 47.2852 159.117V143.492C60.306 148.049 73.3268 150.328 86.3477 150.328C110.111 150.328 121.992 140.237 121.992 120.055C121.992 103.128 110.436 94.6641 87.3242 94.6641C72.6758 94.6641 59.3294 95.9661 47.2852 98.5703L50.2148 24.3516Z" fill="white"/>
</g>
</g>
<defs>
<filter id="filter0_d_3523_3485" x="43.2852" y="24.3516" width="100.773" height="148.625" filterUnits="userSpaceOnUse" color-interpolation-filters="sRGB">
<feFlood flood-opacity="0" result="BackgroundImageFix"/>
<feColorMatrix in="SourceAlpha" type="matrix" values="0 0 0 0 0 0 0 0 0 0 0 0 0 0 0 0 0 0 127 0" result="hardAlpha"/>
<feOffset dy="4"/>
<feGaussianBlur stdDeviation="2"/>
<feComposite in2="hardAlpha" operator="out"/>
<feColorMatrix type="matrix" values="0 0 0 0 0 0 0 0 0 0 0 0 0 0 0 0 0 0 0.25 0"/>
<feBlend mode="normal" in2="BackgroundImageFix" result="effect1_dropShadow_3523_3485"/>
<feBlend mode="normal" in="SourceGraphic" in2="effect1_dropShadow_3523_3485" result="shape"/>
</filter>
<clipPath id="clip0_3523_3485">
<rect width="186" height="168" fill="white"/>
</clipPath>
</defs>
</svg>
