<svg width="41" height="32" viewBox="0 0 41 32" fill="none" xmlns="http://www.w3.org/2000/svg">
<path d="M37.1523 0H4.65234C2.58125 0 0.902344 1.79083 0.902344 4V28C0.902344 30.2092 2.58125 32 4.65234 32H37.1523C39.2234 32 40.9023 30.2092 40.9023 28V4C40.9023 1.79083 39.2234 0 37.1523 0ZM14.6523 6.66667C17.6727 6.66667 20.1211 9.27833 20.1211 12.5C20.1211 15.7217 17.6727 18.3333 14.6523 18.3333C11.632 18.3333 9.18359 15.7217 9.18359 12.5C9.18359 9.27833 11.632 6.66667 14.6523 6.66667ZM23.4023 23.5833C23.4023 24.5498 22.6678 25.3333 21.7617 25.3333H7.54297C6.63688 25.3333 5.90234 24.5498 5.90234 23.5833V22.2327C5.90234 20.6268 6.92703 19.2267 8.38773 18.8372L10.8252 18.1873C12.8146 19.7136 15.9186 20.152 18.4795 18.1873L20.917 18.8372C22.3777 19.2267 23.4023 20.6267 23.4023 22.2327V23.5833ZM35.9023 20.3333C35.9023 20.8856 35.4826 21.3333 34.9648 21.3333H26.8398C26.3221 21.3333 25.9023 20.8856 25.9023 20.3333V19.6667C25.9023 19.1144 26.3221 18.6667 26.8398 18.6667H34.9648C35.4826 18.6667 35.9023 19.1144 35.9023 19.6667V20.3333ZM35.9023 15C35.9023 15.5523 35.4826 16 34.9648 16H26.8398C26.3221 16 25.9023 15.5523 25.9023 15V14.3333C25.9023 13.7811 26.3221 13.3333 26.8398 13.3333H34.9648C35.4826 13.3333 35.9023 13.7811 35.9023 14.3333V15ZM35.9023 9.66667C35.9023 10.2189 35.4826 10.6667 34.9648 10.6667H26.8398C26.3221 10.6667 25.9023 10.2189 25.9023 9.66667V9C25.9023 8.44775 26.3221 8 26.8398 8H34.9648C35.4826 8 35.9023 8.44775 35.9023 9V9.66667Z" fill="white"/>
</svg>
